<svg xmlns="http://www.w3.org/2000/svg" viewBox="0 0 500 600.74"><defs><style>.cls-1{fill:#fff;}</style></defs><g id="Layer_2" data-name="Layer 2"><g id="Layer_1-2" data-name="Layer 1"><path class="cls-1" d="M207.46,362.5l-1.76,2.27c7.24,4.39,13.19,10.29,19.44,15.77,12.58,11,24.09,23,32.82,37.45,4.33,7.15,8.38,14.55,8.31,23.19-.14,20.16-6.46,37.87-21.62,51.77-9.73,8.91-21.45,14-34.17,16.93a81.18,81.18,0,0,1-21.6,2.41c.92-1.54,2.32-1.87,3.65-2.36,11-4.13,21.76-8.78,30.73-16.72,7.28-6.43,12.1-14.13,12.82-24.06.48-6.71-1.72-12.77-4.58-18.6a68.63,68.63,0,0,0-10.3-15c-13.93-15.8-30.56-28.31-48.17-39.62-18.44-11.85-35.94-24.92-51.24-40.67-13.28-13.66-25-28.52-32.65-46.19-5.79-13.37-8.48-27.22-5.38-41.71,2.47-11.55,9-20.57,18.12-27.88C111.71,231.58,123,226.59,135,223c2.36-.7,3.19-1.81,2.78-4.15-1.24-7.07-2.37-14.16-3.23-21.29a167.08,167.08,0,0,1-.68-31.06,144.76,144.76,0,0,1,8.28-39.64,150,150,0,0,1,29.69-49.33c14.32-16,31.26-28.74,50.08-39a228.71,228.71,0,0,1,67.52-23.78,224.15,224.15,0,0,1,47.38-3.46c1.65,0,3.3.31,4.91.48.43,2.56-1.35,2.66-2.84,2.94-9.34,1.77-18.7,3.52-27.88,6-31.4,8.58-60.73,21.35-85.82,42.61-25.3,21.45-42.13,48.09-48.83,80.8-2.69,13.14-2.84,26.4-1.87,39.75a176.33,176.33,0,0,0,6.78,35.74c1.83,6.41,6.29,10.72,11.42,14.54,4,3,8.2,5.75,11.9,9.19,5.88,5.46,8.06,12.5,8.51,20.1,1.06,18.08-6.23,33.27-17.87,46.33-7.44,8.34-23.15,7.45-28.66-3.92-5.9-12.16-12.11-24.2-20.31-35.06-4.7-6.23-9.73-12.12-16.25-16.58a21.57,21.57,0,0,0-6.6-3c-4.92-1.33-9.7,3.51-10,9.7-.42,8.5,2.08,16.27,5.63,23.77,7.77,16.43,20,29.15,34.21,40,14.7,11.22,29.7,22,44.56,33.05a5,5,0,0,0,3.7,1.36c-.24.87.26,1,1,1.33C204.1,361.2,206,361.3,207.46,362.5Z"/><path class="cls-1" d="M258,44.1c1.42,1.29.6,2.18-.42,3.17a115.89,115.89,0,0,0-14.47,16c-14.82,20.58-13.83,40.8.3,61.52,8.85,13,20.67,22.92,33.3,32,13.36,9.63,26.68,19.32,37.88,31.56,14,15.37,24.11,32.82,27.22,53.61,2.71,18.07-1.43,35-10.39,50.8-14.08,24.76-35.83,40.39-61.68,50.8a145.38,145.38,0,0,1-58.32,10.13,126.21,126.21,0,0,1-13.85-1.18c-3.1-.43-5.36-2.75-7.85-4.49-14-9.75-28.24-19-41.14-30.26-10.62-9.24-20.51-19.14-27-31.83a45,45,0,0,1-4.31-29.8c2.09,1.82,2.77,4.19,3.68,6.33,6.94,16.34,16.18,31.17,29.52,43,14.25,12.63,30.38,22.06,49.39,25.55,10.64,1.95,20.79.44,29.66-6.33,9.69-7.39,12.55-20.37,7.25-31.55-2.77-5.84-6.88-10.53-11.57-14.82-6.32-5.77-9.86-12.83-9-21.49.81-8,4.74-14.48,10.55-19.89,16.12-15,40.06-14.69,56.62-1.77,9.73,7.6,14.57,18.33,16.43,30.46,2.61,17.05-3.47,31.31-14,44.21A34.68,34.68,0,0,0,280,319.1a68.22,68.22,0,0,0,12.24-11.79c7.93-9.63,13.14-20.56,14.44-33.05,1.17-11.33-1.24-22.1-6.21-32.3-7.07-14.46-17.74-25.94-30-36.19-10.66-9-22.94-15.59-34-23.92-13.13-9.86-23.29-22.1-28.42-37.94-5.72-17.65-4-35,3.24-51.84,7.55-17.64,19.17-31.95,35.47-42.29A82,82,0,0,1,258,44.1Z"/><path class="cls-1" d="M207.46,362.5c-1.45-1.2-3.36-1.3-5-2-.71-.31-1.21-.46-1-1.33,1.06-1.4,2.5-1.61,4.14-1.5,25.26,1.57,50-1.24,73.87-9.76,23-8.2,43.75-20,60.32-38.27,11.36-12.53,19.36-26.85,22.35-43.68,3.15-17.7-.09-34.43-8-50.36-8.92-17.94-22-32.53-37-45.62-10.41-9.09-22.33-16.16-33.07-24.8-14.07-11.32-27-23.68-35.2-40.12-9.65-19.36-6.27-39.05,8.92-54.47,10.8-11,23.86-18.14,38.11-23.42,2-.72,3.73-2.81,5.3-2.76,2.61.08,4.64-1,6.88-1.65A198.87,198.87,0,0,1,345.53,16c.49,0,1,0,1.68,0-1.08,2.6-3.35,3.28-5.51,4.16C328.77,25.44,316,31,304.8,39.56c-6.06,4.61-11.69,9.72-15.48,16.47-6.63,11.78-4.15,23,2.69,33.64,8,12.39,19,21.8,30.64,30.54,13.39,10,27.71,18.78,40.44,29.7,16.91,14.51,30.62,31.45,39,52.28a99.4,99.4,0,0,1,7,47.43c-2.31,23.75-12,44.15-27.26,62.18-19.36,22.93-44.24,37.33-72.33,46.81-2.88,1-6.29.8-8.52,3.44a.25.25,0,0,1-.38.16c-4.53-.53-8.77,1-13.1,1.8a190.06,190.06,0,0,1-43.65,3.06,321.09,321.09,0,0,1-34.61-3.73A3.56,3.56,0,0,1,207.46,362.5Z"/><path class="cls-1" d="M83.55,302.51c-8.3-14.92-13.13-30.91-15.83-47.61a170.12,170.12,0,0,1-1.81-30.67,181.53,181.53,0,0,1,6.25-42.82A222.55,222.55,0,0,1,105.59,110,234.25,234.25,0,0,1,199.48,31.2a219.57,219.57,0,0,1,54.05-16.79,188,188,0,0,1,35.6-3.1c1,0,2.46-.65,3,1.34-3.6,1.29-7.41,1.46-11.08,2a204.72,204.72,0,0,0-48.43,14.06,180.71,180.71,0,0,0-59.29,40.59A186.84,186.84,0,0,0,134,129.82a194.87,194.87,0,0,0-12.71,48.81,232.59,232.59,0,0,0-1.55,42c.17,3-.94,4.43-3.52,5.8-10.25,5.47-19.6,12.12-26.35,21.85-7.26,10.47-9.78,22.12-8.67,34.7C81.76,289.51,82.65,296,83.55,302.51Z"/><path class="cls-1" d="M97.3,332.55a224.43,224.43,0,0,1-29.76-19.07,167,167,0,0,1-41.19-44.12,171.4,171.4,0,0,1-24.6-64c-5.44-32.08,2.17-61.48,17.77-89.25,17.39-31,41.7-55.42,71.56-74.44,28.25-18,59-29.61,91.88-35.76A323.28,323.28,0,0,1,256,.25C274.11,1,292.1,3.25,310,6c1.81.27,1.81.28,1.41,2.52C295.79,8,280.18,6,264.47,6.28c-23.7.41-47.19,2.6-70.41,7.73a287.51,287.51,0,0,0-69.74,24.83C94.14,54.33,67.73,74.6,47.08,101.76,34.82,117.88,25,135.41,20,155.24a129.66,129.66,0,0,0-2.84,46.08,154.21,154.21,0,0,0,11.25,44.61c6.82,15.94,16.18,30.28,27.08,43.65A287.16,287.16,0,0,0,86.68,322c3.75,3.36,7.76,6.42,11.21,10.11Z"/><path class="cls-1" d="M300.65,362.21a.25.25,0,0,0,.38-.16,193.3,193.3,0,0,0,21.3-6.56,382.28,382.28,0,0,0,42.81-17.73A293.72,293.72,0,0,0,426,298.71c15.64-13.17,29.37-28,40.12-45.55,9.78-15.91,16.54-33,18.82-51.54,3-24.64-.9-48.4-10.29-71.34-11.65-28.45-30.89-50.93-54.56-70-20.53-16.53-43.31-29.33-67-40.62-1.56-.74-2.93-1.51-3.37-3.59a237.65,237.65,0,0,1,39.05,15.4c24.05,12,45.9,27.15,64.61,46.56,18.17,18.85,32.18,40.32,40.09,65.49,4.95,15.73,7.43,31.85,6.29,48.32-1.88,27-11,51.66-26.3,74-18.13,26.45-42,46.53-69.59,62.48C374.92,345,343.68,355.49,311,362c-4.8,1-9.65,1.7-14.59,2.2Z"/><path class="cls-1" d="M97.89,332.14l.69.91.09-.06c-.72.69-1-.07-1.37-.44Z"/><path class="cls-1" d="M98.58,333.05l.4.42c-.09,0-.19.08-.25,0-.28-.13-.3-.32-.06-.53Z"/><path class="cls-1" d="M46.83,557.83a3.65,3.65,0,0,0,1.18.79,3.59,3.59,0,0,0,1.46.29,3.51,3.51,0,0,0,1.45-.29,3.66,3.66,0,0,0,2-2,3.68,3.68,0,0,0,.29-1.45,3.76,3.76,0,0,0-1.08-2.65,4.37,4.37,0,0,0-1.17-.81,3.52,3.52,0,0,0-1.45-.3,3.6,3.6,0,0,0-1.46.3,4.27,4.27,0,0,0-1.18.81,3.8,3.8,0,0,0-.81,1.19,3.57,3.57,0,0,0-.3,1.46,3.52,3.52,0,0,0,.3,1.45A3.8,3.8,0,0,0,46.83,557.83Z"/><path class="cls-1" d="M37.93,557.83a3.76,3.76,0,0,0,2.65,1.08,3.51,3.51,0,0,0,1.45-.29,3.61,3.61,0,0,0,2-2,3.51,3.51,0,0,0,.29-1.45,3.76,3.76,0,0,0-1.08-2.65,4.17,4.17,0,0,0-1.19-.81,3.52,3.52,0,0,0-1.45-.3,3.57,3.57,0,0,0-1.46.3,4.17,4.17,0,0,0-1.19.81,3.76,3.76,0,0,0-1.08,2.65,3.68,3.68,0,0,0,.29,1.45A3.75,3.75,0,0,0,37.93,557.83Z"/><path class="cls-1" d="M76.33,594.37a3.86,3.86,0,0,0-1.19-.79,3.82,3.82,0,0,0-2.92,0,3.82,3.82,0,0,0-1.18.79,3.78,3.78,0,0,0-.8,1.19A3.72,3.72,0,0,0,70,597a3.67,3.67,0,0,0,.28,1.45,3.78,3.78,0,0,0,.8,1.19,3.65,3.65,0,0,0,1.18.79,3.82,3.82,0,0,0,2.92,0,3.69,3.69,0,0,0,1.19-.79,3.75,3.75,0,0,0,.79-1.19,3.68,3.68,0,0,0,.29-1.45,3.76,3.76,0,0,0-1.08-2.65Z"/><path class="cls-1" d="M67.43,594.37a3.76,3.76,0,0,0-2.65-1.08,3.68,3.68,0,0,0-1.45.29,3.75,3.75,0,0,0-1.19.79A3.76,3.76,0,0,0,61.06,597a3.51,3.51,0,0,0,.29,1.45,3.61,3.61,0,0,0,2,2,3.51,3.51,0,0,0,1.45.29,3.76,3.76,0,0,0,2.65-1.08,4.17,4.17,0,0,0,.81-1.19,3.52,3.52,0,0,0,.3-1.45,3.57,3.57,0,0,0-.3-1.46A4.17,4.17,0,0,0,67.43,594.37Z"/><path class="cls-1" d="M89.34,580.84a2.08,2.08,0,0,1-.67,1.57,2.15,2.15,0,0,1-1.58.65H77.47V561.71H70.1v21.35h-12V575a12.26,12.26,0,0,0-1-5.06,13.26,13.26,0,0,0-2.8-4.2,13.46,13.46,0,0,0-4.17-2.88,12.65,12.65,0,0,0-10.16,0,13.37,13.37,0,0,0-4.16,2.86,13.51,13.51,0,0,0-2.8,4.23,13.29,13.29,0,0,0-1,5.2v5.84a9.15,9.15,0,0,0,.75,3.69,9.45,9.45,0,0,0,2,3,9.86,9.86,0,0,0,3,2,9.24,9.24,0,0,0,3.7.75h4.33v-7.37H41.53a2.12,2.12,0,0,1-2.17-2.13v-5.84a6.1,6.1,0,0,1,.45-2.34A6.16,6.16,0,0,1,41,570.84a5.64,5.64,0,0,1,1.81-1.27,5.35,5.35,0,0,1,2.22-.46,5.43,5.43,0,0,1,2.23.46,5.93,5.93,0,0,1,1.82,1.26,5.87,5.87,0,0,1,1.23,1.85,5.81,5.81,0,0,1,.44,2.24v15.51H87.09a9.43,9.43,0,0,0,3.74-.75,9.7,9.7,0,0,0,3-2,9.92,9.92,0,0,0,2.07-3,9.24,9.24,0,0,0,.77-3.74V561.71H89.34Z"/><path class="cls-1" d="M92.76,554.41a1.76,1.76,0,0,1-.36-.53,4.06,4.06,0,0,1-.32-1.57,1.92,1.92,0,0,1,.45-1.22,1.81,1.81,0,0,1,1.43-.58h2.28v-2.75H93.9a5.5,5.5,0,0,0-2.11.42,3.9,3.9,0,0,0-1.4,1,4.19,4.19,0,0,0-.78,1.44,5.88,5.88,0,0,0-.24,1.68,6.14,6.14,0,0,0,.46,2.31l-1.42,0v2.74h8.9v-2.74h-4.1A.7.7,0,0,1,92.76,554.41Z"/><path class="cls-1" d="M132.37,557.83a3.75,3.75,0,0,0,5.28,0,3.8,3.8,0,0,0,.81-1.19,3.37,3.37,0,0,0,.31-1.45,3.42,3.42,0,0,0-.31-1.46,3.8,3.8,0,0,0-.81-1.19,4.12,4.12,0,0,0-1.18-.81,3.7,3.7,0,0,0-2.92,0,4.12,4.12,0,0,0-1.18.81,3.78,3.78,0,0,0-.8,1.19,3.73,3.73,0,0,0-.29,1.46,3.68,3.68,0,0,0,.29,1.45A3.78,3.78,0,0,0,132.37,557.83Z"/><path class="cls-1" d="M169.08,557.83a3.69,3.69,0,0,0,1.19.79,3.56,3.56,0,0,0,1.46.29,3.43,3.43,0,0,0,1.44-.29,3.51,3.51,0,0,0,1.17-.79,3.78,3.78,0,0,0,.8-1.19,3.68,3.68,0,0,0,.29-1.45,3.73,3.73,0,0,0-.29-1.46,3.78,3.78,0,0,0-.8-1.19,4.07,4.07,0,0,0-1.17-.81,3.44,3.44,0,0,0-1.44-.3,3.57,3.57,0,0,0-1.46.3,4.32,4.32,0,0,0-1.19.81,4,4,0,0,0-.8,1.19,3.42,3.42,0,0,0-.31,1.46,3.37,3.37,0,0,0,.31,1.45A4,4,0,0,0,169.08,557.83Z"/><path class="cls-1" d="M193.45,580.87a2.13,2.13,0,0,1-.65,1.56,2.21,2.21,0,0,1-1.6.63h-6.5v-8.55a12.23,12.23,0,0,0-1-5,13,13,0,0,0-2.78-4.07,13.34,13.34,0,0,0-4.12-2.73,13.06,13.06,0,0,0-14.17,2.7,12.64,12.64,0,0,0-2.77,4.1,12.89,12.89,0,0,0-1,5.15v8.4h-8.3v-7.88a17.43,17.43,0,0,0-1-6.26,11.17,11.17,0,0,0-2.66-4.16,9.92,9.92,0,0,0-3.9-2.32,15.26,15.26,0,0,0-4.73-.73,18.27,18.27,0,0,0-5.82,1,25,25,0,0,0-5.51,2.64v-3.64h-7.39v21.35H113a2.2,2.2,0,0,1-1.58-.63,2.13,2.13,0,0,1-.65-1.56V551.43h-7.39v29.44a9.16,9.16,0,0,0,.76,3.71,9.92,9.92,0,0,0,2.07,3,9.74,9.74,0,0,0,3.05,2,9.36,9.36,0,0,0,3.74.75h78.2a9.39,9.39,0,0,0,3.74-.75,10,10,0,0,0,3.06-2,9.58,9.58,0,0,0,2.07-3,9.32,9.32,0,0,0,.75-3.71V551.43h-7.37Zm-50.32,2.19H126.92v-6.93a3.94,3.94,0,0,1,1.06-2.56,10.7,10.7,0,0,1,2.7-2.25,15.88,15.88,0,0,1,3.65-1.6,13.37,13.37,0,0,1,3.92-.61,5.51,5.51,0,0,1,1.86.32,3.93,3.93,0,0,1,1.56,1,5.1,5.1,0,0,1,1.07,1.88,8.91,8.91,0,0,1,.39,2.83Zm34.2,0H166.15v-8.4a5.54,5.54,0,0,1,.44-2.2,5.32,5.32,0,0,1,1.19-1.76,5.85,5.85,0,0,1,1.78-1.19,5.78,5.78,0,0,1,4.35,0,5.48,5.48,0,0,1,1.78,1.16,5.39,5.39,0,0,1,1.19,1.73,5.07,5.07,0,0,1,.45,2.12Z"/><rect class="cls-1" x="206.88" y="551.43" width="7.37" height="39"/><path class="cls-1" d="M274.05,580.87a2.13,2.13,0,0,1-.65,1.56,2.21,2.21,0,0,1-1.6.63h-6.71a13.31,13.31,0,0,0,.18-2.22v-5.92a12.8,12.8,0,0,0-1-5.12,13.7,13.7,0,0,0-2.77-4.2,13.13,13.13,0,0,0-4.1-2.85,12.33,12.33,0,0,0-5-1,12.14,12.14,0,0,0-4.88,1,13.43,13.43,0,0,0-6.84,6.66,12.64,12.64,0,0,0-1.22,4.77,12.88,12.88,0,0,0-4.46,1.28,9.59,9.59,0,0,0-3,2.43,9.35,9.35,0,0,0-1.7,3.34,14.22,14.22,0,0,0-.53,3.95v15.54h7.36V585.14a4.25,4.25,0,0,1,.52-2.08,3.1,3.1,0,0,1,1.82-1.35,12.65,12.65,0,0,0,1.23,4.76,13.81,13.81,0,0,0,2.82,3.95,13.24,13.24,0,0,0,4,2.67,12.3,12.3,0,0,0,4.86,1,12.58,12.58,0,0,0,4.9-.94,12.08,12.08,0,0,0,4-2.7H271.8a9.43,9.43,0,0,0,3.74-.75,10,10,0,0,0,3.06-2,9.55,9.55,0,0,0,2.06-3,9.16,9.16,0,0,0,.76-3.71V551.43h-7.37Zm-16.15,0a6,6,0,0,1-.43,2.28,5.68,5.68,0,0,1-3,3.09,5.12,5.12,0,0,1-2.17.46,5.23,5.23,0,0,1-2.18-.46,5.67,5.67,0,0,1-1.79-1.27,6,6,0,0,1-1.2-1.85,5.67,5.67,0,0,1-.43-2.22v-6a5.73,5.73,0,0,1,.43-2.21,6,6,0,0,1,1.2-1.87,5.67,5.67,0,0,1,1.79-1.27,5.23,5.23,0,0,1,2.18-.46,5.12,5.12,0,0,1,2.17.46,5.78,5.78,0,0,1,1.76,1.24,5.85,5.85,0,0,1,1.62,4.11Z"/><path class="cls-1" d="M338.5,580.87a2.13,2.13,0,0,1-.65,1.56,2.21,2.21,0,0,1-1.6.63H326.13a21.51,21.51,0,0,0,1.52-2.44,17.5,17.5,0,0,0,1.2-2.79,19.83,19.83,0,0,0,.69-2.65,13.92,13.92,0,0,0,.26-2.72,12.82,12.82,0,0,0-.65-4.14,8.41,8.41,0,0,0-2.16-3.43,10.64,10.64,0,0,0-4-2.32,22.31,22.31,0,0,0-12.2,0,10.64,10.64,0,0,0-4,2.3,8.27,8.27,0,0,0-2.16,3.39,12.64,12.64,0,0,0-.65,4.11,15.15,15.15,0,0,0,.27,2.83,16.84,16.84,0,0,0,.77,2.74v0a21,21,0,0,0,1.24,2.75,22.43,22.43,0,0,0,1.53,2.42H297.1a2.17,2.17,0,0,1-1.57-.63,2.09,2.09,0,0,1-.65-1.56V551.43h-7.4v29.44a9.17,9.17,0,0,0,.77,3.71,10.07,10.07,0,0,0,2.06,3,9.86,9.86,0,0,0,3.05,2,9.39,9.39,0,0,0,3.74.75h39.15a9.43,9.43,0,0,0,3.74-.75,10,10,0,0,0,3.06-2,9.72,9.72,0,0,0,2.06-3,9.32,9.32,0,0,0,.75-3.71V551.43H338.5Zm-16.64-5.4a12,12,0,0,1-.95,2.09,19.32,19.32,0,0,1-1.25,1.89,17.64,17.64,0,0,1-1.37,1.65c-.47.5-.91.93-1.31,1.3q-.62-.55-1.32-1.29a20.33,20.33,0,0,1-1.38-1.61,19.24,19.24,0,0,1-1.28-1.87,12.42,12.42,0,0,1-1-2.08,8.77,8.77,0,0,1-.48-1.63,9.18,9.18,0,0,1-.16-1.57,2.83,2.83,0,0,1,.28-1.26,2.49,2.49,0,0,1,.92-1,5.25,5.25,0,0,1,1.71-.69,11.09,11.09,0,0,1,2.58-.26,10.91,10.91,0,0,1,2.63.27,5.52,5.52,0,0,1,1.72.73,2.74,2.74,0,0,1,.94,1,3,3,0,0,1,.29,1.3A9.32,9.32,0,0,1,321.86,575.47Z"/><rect class="cls-1" x="351.93" y="551.43" width="7.37" height="39"/><path class="cls-1" d="M389.5,557.83a3.65,3.65,0,0,0,1.18.79,3.59,3.59,0,0,0,1.46.29,3.51,3.51,0,0,0,1.45-.29,3.66,3.66,0,0,0,2-2,3.68,3.68,0,0,0,.29-1.45,3.76,3.76,0,0,0-1.08-2.65,4.37,4.37,0,0,0-1.17-.81,3.52,3.52,0,0,0-1.45-.3,3.6,3.6,0,0,0-1.46.3,4.27,4.27,0,0,0-1.18.81,3.8,3.8,0,0,0-.81,1.19,3.57,3.57,0,0,0-.3,1.46,3.52,3.52,0,0,0,.3,1.45A3.8,3.8,0,0,0,389.5,557.83Z"/><path class="cls-1" d="M380.6,557.83a3.76,3.76,0,0,0,2.65,1.08,3.51,3.51,0,0,0,1.45-.29,3.61,3.61,0,0,0,2-2,3.51,3.51,0,0,0,.29-1.45,3.76,3.76,0,0,0-1.08-2.65,4.17,4.17,0,0,0-1.19-.81,3.52,3.52,0,0,0-1.45-.3,3.57,3.57,0,0,0-1.46.3,4.17,4.17,0,0,0-1.19.81,3.76,3.76,0,0,0-1.08,2.65,3.68,3.68,0,0,0,.29,1.45A3.75,3.75,0,0,0,380.6,557.83Z"/><path class="cls-1" d="M396.85,565.61a13.28,13.28,0,0,0-4.13-2.84,12.26,12.26,0,0,0-5-1.06,12.39,12.39,0,0,0-5,1,13.1,13.1,0,0,0-4.1,2.84,13.47,13.47,0,0,0-2.77,4.2,13,13,0,0,0-1,5.16v5.92a10.15,10.15,0,0,0,.74,3.93,8.79,8.79,0,0,0,5.05,5,10.51,10.51,0,0,0,3.8.68h6.71a10.14,10.14,0,0,0,3.74-.69,9.46,9.46,0,0,0,3.06-2,9.18,9.18,0,0,0,2.06-3,10,10,0,0,0,.76-3.94v-5.95a12.69,12.69,0,0,0-1-5A13.43,13.43,0,0,0,396.85,565.61Zm-3.58,15.17a2.17,2.17,0,0,1-2.22,2.25h-6.71a2.2,2.2,0,0,1-1.56-.59,2,2,0,0,1-.63-1.57V575a5.88,5.88,0,0,1,.43-2.27,5.76,5.76,0,0,1,1.19-1.85,5.56,5.56,0,0,1,1.76-1.26,5.32,5.32,0,0,1,4.33,0,5.87,5.87,0,0,1,1.78,1.24,5.77,5.77,0,0,1,1.2,1.82,5.68,5.68,0,0,1,.43,2.2Z"/><path class="cls-1" d="M425.49,557.83a3.69,3.69,0,0,0,1.19.79,3.82,3.82,0,0,0,2.92,0,3.65,3.65,0,0,0,1.18-.79,3.78,3.78,0,0,0,.8-1.19,3.67,3.67,0,0,0,.28-1.45,3.72,3.72,0,0,0-.28-1.46,3.78,3.78,0,0,0-.8-1.19,4.27,4.27,0,0,0-1.18-.81,3.7,3.7,0,0,0-2.92,0,4.32,4.32,0,0,0-1.19.81,3.76,3.76,0,0,0-1.08,2.65,3.68,3.68,0,0,0,.29,1.45A3.75,3.75,0,0,0,425.49,557.83Z"/><path class="cls-1" d="M467,569.51a12.77,12.77,0,0,0-2.77-4.07,13.34,13.34,0,0,0-4.12-2.73,12.88,12.88,0,0,0-5-1,12.7,12.7,0,0,0-5,1,13,13,0,0,0-4.11,2.71,12.8,12.8,0,0,0-2.77,4.1,13.07,13.07,0,0,0-1,5.15v8.4h-8.32V561.71h-7.37v21.35H416.38a2.16,2.16,0,0,1-1.57-.63,2.09,2.09,0,0,1-.65-1.56V551.43h-7.4v29.44a9.17,9.17,0,0,0,.77,3.71,10.07,10.07,0,0,0,2.06,3,9.74,9.74,0,0,0,3.05,2,9.36,9.36,0,0,0,3.74.75h42a10.07,10.07,0,0,0,3.74-.69,9.68,9.68,0,0,0,3.07-2,9.08,9.08,0,0,0,2.06-3,10.16,10.16,0,0,0,.75-4v-6.27A12.38,12.38,0,0,0,467,569.51Zm-6.35,11.27a2.2,2.2,0,0,1-.65,1.66,2.23,2.23,0,0,1-1.61.62h-8.89v-8.4a5.43,5.43,0,0,1,1.63-4,5.8,5.8,0,0,1,1.77-1.19,5.78,5.78,0,0,1,4.35,0,5.42,5.42,0,0,1,1.79,1.16,5.27,5.27,0,0,1,1.2,1.73,4.89,4.89,0,0,1,.41,2.12Z"/><path class="cls-1" d="M456.92,557.83a3.69,3.69,0,0,0,1.19.79,3.82,3.82,0,0,0,2.92,0,3.65,3.65,0,0,0,1.18-.79,3.78,3.78,0,0,0,.8-1.19,3.67,3.67,0,0,0,.28-1.45,3.72,3.72,0,0,0-.28-1.46,3.78,3.78,0,0,0-.8-1.19,4.27,4.27,0,0,0-1.18-.81,3.7,3.7,0,0,0-2.92,0,4.32,4.32,0,0,0-1.19.81,4,4,0,0,0-.8,1.19,3.42,3.42,0,0,0-.31,1.46,3.37,3.37,0,0,0,.31,1.45A4,4,0,0,0,456.92,557.83Z"/><path class="cls-1" d="M448,557.83a3.75,3.75,0,0,0,5.28,0,3.62,3.62,0,0,0,.8-1.19,3.68,3.68,0,0,0,.29-1.45,3.73,3.73,0,0,0-.29-1.46,3.62,3.62,0,0,0-.8-1.19,4.12,4.12,0,0,0-1.18-.81,3.7,3.7,0,0,0-2.92,0,4.12,4.12,0,0,0-1.18.81,3.8,3.8,0,0,0-.81,1.19,3.57,3.57,0,0,0-.3,1.46,3.52,3.52,0,0,0,.3,1.45A3.8,3.8,0,0,0,448,557.83Z"/></g></g></svg>