<svg xmlns="http://www.w3.org/2000/svg" viewBox="0 0 500 274.1"><defs><style>.cls-1{fill:#fff;}</style></defs><g id="Layer_2" data-name="Layer 2"><g id="Layer_1-2" data-name="Layer 1"><rect id="rect5620" class="cls-1" y="254.5" width="343.47" height="19.6"/><g id="g1827"><path id="path1815" class="cls-1" d="M13.75,23.9V47.81H61.56V0H13.75Z"/><path id="path1817" class="cls-1" d="M78.4,23.9V47.81h47.81V0H78.4Z"/><path id="path1819" class="cls-1" d="M383,74.67v74.67l-10.06-.1-10.11-.13-7.92-26.18c-5-16.76-8.56-27.55-9.74-30C340,82,331.09,74.39,318.57,70.21c-8.52-2.83-8.24-2.83-56.55-2.83-24.13,0-43.84.14-43.84.32s3.23,10.93,7.19,23.81L232.56,115l31.83.23,31.87.23,2.14,1a12.53,12.53,0,0,1,5.6,6.65c.73,2.09,8,25.59,8,26,0,.14-26,.28-57.83.28H196.32v-82h-47.8l-.14,67c-.14,75.44.18,69-3.69,77.08-4.37,9.2-13,17.9-25.72,25.91-2.87,1.82-4.15,2.91-4.15,3.5,0,.82.6.87,19,.87h19l5.42-1.82c16.89-5.69,28.55-15,34-27.18a43.51,43.51,0,0,0,3.37-11.7l.32-2.55H430.8V0H383Z"/><path id="path1821" class="cls-1" d="M452.19,99.25v99.26H500V0H452.19Z"/><path id="path1823" class="cls-1" d="M64.61,68.07c-11.34,1.36-23,4.64-31.37,8.87C15.71,85.73,5.69,98.39,1.55,117L.36,122.25l-.13,38.1L.05,198.51H126.21V67.38l-28.32.05C77.58,67.47,68.11,67.66,64.61,68.07ZM78.4,131.35v17.53H49.26V138.27c0-11.74.32-13.75,2.73-17.07a16.36,16.36,0,0,1,7.61-5.56c3.55-1.32,6.37-1.68,13-1.77l5.78-.05Z"/><path id="path1825" class="cls-1" d="M337.46,264.3v9.78H500V254.51H337.46Z"/></g></g></g></svg>