<svg xmlns="http://www.w3.org/2000/svg" viewBox="0 0 500 294.6"><defs><style>.cls-1{fill:#fff;}</style></defs><g id="Layer_2" data-name="Layer 2"><g id="Layer_1-2" data-name="Layer 1"><path class="cls-1" d="M406,49.84v81.25H378.08V1.81c7.64,0,15.38-.33,23.07.16,3,.19,4.5,3.76,6.38,6,13.71,15.93,27.26,32,40.82,48.05,6.55,7.76,13,15.6,19.5,23.41,1,1.19,2,2.27,4.23,1.43V1.89H500V131.34c-7.34,0-14.56.27-21.73-.1-4.34-.22-5.79-4.7-8.2-7.44-8.22-9.36-16.05-19.06-24-28.64q-15.85-19.05-31.74-38.1c-2.28-2.72-4.78-5.26-7.18-7.88Z"/><path class="cls-1" d="M216.15,65.7c8.36,0,16.13,0,23.89,0,1.88,0,2.71.88,2.71,2.76q0,24,0,47.91c0,1.66-1.06,2.24-2.23,3-8.95,6.25-19,9.79-29.59,11.83-13.89,2.69-27.79,2.58-41.51-1.49-24.26-7.19-43-26.34-46.83-52.49-3.2-22,2.56-41.4,18.29-57C152.54,8.62,167.1,2.46,183.67.66,203.36-1.49,221.58,3,239.78,11c-3.58,7.17-6.94,14.07-10.47,20.89-1.23,2.37-3.21.79-4.67.22a85.17,85.17,0,0,0-35.12-5.65c-21.67.92-37.46,17.16-38,38.9-.28,12,2.51,22.54,11.61,30.93,6.45,6,14.3,9,22.72,9.94,9.07,1,18.18.66,26.9-3,2.58-1.08,3.45-2.39,3.41-5.12C216.07,87.52,216.15,76.89,216.15,65.7Z"/><path class="cls-1" d="M115.57,11.9,104,33.87c-7-3.28-14.08-6.09-21.63-6.93-16-1.78-31.14-.11-42.71,12.78C32,48.22,29.23,58.35,30,69.74a40.51,40.51,0,0,0,8.58,22.8c6,7.68,14.17,11.22,23.18,13.07,14.87,3,28.85-.22,42.18-7,1.21-.61,2.45-1.18,4.2-2,2.75,7.55,5.5,15,8.12,22.44.5,1.44-.78,2.09-1.93,2.69-24.67,12.87-50.26,15.8-76.15,4.87-20-8.47-32.5-24.43-36.71-45.72C-3.2,57.11,3.1,36,20.64,18.9,31.37,8.43,44.76,3,59.46.89c19.36-2.84,37.49,1.32,54.78,10A9.66,9.66,0,0,1,115.57,11.9Z"/><path class="cls-1" d="M253.07,213.32H269c1.17,1.41.68,3,.68,4.41.05,9.82.13,19.65,0,29.48-.06,3.1.73,4.41,4.08,4.35,9.15-.18,18.3-.05,27.46-.07,1.33,0,2.73.21,3.9-.88-.25-2.08-2.08-2.84-3.34-3.92-12.75-10.87-10.9-24.13-2.65-34.88,14.49-18.89,46.45-16,57.15,5,6.24,12.27,3.83,21.64-8,31.09-1.09.88-2.73,1.31-3,3.09,1,1,2.1.54,3.13.55q14.13.06,28.28,0c5.6,0,6.11-.58,6.11-6.06,0-24.3.08-48.59-.15-72.89,0-4.28,1.28-5.66,5.34-5.09,3.73.53,8.51-1.67,11,1,2.26,2.43.69,7.06.7,10.7.06,22.25,0,44.5,0,66.74,0,9.24-4.39,15.48-12.77,19.12a17.48,17.48,0,0,1-7.14,1.49c-9.56-.06-19.13-.24-28.69,0A56.69,56.69,0,0,1,328,262.23c-1.68-.68-3.26-1.23-5.11-.49-10.61,4.21-21.67,5.23-33,4.79-5.46-.21-10.94.07-16.4-.08-2.41-.07-3.55.71-4.43,3.07-5.44,14.6-16.67,22-31.48,24.88-3,.58-4.52,0-4.06-3.35a14.94,14.94,0,0,0,0-1.64c0-2.72-.58-5.68.29-8.12,1-2.93,4.75-1.83,7.16-2.89,8.26-3.6,12.06-9,12.06-17.93q0-21.09,0-42.18Zm56.63,15.16a5.56,5.56,0,0,0,.89,3.89c3.48,4.95,8.45,8,13.6,10.92a3.1,3.1,0,0,0,3.11-.35c4.7-2.55,9.26-5.28,13-9.15a6.67,6.67,0,0,0,2.27-5.45c-.63-7.63-8.15-14.12-16.55-14.16C317.83,214.14,310.13,220.88,309.7,228.48Z"/><path class="cls-1" d="M250.88,1.81H363.73V25.17c-1.19,1.08-2.76.55-4.19.56-10.79.05-21.59.21-32.38-.07-4.08-.1-5,1.3-5,5.13.14,31.67.08,63.33.08,95V131H293.68c-.84-1.59-.45-3.25-.45-4.84,0-31.8-.08-63.61.06-95.41,0-3.84-.89-5.21-5-5.11-10.92.28-21.86.1-32.79.1h-4.66Z"/><path class="cls-1" d="M230.93,227.62c0,7.1-.15,14.2.07,21.3a8,8,0,0,1-3.22,7c-13.25,10.71-27.77,12.62-43.39,6.17a7.41,7.41,0,0,0-6.48,0c-14.13,6-27.75,4.95-40.41-3.95-2.25-1.58-3.81-1.63-6.23-.55-10.24,4.57-20.74,5.64-31.45,1.47-15.88-6.17-20-25.67-7.69-37.53,9.16-8.85,20.79-12.21,33-14,3.11-.45,7,.45,6.37-4.89-.1-.86.78-1.38,1.68-1.47a15.61,15.61,0,0,1,2.05-.07c4.06.22,9.18-1.66,11.92.79s.9,7.73,1,11.75c.17,10.24.19,20.49,0,30.72-.08,3.6,1.6,5.41,4.67,6.18a29.12,29.12,0,0,0,15.39,0c2.88-.82,4.19-2.45,4.14-5.63-.17-9.42,0-18.85-.13-28.26-.05-3,.79-4.25,3.92-4a89.53,89.53,0,0,0,9.83,0c2.53-.11,3.31.92,3.29,3.37-.11,9.28.13,18.58-.13,27.85-.13,4.37,1.91,6.24,5.76,7a35.5,35.5,0,0,0,14.66-.13c3.06-.7,4.53-2.36,4.49-5.76-.16-13.25,0-26.49-.15-39.74,0-3.28,1-4.39,4.23-4.15a72.22,72.22,0,0,0,9.42,0c2.75-.15,3.54,1,3.5,3.61-.12,7.65,0,15.3,0,23Zm-99.31,3.14v-6.95c0-1.61-.58-2.71-2.43-2.39-8.83,1.52-17.45,3.74-24.19,10-5.15,4.8-3.46,12,3.1,14.45,4.73,1.79,9.37,1.14,13.93-.77C131.43,241.17,131.63,240.87,131.62,230.76Z"/><path class="cls-1" d="M420.39,216.46c0-14.88.1-29.77-.07-44.65,0-3.41.93-4.68,4.37-4.34a43.2,43.2,0,0,0,8.2,0c3.4-.33,4.1,1.16,4.09,4.26q-.14,44.64,0,89.3c0,3-.7,4.26-3.87,4a51.14,51.14,0,0,0-9,.1c-3,.32-3.81-.78-3.79-3.63.1-15,.05-30,.05-45.06Z"/><path class="cls-1" d="M105.33,194.69c-8.06-.07-7.14.94-7.13-6.77,0-7.41-.79-6.39,6.64-6.36,8.79,0,7.72-1.37,7.76,7.36C112.62,196,113,194.56,105.33,194.69Z"/><path class="cls-1" d="M130,181.56v13.11c-4.23,0-8.55.88-12.27-.22-4.39-1.31-1.33-5.84-2-8.87-.33-1.56-.68-3.9,2.09-4C121.74,181.47,125.67,181.56,130,181.56Z"/><path class="cls-1" d="M171.75,289a16.55,16.55,0,0,0-2.44,0c-3.55.51-4.7-.86-4.61-4.51.23-8.53.05-8.53,8.73-8.57,5.77,0,5.81,0,5.76,5.8C179.13,289.91,180.4,288.91,171.75,289Z"/><path class="cls-1" d="M219.47,289c-8.27-.11-7.21.91-7.24-7.14,0-6.21-.73-5.65,6.16-5.67,8.39,0,8.21,0,8.44,8.23.1,3.51-.78,5.18-4.5,4.6A19.47,19.47,0,0,0,219.47,289Z"/><path class="cls-1" d="M189.43,288.78c-8-.12-6.89,1.1-6.93-6.92,0-6.5-.66-5.66,6.59-5.63,8.77,0,7.5-1.21,7.57,7.1.05,5.44,0,5.44-5.59,5.45Z"/></g></g></svg>