<svg xmlns="http://www.w3.org/2000/svg" viewBox="0 0 500 516.57"><defs><style>.cls-1{fill:#fff;}</style></defs><g id="Layer_2" data-name="Layer 2"><g id="Layer_1-2" data-name="Layer 1"><path class="cls-1" d="M464.74,299.62c-30.91-6.17-67.81-5.67-88.68,20.47-6.18,10-8.69,25.83-2.34,36.49,11.69,21.82,35.74,26.32,58.95,26.48,24.05-.49,51.95-5,60.63-29.64H459.06c-6.68,10.67-18.7,14.83-30.38,12.17-7.35-1.67-14.21-8.33-17.37-15.17-3-7.66-2.52-17.15,1.84-24,6.19-8.67,15.2-11.83,25.56-11.5,7.34.68,15.18,3.17,18.53,10.51h35.24a17.66,17.66,0,0,0-2.18-8h0C485.13,307.44,474.44,302.63,464.74,299.62Z"/><path class="cls-1" d="M97.69,380.4c10.37-4.66,23.39-13.16,25.55-25H89.35c-5.68,8.32-14.19,13.5-24,13.17-9.51.5-17.71-5.33-22.54-12.83-4.34-7.16-4.83-18.17-.66-25.49a29.35,29.35,0,0,1,18-12.65c10.19-1.17,21.88.16,27.05,10h35.24c0-3.33-1.51-6-2.67-8.65-10.2-15.49-27.89-18.82-45.09-20.16-25.56-1.5-53.95,3-69.81,25.48-6.17,11.17-6.17,27.67,1,38.32C26.39,390.23,67.63,388.39,97.69,380.4Z"/><path class="cls-1" d="M250.37,383.56l.13-83.94H219v51.3l-.67.32c-13.68-17.16-27.05-34.48-40.24-51.8H132.1V383.4h31.31l-.08-53.14,39.91,53.3Z"/><path class="cls-1" d="M366.55,364.42c1.68-4.83.68-10.83-1.33-15.32-3.34-6.17-10.35-8.33-15.86-11a78.17,78.17,0,0,0,11.19-9,15.73,15.73,0,0,0,2.33-12c-3-12.15-15.75-16.36-26.72-17.7H260.34l.05,84h69.75C344.68,382.74,360.2,379.25,366.55,364.42Zm-43.08-46.8c2,1.48,2.26,4.46,1,6.65-3.75,4.38-29.35,3.14-29.55,3.09V316C295.19,316.15,318.07,313.91,323.47,317.62Zm5.2,39.3c-3.35,7.17-12.87,5-20.22,5.51l-13.58-.15.06-14.35c10.67.66,22.53-1.68,31.89,2.16,2.17,2,2.17,4.17,1.85,6.83Z"/><path class="cls-1" d="M58.7,81.19c-20.76,18.74-28.37,61.25,9.09,86.07L217.13,269.54,144.75,104C129.56,65,88.05,56.36,58.7,81.19Z"/><path class="cls-1" d="M187.24.67c-24.29.5-60.72,29.38-44.51,73.43l74.9,176.21L244,65C250,18.9,215.12-2.37,187.24.67Z"/><path class="cls-1" d="M312.82.15c-26.32-2-58.73,16.21-57.2,57.75h14.16s7.6,0,8.6,3.53C272.82,66,257.64,66.5,259.65,90.8l23.8,159.5L357.86,73.58C373.05,34.08,341.16,1.17,312.82.15Z"/><path class="cls-1" d="M284.46,269,433.81,166.26C468.23,142,462.66,103,443.42,83.71,425.7,64,376.09,53.83,354.84,105.48Z"/><path class="cls-1" d="M497.57,217.39c-9.59-29.87-46.05-50.62-80.48-27.83L276.87,287.25H449.49C484.94,287.25,507.72,250.81,497.57,217.39Z"/><path class="cls-1" d="M2.49,215.38c-11.14,39.46,16.71,71.87,52.15,71.87H224.72L84.49,189.56C52.11,168.79,15.66,180.93,2.49,215.38Z"/><path class="cls-1" d="M307.42,480.37a6.78,6.78,0,1,0,6.77,6.78A6.79,6.79,0,0,0,307.42,480.37Z"/><path class="cls-1" d="M214.59,487.15a6.79,6.79,0,1,0-6.8,6.78A6.8,6.8,0,0,0,214.59,487.15Z"/><path class="cls-1" d="M192.06,487.15a6.78,6.78,0,1,0-6.79,6.78A6.79,6.79,0,0,0,192.06,487.15Z"/><path class="cls-1" d="M46.73,399.69a6.77,6.77,0,1,0,6.77-6.78A6.77,6.77,0,0,0,46.73,399.69Z"/><path class="cls-1" d="M24.2,399.69A6.77,6.77,0,1,0,31,392.91,6.77,6.77,0,0,0,24.2,399.69Z"/><path class="cls-1" d="M318.11,416.42H299v37.09H206V414.34H186.91v39.17H89v-56.7H69.87v16.13H29.72l-.58.07C19.26,414.21.55,422,.55,442.56c0,21.25,18.78,28.93,28.71,30l.53.06H318.11ZM69.87,453.51H31c-2.53-.38-11.34-2.34-11.34-10.95,0-8,8.76-10.07,11.39-10.5h38.8Z"/><path class="cls-1" d="M351.33,498V472.63H493.87V453.51H449.64c-4.05-.1-13.75-1.83-13.75-15.58s9.7-15.53,13.85-15.63h44.1V403.18h-44.2c-13.21,0-32.86,9.27-32.86,34.75a38.41,38.41,0,0,0,3,15.58H351.32V416.42H332.2v81H316.75v19.12h18.17C341.28,516.57,351.33,511.52,351.33,498Z"/></g></g></svg>