<svg xmlns="http://www.w3.org/2000/svg" viewBox="0 0 500 286.28"><defs><style>.cls-1{fill:#fff;}</style></defs><g id="Layer_2" data-name="Layer 2"><g id="Layer_1-2" data-name="Layer 1"><path id="path2987" class="cls-1" d="M143.14,0A143.14,143.14,0,1,0,250,238.38,143.14,143.14,0,1,0,250,47.9,142.81,142.81,0,0,0,143.14,0Zm0,31.31A111.83,111.83,0,1,1,31.31,143.14,111.83,111.83,0,0,1,143.14,31.31ZM82.38,88.8V199.38h73.53c33.52,0,60-20.7,60-55.29s-27.75-55.29-60-55.29Zm199.51,7.7h33l14.86,51.35L348.33,96.5h25.12L392,148.08,406.87,96.5h33l-31,97.91H380.56l-19.79-47.77-20,47.77H312.86ZM117.42,120.76h33.32c17.72,0,27.92,8.56,27.92,23.58s-9.59,22.83-27.43,22.83H117.42Z"/></g></g></svg>