<svg xmlns="http://www.w3.org/2000/svg" viewBox="0 0 500 276.06"><defs><style>.cls-1{fill:#fff;}</style></defs><g id="Layer_2" data-name="Layer 2"><g id="Layer_1-2" data-name="Layer 1"><path class="cls-1" d="M129.14,251.27l-14-23.92H103.47l-8.79,45.87h12.41l4.83-24.81,14.5,24.81h11l8.81-45.87H133.79Z"/><path class="cls-1" d="M148.87,273.23h36.72L187.67,262H163.35l1.41-7.38h21.71l1.92-9.94H166.68L168,238.6h24l2.08-11.25h-36.4Z"/><path class="cls-1" d="M257.81,227.36l-13,26.23-3.62-26.23h-10.8L216.6,253.59l-2.81-26.23H200.54l6.27,45.87h10.92l14.12-26.06,4,26.06h10.93l24-45.87Z"/><path class="cls-1" d="M285.77,240.23c.32-1.63,2.06-2.91,5.09-2.91a18.93,18.93,0,0,1,11.8,4.47l8-8.88c-4.15-3.92-9.75-6-17.44-6-10.87,0-18.7,6.07-20.33,14.47l0,.13c-1.8,9.31,5.09,12,14.31,14.23,5.86,1.42,7.14,2.46,6.78,4.33l0,.12c-.38,1.94-2.42,3.12-5.78,3.12a19.3,19.3,0,0,1-13.6-5.45l-8.6,8.36c4.57,5,11.72,7.49,19.74,7.49,11,0,19.36-5.5,21.16-14.74l0-.13c1.64-8.47-4.17-11.83-14.14-14.09-6-1.42-7.37-2.33-7-4.38Z"/><path class="cls-1" d="M357.26,159.37l79.61-87.15-16.94,87.15Zm142.74.07H469L500,0H437.32L292,159.44H157.16c4.73-17.31,19.05-30.9,40.22-30.9h63.43c35.14,0,63.76-29,63.76-64.25S296,0,260.81,0H137.75l-9.36,48.2H260.81c8.43,0,15.56,7.51,15.56,16.06s-7.13,16.07-15.56,16.07H197.38c-44.14,0-81.29,31.84-90.31,77.9L100,195.82c-5,5.45-29.9,31.73-38.64,28.7-4-1.41-3.63-7.9-3.25-10.71L86.39,68H33S7,202,6.68,203.48c-5.24,25.77-9.8,49.57-3.91,61.82,18.73,39,82.49-39.14,97-57.68h310.8l-9.37,48.22h32.47a20.15,20.15,0,0,0,19.79-16.33l6.2-31.89h31Z"/><path class="cls-1" d="M99.66,0H79.32A40,40,0,0,0,40,32.39L36.91,48.1H90.29Z"/></g></g></svg>