<svg xmlns="http://www.w3.org/2000/svg" viewBox="0 0 500 89.15"><defs><style>.cls-1{fill:#fff;}</style></defs><g id="Layer_2" data-name="Layer 2"><g id="Layer_1-2" data-name="Layer 1"><path class="cls-1" d="M413.16,54.26a29.9,29.9,0,0,0,7-16c1.51-12.06-1.71-22.64-10.83-31A25.73,25.73,0,0,0,396.42.42c-.68-.56-1.49-.37-2.25-.37-4.36,0-8.72,0-13.08,0q-17.94,0-35.89,0c-.94,0-2-.26-2.4,1.07h0c-.41.11-.45.44-.46.78-.2.07-.25.25-.23.46v.05c-.85,1.65-.52,3.42-.52,5.16q0,38.91,0,77.83a3.24,3.24,0,0,0,.33,2.16c3.52,0,7.09,0,10.66,0,1.61,0,3.26.34,4.83-.32,3.88-.33,6.4-2.47,6.72-6.27.3-3.49.12-7,.21-10.53a18.76,18.76,0,0,1,.19-4.66c.53,0,1-.13,1.42-.13,5,0,10,.07,15,0a3.28,3.28,0,0,1,3.14,1.73c4.16,6.26,8.44,12.45,12.58,18.72a3.16,3.16,0,0,0,3,1.59c6.64-.06,13.28,0,19.92,0h2.85L404.72,61.35C408.42,59.87,410.8,57,413.16,54.26ZM395.31,39.34c-2.76,3.61-6.8,4.91-11.17,5-6.05.16-12.1.07-18.16.11-.92,0-1.66,0-1.65-1.3,0-7.41,0-14.83,0-22.56,7.86.29,15.47-.83,23,.21C396.31,22,400.7,32.3,395.31,39.34Z"/><path class="cls-1" d="M247.05.1H235c-4.29,0-8.58-.15-12.84.69a33.31,33.31,0,0,0-27,32.73,37.7,37.7,0,0,0,2.15,11.41h-10V.1h-15c-4.31,0-6.09,1.74-6.09,6q0,23.45,0,46.89a16.75,16.75,0,0,1-.61,4.62C163.8,64,158.07,68,150.67,68c-4.19,0-5.9,1.71-5.92,5.9V89.11c2.66,0,5.06.1,7.46,0,12.53-.59,22.35-6,29.35-16.49,1.38-2.06,2.17-4.41,3.48-6.49l44.4,0c4.34,0,8.69,0,13-.07a4.54,4.54,0,0,0,4.68-4.81c.06-3.52,0-7,0-10.55V45c-6.63,0-13,0-19.37,0-8.77-.09-14.36-10-10-17.64,2.11-3.66,5.49-5.33,9.44-6.15l15.61-.08c2.89-.24,4.5-2,4.55-5.22.07-4.68,0-9.37,0-14.06A2.16,2.16,0,0,0,247.05.1Z"/><path class="cls-1" d="M335,0l-73.24,0c-2.45,0-3.43.92-3.44,3.31,0,4.81,0,9.62.06,14.44,0,.88-.32,1.81.32,2.88H286v2.52q0,30.77,0,61.53a4.75,4.75,0,0,0,.24,2.66l.48.08c4.55,0,9.12.28,13.66,0,5.83-.32,9-3,8.9-9.39-.17-18.22-.06-36.45,0-54.68a4.88,4.88,0,0,1,.33-2.78h1.89c6,0,12,0,18,0a6.94,6.94,0,0,0,7.22-7.26c0-4.39,0-8.79,0-13.26C336,.09,335.46,0,335,0Z"/><path class="cls-1" d="M499.51.06c-.49,0-1.13,0-1.77,0-23.51,0-47,0-70.53-.06-3.38,0-3.9.57-4.14,4.12-.22,3.37-.06,6.77-.07,10.16v6.57h27.89V87.6c5.52,0,10.73.25,15.91-.07,4.67-.29,7.05-3.39,7.05-8.17q0-28.12,0-56.26a4.37,4.37,0,0,1,.28-2.32h4.54c5.34,0,10.68,0,16,0,3.76,0,5.28-1.56,5.29-5.23q0-6.94,0-13.87C500,1.16,500.15.6,499.51.06Z"/><path class="cls-1" d="M119.23,72.64a8.09,8.09,0,0,0,0,16.18,8.09,8.09,0,1,0,0-16.18Z"/><path class="cls-1" d="M43.79,72.65a7.9,7.9,0,0,0-8.09,8.1,8.1,8.1,0,1,0,8.09-8.1Z"/><path class="cls-1" d="M62.69,72.66a8,8,0,0,0-8.21,8,8.08,8.08,0,0,0,8.12,8.17,8,8,0,0,0,8.08-8.18A7.9,7.9,0,0,0,62.69,72.66Z"/><path class="cls-1" d="M149.68,39.92q0-10.44,0-20.87c0-5.72-.07-11.44-.1-17.16V1.31a.91.91,0,0,0-.09-.91c-.37-.57-.95-.3-1.42-.3-4.5,0-9,0-13.48,0-4.33,0-6,1.73-6,6q0,15.33,0,30.67a18.58,18.58,0,0,1-.25,4.08c-1,4.31-5.35,7.64-9.44,7.14a8.8,8.8,0,0,1-7.84-8.92q0-16.41,0-32.81c0-4.38-1.81-6.21-6.13-6.21-6.51,0-13,0-19.54,0-6.74,0-12.85,1.78-18,6.19C61.38,11.42,58,17.89,58,25.94v.58s-.11.09-.11.13A2.12,2.12,0,0,0,58,27a44.6,44.6,0,0,0,0,6.74,55.34,55.34,0,0,0,0,8.92l0,.39-.27,1.93c-8.81,0-17.6.43-26.34-.12S17.92,33.59,23,26.43c2.64-3.73,6.39-5.31,10.94-5.2,3,.08,5.21-1.57,5.29-4.28.15-5.57,0-11.14,0-16.66-3.17,0-6.17-.25-9.11,0A33.68,33.68,0,0,0,.93,25.69,32.7,32.7,0,0,0,15.39,61.12a29.6,29.6,0,0,0,17.24,5l44.94,0a1.19,1.19,0,0,0-.7-.42,1.19,1.19,0,0,1,.7.42h.77c.34,0,.75.19.75-.41q0-18.82.08-37.64c0-4.26,1-5.58,5-6.92l5.85.08c0,5.8,0,11.59,0,17.39.17,23.67,24.69,38.11,45,26.34A28.16,28.16,0,0,0,149.41,43C149.5,42,149.67,41,149.68,39.92ZM90.06,21.23a6.78,6.78,0,0,0-1.1-.37,8,8,0,0,0-1.45-.19,8,8,0,0,1,1.45.19,6.78,6.78,0,0,1,1.1.37Z"/></g></g></svg>