<svg xmlns="http://www.w3.org/2000/svg" viewBox="0 0 500 313.07"><defs><style>.cls-1{fill:#fff;fill-rule:evenodd;}</style></defs><g id="Layer_2" data-name="Layer 2"><g id="Layer_1-2" data-name="Layer 1"><path class="cls-1" d="M184.2,224.5V206.28h4c3.53,0,5.92.8,7.52,1.94,1.13,1.25,1.93,3.64,1.93,7.17s-.79,5.92-2.39,7.06-4.33,2.05-7.85,2.05Zm-55,4.32c0-9.44.8-15.82,2-18.55a6.73,6.73,0,0,1,6.72-4.33,6.81,6.81,0,0,1,6.71,4.33c1.14,2.73,1.6,9.11,1.6,18.1,0,10.36-.46,17.07-1.6,19.81-1.25,3.18-3.52,4.78-6.71,4.78-3.53,0-5.58-1.6-6.72-5.12C130,245,129.21,238.73,129.21,228.82ZM80.6,206.74h5.58c3.53,0,5.92.68,7.06,1.93s1.59,3.53,1.59,7.06-.8,5.92-1.93,7.17-4,1.94-7.86,1.94H80.6v-18.1ZM336,182.6H366.8L353.37,143Zm119.08,79H468.8V207.08h15v-10.7H440v10.7h15Zm-55.44,0h35.63V251.36H413V232h19.81V222.1H413V206.28h21.74v-9.9H399.59v65.23Zm-60.45,0h12.64l-.35-38.71a62.34,62.34,0,0,0-.45-8.31c-.34-3.18-.34-6.71-.8-10.7,1.25,4.33,2.39,8.77,3.65,12.3s1.93,7.05,2.73,9.9L370,261.61h17.76V196.37H375.12l.79,37.57a73.17,73.17,0,0,0,.46,10.25c.34,3.19.34,6.37.8,9.11-.8-3.53-1.6-7.52-2.85-11.39-1.14-3.64-2.73-7.51-4-11.16L357.7,196.37H339.15v65.24Zm-73.55-20.15v1.14a1.79,1.79,0,0,0-.33,1.25c0,6.71,1.59,11.49,5.12,14.23,3.18,3.53,8.31,5.12,15,5.12,7.07,0,12.64-1.59,16.17-5.12s5.58-8.31,5.58-14.23a17.3,17.3,0,0,0-2.39-9.11c-1.6-2.73-4.33-5.13-8.65-7.86a29.79,29.79,0,0,1-4.78-2.84c-7.52-4.33-11.5-8.31-11.5-11.84a7.16,7.16,0,0,1,2.05-5.12c1.13-1.14,3.07-1.6,5.12-1.6a7,7,0,0,1,4.79,1.94c1.13,1.59,1.47,4,1.47,6.71v.8H306.7v-1.48c0-6-1.48-10.36-4.67-13.55-3.53-2.74-8.31-4.33-14.68-4.33q-10.08,0-15.37,4.78a18,18,0,0,0-5.58,13.1,13.62,13.62,0,0,0,1.6,7.05,20.83,20.83,0,0,0,4.78,6.38,16.64,16.64,0,0,0,4,3.07c1.94,1.25,4.33,2.85,7.05,4.79a1.17,1.17,0,0,1,1.14.45c6,3.53,8.77,7.06,8.77,10.59a6.62,6.62,0,0,1-1.93,4.78A5.84,5.84,0,0,1,287,253c-2.73,0-4.78-.79-5.92-2.39-1.25-1.14-1.59-3.53-1.59-7.17v-1.94h-13.9Zm-33.92,20.15H245.9V207.08h15v-10.7H217v10.7h14.68v54.53Zm-41.89-65.23h-19v65.23H184.2V234.75h5.58a8.56,8.56,0,0,1,5.92,1.93c1.13,1.25,1.59,3.64,1.93,7.17v4.79a82.29,82.29,0,0,0,.8,13h14.23c-.34-1.59-.8-3.52-1.14-5.92a35.53,35.53,0,0,1-.45-7.51V245c0-5.46-.8-9.45-1.94-11.38-1.59-2.06-4.33-3.19-8.31-4,3.53-1.25,5.92-2.73,7.51-5.12s2.4-5.92,2.4-11.05c0-6.37-1.6-10.7-4.33-13.54-2.85-2.28-8.31-3.53-16.62-3.53ZM138,262.86a24.79,24.79,0,0,0,10.25-2.05,18,18,0,0,0,7.17-5.92,28.32,28.32,0,0,0,3.53-9.45c.79-3.52,1.14-9.56,1.14-17.75,0-8-.35-13.89-1.6-17.88a21.94,21.94,0,0,0-5.46-9.44,20.45,20.45,0,0,0-6.38-3.53,29.83,29.83,0,0,0-8.65-1.25,26,26,0,0,0-10.7,2,15.17,15.17,0,0,0-6.72,5.47,21.8,21.8,0,0,0-4,9.56c-.8,3.53-1.14,9-1.14,15.71,0,8.77.8,15,1.94,19.47,1.25,4.67,3.19,8.31,5.92,10.25a14.27,14.27,0,0,0,6.38,3.52,29.18,29.18,0,0,0,8.3,1.25ZM88.57,196.38H66.37v65.23H80.6V235.54h8.77c4.33,0,7.51-.34,9.45-1.13a12.23,12.23,0,0,0,5.58-3.19,10.29,10.29,0,0,0,3.07-6.38,26.65,26.65,0,0,0,1.25-8.65c0-7.17-1.59-12.29-4.33-15.48-2.84-2.74-8.3-4.33-15.82-4.33ZM15,241.46v2.39c0,6.71,1.59,11.49,4.78,14.23,3.07,3.53,8.31,5.12,15,5.12,7.51,0,13-1.59,16.51-5.12s5.57-8.31,5.57-14.23a14.83,14.83,0,0,0-2.73-9.11c-1.59-2.73-4.44-5.13-8.76-7.86A36.38,36.38,0,0,1,40.76,224c-7.51-4.33-11.16-8.31-11.16-11.84a7.2,7.2,0,0,1,2-5.12,5.51,5.51,0,0,1,4.33-1.6,6.8,6.8,0,0,1,5.12,1.94c1.26,1.59,1.6,4,1.6,6.71v.8H56.59v-1.48c0-6-1.6-10.36-5.24-13.55-3.53-2.74-8.31-4.33-14.57-4.33-6.72,0-11.5,1.59-15,4.78a18,18,0,0,0-5.58,13.1,18.51,18.51,0,0,0,1.26,7.05,22.25,22.25,0,0,0,4.66,6.38c1.26.79,2.39,1.93,4,3.07,2.05,1.25,4.32,2.85,7.51,4.79a1.08,1.08,0,0,1,.8.45c5.92,3.53,8.65,7.06,8.65,10.59a6.17,6.17,0,0,1-1.93,4.78A5.74,5.74,0,0,1,36,253a6.76,6.76,0,0,1-5.58-2.39c-1.13-1.14-1.93-3.53-1.93-7.17v-1.94H15ZM255.81,107.13c0-15-1.6-27-4.44-35.64-3.08-9.1-7.52-13.43-12.64-13.43s-9.45,4.33-12.18,13.43c-3.19,8.66-4.78,20.61-4.78,35.64,0,14.57,1.59,26.41,4.78,35.17,2.73,9,7.06,13.44,12.18,13.44s9.56-4.44,12.64-13.44C254.21,134,255.81,122,255.81,107.13ZM410.74,182.6H500v95.29H0V182.6H80.6V28h87L168,72.29H124.89V91.64h35.63v39.51h-40V182.6H291.33L327,107.47V98.81L291.33,28H336l17.42,39.16L366.8,28h43.94L375.57,98.81v8.66l35.17,75.13Zm-172-.79c-21.29,0-37.91-6.38-49.41-19.36s-17-31.3-17-55.32,5.58-42.69,17-55.79S217.44,32,238.73,32s38,6.26,49.41,19.35S305.56,83,305.56,107.13s-5.92,42.23-17.42,55.32S260.13,181.81,238.73,181.81ZM32.45,313.07H467.67c19.35-2.85,30.05-14.23,32.33-35.18l-.34-240.44c-1.25-11-4.33-19.69-9.9-26.07A39.05,39.05,0,0,0,467.67,0H32.45a38.3,38.3,0,0,0-22.2,11.38C4.78,17.76,1.14,26.41,0,37.45V277.89c2.39,20.95,13.1,32.33,32.45,35.18Z"/></g></g></svg>