<svg xmlns="http://www.w3.org/2000/svg" viewBox="0 0 500 231.38"><defs><style>.cls-1{fill:#fff;}</style></defs><g id="Layer_2" data-name="Layer 2"><g id="Layer_1-2" data-name="Layer 1"><path class="cls-1" d="M371,64.26h64.56v80.6h-242V128.92H322.64V32.46h16.09v96.15H355V97.17H403.2v31.42h16.18V80.44h-64.2v-48H371Zm16.08,64.46V113H371.19v15.71Z"/><path class="cls-1" d="M257.85,32.53V96.81h-16V32.46h-48.3V81.08h32V97H160.84v31.9H32.16v15.91h145.2v-32H274V32.53ZM225.53,64.64H209.77V48.82h15.76Z"/><path class="cls-1" d="M111.3,32.29l-1.62.07a35.62,35.62,0,0,1-12.94,0l0-.11c-.75,1.05-.45,2.24-.46,3.38,0,5.31-.07,10.63-.09,15.94V96.71H48V49.32c-.15-.34-.06-.56.33-.61,6.11-.35,12.21-.21,18.32-.05l.18,0-7-.15,7,.15a100.7,100.7,0,0,1,13.23-.12,104.69,104.69,0,0,0,0-16.23l-25.78,0H32.13v80.47H112.6v-3.42q0-35.13,0-70.26c0-1.66.16-3.31.25-5C112.81,33.08,111.76,32.94,111.3,32.29Z"/><path class="cls-1" d="M436.27,15.92V32.19h31.56v16.2H387.51v-16h32V0h48.39V15.92Z"/><path class="cls-1" d="M144.71,112.86H128.89V32.55h15.82Z"/><path class="cls-1" d="M451.88,64.39h15.89v80.5H451.88Z"/><path class="cls-1" d="M306.36,112.81H290.53V32.45h15.83Z"/><path class="cls-1" d="M161.21,32.4H177.1v16H161.21Z"/><path class="cls-1" d="M177.07,80.76H161.24V64.85h15.83Z"/><path class="cls-1" d="M80.08,48.52a100.7,100.7,0,0,0-13.23.12l13,.29A2.24,2.24,0,0,0,80.08,48.52Z"/><path class="cls-1" d="M96.86,32.24l-.08.06,0,.11,12.94,0,1.62-.07-.23-.09Z"/><path class="cls-1" d="M96.74,32.41l12.94,0A35.62,35.62,0,0,1,96.74,32.41Z"/><path class="cls-1" d="M48.35,48.71l-.33.61C47.87,49,48,48.76,48.35,48.71Z"/><path class="cls-1" d="M14.47,189.67,0,227.71H8.54l3.07-8.51H25.73l3,8.51h8.7L23,189.67Zm-.87,23.47,2.46-6.84q1.71-4.87,2.66-8.25a81.78,81.78,0,0,0,2.53,8.25l2.46,6.84Z"/><polygon class="cls-1" points="72.64 204.17 57.1 204.17 57.1 189.75 48.83 189.75 48.83 227.71 57.1 227.71 57.1 211.2 72.64 211.2 72.64 227.71 80.92 227.71 80.92 189.75 72.64 189.75 72.64 204.17"/><polygon class="cls-1" points="104.59 189.75 96.32 189.75 96.32 227.71 123.15 227.71 123.15 220.68 104.59 220.68 104.59 189.75"/><path class="cls-1" d="M158.91,212.63q0,4.41-1.29,6.38-1.77,2.72-6.44,2.72-5,0-6.92-2.88Q143,217,143,212.63V189.76h-8.27v22.33a27.42,27.42,0,0,0,.68,6.89,11.74,11.74,0,0,0,5.22,7.22q3.78,2.43,10.4,2.43,12.28,0,15.27-8.95a24.26,24.26,0,0,0,.89-7.48V189.76h-8.27Z"/><path class="cls-1" d="M207.76,189.67l-14.46,38h8.54l3.07-8.51H219l3,8.51h8.7l-14.41-38Zm-.86,23.47,2.45-6.84q1.72-4.87,2.67-8.25a81.78,81.78,0,0,0,2.53,8.25l2.45,6.84Z"/><polygon class="cls-1" points="250.4 189.75 242.13 189.75 242.13 227.71 268.96 227.71 268.96 220.68 250.4 220.68 250.4 189.75"/><path class="cls-1" d="M316.55,208.5a20.34,20.34,0,0,0-4.79-13.71q-5.11-6-13.74-5.95a18,18,0,0,0-13.39,5.41q-5.42,5.53-5.41,14.5A22.67,22.67,0,0,0,281,218a17,17,0,0,0,6.31,7.68,18.34,18.34,0,0,0,10.31,2.94,17.34,17.34,0,0,0,9.22-2.29l5.57,5,3.91-4.18-4.91-4.44a15.19,15.19,0,0,0,2.94-4.07A22.46,22.46,0,0,0,316.55,208.5Zm-10.91,8.89-4.12-3.71-3.88,4.15,3.77,3.31a10.57,10.57,0,0,1-3.5.56,9.17,9.17,0,0,1-7.54-3.52q-2.81-3.48-2.8-9.49,0-5.83,2.69-9.32a9.89,9.89,0,0,1,15.33.06,15,15,0,0,1,2.61,9.21A14.23,14.23,0,0,1,305.64,217.39Z"/><path class="cls-1" d="M353.1,212.63q0,4.41-1.29,6.38c-1.19,1.81-3.33,2.72-6.44,2.72q-5,0-6.92-2.88-1.27-1.89-1.27-6.22V189.76h-8.27v22.33a27.5,27.5,0,0,0,.67,6.89,11.79,11.79,0,0,0,5.23,7.22q3.76,2.43,10.4,2.43,12.29,0,15.27-8.95a24.57,24.57,0,0,0,.89-7.48V189.76H353.1Z"/><path class="cls-1" d="M407.7,222.35q-.4-4.5-.54-5.31a11.07,11.07,0,0,0-1.48-4.44,6.38,6.38,0,0,0-3.94-2.8,8.79,8.79,0,0,0,3.4-2.21,9.86,9.86,0,0,0,2.64-7.09,9.73,9.73,0,0,0-5-9q-2.91-1.72-8.35-1.72H376.1v38h8.27V212.79h7.46a9.41,9.41,0,0,1,4.9,1c1.53,1,2.42,3,2.67,6.14q.38,5.25.57,6.11a7.32,7.32,0,0,0,.56,1.7h8.65l-.35-.43Q408.05,226.31,407.7,222.35Zm-10.05-16.7q-1.56,1.08-5.39,1.08h-7.89V196.27h8.27a11.1,11.1,0,0,1,4.31.65,4.54,4.54,0,0,1,2.67,4.55A4.77,4.77,0,0,1,397.65,205.65Z"/><path class="cls-1" d="M433.55,189.67l-14.47,38h8.54l3.08-8.51h14.11l3,8.51h8.7l-14.41-38Zm-.86,23.47,2.45-6.84q1.73-4.87,2.67-8.25a79.27,79.27,0,0,0,2.53,8.25l2.45,6.84Z"/><path class="cls-1" d="M492,189.76v15.81c0,3.3.11,6.92.35,10.85q-1.59-3.22-5-8.75l-11-17.91h-8.45v38h8V211.55c0-4.26-.12-7.81-.35-10.67.65,1.38,1.27,2.6,1.86,3.64.2.34,1.17,2,2.93,4.87l11.32,18.32H500v-38Z"/></g></g></svg>