<svg xmlns="http://www.w3.org/2000/svg" viewBox="0 0 500 139.8"><defs><style>.cls-1{fill:#fff;}</style></defs><g id="Layer_2" data-name="Layer 2"><g id="Layer_1-2" data-name="Layer 1"><path class="cls-1" d="M16.83,18.14a10.54,10.54,0,0,0,7.49,3.07,10.54,10.54,0,0,0,7.5-3.07,10.55,10.55,0,0,0,2.25-3.36,10.36,10.36,0,0,0,.82-4.13,10.37,10.37,0,0,0-.82-4.14,10.77,10.77,0,0,0-2.25-3.36A11.24,11.24,0,0,0,28.46.86a10.37,10.37,0,0,0-8.27,0,11.12,11.12,0,0,0-3.36,2.29,10.54,10.54,0,0,0-3.07,7.5,10.36,10.36,0,0,0,.82,4.13A10.23,10.23,0,0,0,16.83,18.14Z"/><path class="cls-1" d="M42.06,18.14a10.29,10.29,0,0,0,3.35,2.25,10.44,10.44,0,0,0,4.14.82,10.06,10.06,0,0,0,4.09-.82A10.38,10.38,0,0,0,57,18.14a10.23,10.23,0,0,0,2.25-3.36A10.36,10.36,0,0,0,60,10.65,10.54,10.54,0,0,0,57,3.15,11.18,11.18,0,0,0,53.64.86,9.77,9.77,0,0,0,49.55,0a10.13,10.13,0,0,0-4.14.86,11.07,11.07,0,0,0-3.35,2.29,11.27,11.27,0,0,0-2.3,3.36,10.06,10.06,0,0,0-.86,4.14,10.05,10.05,0,0,0,.86,4.13A11,11,0,0,0,42.06,18.14Z"/><path class="cls-1" d="M139.52,18.14a10.29,10.29,0,0,0,3.35,2.25,10.86,10.86,0,0,0,8.28,0,10.29,10.29,0,0,0,3.35-2.25,10.41,10.41,0,0,0,2.26-3.36,10.53,10.53,0,0,0,.82-4.13,10.5,10.5,0,0,0-3.08-7.5A11.07,11.07,0,0,0,151.15.86a10.39,10.39,0,0,0-8.28,0,11.07,11.07,0,0,0-3.35,2.29,11.27,11.27,0,0,0-2.3,3.36,10.06,10.06,0,0,0-.86,4.14,10.05,10.05,0,0,0,.86,4.13A11,11,0,0,0,139.52,18.14Z"/><path class="cls-1" d="M114.29,18.14a10.56,10.56,0,0,0,18.06-7.49,10.37,10.37,0,0,0-.82-4.14,10.6,10.6,0,0,0-2.25-3.36A11.24,11.24,0,0,0,125.92.86a10.37,10.37,0,0,0-8.27,0A10.93,10.93,0,0,0,112,6.51a10.06,10.06,0,0,0-.86,4.14,10.05,10.05,0,0,0,.86,4.13A11,11,0,0,0,114.29,18.14Z"/><path class="cls-1" d="M197.34,121.74a10.77,10.77,0,0,0-3.36-2.25,10.84,10.84,0,0,0-8.27,0,10.42,10.42,0,0,0-5.61,5.61,10.6,10.6,0,0,0,17.24,11.63,11,11,0,0,0,2.29-3.36,10.37,10.37,0,0,0,0-8.27A11.24,11.24,0,0,0,197.34,121.74Z"/><path class="cls-1" d="M222.56,121.74a10.6,10.6,0,0,0-17.24,11.63,10.41,10.41,0,0,0,2.26,3.36,10.29,10.29,0,0,0,3.35,2.25,10.86,10.86,0,0,0,8.28,0,10.29,10.29,0,0,0,3.35-2.25,10.41,10.41,0,0,0,2.26-3.36,10.61,10.61,0,0,0-2.26-11.63Z"/><path class="cls-1" d="M266.05,18.14a10.56,10.56,0,0,0,18.06-7.49,10.37,10.37,0,0,0-.82-4.14A10.6,10.6,0,0,0,281,3.15,11.24,11.24,0,0,0,277.68.86a10.37,10.37,0,0,0-8.27,0,10.93,10.93,0,0,0-5.65,5.65,10.06,10.06,0,0,0-.86,4.14,10.05,10.05,0,0,0,.86,4.13A11,11,0,0,0,266.05,18.14Z"/><path class="cls-1" d="M291.28,18.14a10.23,10.23,0,0,0,3.36,2.25,10.64,10.64,0,0,0,11.63-2.25,10.54,10.54,0,0,0,3.07-7.49,10.55,10.55,0,0,0-.82-4.14,10.77,10.77,0,0,0-2.25-3.36A11.24,11.24,0,0,0,302.91.86a10.37,10.37,0,0,0-8.27,0,11,11,0,0,0-3.36,2.29A11.27,11.27,0,0,0,289,6.51a10.06,10.06,0,0,0-.86,4.14,10.05,10.05,0,0,0,.86,4.13A11,11,0,0,0,291.28,18.14Z"/><path class="cls-1" d="M441,83.46a5.94,5.94,0,0,1-1.84,4.42,6.25,6.25,0,0,1-4.55,1.8H416.13V67.24q0-11.38-3.15-18.8a30.23,30.23,0,0,0-8.35-11.71,29.9,29.9,0,0,0-11.84-6,55.59,55.59,0,0,0-13.59-1.68,52.31,52.31,0,0,0-9.63.95,97.55,97.55,0,0,0-9.78,2.33c-3.17.93-6.1,1.91-8.81,2.95s-4.9,2-6.59,2.78l8.93,18.84q2-1,5-2.21A68.68,68.68,0,0,1,365,52.46q3.56-1,7.25-1.76a34.82,34.82,0,0,1,7-.74,22.3,22.3,0,0,1,5.89.78,13.15,13.15,0,0,1,5.16,2.74,13.89,13.89,0,0,1,3.69,5.32,22.16,22.16,0,0,1,1.39,8.44V89.68H322.77V65.44a34.89,34.89,0,0,0-2.91-14.17A36.78,36.78,0,0,0,312,39.72,37.28,37.28,0,0,0,300.29,32a37,37,0,0,0-40.18,7.66,35.87,35.87,0,0,0-7.86,11.63,36.78,36.78,0,0,0-2.86,14.58V89.68H225.8V29.16H204.91V89.68H171V65.44a34.89,34.89,0,0,0-2.91-14.17,36.78,36.78,0,0,0-7.9-11.55A37.28,37.28,0,0,0,148.53,32a37,37,0,0,0-40.18,7.66,35.87,35.87,0,0,0-7.86,11.63,36.79,36.79,0,0,0-2.87,14.58V89.68H74v-23a35.17,35.17,0,0,0-2.83-14.34A38,38,0,0,0,51.43,32.27a35.9,35.9,0,0,0-28.78,0A37.83,37.83,0,0,0,0,67.08V83.62A26,26,0,0,0,2.13,94.1a27.08,27.08,0,0,0,5.81,8.56,28,28,0,0,0,8.6,5.78A26.09,26.09,0,0,0,27,110.57H39.31V89.68H27a6,6,0,0,1-4.38-1.76,5.83,5.83,0,0,1-1.77-4.3V67.08a17.51,17.51,0,0,1,4.71-12,16,16,0,0,1,5.12-3.61,15.85,15.85,0,0,1,12.62,0A16.57,16.57,0,0,1,48.48,55,16.75,16.75,0,0,1,52,60.24a16.17,16.17,0,0,1,1.27,6.34v44h381.4a26.57,26.57,0,0,0,10.61-2.13,27.82,27.82,0,0,0,8.68-5.82A27.19,27.19,0,0,0,459.79,94a26.34,26.34,0,0,0,2.13-10.52V0H441ZM150,89.68H118.43V65.85a15.67,15.67,0,0,1,1.23-6.23,15.38,15.38,0,0,1,3.39-5,16.35,16.35,0,0,1,5-3.36A15.41,15.41,0,0,1,134.23,50a16,16,0,0,1,11.18,4.46,15.22,15.22,0,0,1,3.4,4.92,14.9,14.9,0,0,1,1.23,6Zm151.76,0H270.19V65.85a15.67,15.67,0,0,1,1.23-6.23,15.41,15.41,0,0,1,3.4-5,16.19,16.19,0,0,1,5-3.36A15.41,15.41,0,0,1,286,50a16,16,0,0,1,11.18,4.46,15.22,15.22,0,0,1,3.4,4.92,14.9,14.9,0,0,1,1.23,6Z"/><rect class="cls-1" x="479.12" width="20.88" height="110.57"/></g></g></svg>