<svg xmlns="http://www.w3.org/2000/svg" viewBox="0 0 500 115"><defs><style>.cls-1{fill:#fff;}</style></defs><g id="Layer_2" data-name="Layer 2"><g id="Layer_1-2" data-name="Layer 1"><path class="cls-1" d="M220.91,47.54a11.08,11.08,0,0,0-3.37-2.36,10,10,0,0,0-8.21,0,10.63,10.63,0,0,0-3.4,2.41,11.56,11.56,0,0,0-2.28,3.54,11,11,0,0,0-.82,4.2V66.64a10.8,10.8,0,0,0,.82,4.22,11.59,11.59,0,0,0,2.28,3.52,10.79,10.79,0,0,0,3.4,2.41,10,10,0,0,0,8.21,0,11.26,11.26,0,0,0,3.37-2.36,10.75,10.75,0,0,0,2.28-3.51,11.44,11.44,0,0,0,.82-4.34V55.33a11.21,11.21,0,0,0-.82-4.31A10.72,10.72,0,0,0,220.91,47.54Z"/><path class="cls-1" d="M499.91.13H118.31c-.73,1.14-.41,2.28-.42,3.36,0,18.14.17,36.29-.11,54.43-.2,12.86-3.93,24.81-12.43,34.66-9.29,10.75-21.27,17.37-35.16,20.5-2.27.51-4.55.93-6.82,1.41,0,0-.07.18-.18.47h4.53q184,0,367.94,0A64.21,64.21,0,0,0,499.2,62.84a42.09,42.09,0,0,0,.8-8.15V2.08C500,1.49,499.94.91,499.91.13ZM238,66.58a24.78,24.78,0,0,1-1.95,9.8,25.74,25.74,0,0,1-5.27,8A24.57,24.57,0,0,1,223,89.74a23.44,23.44,0,0,1-9.58,2,22.75,22.75,0,0,1-9.19-1.87,25.18,25.18,0,0,1-7.63-5.07,25.78,25.78,0,0,1-5.38-7.5,23.81,23.81,0,0,1-2.33-9,5.88,5.88,0,0,0-3.46,2.58,7.91,7.91,0,0,0-1,4v29.53H170.39V74.76a27.21,27.21,0,0,1,1-7.52,17.72,17.72,0,0,1,3.23-6.34,18,18,0,0,1,5.74-4.61,24.73,24.73,0,0,1,8.51-2.44,24.24,24.24,0,0,1,2.3-9.06,26,26,0,0,1,5.35-7.52,25.68,25.68,0,0,1,7.66-5.13,22.81,22.81,0,0,1,9.22-1.89,23.6,23.6,0,0,1,9.58,2,24.49,24.49,0,0,1,7.79,5.41,26.26,26.26,0,0,1,5.27,8A24.38,24.38,0,0,1,238,55.33Zm180.13.06a17.67,17.67,0,0,1-1.43,7,18.1,18.1,0,0,1-3.93,5.79,18.72,18.72,0,0,1-5.81,3.9,17.88,17.88,0,0,1-7.11,1.42H249.53v-14h9.39V30.25h14V70.81h17.57V10.71h14v60.1h24V30.25h13.94V70.81H351V30.25h14V70.81h8.56V30.25h14V70.81h12.35a4.19,4.19,0,0,0,3.05-1.21,4,4,0,0,0,1.23-3V10.71h14ZM443.66,84.8h-14V10.71h14Z"/><path class="cls-1" d="M110.18,59.4c.44-19.34.15-38.71.16-58.06A9.94,9.94,0,0,0,110.07,0h-2.85C92.69,0,78.16,0,63.64,0,31.35.17,3.7,25,.19,56.89A68.12,68.12,0,0,0,0,64.18q0,23.57,0,47.13v3.12a4.11,4.11,0,0,0,2.89.5c14.73,0,29.47.16,44.19,0,18.19-.22,34.28-6,47.34-19A51.93,51.93,0,0,0,110.18,59.4ZM52.55,44.18H37.76V83.86H27.15V44.18H12.42v-9H52.55Zm17.6,39.68-16-48.7H65.31l6.36,19.66q1.35,4.29,3.25,12.1.8,3.18,1.38,6.78.61-3.53,1.52-7Q80,58.22,81,54.89l6.32-19.73H98.42L82.21,83.86Z"/></g></g></svg>