<svg xmlns="http://www.w3.org/2000/svg" viewBox="0 0 602.86 174.42"><defs><style>.cls-1{fill:#fff;}</style></defs><g id="Layer_2" data-name="Layer 2"><g id="Layer_1-2" data-name="Layer 1"><path class="cls-1" d="M48,57.89a17.09,17.09,0,0,0,4.7-12.32q0-8.51-6.07-12.94a22.32,22.32,0,0,0-5.36-2.53,14.42,14.42,0,0,0,5-3.64,13.57,13.57,0,0,0,3.46-9.26A15.2,15.2,0,0,0,47.88,10a14.32,14.32,0,0,0-6.3-6.16q-4.47-2.3-13.48-2.3H0V64H30.63Q42.24,64,48,57.89ZM13.61,12.23H26.07a16.52,16.52,0,0,1,6.51.94c2.48,1.15,3.73,3.25,3.73,6.29a6.51,6.51,0,0,1-3.82,6.34,15,15,0,0,1-6.38,1H13.61Zm0,41V36.13H26.73q5.54,0,7.89,1.06,4.31,2,4.3,7.49,0,4.62-3.19,6.87-2.4,1.7-8.29,1.69Z"/><path class="cls-1" d="M115.62,51.11c.41,5.76.72,9.12.93,10.06a12.14,12.14,0,0,0,.93,2.8h14.23l-.58-.71q-1.27-1.6-1.86-8.11c-.44-4.94-.74-7.85-.88-8.74A18.13,18.13,0,0,0,126,39.1a10.51,10.51,0,0,0-6.47-4.61,14.36,14.36,0,0,0,5.58-3.64,16.21,16.21,0,0,0,4.35-11.66q0-10-8.16-14.85-4.78-2.83-13.74-2.83H77.27V64H90.88V39.41h12.28q5.55,0,8.07,1.59Q115,43.4,115.62,51.11ZM90.88,29.43V12.23h13.61a18.17,18.17,0,0,1,7.09,1.07q4.4,2,4.39,7.49a7.84,7.84,0,0,1-3.23,6.87c-1.72,1.18-4.67,1.77-8.87,1.77Z"/><rect class="cls-1" x="157.47" y="1.51" width="13.61" height="62.46"/><polygon class="cls-1" points="193.43 13.08 212.32 13.08 212.32 63.97 225.93 63.97 225.93 13.08 244.9 13.08 244.9 1.51 193.43 1.51 193.43 13.08"/><rect class="cls-1" x="267.25" y="1.51" width="13.61" height="62.46"/><path class="cls-1" d="M349.44,31.43q-4.11-2.7-14.71-5.32-10.07-2.47-12.55-3.86a4.69,4.69,0,0,1-2.57-4.47A6.2,6.2,0,0,1,323.16,12a13.84,13.84,0,0,1,6.65-1.38q10.9,0,11.79,9.4h13q-.45-11.34-9.13-16.44Q339.39,0,330.52,0,320.32,0,314,4.48a16.57,16.57,0,0,0-7.49,14.27,16.56,16.56,0,0,0,2.17,8.65,14.38,14.38,0,0,0,6.65,5.85A71.73,71.73,0,0,0,326.26,37q9.71,2.72,12.28,3.68,4.74,1.88,4.74,5.86a7.17,7.17,0,0,1-3.41,6.25c-1.95,1.36-4.64,2-8.07,2q-7.57,0-11.35-4c-1.59-1.72-2.49-4.3-2.7-7.76H304.19q.21,8,4.16,13.21,6.91,9.18,23,9.17,11.4,0,18.13-4.92A18,18,0,0,0,357,45.22,15.61,15.61,0,0,0,349.44,31.43Z"/><polygon class="cls-1" points="420.96 25.22 395.38 25.22 395.38 1.51 381.77 1.51 381.77 63.97 395.38 63.97 395.38 36.79 420.96 36.79 420.96 63.97 434.57 63.97 434.57 1.51 420.96 1.51 420.96 25.22"/><path class="cls-1" d="M49.61,137.45a169.89,169.89,0,0,0-5.36,19.9,156.89,156.89,0,0,0-5.19-19.77l-9.35-27.13H10.29v62.46h13V152.74q0-11.56-.8-29.92A198.7,198.7,0,0,0,28.78,145l10,27.93H49.52l9.76-28.5q3.36-9.76,6.38-21.86-.84,16.58-.84,31.65v18.71H77.76V110.45H58.52Z"/><path class="cls-1" d="M144.8,148.09q0,7.26-2.13,10.5-2.92,4.49-10.6,4.48-8.19,0-11.39-4.74-2.09-3.11-2.08-10.24V110.45H105V147.2a45.28,45.28,0,0,0,1.11,11.35,19.44,19.44,0,0,0,8.6,11.88q6.19,4,17.11,4,20.2,0,25.13-14.72,1.47-4.35,1.46-12.32V110.45H144.8Z"/><path class="cls-1" d="M226.06,140.37q-4.12-2.7-14.72-5.32-10.07-2.48-12.54-3.85a4.69,4.69,0,0,1-2.57-4.48,6.21,6.21,0,0,1,3.54-5.81,14,14,0,0,1,6.65-1.37q10.91,0,11.79,9.4h13q-.44-11.35-9.13-16.45Q216,109,207.13,108.94q-10.2,0-16.53,4.48a17.63,17.63,0,0,0-5.32,22.92,14.29,14.29,0,0,0,6.65,5.85A71.59,71.59,0,0,0,202.88,146q9.7,2.7,12.27,3.68,4.75,1.86,4.75,5.85a7.18,7.18,0,0,1-3.42,6.25q-2.92,2-8.06,2-7.59,0-11.35-4c-1.6-1.72-2.5-4.3-2.71-7.76H180.8q.22,8,4.17,13.21,6.92,9.18,23,9.18,11.38,0,18.13-4.92a18,18,0,0,0,7.58-15.34A15.64,15.64,0,0,0,226.06,140.37Z"/><polygon class="cls-1" points="271.99 110.45 258.38 110.45 258.38 172.91 302.54 172.91 302.54 161.34 271.99 161.34 271.99 110.45"/><rect class="cls-1" x="325.33" y="110.45" width="13.61" height="62.46"/><path class="cls-1" d="M406.42,137.45a168.07,168.07,0,0,0-5.37,19.9,156.94,156.94,0,0,0-5.18-19.77l-9.36-27.13H367.1v62.46H380V152.74q0-11.56-.8-29.92A200.88,200.88,0,0,0,385.58,145l10,27.93h10.73l9.75-28.5q3.38-9.76,6.38-21.86-.84,16.58-.84,31.65v18.71h12.95V110.45H415.33Z"/><path class="cls-1" d="M458.86.11V173.73h144V.11ZM525.7,55.34H505.2v81.91H491V55.34H470.52V37.17H525.7Zm40.78,81.91H555.41L530.35,37.17H545l16,66.76,16-66.76h14.6Z"/></g></g></svg>