<svg xmlns="http://www.w3.org/2000/svg" viewBox="0 0 500 497.91"><defs><style>.cls-1{fill:#fff;}</style></defs><g id="Layer_2" data-name="Layer 2"><g id="Layer_1-2" data-name="Layer 1"><path class="cls-1" d="M500,247.53c.78,137.6-112.76,248.91-247.25,250.36C111.41,499.42.33,386.77,0,251.14-.34,112.83,110.52,1.23,247.42,0,389.44-1.25,499.76,110.75,500,247.53ZM249.89,429.74c59.22-.37,99-21.6,136-58.22,23-22.74,36.08-51.6,42.78-82.8C441.48,229,427.18,176,386.92,129.65c-20.6-23.72-46-39.63-74.58-51.26-26.21-10.67-53.72-11.08-81.39-9-12.82,1-25.46,3.21-37.07,9.19-10.63,5.47-14.41,15-10.11,25.59,2.56,6.33,8,9.79,13.89,12.63,13,6.23,26.2,12.06,38,20.59,31.31,22.61,47.2,54.83,53.92,91.3,4.29,23.27.8,47.28-8.72,69.15-6.1,14-12.36,28.15-22.76,40.41-16.94,20-37.44,33.64-61.6,42.63-3.51,1.3-7,2.51-9.53,5.78-9,11.6-5,27.47,9,33.82C213.9,428.62,233.18,429.3,249.89,429.74Z"/></g></g></svg>