<svg xmlns="http://www.w3.org/2000/svg" viewBox="0 0 500 191.91"><defs><style>.cls-1{fill:#fff;}</style></defs><g id="Layer_2" data-name="Layer 2"><g id="Layer_1-2" data-name="Layer 1"><path class="cls-1" d="M94.29,13.48C86.35,5.17,71.67.37,57.07.37c-1.57,0-3.14.09-4.61.18L105.84,33.8C102.6,22.35,98,17.27,94.29,13.48Z"/><path class="cls-1" d="M372.09,53.47V99.74l39.81-24v-44c0-1,1.75-3.51,4.24-6,5.54-5.54,11.64-8.5,17.64-8.5,8.5,0,12.84,7.11,12.84,21V54.67l40.45-24.38v-.18h0C483.93,11.82,466.38.55,447.64.55c-15.15,0-27.25,6.75-35.84,21.8l-.09.09a7.48,7.48,0,0,1-.37-.83,37,37,0,0,0-7.76-10.44L369.87,53.56A19.94,19.94,0,0,1,372.09,53.47Z"/><path class="cls-1" d="M79.7,104.54c-.55.19-1,.28-1.57.47h0c-.92.27-1.75.46-2.59.64-.18.09-.46.09-.64.19a4.76,4.76,0,0,1-1.11.18,6.38,6.38,0,0,1-1.29.19c-.28,0-.56.09-.83.09-.47.09-1,.09-1.48.18h-.56c-.64,0-1.2.1-1.84.1a11.48,11.48,0,0,1-1.85-.1h-.28a9.45,9.45,0,0,1-1.57-.18h-.18L62.25,106h-.1a10.12,10.12,0,0,1-1.66-.37c-13.94-3.42-21.7-17.73-21.7-38.32H58.46l-5.82-10H38.79v-9a21.4,21.4,0,0,1,.09-2.4v-.37c0-.83.09-1.66.09-2.4V43c0-.83.1-1.57.1-2.31v-.19a18.51,18.51,0,0,1,.18-2.31v-.09c.09-.74.09-1.38.18-2.12,0-.28.1-.56.1-.83L25.21,10.25c-.09.09-.27.19-.37.28h0c-.46.37-1,.74-1.47,1.11l-.1.09c-.64.46-1.29,1-1.94,1.57l-.27.28c-.65.55-1.3,1.1-1.85,1.66l-.28.28c-.64.55-1.2,1.2-1.84,1.84h0c-.65.65-1.21,1.3-1.76,1.94l-.28.28c-.55.65-1.1,1.38-1.66,2h0C5.08,32.23.09,46.27.09,62.8c0,34.26,24.57,59.48,55,59.48a74.25,74.25,0,0,0,14-1.21h.19l2.58-.55a6.26,6.26,0,0,1,.65-.18c.65-.19,1.29-.28,1.94-.47.28-.09.46-.09.74-.18a20.47,20.47,0,0,0,2.21-.74l.84-.28c.55-.18,1.1-.37,1.57-.55a3.53,3.53,0,0,0,.83-.37c.64-.28,1.38-.55,2-.83a4.39,4.39,0,0,0,.92-.46c.46-.19.93-.46,1.39-.65.27-.18.55-.28.83-.46H86c.09,0,.09-.09.19-.09l-6.28-10.81C79.89,104.54,79.79,104.54,79.7,104.54Z"/><path class="cls-1" d="M193,88.2l48.67,30.38h3.05v-7c-8.41-.64-11.18-4.8-11.64-13.11v-.56h0a3.84,3.84,0,0,0-.09-1V96L193,42.57Z"/><path class="cls-1" d="M487.62,95.86V42.3l-34.07,76.28h46.36L500,112C490.12,111.29,487.62,107.13,487.62,95.86Z"/><path class="cls-1" d="M356.85,107A19.78,19.78,0,0,1,345.4,96.42c-.92-1.85-1.38-5.36-1.75-9.79l-17.37,21.79s.1,0,.1.09h0a40.1,40.1,0,0,0,16.07,7.21c.64.18,1.38.28,2,.46a.33.33,0,0,1,.27.09L359,107.68C358.24,107.41,357.5,107.22,356.85,107Z"/><path class="cls-1" d="M163.28,32.42c.28-4,4.8-9.42,9.51-12.56.1-.1.19-.1.28-.19l.74-.46a.31.31,0,0,0,.18-.09,4,4,0,0,1,.93-.46h0l-4.44-5.92h0l-.18.19-.37.37c-.46.46-.92,1-1.39,1.57h0a81,81,0,0,0-5.35,7.39l-.19.18-.46-1.2C156.08,9.88,144.63.37,122.74,0H109V6.83c11.08,1.48,14.13,5.45,14.13,17.18v20.6l40.17,25Z"/><path class="cls-1" d="M249.63,17.27C259.24,17.27,263,25.49,263,41V63.63l18.2,54.67L303.1,34.82C302.64,13.3,289.34.55,269,.55a36.14,36.14,0,0,0-24.28,8.59l2.86,8.5A5.51,5.51,0,0,1,249.63,17.27Z"/><path class="cls-1" d="M111.47,111.47v7h63.45v-7c-9.33-.74-11.64-5.73-11.64-16V69.63l-40.17-25V95.49C123.2,105.74,120.8,110.73,111.47,111.47Z"/><path class="cls-1" d="M41.93,22.26c3.32-8.13,10.71-11.92,16.44-11.92a18.29,18.29,0,0,1,5.82,1c.46.18.83.37,1.29.55a.09.09,0,0,0,.09.1,9.36,9.36,0,0,1,1.29.73h0a17.86,17.86,0,0,1,2.59,2A19.57,19.57,0,0,1,73.88,22C75.64,27.06,76,39.43,76,52.46l.09,4.8H52.55l5.82,10h51.07a147.5,147.5,0,0,0-2.31-28.07h0c0-.19-.09-.28-.09-.46s-.1-.28-.1-.37c-.09-.47-.18-.83-.27-1.3a.33.33,0,0,0-.09-.27,8.65,8.65,0,0,0-.37-1.39v-.09c-.19-.56-.28-1.11-.47-1.66L52.36.37a32.5,32.5,0,0,0-3.23.37H49c-.37,0-.65.09-1,.09h0a57.3,57.3,0,0,0-22.81,9.42L39.62,35C40.08,29.28,40.82,24.84,41.93,22.26Z"/><path class="cls-1" d="M193,95.49c0,10.25-2.31,15.24-11.64,16v7h60.4L193,88.2Z"/><path class="cls-1" d="M108.51,94.57l-6.09-3.51C96.69,96.88,88.2,101.77,80,104.45l6.28,10.81C94.57,110.82,101.77,104.08,108.51,94.57Z"/><path class="cls-1" d="M262.93,63.63V97.16a7.12,7.12,0,0,1-.09,1.38v.65c0,.27-.1.55-.1.83a5.53,5.53,0,0,1-.18,1.2c-.92,6.37-4,9.6-11.27,10.16v7h29.83l.1-.28Z"/><path class="cls-1" d="M233.19,94.38v-62h0v-.65c0-3.23,3.88-7.85,8.22-11.08l.92-.65c.1-.09.19-.09.19-.18l.83-.56a.71.71,0,0,1,.37-.18c.18-.1.28-.19.46-.28s.56-.28.83-.46c.1,0,.1-.09.19-.09a11.93,11.93,0,0,1,2.31-.84h.09l-2.86-8.4-.1.09h0c-.18.19-.46.37-.64.56s-.46.46-.74.64A102.19,102.19,0,0,0,231.9,22.26C224.33,6.46,215.46.46,199.58.46c-12.2,0-21.25,3.79-29.1,12.19l4.44,5.91a10,10,0,0,1,4.43-1.29C189.23,17.27,193,23,193,38.05v4.52l40.17,53.29V94.38Z"/><path class="cls-1" d="M343.65,86.63h0c-.1-1.11-.19-2.22-.19-3.42a44.31,44.31,0,0,1,0-4.89c.28-5.92.83-10.9,1.94-13.21,3.23-6.93,8.87-10.9,15.42-11.45.37,0,4.62-.1,8.22-.1H370l33.61-42.39-.27-.27h0c-.19-.09-.28-.28-.47-.37l-.09-.09h0C395.83,4.34,385.85.28,371.35,0H358.61V6.19c9.79,0,13.39,7.48,13.39,18.19v19.3H360.36c-15.33.46-28.44,3.7-36,10.81-5.08,4.8-9.32,13-9.51,24v4.34c.19,11,4.43,19.21,9.51,24,.56.56,1.2,1,1.76,1.57l17.55-21.79Z"/><path class="cls-1" d="M281.22,118.58h34.54l-.1-7.11c-7.66-.37-11-3.32-12.19-9.6a6.56,6.56,0,0,1-.18-1.3v-.09a7.17,7.17,0,0,1-.09-1.39v-.36c0-.37-.1-.84-.1-1.3V34.82L281.22,118.3Z"/><path class="cls-1" d="M324.81,27.71c.92-2.87,5.81-6.93,11.63-5.82,4.07.74,7.48,5.26,7.48-1.66,0-5.82,3.6-12,10.25-13.4V1c-6.55,1.38-12.46,3-15.23,15.51-12.38-2.4-16.26,6.28-16.44,11.27C322.31,31.12,322.77,33.62,324.81,27.71Z"/><polygon class="cls-1" points="281.12 118.58 281.21 118.58 281.12 118.3 281.12 118.58"/><path class="cls-1" d="M487.62,41.93V36a38.77,38.77,0,0,0-.46-5.82L446.71,54.58V95.4c0,10.25-2.31,15.24-11.63,16v7h18.56l34-76.1Z"/><path class="cls-1" d="M344.94,116.27a97.2,97.2,0,0,0,13.85,1.66c2.86.19,9.15.65,13.21.65h51.53v-7c-9.33-.74-11.63-5.72-11.63-16V75.82l-39.81,24v8.59a64.38,64.38,0,0,1-13-.74l-14.22,8.59c0-.09.09-.09.09,0Z"/><path class="cls-1" d="M25.77,151A13.11,13.11,0,0,1,37,158l8.87-4.34c-3.42-6.1-9.51-11.83-20.13-11.83-14.6,0-25.77,10.07-25.77,25s11.17,25,25.77,25c10.52,0,16.71-5.82,20.13-11.91L37,175.75a13.11,13.11,0,0,1-11.26,7c-8.87,0-15.15-6.74-15.15-15.89S16.9,151,25.77,151Zm86.72,10.62H89.77V142.69H79.42V191H89.67V170.67h22.82V191h10.34v-48.3H112.49Zm60.86-18.93L154.78,191h11.64l3.05-8.22h20.69l3,8.22h11.64l-18.56-48.3Zm-1.11,31,7.48-20.78,7.48,20.78Zm95.95-.74-22.35-30.39H235.32v48.3h10.25V159.4l23,31.49h9.88v-48.3H268.19Zm83.12,0L329,142.59H318.43v48.3h10.25V159.4l23,31.49h9.88v-48.3H351.31ZM400,191h34.17v-9.05H410.33V171h23.36v-9H410.33V151.74h23.82v-9.05H400Zm79.61-9.05V142.69H469.25V191H500v-9.05Z"/></g></g></svg>