<svg xmlns="http://www.w3.org/2000/svg" viewBox="0 0 500 654.73"><defs><style>.cls-1{fill:#fff;}</style></defs><g id="Layer_2" data-name="Layer 2"><g id="Layer_1-2" data-name="Layer 1"><path class="cls-1" d="M500,267.86c-.4.11-.46.42-.48.78-1.9,30.36-9.71,59.2-22.43,86.75a243.65,243.65,0,0,1-29,47.53,16.94,16.94,0,0,1-1.16,1.38c-.1.11-.31.12-.47.18-.45-.65.07-1.15.32-1.64,1.83-3.61,3.61-7.25,5.56-10.8a108,108,0,0,0,11.56-33.26,134.77,134.77,0,0,0,2.15-21.3c0-2,.25-4,.21-5.93-.14-7.41-.45-14.79-1.25-22.17A203.17,203.17,0,0,0,357.26,151.56,199.9,199.9,0,0,0,311,134.13a196.65,196.65,0,0,0-21.57-3.95c-6.67-.83-13.35-1.32-20.07-1.55-5.69-.2-11.37-.12-17,.15-6.27.3-12.52,1-18.75,1.87A202.3,202.3,0,0,0,123.75,184,202.34,202.34,0,0,0,78.57,247c-1.14,2.5-2.2,5.05-3.3,7.57-.27.63-.56,1.24-.88,1.93-.14-.43,0,.15-.29-.1a.27.27,0,0,1-.08-.2c.2-3.61.32-7.23.63-10.83A235.41,235.41,0,0,1,79.94,212,231.75,231.75,0,0,1,88,185.08a227.12,227.12,0,0,1,9.36-21.83,230.33,230.33,0,0,1,29.74-45.86,228,228,0,0,1,16.49-17.83A231.8,231.8,0,0,1,164.52,81.5a234.62,234.62,0,0,1,21.81-14.79,231.2,231.2,0,0,1,22.87-12,219.2,219.2,0,0,1,23.07-9,231.27,231.27,0,0,1,25.17-6.76c8.76-1.82,17.62-3.07,26.52-4a80.54,80.54,0,0,0-10.28-.77c-4.05,0-8.1-.06-12.15.09-6.19.22-12.37.64-18.53,1.32-7.11.79-14.17,1.87-21.16,3.32a228.25,228.25,0,0,0-51.77,17.37,231.12,231.12,0,0,0-127,160.32c-1.44,6.73-2.54,13.53-3.36,20.37a206,206,0,0,0-1.58,26c0,4.13,0,8.27.14,12.4.21,5.77.74,11.51,1.43,17.24.77,6.33,1.81,12.6,3.09,18.85a216.08,216.08,0,0,0,10.66,35.84,223.43,223.43,0,0,0,75.9,98.3c.55.4,1.15.74,1.73,1.09,0,0,.15,0,.36-.06.12-.63-.31-1.07-.63-1.52a115.82,115.82,0,0,1-8-13.28,119.55,119.55,0,0,1-11.12-31.56,125.27,125.27,0,0,1-2.29-20,121.81,121.81,0,0,1,38-92.47A128,128,0,0,1,242,253a127.41,127.41,0,0,1,50.11,13.09,125.83,125.83,0,0,1,29.52,20.25A123.12,123.12,0,0,1,347.54,320,120.46,120.46,0,0,1,360,357.8,116.82,116.82,0,0,1,361.29,382a120.16,120.16,0,0,1-26.42,69.87,124.64,124.64,0,0,1-58.17,40.89,126.72,126.72,0,0,1-25.38,5.8,129.48,129.48,0,0,1-21.91.91,135.31,135.31,0,0,1-18.71-2.23c-3.46-.65-6.95-1.19-10.43-1.79a219.33,219.33,0,0,1-41.69-11.68,236.54,236.54,0,0,1-67-39.74A255.47,255.47,0,0,1,6.38,303.66q-2.52-11.34-3.92-22.9C1.72,274.69,1.21,268.6.81,262.5A8.45,8.45,0,0,0,.6,261c0-.17-.39-.25-.6-.37V238.9a.57.57,0,0,0,.73-.51c.09-.86.13-1.72.2-2.57.41-4.89.7-9.79,1.25-14.66a238.83,238.83,0,0,1,4.66-27.22,250.86,250.86,0,0,1,131-167.11A249,249,0,0,1,230,1c1.46-.11,2.91-.29,4.37-.43.33,0,.36-.29.41-.54h31c.15.72.75.56,1.22.6,6,.54,12,1,18,1.89a254.77,254.77,0,0,1,28.58,5.69A245.92,245.92,0,0,1,377.9,35,250.82,250.82,0,0,1,487.35,170.3a232.93,232.93,0,0,1,12.17,61.09c0,.36.08.67.48.79Z"/><path class="cls-1" d="M320.13,569.1c-.08-1.44-.08-2.89-.24-4.32a51.09,51.09,0,0,1-.3-5.93q0-22.74,0-45.5a6.61,6.61,0,0,1,.17-2.51c.43-.48,1-.38,1.47-.38h41.36c.5,0,1-.11,1.38.18a1.32,1.32,0,0,1,.4,1.05c.23,4.38.05,137.14-.19,139.05-.29.41-.74.36-1.16.36H323.47a1.61,1.61,0,0,1-1.36-.39,8.34,8.34,0,0,1-.12-2.38c0-.86,0-1.72,0-2.59v-2.32c0-.87,0-1.73,0-2.59a14.5,14.5,0,0,0-.11-2.53c-.94.24-1.18.93-1.57,1.44a42.6,42.6,0,0,1-8.57,8.55,32.78,32.78,0,0,1-19.29,6.38,36.23,36.23,0,0,1-12.2-1.78,32.78,32.78,0,0,1-14.78-10.48A48,48,0,0,1,256,623.35a70.17,70.17,0,0,1-2.2-17.38,90.91,90.91,0,0,1,.56-12.12c1.43-10.57,5.05-20.17,12.29-28.2A31.74,31.74,0,0,1,285.4,555c12.2-2,22.64,1.43,31.1,10.56.59.63,1.13,1.29,1.69,2l1.48,1.74Zm.59,35.79c0-4.09-.44-6.17-1.85-8.56a10.18,10.18,0,0,0-5.54-4.77c-5.48-1.84-11.87-.27-14.53,6.18a17.54,17.54,0,0,0,.11,13.78,12,12,0,0,0,3.15,4.35,11,11,0,0,0,16.4-2.53A13.93,13.93,0,0,0,320.72,604.89Z"/><path class="cls-1" d="M56.76,650.94c-3.21.29-43.22.22-45.2-.05a.82.82,0,0,1-.19-.18.51.51,0,0,1-.07-.24l-.06-138.26a7.13,7.13,0,0,1,.07-1,1.52,1.52,0,0,1,.21-.45c.43-.38,1-.26,1.48-.27,13.47-.27,40.38-.13,42.87.22.58.75.33,1.64.34,2.48,0,7.66,0,15.33,0,23,0,3.44,0,6.89,0,10.34.1,6.37-.26,12.73-.44,19.1,0,1.25-.17,2.5-.25,3.77.85,0,1.05-.7,1.41-1.15a43,43,0,0,1,8-7.69,32.29,32.29,0,0,1,18.56-6.2A37.53,37.53,0,0,1,97,556.24c8.7,3,14.55,9,17.79,17.49a35.86,35.86,0,0,1,2.26,12.9q0,30.89,0,61.77v2.25c-1,.76-1.94.44-2.84.44q-15,0-30,0c-3.45,0-6.89,0-10.34,0a5.46,5.46,0,0,1-2.37-.23,8.94,8.94,0,0,1-.15-2.78q0-22.23,0-44.45a38.58,38.58,0,0,0-.47-6.17,17.84,17.84,0,0,0-.39-1.76c-.72-2.83-2.66-4.18-5.75-4.11a6.85,6.85,0,0,0-6.24,3.91,15.1,15.1,0,0,0-1.54,6.22c-.07,1.46-.09,2.92-.09,4.39q0,20.93,0,41.87C56.83,648.92,56.79,649.85,56.76,650.94Z"/><path class="cls-1" d="M446.67,568.9c0-3.74,0-7.49.07-11a2.63,2.63,0,0,1,.35-.37.51.51,0,0,1,.24-.07l41.34-.07c.42,0,.84,0,1.14.07.62.45.48,1,.5,1.5s0,1.21,0,1.81v87.08c0,1-.06,2-.08,2.85a1.64,1.64,0,0,1-1.4.44c-8.69.25-37.9.1-40.33-.2a4.91,4.91,0,0,1-.25-2.47c0-.86,0-1.72,0-2.58V643c0-.86,0-1.72,0-2.58a15.33,15.33,0,0,0-.09-2.52c-.94.22-1.2.91-1.61,1.41a52.71,52.71,0,0,1-9.25,9,32.51,32.51,0,0,1-18.75,6.39c-11.47.3-20.45-4.49-27.52-13.26a48.69,48.69,0,0,1-9.39-19.63,61.32,61.32,0,0,1-1.74-14.84c0-2.67,0-5.34.12-8a60.64,60.64,0,0,1,5.46-22.7,41.66,41.66,0,0,1,11.56-15,31.63,31.63,0,0,1,17.81-6.82,34.69,34.69,0,0,1,15.45,2.23,36.05,36.05,0,0,1,13.51,9.7c.81.89,1.59,1.8,2.39,2.7Zm.15,35.14c-.06-.94-.07-1.89-.18-2.83a18,18,0,0,0-.48-2.27,11.08,11.08,0,0,0-9.67-8.42c-5.93-.53-9.83,2.46-11.62,6.72a16.38,16.38,0,0,0,.06,13.53c2,4.45,5.67,6.61,10.51,6.53a10.68,10.68,0,0,0,10.32-7.19A15.89,15.89,0,0,0,446.82,604Z"/><path class="cls-1" d="M194,557.57c2.57-.31,42.4-.29,44.55,0a5.38,5.38,0,0,1,.24,2.73q0,22.62,0,45.24c0,1.64,0,3.27,0,4.91a61.37,61.37,0,0,1-3.47,19.48,33.38,33.38,0,0,1-18.66,19.66,60.43,60.43,0,0,1-14.38,4,103.76,103.76,0,0,1-22.41.91A67.1,67.1,0,0,1,157.76,650a33.81,33.81,0,0,1-17.26-14.9A42.83,42.83,0,0,1,136,622.72a71.06,71.06,0,0,1-1.43-14.62q0-23.77,0-47.56v-2.85a5.84,5.84,0,0,1,2.9-.33q19.52,0,39,0H179c.71,1,.41,1.94.42,2.85q0,20.81,0,41.61c0,1.81,0,3.63.11,5.43a40.38,40.38,0,0,0,.84,6.91,5.54,5.54,0,0,0,4.45,4.46,9,9,0,0,0,4.34-.08,5,5,0,0,0,3.66-3.31,18.23,18.23,0,0,0,1-5.32c.12-2.15.19-4.3.19-6.45q0-21.45,0-42.91Z"/><path class="cls-1" d="M445.9,405c.05,0,.11,0,.14,0s.1.23-.09.32a.43.43,0,0,1-.13-.17S445.87,405.06,445.9,405Z"/></g></g></svg>