<svg xmlns="http://www.w3.org/2000/svg" viewBox="0 0 558.22 155.85"><defs><style>.cls-1{fill:#fff;}</style></defs><g id="Layer_2" data-name="Layer 2"><g id="Layer_1-2" data-name="Layer 1"><path class="cls-1" d="M333.47,91.51c0-4-.07-7.18,0-10.32a24.05,24.05,0,0,1,24-23.63c10.48-.11,20.95,0,31.43-.05,1.61,0,3.31.44,4.83-.43,1.45-10-.72-12.6-10.31-12.6H335.28V27h18.47c11,0,21.95-.06,32.93,0,14.17.1,24.54,10.35,24.68,24.49.12,13.07,0,26.14,0,39.89,4.52,0,9,.43,13.32-.12s5.77-3.89,5.74-8q-.09-14.91,0-29.81C430.49,37.12,440.57,27,456.81,27q37.67,0,75.34,0c15.67,0,26,10.24,26.05,25.71q0,25.33,0,50.67V108H540.59V91.43c0-12.91,0-25.83,0-38.74,0-5.9-2.24-8.14-8.11-8.19-9.45-.08-18.9,0-28.77,0V108H486.48V44.67c-11.43,0-22.35-.31-33.23.16-4.35.18-5.56,4.1-5.55,8.12,0,9.93,0,19.87,0,29.8-.07,16.35-10,26.3-26.45,26.32q-49.39.08-98.78,0c-14.75,0-25.28-9.85-25.43-24.29-.27-27-.08-54-.07-81a16.94,16.94,0,0,1,.4-2.5h16c1.32,1.67.76,3.57.76,5.32q.06,37.52,0,75c0,8.12,1.8,9.86,10,9.88Zm17.95-.27h42.35V74.92H365.64c-14.4,0-15.74,1.42-14.74,15.62C350.91,90.68,351.09,90.8,351.42,91.24Z"/><path class="cls-1" d="M120.77,155.85H.61c-1-1.71-.47-3.56-.47-5.31,0-28.48.08-57-.07-85.45-.1-18,7-32.61,20-44.76C31.07,10.08,44.61,4.8,58.55.26A5.26,5.26,0,0,1,61.49.17C76.83,4.91,91.44,10.93,103,22.65c11.78,11.91,17.8,26,17.76,42.78C120.72,95.39,120.77,125.34,120.77,155.85Zm-16.68-16.62c0-25.1-.2-49.75.07-74.4.19-17.22-8.11-30.14-22.12-38C60.22,14.51,62.2,14.47,40.55,25.54c-.29.15-.63.22-.91.4-13.92,9-22.92,21-23,38.16-.09,23.51,0,47,0,70.52v4.61Z"/><path class="cls-1" d="M164.82,28h17.31c0,8.14,0,16,0,23.93q0,14.4.11,28.81c0,7.38,2.21,9.61,9.41,9.62,20.62,0,41.24,0,61.86,0,2.55,0,5-.13,7-1.93a6.7,6.7,0,0,0,1.82-7.72c-1.17-3.29-4.07-4.16-7.24-4.17-9.81,0-19.63.08-29.44,0-11.35-.15-20.86-7.4-23.72-17.83C198.88,47.48,203.13,36,212.57,30c2.85-1.8,5.93-3.37,9.27-3.4,17.41-.15,34.82-.07,52.5-.07v17.2H239.88c-4.49,0-9-.07-13.47,0-5.2.09-7.74,2.61-7.79,7.53s2.47,7.75,7.56,7.84c9.48.17,19,.06,28.44.06,10.62,0,18.67,4.45,23.32,14,7.46,15.4-3.31,33.78-20.48,34.15-23.27.5-46.57.37-69.84,0a23.42,23.42,0,0,1-22.71-22.75C164.57,66,164.82,47.26,164.82,28Z"/><path class="cls-1" d="M172.46,17A8.28,8.28,0,1,1,173.86.55a8.42,8.42,0,0,1,7.74,8.69A8.52,8.52,0,0,1,172.46,17Z"/><path class="cls-1" d="M242.67,142.11a15.31,15.31,0,0,1-3.49,8.89q-4.06,4.84-11.55,4.85-7.92,0-12.36-5.61a18.78,18.78,0,0,1-3.78-12A18.12,18.12,0,0,1,216,125.73q4.47-5,11.93-5a14.56,14.56,0,0,1,11.2,4.59,12.1,12.1,0,0,1,3.33,7.44h-7.23a7.5,7.5,0,0,0-1.78-3.66,7.29,7.29,0,0,0-5.66-2.26,7.69,7.69,0,0,0-7.13,4,14.43,14.43,0,0,0-1.78,7.46,14.17,14.17,0,0,0,1.85,7.54,7.69,7.69,0,0,0,7,3.87,6.88,6.88,0,0,0,6.06-2.92,10.41,10.41,0,0,0,1.62-4.71Z"/><path class="cls-1" d="M284.58,121.55V155h-7.3V140.47H263.56V155h-7.29V121.55h7.29v12.72h13.72V121.55Z"/><path class="cls-1" d="M317.07,121.48,329.78,155h-7.67l-2.67-7.51H307L304.28,155h-7.54l12.77-33.56Zm.59,20.7-2.16-6a70.36,70.36,0,0,1-2.24-7.27c-.55,2-1.34,4.4-2.35,7.27l-2.16,6Z"/><path class="cls-1" d="M370.29,121.55V155h-7.37l-10-16.16c-1.55-2.57-2.41-4-2.59-4.31-.52-.91-1.07-2-1.64-3.2q.32,3.76.31,9.41V155h-7V121.55h7.47l9.72,15.81q3,4.86,4.4,7.72-.31-5.21-.31-9.58v-14Z"/><path class="cls-1" d="M414.33,121.55V155H407l-10-16.16c-1.56-2.57-2.42-4-2.6-4.31-.52-.91-1.07-2-1.64-3.2q.31,3.76.31,9.41V155h-7V121.55h7.46l9.72,15.81q3,4.86,4.4,7.72-.32-5.21-.31-9.58v-14Z"/><path class="cls-1" d="M455.18,121.55v6.2H437.36v7.13h16.35v5.76H437.36v8.2h18.16V155H430.06V121.55Z"/><path class="cls-1" d="M493.12,148.84V155H469.44V121.55h7.3v27.29Z"/></g></g></svg>