<svg xmlns="http://www.w3.org/2000/svg" viewBox="0 0 500 567.43"><defs><style>.cls-1{fill:#fff;}</style></defs><g id="Layer_2" data-name="Layer 2"><g id="Layer_1-2" data-name="Layer 1"><path class="cls-1" d="M236.29,362.3a49.17,49.17,0,0,1-1.9-5.51c-4.33-19.62-8.86-39.16-17.65-57.43-9.71-20.2-25-34.66-44.9-44.5-1.14-.56-2.76-.12-4.16-.15.16,1.4-.12,3.07.55,4.16a130.52,130.52,0,0,1,15,34.13c4.95,18.07,5.46,36.43,3.7,54.88C184.19,376,176.11,403,168.72,430.19c-5.56,20.46-11.05,41-12.37,62.26-1.7,27.16,5.6,51,26.42,69.69a4.79,4.79,0,0,1,1.18,1.15c.6,1.26,1.06,2.58,1.58,3.88-1.34,0-2.92.55-4,0-17.58-8.74-35.44-17-52.55-26.62-20.51-11.5-38.94-26.09-55.63-42.66-28.95-28.71-50.07-62.28-62-101.47A265.86,265.86,0,0,1,0,322.77c-.51-31,3.74-61.28,11.15-91.31C20.9,192.07,36.94,155.15,54,118.58q4.13-8.83,8.54-17.55a14.5,14.5,0,0,1,2.58-2.88c.75,1,1.89,2,2.2,3.15A143.49,143.49,0,0,0,84.18,140a198.41,198.41,0,0,0,47.65,52.35c17.95,13.9,37.15,26.16,55.6,39.41,21.46,15.41,37.19,35.16,44.31,61,4.81,17.49,6.4,35.42,6.8,53.49.09,4.16.35,8.32.37,12.47a12.72,12.72,0,0,1-.95,3.34Z"/><path class="cls-1" d="M262.15,362.2c-.37-1.21-1.07-2.42-1-3.61.42-22.34,1.21-44.62,7.28-66.36,6.95-24.86,21.83-44.07,42.32-59,14.55-10.61,30-20,44.56-30.58,23.69-17.29,44.62-37.42,60.39-62.44a128,128,0,0,0,16.39-37.53c.41-1.66,1.34-3.19,2.47-5.79a43.94,43.94,0,0,1,3.46,5c14.33,29.84,28.44,59.8,39.31,91.12,12.18,35.11,20.45,71.07,22.28,108.36,1.09,22.12.21,44.13-3.78,65.91-7.57,41.28-24.32,78.42-51.17,110.82C414.83,514,377.56,540,335.6,559.63c-5.26,2.47-10.53,4.93-15.9,7.13-1.56.64-3.49.36-5.25.5.77-1.56,1.18-3.53,2.37-4.64,9.51-8.79,17.08-18.88,21.61-31.11,5.25-14.22,6.17-28.87,4.76-43.84-2.17-23-8.63-45.12-14.66-67.3-6.44-23.68-13-47.33-15.4-71.86-3.1-31.56,1-61.69,18.25-89.13.8-1.27.56-3.18.81-4.8-1.52.19-3.23,0-4.55.63-26.26,12.52-42.65,33.57-51.2,60.85-4.3,13.72-7.33,27.84-11,41.75a31.85,31.85,0,0,1-2,4.53Z"/><path class="cls-1" d="M389.92,101.49c-1.21,24.66-13.73,43.75-30.23,60.75C341,181.55,318.42,195.71,295,208.49c-13.73,7.5-27.64,14.67-41.59,21.77-1.7.87-4.52,1.19-6.1.38-26.84-13.84-54-27.06-78.77-44.6-17.42-12.36-33.36-26.3-44.94-44.51-19.36-30.45-18-61.4,4.14-90,4.9-6.34,10.71-12,16.24-17.82.77-.81,2.31-.89,3.49-1.32.18,1.17.85,2.57.44,3.47-9.9,21.61-1.1,39.07,12.49,55.21,12.7,15.07,28.28,27,44.39,38.12,13.44,9.29,27.29,18,40.88,27.12,2.83,1.89,5,2.33,8.19.27,24.73-16.13,50-31.59,72-51.47,10.54-9.51,20.23-19.78,26.19-33,5.16-11.46,5.72-23,.75-34.62-.16-.38-.49-.76-.49-1.14,0-1.29.12-2.58.19-3.87,1.2.4,2.78.44,3.55,1.25,5.53,5.83,11.3,11.5,16.23,17.82,10.45,13.42,17,28.53,17.66,45.79C390,98.72,389.92,100.1,389.92,101.49Z"/><path class="cls-1" d="M194.76,38.13c-.61,7.82,2.76,14.46,8,19.42,8.78,8.38,18.31,16,27.86,23.53,5.2,4.1,11,7.46,16.69,10.89,1.25.75,3.71,1.11,4.74.4,13.05-9.11,26.16-18.16,38.75-27.88,4.37-3.38,7.64-8.36,10.87-13,3.54-5.08,4.2-11,3.42-17.15-.13-1,.63-2.2,1-3.31,1.07.48,2.45.68,3.18,1.48,8.18,8.94,14,19,13.52,31.58-.35,9-4,16.85-9.32,24-9.81,13-23.07,21.83-37,29.73q-11.19,6.34-22.72,12.1c-1.75.87-4.57,1.35-6.15.54-17.84-9.18-36.1-17.76-51.1-31.51-9.78-9-17.73-19.23-19.12-33C176,52.45,182.19,41.83,190.9,32.35c.64-.71,1.92-.82,2.91-1.21a16.69,16.69,0,0,1,1.1,3.26A20.33,20.33,0,0,1,194.76,38.13Z"/><path class="cls-1" d="M211.48,36.51c-.49-9,4.18-15.24,10.35-19.79,8.2-6,17.25-11,26-16.21a4.73,4.73,0,0,1,3.91-.16C262.71,6,274,11.23,282.32,20.78c8.61,9.85,8.7,20.82.12,30.71C274,61.18,262.71,66.57,251.52,72.1A4.49,4.49,0,0,1,248,72c-10.5-5.35-21.18-10.44-29.4-19.25C214.25,48.05,210.86,42.92,211.48,36.51Z"/></g></g></svg>