<svg xmlns="http://www.w3.org/2000/svg" viewBox="0 0 547.34 171.57"><defs><style>.cls-1{fill:#fff;}</style></defs><g id="Layer_2" data-name="Layer 2"><g id="Layer_1-2" data-name="Layer 1"><rect class="cls-1" y="0.77" width="541.53" height="170.04" rx="85.02"/><path d="M269.63.37,355.75.2,428.46,0c10.64.12,21.28.09,31.91.4,32.35,1,55.92,16.7,74.27,42.08,5.06,7,7.7,14.67,10.71,22.33,1.31,3.32,1.54,7.21,1.56,10.84.08,10.69,1.48,21.49-1.22,32S539.2,128.32,531.8,137c-5.51,6.43-10.48,13.42-17.46,18.29-12.35,8.62-26.29,14.56-41.25,15.94-9.51.87-19.39,0-29.11,0-25,.06-45.33-10.5-63.4-26.49-22.42-19.84-39.62-43.77-55.82-68.56C310.94,55,297.83,33.28,280.34,14.7c-3.5-3.71-7.28-7.18-10.84-10.85-.76-.78-2.65-1.26-1.4-3ZM430.31,80.51c-.67,6.18-.93,12.09.31,17.85,3.17,14.61,10.57,26,25.74,31,28,9.31,55.55-11.84,53.3-40.95C508,66.73,490.75,51,468.76,51q-29.91.06-59.81.08H397.39a30.86,30.86,0,0,0,0,3.39c1.8,14.17,12.86,23.57,28.17,23.66,14.09.08,28.18-.14,42.27-.2,3.28,0,6.51.15,9.39,2.09a13.66,13.66,0,0,1,3.3,19.69c-5,6.64-14.37,7.39-20.92,1.63-3.12-2.74-5.11-6.35-7.43-9.71C447,84.18,439.6,81.16,430.31,80.51ZM396.12,63.75c-11.87,38.32,8.35,76.85,45.52,88.43a71,71,0,0,0,88.88-44.71c12.53-36.91-8.92-76.35-44.87-88.1-34-11.12-69.38,6.19-80.68,28.27C413,48,420,48,427.06,41.8c16.43-14.58,43.07-18.66,66.47-4.15A56.47,56.47,0,0,1,510,118.32C491,145,453,150.53,427.27,130c-15.3-12.18-22.5-28.22-21.6-47.72.11-2.41,1.61-5.33-.6-7.24A41.51,41.51,0,0,1,396.12,63.75Z"/><path d="M163.86,140.21c8.44,0,16.08.11,23.72,0,10-.17,16.84-4.77,20.18-13.59-5.47-.63-10.92.14-16.28-1-13.25-2.75-20.55-12.72-19.87-27.85.56-12.67,9.8-22.44,22.17-23.55,18.38-1.64,29.94,8.93,30,27.41,0,3.13,0,6.27,0,9.74h20.77c1-3.57.37-7.38.41-11.13.25-20.81,17.21-29.5,34-25.21,12.21,3.11,18.71,13.78,17.85,28.13-.69,11.47-8.78,20.14-20.72,22.2-.65.12-1.32.11-2,.2-8.44,1.24-9.6.68-13.84-7.32-2.54,10-10.15,8-16.9,8.09s-13.27,0-20.1,0c-3.37,15.78-13.27,24.83-28.54,27.75-7.84,1.5-15.93.33-23.9.57a3,3,0,0,1-3-2.14C166.37,148.67,164.21,145,163.86,140.21Zm45.4-28.55c0-3.49,0-6.45,0-9.4a29.33,29.33,0,0,0-.23-4c-1-6.81-5.84-10.24-13.75-9.74-4.94.31-9.31,5.69-9.33,11.49,0,6.35,4.33,11.24,10.61,11.59C200.52,111.84,204.5,111.66,209.26,111.66Zm50.32.11c4.44,0,8.39.15,12.33,0A11.34,11.34,0,0,0,283,100.08a11.54,11.54,0,0,0-10.55-11.73c-7-.59-12.07,3.13-12.76,9.94C259.24,102.52,259.58,106.83,259.58,111.77Z"/><path d="M72.38,74.17c4.1.43,5.09,4,6.78,7.6,1.82-2.7.61-5.16,1.47-7.62,4.44-.86,9.12-1.82,14-5.38V80.66c0,6.15,0,12.3,0,18.45C94.47,114.57,86.81,124,71.5,126c-9.45,1.19-19.22,1.69-27.87-4.15-9.55-6.44-12.2-19.15-9.87-28.62,2.63-10.69,10.33-17.6,21.15-18.88a3.59,3.59,0,0,0,3.3-.4H71Zm-3.3,37.59a1.22,1.22,0,0,0,2-.19c9-3.51,11-8.78,8.54-23.07-7.35,0-14.78-.28-22.18.09-5.93.29-9.94,5.46-9.84,11.69s3.94,10.76,10,11.24C61.44,111.82,65.27,111.7,69.08,111.76Z"/><path d="M144,111.82c0-4.58.12-8.38,0-12.17-.24-6.61-4.78-11.08-11.51-11.2-7.47-.12-14.94,0-23.6,0,3.14-4.57,5.46-8.84,6.68-13.57.31-1.2,1.53-1.07,2.52-1,6,.13,12-.1,17.91.47,12.59,1.2,21.21,10.23,22.13,22.91.37,5,.05,10,.38,14.94s1.53,9.62,5.34,14H144.3c-.17-1.6-.33-3-.62-5.68-4.5,7.47-11.09,5.86-17.19,5.93-6.59.06-13.19,0-20,0V111.82Z"/><path d="M142,41.92c3.32,4.72,1.8,10.14,1.55,15.28-.09,1.85-2.56,2-4.19,1.75-6.32-.86-12.6.27-18.9.26-3.86,0-5.64-1.29-5.28-5.2.38-4.17-1.13-8.7,2.27-12.26,6.15,1.92,2.85,7.26,4,11,1.67.94,3.21.49,4.82.27,1.58-3.83-2-10.17,6.26-10.41v10a7,7,0,0,0,5.16.47C139.67,49.63,135.59,44,142,41.92Z"/><path d="M268,39.35c1.79,5.18-.29,7.38-4.39,9.29-8.62,4-17,8.62-25.53,13-1.64-4.91-.29-7.6,4.2-9.61C250.86,48.21,259.18,43.74,268,39.35Z"/><path d="M67.12,58.24c-2.74,2.58-5.35,5-8.15,7.66L52,57.69l7.26-7.12C62.1,52.55,64.49,55.39,67.12,58.24Z"/><path d="M86.09,58.43l-8.52,7c-1.84-2.09-4.19-4.77-6.39-7.29,1.84-2,4.36-4.62,6.62-7Z"/><path d="M58.21,73.9a3.59,3.59,0,0,1-3.3.4A3.62,3.62,0,0,1,58.21,73.9Z"/><polygon points="266.24 17.08 266.55 17.01 266.5 17.26 266.24 17.08"/><path d="M269.85,16.8l-1.48.45A1.13,1.13,0,0,1,269.85,16.8Z"/><path d="M72.38,74.17,71,73.91Z"/><path d="M69.08,111.76l2-.19A1.22,1.22,0,0,1,69.08,111.76Z"/></g></g></svg>