<svg xmlns="http://www.w3.org/2000/svg" viewBox="0 0 577.34 171.57"><defs><style>.cls-1{fill:#fff;}.cls-2{fill:none;stroke:#000;stroke-linecap:round;stroke-linejoin:round;stroke-width:0;}</style></defs><g id="Layer_2" data-name="Layer 2"><g id="Layer_1-2" data-name="Layer 1"><path class="cls-1" d="M272.42,88.35c-7-.59-12.07,3.13-12.76,9.94-.42,4.23-.08,8.54-.08,13.48,4.44,0,8.39.15,12.33,0A11.34,11.34,0,0,0,283,100.08,11.54,11.54,0,0,0,272.42,88.35Z"/><path class="cls-1" d="M209,98.28c-1-6.81-5.84-10.24-13.75-9.74-4.94.31-9.31,5.69-9.33,11.49,0,6.35,4.33,11.24,10.61,11.59,4,.22,7.95,0,12.71,0,0-3.49,0-6.45,0-9.4A29.33,29.33,0,0,0,209,98.28Z"/><path class="cls-1" d="M57.47,88.59c-5.94.29-9.95,5.47-9.85,11.69s3.94,10.76,10,11.24c3.79.3,7.62.18,11.43.24l2-.19c9-3.51,11-8.78,8.54-23.07C72.29,88.5,64.86,88.22,57.47,88.59Z"/><path class="cls-1" d="M324.76,76.12C310.94,55,297.83,33.28,280.34,14.7c-3.5-3.71-7.28-7.18-10.84-10.85-.76-.78-2.65-1.26-1.4-3l.2-.06H85a85,85,0,0,0-85,85H0a85,85,0,0,0,85,85H436c-21.36-2-39.29-11.88-55.39-26.13C358.16,124.84,341,100.91,324.76,76.12ZM269.85,16.8l-1.48.45A1.13,1.13,0,0,1,269.85,16.8Zm-3.3.21-.05.25-.26-.18ZM242.27,52.07c8.59-3.86,16.91-8.33,25.71-12.72,1.79,5.18-.29,7.38-4.39,9.29-8.62,4-17,8.62-25.53,13C236.42,56.77,237.77,54.08,242.27,52.07ZM117.4,41.75c6.15,1.92,2.85,7.26,4,11,1.67.94,3.21.49,4.82.27,1.58-3.83-2-10.17,6.26-10.41v10a7,7,0,0,0,5.16.47c2-3.41-2.08-9.07,4.28-11.12,3.32,4.72,1.8,10.14,1.55,15.28-.09,1.85-2.56,2-4.19,1.75-6.32-.86-12.6.27-18.9.26-3.86,0-5.64-1.29-5.28-5.2C115.51,49.84,114,45.31,117.4,41.75ZM77.8,51.08l8.29,7.35-8.52,7c-1.84-2.09-4.19-4.77-6.39-7.29C73,56.16,75.54,53.49,77.8,51.08Zm-18.5-.51c2.8,2,5.19,4.82,7.82,7.67L59,65.91,52,57.69ZM94.58,99.11C94.47,114.57,86.81,124,71.5,126c-9.45,1.19-19.22,1.69-27.87-4.15-9.55-6.44-12.2-19.15-9.87-28.62,2.63-10.69,10.33-17.6,21.15-18.88a3.65,3.65,0,0,1,3.3-.4H71l1.38.26c4.1.43,5.09,4,6.78,7.6,1.82-2.7.61-5.16,1.47-7.62,4.44-.86,9.12-1.82,14-5.38v11.9C94.59,86.81,94.63,93,94.58,99.11Zm49.72,27c-.17-1.6-.33-3-.62-5.68-4.5,7.47-11.09,5.86-17.19,5.93-6.59.06-13.19,0-20,0V111.82H144c0-4.58.12-8.38,0-12.17-.24-6.61-4.78-11.08-11.51-11.2-7.47-.12-14.94,0-23.6,0,3.14-4.57,5.46-8.84,6.68-13.57.31-1.2,1.53-1.07,2.52-1,6,.13,12-.1,17.91.47,12.59,1.2,21.21,10.23,22.13,22.91.37,5,.05,10,.38,14.94s1.53,9.62,5.34,14Zm152.51-23c-.69,11.47-8.78,20.14-20.72,22.2-.65.12-1.32.11-2,.2-8.44,1.24-9.6.68-13.84-7.32-2.54,10-10.15,8-16.9,8.09s-13.27,0-20.1,0c-3.37,15.78-13.27,24.83-28.54,27.75-7.84,1.5-15.93.33-23.9.57a3,3,0,0,1-3-2.14c-1.44-3.86-3.6-7.54-3.95-12.32,8.44,0,16.08.11,23.72,0,10-.17,16.84-4.77,20.18-13.59-5.47-.63-10.92.14-16.28-1-13.25-2.75-20.55-12.72-19.87-27.85.56-12.68,9.8-22.44,22.17-23.55,18.38-1.64,29.94,8.93,30,27.41,0,3.13,0,6.27,0,9.74h20.77c1-3.57.37-7.38.41-11.13.25-20.81,17.21-29.5,34-25.21C291.17,78.15,297.67,88.82,296.81,103.17Z"/><path class="cls-1" d="M576.91,75.65c0-3.63-.25-7.52-1.56-10.84-3-7.66-5.65-15.33-10.71-22.33C546.29,17.1,522.72,1.38,490.37.4,479.74.09,469.1.12,458.46,0L385.75.2,299.63.37l-1.33.4-.2.06c-1.25,1.76.64,2.24,1.4,3,3.56,3.67,7.34,7.14,10.84,10.85,17.49,18.58,30.6,40.27,44.42,61.42,16.2,24.79,33.4,48.72,55.82,68.56,16.1,14.25,34,24.17,55.39,26.13,2.62.24,5.29.37,8,.36,9.72,0,19.6.9,29.11,0,15-1.38,28.9-7.32,41.25-15.94,7-4.87,11.95-11.86,17.46-18.29,7.4-8.65,11.18-18.71,13.89-29.3S577,86.34,576.91,75.65ZM507.24,80c-2.88-1.94-6.11-2.11-9.39-2.09-14.09.06-28.18.28-42.27.2-15.31-.09-26.37-9.49-28.17-23.66a30.86,30.86,0,0,1,0-3.39H439q29.91,0,59.81-.08c22,0,39.22,15.71,40.9,37.41,2.25,29.11-25.29,50.26-53.3,40.95-15.17-5-22.57-16.41-25.74-31-1.24-5.76-1-11.67-.31-17.85,9.29.66,16.73,3.67,21.88,11.14,2.32,3.35,4.31,7,7.43,9.71,6.55,5.76,15.89,5,20.92-1.63A13.66,13.66,0,0,0,507.24,80ZM426.12,63.75a41.51,41.51,0,0,0,8.95,11.32c2.21,1.91.71,4.83.6,7.24-.9,19.5,6.3,35.54,21.6,47.73C483,150.53,521,145,540,118.32a56.47,56.47,0,0,0-16.45-80.67c-23.4-14.51-50-10.43-66.47,4.15C450,48,443,48,435,47.64c11.3-22.08,46.67-39.39,80.68-28.27,36,11.75,57.4,51.19,44.87,88.1a71,71,0,0,1-88.88,44.71C434.47,140.6,414.25,102.07,426.12,63.75Z"/><path d="M58.21,73.9a3.65,3.65,0,0,0-3.3.4A3.59,3.59,0,0,0,58.21,73.9Z"/><polygon points="266.55 17.01 266.24 17.08 266.5 17.26 266.55 17.01"/><path d="M268.37,17.25l1.48-.45A1.13,1.13,0,0,0,268.37,17.25Z"/><path class="cls-2" d="M72.38,74.17,71,73.91"/><path d="M71.1,111.57l-2,.19A1.22,1.22,0,0,0,71.1,111.57Z"/></g></g></svg>