<svg xmlns="http://www.w3.org/2000/svg" viewBox="0 0 500 309.14"><defs><style>.cls-1{fill:#fff;}</style></defs><g id="Layer_2" data-name="Layer 2"><g id="Layer_1-2" data-name="Layer 1"><path class="cls-1" d="M324.33,139.68c-5.25,0-11.18-1.72-14.36.5-3,2.11-3.35,8.29-4.56,12.76q-10.73,39.69-21.24,79.42c-.66,2.52-1.41,4-4.42,4-17-.11-33.92-.06-50.89-.09a25.46,25.46,0,0,1-3-.44l25.62-96.27c-5.59,0-10.44-.19-15.24.15-1,.07-2.35,2-2.7,3.28q-9.72,36.15-19.22,72.37c-1.56,5.89-2.93,11.83-4.74,17.64-.41,1.34-2.29,3.15-3.5,3.16-17.57.17-35.14.07-52.72,0-.4,0-.8-.31-1.69-.69q3.47-13.19,6.92-26.36,7.83-29.58,15.67-59.16a17.92,17.92,0,0,0,.59-4.05c.06-2.82,1.08-6.68-2.51-7.46a13.8,13.8,0,0,0-9.31,1.5,14.44,14.44,0,0,0-5.53,7.53c-3.37,10.57-6.27,21.29-9.18,32-4.66,17.19-9.26,34.39-13.68,51.65-1,3.78-2.44,5.4-6.7,5.32-15.73-.3-31.47-.13-47.21-.15-1.35,0-2.7-.13-4.86-.24,2.55-9.72,5-19,7.44-28.39,5.28-20.18,10.59-40.34,15.77-60.54.83-3.23,1.54-7-2.41-8.8a8.67,8.67,0,0,0-10.79,2.57,32.4,32.4,0,0,0-5.52,10.85c-7.45,26.84-14.63,53.76-21.79,80.69-.61,2.31-1.06,3.92-3.94,3.91-17.27-.09-34.54-.06-51.81-.09a15,15,0,0,1-2.59-.55c2.33-8.61,4.57-16.94,6.82-25.27,6.73-24.84,13-49.83,20.31-74.48C35.87,107.42,68.54,82.09,96.13,81c16.59-.66,30.69,3.93,41.45,17.05,1,1.18,2,2.31,2.74,3.19,8.43-4.91,16.55-10,25-14.45,9.09-4.74,19.11-6.11,29.29-6.13,22.31-.05,44.62,0,66.93,0h5.33c5.72-16.88,4.7-20.46-7.6-27.12-.24-4.09,1.65-5.6,5.75-5.28s8.2.07,12.37.07c-2.25-11.75,1.57-20.48,11.77-26.6a62.56,62.56,0,0,1,9.91-4.64c7.46-2.84,13.3-7.33,16.4-14.91A5.21,5.21,0,0,1,316.55.69c.18-.2.54-.25,1.57-.69a30.51,30.51,0,0,1,.24,3.73c-.35,6,2.11,10.32,7.45,13,15.23,7.57,17.27,16.94,6.55,29.91a10.54,10.54,0,0,0-.79,1.62h16.54l1.05,1.22c-1.37,1.76-2.46,4.68-4.16,5.1-11.81,2.88-18.41,13.32-20.09,26.08h5c28,0,55.93-.08,83.9,0,13.3,0,26.63.63,39,6.42,15.65,7.35,24.6,19.81,27.49,36.88,3,17.64-2.13,34.14-6.55,50.79-2,7.49-4.31,15-5.43,22.59-2.82,19.09,8.22,35,26.8,37.49.39,0,.73.45,1.78,1.14a29,29,0,0,1-2.95.37q-57.3,0-114.61-.06c-13.91,0-27.42-2.23-39.34-10-14.64-9.57-22.31-23.39-23.91-40.68-1.11-12.1,1.7-23.63,5.25-35C322.42,147.08,323.28,143.53,324.33,139.68Zm75.55,42.73c3.82,0,7.64.12,11.45-.08,1.09-.05,2.87-.83,3.09-1.62,2.61-9.34,6.37-18.48,5.36-28.54-.62-6.07-4.21-10.51-10.14-12.06-15.29-4-34.49,11.25-33.74,27,.42,8.88,7,16.41,15.74,15.35A68.6,68.6,0,0,1,399.88,182.41Z"/><path class="cls-1" d="M200.52,282.13v26.51H190.8V261.19c7.18-1.84,8.13-1.44,12,4.6,4.74,7.45,9.53,14.87,15,23.34V261.26a8.23,8.23,0,0,1,1.78-.72c8.29-.62,8.29-.62,8.29,7.7q0,17.63,0,35.26c0,1.64-.15,3.29-.23,4.92-5.29,1.26-9.09.85-12-4.46-4.2-7.65-9.38-14.75-14.14-22.09Z"/><path class="cls-1" d="M47.5,288.38V266.46c0-6.21,0-6.22,6.36-6,1,0,2.08.19,3.44.31v47.52c-7.39,1.62-7.91,1.43-11.88-4.7-4.64-7.17-9.24-14.35-13.87-21.52-.07-.12-.23-.18-.93-.69v27.24H20.5v-8.17c0-11.61-.06-23.21.09-34.82,0-1.69.93-4.74,1.67-4.82,2.91-.3,6.25-1.73,8.56,2,4.7,7.65,9.72,15.11,14.62,22.65C45.83,286.1,46.28,286.67,47.5,288.38Z"/><path class="cls-1" d="M405.93,287.76V261.1c9.21-1.9,9.63-1.59,9.63,6.94,0,13.41,0,26.82,0,40.13-7.44,1.8-8.4,1.4-12.18-4.55-4.66-7.32-9.37-14.62-14.68-22.9v27.84h-9.85V261.28c6.14-2,8-1.44,11.23,3.65q7.41,11.52,14.87,23Z"/><path class="cls-1" d="M183.59,308.93c-3.48,0-6.09.26-8.61-.11a5.78,5.78,0,0,1-3.76-2.34,88.48,88.48,0,0,1-6.12-12.24c-1.49-3.83-3.75-5.2-8.29-3.94v18.37H147a37,37,0,0,1-.38-3.74c0-13.43,0-26.85-.09-40.27,0-3.11.89-4.41,4.16-4.27,4.87.21,9.76,0,14.63.07,8,.14,13.9,4.27,15.73,10.83,1.92,6.88-.5,12.28-7.87,17.1C176.49,294.91,179.81,301.47,183.59,308.93ZM157,281.42c3.18,0,5.92.09,8.65,0,3.53-.16,5.66-1.91,5.83-5.64s-1.83-5.74-5.33-6.07c-3-.27-6-.05-9.15-.05Z"/><path class="cls-1" d="M116.51,299.87h21.43v8.75H106.61a29.69,29.69,0,0,1-.43-3.49c0-13.44.08-26.88-.08-40.31,0-3.4,1-4.54,4.41-4.46,9,.2,18,.07,27.35.07v9H116.51v10.78h18.3v8.67h-18.3Z"/><path class="cls-1" d="M369.35,284.88c0,2.59.08,5.19,0,7.77-.34,8.77-6.55,15.59-14.83,16.36-10.48,1-18.63-3.79-19.89-13.07a85.49,85.49,0,0,1,0-22.71c1.18-8.68,9.59-13.72,19.26-13a16.79,16.79,0,0,1,15.39,15.9c.15,2.89,0,5.8,0,8.7Zm-25.9-.58c.31,3.34.46,6.68,1,10a7,7,0,0,0,7.7,6.1c3.86-.4,6.8-2.41,7-6.54.28-6.05.27-12.13,0-18.19-.18-4.15-3.17-6.11-7-6.56a7.09,7.09,0,0,0-7.71,6.15C343.89,278.21,343.76,281.25,343.45,284.3Z"/><path class="cls-1" d="M275.74,308.93a46.26,46.26,0,0,0-5.55,0c-3.63.51-5.91-.67-6.39-4.53-.38-3.17-2.16-4.14-5.31-3.91-4.09.3-8.22.08-12.21.08-3.83,9-3.83,9-13.23,7.87l4.9-13.65c3.77-10.45,7.45-20.93,11.41-31.31a5.31,5.31,0,0,1,3.74-2.89c1.78-.12,4.86.58,5.31,1.73C264.29,277.51,269.81,292.8,275.74,308.93Zm-16-17L254.4,276,249,291.89Z"/><path class="cls-1" d="M420.78,308.91l12.69-35.17c1.09-3,2.33-6,3.24-9s2.26-4.48,5.76-4.44,4.16,2,5.09,4.59c4.8,13.47,9.78,26.88,14.69,40.32.36,1,.65,2,1.2,3.71-3.07,0-5.8.35-8.36-.15-1.17-.23-2.65-2.05-2.86-3.33-.71-4.26-3.06-5.48-7-4.85a13.59,13.59,0,0,1-3.66,0c-4.94-.58-9,0-9.88,6.13-.12.85-1.77,2-2.82,2.1A65.65,65.65,0,0,1,420.78,308.91ZM437,291.6h10.61l-5.28-15.7C440.36,281.78,438.73,286.59,437,291.6Z"/><path class="cls-1" d="M285.94,269.56h-7.28c-5.64,0-6.39-.76-5.46-6.31.18-1.05,1.71-2.66,2.64-2.68,10.48-.19,21-.12,31.76-.12v9H295.74v39.28h-9.8Z"/><path class="cls-1" d="M86.89,269.55v39h-10V269.63H65v-9.2H92.81c7.37,0,8.07,1,5.79,9.12Z"/><path class="cls-1" d="M478.6,260.76v38.89H500v8.92H469.12c-.09-1.53-.28-3.12-.28-4.72q0-18.51,0-37c0-6.55,0-6.56,6.42-6.36C476.13,260.47,477,260.61,478.6,260.76Z"/><path class="cls-1" d="M9.74,260.75v47.79H.27c-.09-1.66-.25-3.42-.25-5.18q0-18.08,0-36.14c0-7,0-7,7-6.76C7.74,260.48,8.48,260.61,9.74,260.75Z"/><path class="cls-1" d="M315.48,260.79c1-.13,1.89-.3,2.77-.35,6.72-.32,6.73-.31,6.73,6.56q0,18.27,0,36.54c0,1.64-.14,3.28-.22,5.14h-9.26Z"/></g></g></svg>