<svg xmlns="http://www.w3.org/2000/svg" viewBox="0 0 500 501.01"><defs><style>.cls-1{fill:#fff;}</style></defs><g id="Layer_2" data-name="Layer 2"><g id="Layer_1-2" data-name="Layer 1"><path class="cls-1" d="M246.15,0a83.41,83.41,0,0,0-83.32,83.32v83.35c0,94,76.49,171.42,170.5,171.42H500V0ZM397.37,235.68H335.42a70.15,70.15,0,0,1-69.94-69.94V121.63a19.14,19.14,0,0,1,19.14-19.14H397.37Z"/><path class="cls-1" d="M101.94,216.34h0L.2,217.09h0c0,157,127.37,284.16,284.34,283.92L500,500.68V399H284.61A182.67,182.67,0,0,1,101.94,216.34Z"/><path class="cls-1" d="M62.54,200.27h39.4V108.1H0v29.64A62.54,62.54,0,0,0,62.54,200.27Z"/><path class="cls-1" d="M62.54,92.17h39.4V0H0V29.63A62.54,62.54,0,0,0,62.54,92.17Z"/></g></g></svg>