<svg xmlns="http://www.w3.org/2000/svg" viewBox="0 0 500 103.17"><defs><style>.cls-1{fill:#fff;}</style></defs><g id="Layer_2" data-name="Layer 2"><g id="Layer_1-2" data-name="Layer 1"><path class="cls-1" d="M434.32,76.07V.19h26.47v103h-1.24l-268.94,0c-1.31,0-1.33,0-1.32-1.61q0-18.34.07-36.68V53.15h-1.3q-18.63,0-37.25,0a2.25,2.25,0,0,0-1.77.76q-23,23.81-46,47.57a2.48,2.48,0,0,1-1.54.71c-11.7,0-23.4,0-35.1,0-.27,0-.54,0-1-.06.33-.38.53-.65.77-.89q35.6-36.82,71.18-73.66a2.61,2.61,0,0,1,2.06-.89q37.57,0,75.14,0H216V76.48h12.1V27.88c0-1.41,0-1.41,1.38-1.41,8,0,15.94,0,23.9,0,1.1,0,1.38.3,1.38,1.38q0,23.61,0,47.21c0,1.56,0,1.56,1.57,1.56h4.85V26.65H287.7V76.52h5.83V26.67h26.61V76.49h13V26.58h1.39c7.93,0,15.86,0,23.79,0,9,0,18.08.09,27.12.08a2.21,2.21,0,0,1,1.71.91l46.13,47.73c.27.28.51.6.76.9Zm-74.41-24.8V76.48h38.82a2.61,2.61,0,0,0-.27-.38Q386.73,64,375,51.83a2.2,2.2,0,0,0-1.41-.54c-2.65,0-5.31,0-8,0Z"/><path class="cls-1" d="M0,102.14V55c0-9,0-18,0-27,0-1,.25-1.33,1.3-1.33q36.22,0,72.44,0h52.49c-.44.48-.66.73-.89,1Q89.67,64.59,54,101.48a2.14,2.14,0,0,1-1.68.73q-25.56,0-51.12,0C.87,102.2.52,102.17,0,102.14ZM63.4,53.43H26.81V77.12H28c3.84,0,7.68,0,11.52,0a2.34,2.34,0,0,0,1.87-.81Q52,65.25,62.72,54.2C62.93,54,63.13,53.74,63.4,53.43Z"/><path class="cls-1" d="M473.59,0H500V103H473.59Z"/><path class="cls-1" d="M157.7,102.88c-.44,0-.8.05-1.15.05-6,0-12.05,0-18.08,0-1,0-1.26-.3-1.25-1.28q.06-9,0-18.06c0-.93.24-1.23,1.2-1.22,6.1,0,12.2,0,18.3,0,.64,0,1.08,0,1.08.89,0,6.31,0,12.62,0,18.93C157.77,102.4,157.73,102.58,157.7,102.88Z"/><path class="cls-1" d="M46.78.9V21.22H26.4V.9Z"/><path class="cls-1" d="M20.68,21.51H17.35c-5.3,0-10.61,0-15.91,0-.91,0-1.24-.18-1.23-1.17,0-6.09,0-12.18,0-18.27,0-.31,0-.62.06-1H20.68Z"/><path class="cls-1" d="M163.68,102.69V82.38h20.39v20.31Z"/></g></g></svg>