<svg xmlns="http://www.w3.org/2000/svg" viewBox="0 0 500 196.14"><defs><style>.cls-1{fill:#fff;}</style></defs><g id="Layer_2" data-name="Layer 2"><g id="Layer_1-2" data-name="Layer 1"><path class="cls-1" d="M345.05,66.17c-.22-3.41-1.64-6.33-5.38-8.79L336.34,64Z"/><path class="cls-1" d="M238.67,106.42c-2.19,0-2.76.78-2.7,2.77.09,3.09.09,6.19,0,9.28-.17,4.26-2,7.87-5.54,11.17h72.41a47.74,47.74,0,0,1-22.29-21.84,3.53,3.53,0,0,0-2.71-1.27C264.76,106.45,251.72,106.53,238.67,106.42Z"/><path class="cls-1" d="M226.59,30.75a12,12,0,1,0-.16,24,12,12,0,0,0,12-12A12.16,12.16,0,0,0,226.59,30.75Z"/><path class="cls-1" d="M200.41,54.7a12,12,0,1,0-12.12-12.14A12,12,0,0,0,200.41,54.7Z"/><path class="cls-1" d="M98.54,33.9A17.67,17.67,0,1,0,81,51.44,17.75,17.75,0,0,0,98.54,33.9ZM82.16,26.27c.7.6,1.74,1.06,2,1.82,1.21,3.13,2.2,6.34,3.27,9.52l.68-.07c1.09-3.16,2.1-6.35,3.32-9.46.29-.73,1.29-1.19,2-1.77.21.87.81,1.87.57,2.6Q92.16,34.51,89.92,40c-.33.79-1.45,1.85-2.08,1.77a3.47,3.47,0,0,1-2.35-1.85c-1.48-3.54-2.8-7.15-4-10.8C81.28,28.29,81.93,27.21,82.16,26.27Zm-3.72,2.49a18.48,18.48,0,0,1-3.24.31c0,3.33.13,6.33-.07,9.3-.08,1.17-.9,3.26-1.42,3.27-2.2,0-1.44-1.92-1.48-3.18-.07-3.06,0-6.13,0-9.39a20.9,20.9,0,0,1-3.37-.26c-.58-.15-1-.79-1.55-1.21.49-.36,1-1,1.46-1,3.28-.1,6.57-.09,9.85,0,.47,0,.92.67,1.39,1C79.48,28,79,28.6,78.44,28.76Z"/><path class="cls-1" d="M323.18,12.74a12.86,12.86,0,1,0-13,13.09A13,13,0,0,0,323.18,12.74Z"/><path class="cls-1" d="M34,60.32C14.6,60.58-.15,76.3,0,96.09c.14,18.32,15.87,33.63,34.7,33.66q51,.06,102,0c7.56,0,12.39-4.7,12.43-12.23q.1-22.4.05-44.79c0-7.25-5-12.47-11.73-12.46S125.71,65.58,125.72,73v33.47H84.84c-16.53,0-33.07.05-49.6,0-7.76,0-12.86-6.12-11.58-13.61.94-5.5,5.74-9.16,12.13-9.17,16.81,0,33.62,0,50.44,0,7.06,0,12.28-5,12.3-11.56S93.42,60.3,86.38,60.28C68.91,60.21,51.43,60.08,34,60.32Z"/><path class="cls-1" d="M161.87,136.86a11.67,11.67,0,1,0,0,23.33c5,0,10,0,14.94,0,7.94,0,12.73-4.8,12.7-12.81,0-5.72,0-11.43,0-17.6h3.16c9.49,0,19,0,28.46,0,7.29-.05,12.18-5,12.19-12.25,0-2.25,0-4.51,0-6.76,0-12.77.08-25.55,0-38.32,0-6.25-4-11-9.8-12a11.5,11.5,0,0,0-12.9,7.66,18.54,18.54,0,0,0-.79,5.81c-.06,9.86,0,19.72,0,29.58,0,1-.77,2.83-1.22,2.84-6.26.19-12.52.13-19.13.13v-4c0-10.24.06-20.48,0-30.72a11.36,11.36,0,0,0-8.48-11,11.66,11.66,0,0,0-12.89,4.66c-2,2.88-2,6.17-2,9.47q0,28.89,0,57.76C166.09,137,167,136.83,161.87,136.86Z"/><path class="cls-1" d="M279.16,89.33c-.22,21.35,17.22,39.77,38.6,40.34,13,.34,25.93.08,38.89.1h8.66c-.46-4-1.21-7.7-1.23-11.4s.66-7.63,1.08-11.89h-2.75c-15.69,0-31.38,0-47.06,0-2.1,0-3.27-.59-3.37-2.67-.2-4.1-1.08-8.34-.33-12.27,2.4-12.48,9.79-21,21.84-25.43a3.85,3.85,0,0,0,2.11-1.73c1.06-2.47,1.85-5.05,2.74-7.59.51-.21.25-.59,0-.93-5.29-5.91-12.14-7.2-19.69-7A40.54,40.54,0,0,0,279.16,89.33ZM330,55a25.12,25.12,0,0,1,4.68,1.42c.7.36.92,1.63,1.36,2.48-1.13.17-2.6.86-3.31.39-1.24-.82-2-2.35-3-3.58C329.86,55.44,330,55.2,330,55Z"/><path class="cls-1" d="M500,43.15c0-7-4.58-12-11.23-12.38-7.29-.38-12.24,5.22-12.22,13.68q.09,29.16.1,58.33c0,15.12-.07,30.24,0,45.36,0,7.24,5,12.1,12,12.05,6.48-.05,11.31-5.28,11.31-12.21q0-26.07,0-52.14h0V90.77Q500,67,500,43.15Z"/><path class="cls-1" d="M436.38,106.48c-1.69.16-2.44-.56-3.1-2.07-6.75-15.5-22.73-23.93-39.16-20.34-13,2.83-21.81,10.89-25.84,23.45s-1.49,24.27,7.54,34C393,160.12,422.71,155.1,433.14,132a3.27,3.27,0,0,1,3.59-2.24c5.63.1,11.27.08,16.9,0a11.36,11.36,0,0,0,11-11q.09-37.9,0-75.79c0-7.14-5.06-12.18-11.69-12.13-6.79.06-11.67,5.3-11.67,12.5l0,46.77v16.39C439.36,106.45,437.86,106.34,436.38,106.48ZM401,129.4a11.4,11.4,0,1,1,11.65-11.18A11.36,11.36,0,0,1,401,129.4Z"/><path class="cls-1" d="M93.18,148.33a11.82,11.82,0,0,0-12.14-12,12,12,0,1,0,12.14,12Z"/><path class="cls-1" d="M13.41,175.58l7.79,20.56H16.49l-1.63-4.6H7.23l-1.66,4.6H1l7.81-20.56Zm.36,12.68-1.33-3.7a43.48,43.48,0,0,1-1.36-4.45c-.34,1.21-.83,2.7-1.45,4.45l-1.32,3.7Z"/><path class="cls-1" d="M38.31,192.34v3.8H23.8V175.62h4.47v16.72Z"/><path class="cls-1" d="M48.25,186.66v3.65H40.46v-3.65Z"/><path class="cls-1" d="M69.34,175.62l-7.65,12.61v7.91H57.22v-8l-7.66-12.55h5.11l3.21,5.46a31.51,31.51,0,0,1,1.63,3.37,32,32,0,0,1,1.72-3.56l3.1-5.27Z"/><path class="cls-1" d="M86.84,175.62v3.8H75.92v4.37h10v3.53h-10v5H87v3.8H71.45V175.62Z"/><path class="cls-1" d="M112.88,175.62v20.52h-4.26V190c0-3.3.1-6.76.28-10.39q-1,4-2.1,7.18l-3.2,9.36h-3.52L96.78,187a67.43,67.43,0,0,1-2.08-7.29c.18,4,.26,7.3.26,9.83v6.63H90.71V175.62h6.38l3.07,8.91a52.61,52.61,0,0,1,1.71,6.5,53.46,53.46,0,0,1,1.76-6.54l2.93-8.87Z"/><path class="cls-1" d="M133,175.62v3.8H122.12v4.37h10v3.53h-10v5h11.13v3.8h-15.6V175.62Z"/><path class="cls-1" d="M154.26,175.62v20.52h-4.52l-6.11-9.9L142,183.6c-.32-.56-.65-1.22-1-2,.12,1.54.19,3.46.19,5.76v8.74h-4.31V175.62h4.57l5.95,9.69c1.23,2,2.13,3.56,2.7,4.73-.13-2.13-.19-4.08-.19-5.87v-8.55Z"/><path class="cls-1" d="M163.51,175.62v20.52H159V175.62Z"/></g></g></svg>