<svg xmlns="http://www.w3.org/2000/svg" viewBox="0 0 500 201.09"><defs><style>.cls-1{fill:#fff;}</style></defs><g id="Layer_2" data-name="Layer 2"><g id="Layer_1-2" data-name="Layer 1"><path class="cls-1" d="M307.06,114c-3.61-3.53-6.62-6.8-10-9.64A35.93,35.93,0,0,0,288.67,99c-2.7-1.18-3.16-2.86-3.15-5.44.09-19.42.08-38.84.09-58.26,0-1.08,0-2.16,0-4.16a25.36,25.36,0,0,0-8.14,12.3,34.89,34.89,0,0,0-1.65,9.81c-.23,15.85-.16,31.7-.3,47.55,0,2.7.84,4,3.56,5,14.18,5.44,23.93,15.41,26.77,30.45,1.61,8.5.94,17.43,1.28,26.16.06,1.53,0,3.06,0,4.93h-73.9v33.75c-4.77-.74-9.21-1-13.34-2.17A51.64,51.64,0,0,1,193,180.85a106.5,106.5,0,0,1-7.43-11.43,4,4,0,0,0-3.93-2.36c-16.19,0-32.37.05-48.56-.06-2.65,0-3.4,1.1-3.69,3.47-1.41,11.22-7,19.77-16.72,25.61-4.88,2.94-12,4.75-16.78,4.12V179.12c4.68-.69,8.64-2.6,10.53-7.15a16.71,16.71,0,0,0,1.24-6.11c.11-16.75.1-33.49.09-50.23,0-1.72-.13-3.24,2-4,6-2,12-4.25,18-6.37a11,11,0,0,1,2-.25v40.35c6.59,0,12.79.07,19-.11.66,0,1.42-1.42,1.88-2.31,3-5.7,5.38-11.79,9-17.07a43.05,43.05,0,0,1,17.49-15.36,5.07,5.07,0,0,0,3.2-4.49,57.5,57.5,0,0,1,19.23-35.64A50.69,50.69,0,0,1,228.67,57.5a26.69,26.69,0,0,1,2.68-.11,18.86,18.86,0,0,1,2,.24v4.65q0,39.18-.08,78.35c0,4.91,0,4.9,5,4.87,4,0,8-.12,12.05,0,2.67.11,3.42-.93,3.41-3.52-.06-26.12-.17-52.24.1-78.35.08-8.08.12-16.47,2.21-24.16,5.23-19.32,18.13-31.75,37.5-37.15,3.4-.95,7-1.13,10.51-1.78C307,0,307.7,1.29,307.68,4c-.13,14.62-.09,29.25-.14,43.87q-.12,31.47-.3,62.93C307.23,111.68,307.14,112.55,307.06,114Zm-96.68,56.35,1.06-.74V87.87c-5.94,5.56-9.55,12-9.73,19.74q-.48,21.4,0,42.83a33.72,33.72,0,0,0,3,11.85C206,165.24,208.44,167.68,210.38,170.35ZM179.7,128.08c-6.52,3.94-11,12.3-9.41,17.31h9.41Zm105.39,17.16c.75-6.56-3.52-14.07-9.67-16.63,0,3,0,5.89,0,8.76-.09,9.19-.09,9.19,9.14,8.15C284.66,145.51,284.75,145.42,285.09,145.24Z"/><path d="M494.74,69.15h3.72A79.07,79.07,0,0,1,491,73.39c-1,.44-2.43,0-3.66-.06-.52,0-1.11-.24-1.54,0-2.19.94-4.34,2-6.5,3a16.13,16.13,0,0,1-2.31-.22c-2.07-.48-4.76-.42-6-1.72-2.76-2.79-6.61-2.16-8.8,1.18.81,2.86,6.17-1.43,5.45,4h3.24l.08,1c-1.94.48-4.62,2-5.69,1.24-2.48-1.76-4.49-1.23-6.81-.41-3.4,1.63-7.68-.88-10.77,2.28-.1.1-.43-.08-.64,0-3.33.6-6.71,1-10,1.9-1.5.41-2.74,1.74-4.09,2.66-.4.69-1.4.33-2,.65-2.35,1.2-4.61,2.59-6.86,4-3.39,2.1-6.69,4.35-10.13,6.36-2.55,1.49-4.39,3.21-4.35,6.46,0,2.55-.45,5.1-.44,7.66.05,10.51.2,21,.32,31.75H398.18c0-12-.37-23.78.15-35.53.27-6.31-.8-11-7.18-13.37a1,1,0,0,1-.27-.19c-8.2-7-17.93-11.09-27.93-14.55-3.59-1.23-7.49-1.58-11.25-2.33-2.62-.67-5.46-3.85-7.69.73-.19.38-2,.5-2.59.08-3.34-2.52-7.29-1-10.86-1.89l-4.21-1.69c-1.86-.75-3.47-2.1-5.85-.79-.92.5-2.88-.4-4.13-1.09a29.3,29.3,0,0,1-4-3.15c.86-.71,2.52-1.47,2.53-2.24,0-1-1.34-2-2-3.14s-1.51-2.31-1.33-3.29c.23-1.23,1-2.92,3.11-2.08.39.15,1-.31,1.55-.48l2.56-.21-3.22-4.12c1.45-.79,3.16-1.12,3.47-2,1.53-4.2,7.19-3.5,8.65-7.58,3.11.57,2.55-1.82,2.85-3.51l4.52-1.07-1.48-4.15c1.37-.2,2.51-.4,3.66-.52,2.08-.22,4.21-.23,6.26-.63,1.66-.32,4.57-1,4.62-1.67.23-2.74,2.44-3.17,3.94-4.43l4.7.54.34-1L358.69,32c3.33-1.15,6.22-2.7,9.25-3.05,4.92-.58,9.93-.31,14.9-.5,2.17-.09,4.51,0,6.47-.74,3.79-1.47,7.34-2.62,11.05.08.25.18,1.32-.45,1.78-.92.79-.82,1.43-2.62,2.06-2.59,2.76.15,5.83-1.85,8.28,1,.24.28.9.24,1.37.26,1.13,0,2.26,0,3.38,0,2.87.09,6,1,8.54.08,3-1.06,5.44.66,8.14.41.25,0,.68,1.09.88,1.72.5,1.56.68,2.79,3.12,2.84a25,25,0,0,1,9.75,2c3.93,1.82,7.68,1.41,11.6.79,2.12,1.06,4.23,2.94,6.38,3,3.43.09,5.86.59,6.25,3.84l7.6,1.75c.93.88,1.72,2.2,2.82,2.56,2.77.9,3,.93,2.78,4.38l4.1.57C488,52.31,489.77,53,492,53.4c-.2,2.81,2.24,5.35,5.76,6.14-2.5,3.46,1.69,2,2.27,3l-6.53,6.06ZM426.33,55.48h3.38c0-.4.08-.79.11-1.19-1-.31-2-.7-3-.93s-2.22-.23-3.28-.53c-3.43-1-3.84-.69-3.91,2.11,1.72.57,3.12,1.08,4.56,1.46a4.54,4.54,0,0,0,1.56-.19ZM324.66,72.82l.52-1.39-4.39-1.54-.36,1Z"/><path class="cls-1" d="M330.56,77.93c3.57.84,7.52-.63,10.86,1.89.57.42,2.4.3,2.59-.08,2.23-4.58,5.07-1.4,7.69-.73,0,22.06,0,44.12,0,66.32,1.09.12,1.74.24,2.39.24,33.58.3,67.16.55,100.75.92,3.24,0,4.21-1.14,4.18-4.3-.15-19.19-.13-38.39-.2-57.59a28.42,28.42,0,0,0-.38-3.28c2.32-.82,4.33-1.35,6.81.41,1.07.76,3.75-.76,5.69-1.24l-.08-1h-3.24c.72-5.44-4.64-1.15-5.45-4,2.19-3.34,6-4,8.8-1.18,1.29,1.3,4,1.24,6,1.72a16.13,16.13,0,0,0,2.31.22c.05,10.48.15,21,.15,31.44,0,18.08-.05,36.15-.08,54.22v4.65c-1.49.08-2.67.2-3.85.19q-70.62-.08-141.24-.1c-3.28,0-4.2-1-4.19-4.15.12-26.55.11-53.11.15-79.66C330.29,81.22,330.46,79.58,330.56,77.93Z"/><path class="cls-1" d="M53.44,86.76v44.17c0,3.79.12,7.59,0,11.37-.07,2.23.54,3.25,3,3.18,4.91-.15,9.82-.14,14.73,0,2.4.06,3-1,3-3.21-.08-8.14.25-16.3-.12-24.43-.19-4.09,1.18-6,5-7.07,5.51-1.61,10.86-3.77,16.71-5.85V167H.26a23.37,23.37,0,0,1-.25-2.4q0-13,0-26.11A48.54,48.54,0,0,1,7.83,112c10.1-15.73,24.49-24.33,43.23-25.44A19.85,19.85,0,0,1,53.44,86.76ZM31.71,117.17c-1.19,1-1.7,1.36-2.12,1.79a27.85,27.85,0,0,0-7.87,19c-.35,9.24-1.19,7.36,7.32,7.68,2.09.08,2.67-.82,2.65-2.77-.06-6.46,0-12.92,0-19.38C31.72,121.61,31.71,119.77,31.71,117.17Z"/><path class="cls-1" d="M352.07,30.12c-1.5,1.26-3.71,1.69-3.94,4.43-.05.7-3,1.35-4.62,1.67-2.05.4-4.18.41-6.26.63-1.15.12-2.29.32-3.66.52l1.48,4.15-4.52,1.07L331,41.5c0-12.6.15-25.2.07-37.8,0-2.78.88-3.57,3.64-3.57Q405.48.15,476.23,0c1,0,2,.11,3.26.19V42l-7.6-1.75c-.39-3.25-2.82-3.75-6.25-3.84-2.15-.05-4.26-1.93-6.38-3-.14-2.55-.32-5.1-.39-7.65-.11-4.46-.12-4.51-4.44-4.52l-99.09-.16c-1.08,0-2.16.1-3.27.16Z"/><path class="cls-1" d="M37.81,82.64a10,10,0,0,1-10.19-10.1c.14-6.73,4-10,10.76-10.19,5.39-.16,9.79,4.73,9.69,10.2A10.17,10.17,0,0,1,37.81,82.64Z"/><path class="cls-1" d="M15.23,82.57a10.21,10.21,0,1,1,.22-20.41,10.21,10.21,0,0,1-.22,20.41Z"/><path class="cls-1" d="M71.24,190.06a10.07,10.07,0,0,1-10.48,10.17c-5.41-.13-9.89-5-9.77-10.64.15-7.33,4.7-9.65,10.42-9.68C68.32,179.89,71.52,185.17,71.24,190.06Z"/><path class="cls-1" d="M73.6,190a10.11,10.11,0,0,1,10-10.32,10.48,10.48,0,0,1,10.21,10.25c0,6.45-4.92,10-10,10.15A10.08,10.08,0,0,1,73.6,190Z"/></g></g></svg>