<svg xmlns="http://www.w3.org/2000/svg" viewBox="0 0 501.18 531.22"><defs><style>.cls-1{fill:#fff;}</style></defs><g id="Layer_2" data-name="Layer 2"><g id="Layer_1-2" data-name="Layer 1"><path class="cls-1" d="M237.37,37.45a22,22,0,0,0,30.93,0A21.92,21.92,0,0,0,273,30.51,21.47,21.47,0,0,0,274.64,22,21.52,21.52,0,0,0,273,13.44a21.77,21.77,0,0,0-4.65-6.93,23.05,23.05,0,0,0-6.93-4.74,21.46,21.46,0,0,0-17.07,0,23.05,23.05,0,0,0-6.93,4.74A21.69,21.69,0,0,0,231,22a21.74,21.74,0,0,0,6.34,15.47Z"/><path class="cls-1" d="M159.85,228.23H366.27a54.93,54.93,0,0,0,21.9-4.4,57.61,57.61,0,0,0,17.91-12A55.75,55.75,0,0,0,418.17,194a54.44,54.44,0,0,0,4.4-21.72V0H379.46V172.27a12.29,12.29,0,0,1-3.8,9.13,12.92,12.92,0,0,1-9.39,3.72H307.1A131.77,131.77,0,0,0,316,170.83a102.6,102.6,0,0,0,7-16.31A120.52,120.52,0,0,0,327.05,139a84.58,84.58,0,0,0,1.52-15.89,76.42,76.42,0,0,0-3.8-24.26,49.43,49.43,0,0,0-12.68-20q-8.88-8.62-23.42-13.61t-35.84-5q-21.12,0-35.5,4.91T194.09,78.53a48.69,48.69,0,0,0-12.68,19.86,74.78,74.78,0,0,0-3.81,24A86.84,86.84,0,0,0,179.21,139,101.69,101.69,0,0,0,183.69,155v-.16A124.64,124.64,0,0,0,191,170.92a131.8,131.8,0,0,0,9,14.2H128.58V138.79q0-19.09-6.51-33.72a59.54,59.54,0,0,0-20.63-24.6q-14.11-10-36.26-15.13T11.93,60.18v43.11a203.86,203.86,0,0,1,33.56,2.37q13.93,2.37,22.82,6.85t13,11.07a28,28,0,0,1,4.14,15.21v46.33H3.31v43.11H159.85ZM222.32,115a14.69,14.69,0,0,1,5.41-6,31.86,31.86,0,0,1,10-4.06,64.53,64.53,0,0,1,15.13-1.52,62.91,62.91,0,0,1,15.39,1.61,31.78,31.78,0,0,1,10.06,4.22,15.86,15.86,0,0,1,5.49,6.18,17.39,17.39,0,0,1,1.69,7.6,53.37,53.37,0,0,1-3.38,17.58,67.83,67.83,0,0,1-5.58,12.26A116.14,116.14,0,0,1,269.23,164a106,106,0,0,1-8,9.64q-4.14,4.4-7.69,7.61-3.56-3.21-7.69-7.52a115.81,115.81,0,0,1-8.12-9.47,113,113,0,0,1-7.43-10.91,70.28,70.28,0,0,1-5.84-12.17,48.9,48.9,0,0,1-2.79-9.55,50.41,50.41,0,0,1-.93-9.21A17.33,17.33,0,0,1,222.32,115Z"/><rect class="cls-1" x="458.07" width="43.11" height="228.23"/><path class="cls-1" d="M372,391.45a16.26,16.26,0,0,0-5.07-3.63,15.21,15.21,0,0,0-12.35,0,16.7,16.7,0,0,0-5.06,3.55,16,16,0,0,0-3.42,5.22,16.76,16.76,0,0,0-1.24,6.47v16.88a17,17,0,0,0,1.24,6.51,16,16,0,0,0,3.42,5.27,16.85,16.85,0,0,0,5.06,3.54,15.21,15.21,0,0,0,12.35,0,16.26,16.26,0,0,0,5.07-3.63,17.13,17.13,0,0,0,3.41-5.27,16.18,16.18,0,0,0,1.24-6.34v-17a16.27,16.27,0,0,0-1.24-6.3A17.19,17.19,0,0,0,372,391.45Z"/><path class="cls-1" d="M488,262.71H12a12,12,0,0,0-12,12V519.22a12,12,0,0,0,12,12H488a12,12,0,0,0,12-12V274.71A12,12,0,0,0,488,262.71ZM272.36,337a11.2,11.2,0,0,1,3.33,2.3,10.64,10.64,0,0,1,2.27,3.38,10.66,10.66,0,0,1-5.6,13.95,10.25,10.25,0,0,1-4.12.83,10.51,10.51,0,0,1-4.16-.83,10.4,10.4,0,0,1-3.37-2.26A11,11,0,0,1,258.4,351a10.36,10.36,0,0,1,0-8.31,11,11,0,0,1,5.68-5.68,10,10,0,0,1,4.16-.87A9.79,9.79,0,0,1,272.36,337Zm-26.72-14.91a11.18,11.18,0,0,1,2.3-3.38,11.06,11.06,0,0,1,3.38-2.3,10,10,0,0,1,4.16-.87,9.71,9.71,0,0,1,4.11.87,11.12,11.12,0,0,1,3.34,2.3,10.72,10.72,0,0,1,2.26,3.38,10.69,10.69,0,0,1-2.26,11.69,10.69,10.69,0,0,1-3.34,2.27,10.16,10.16,0,0,1-4.11.82,10.47,10.47,0,0,1-4.16-.82,10.64,10.64,0,0,1-3.38-2.27,11,11,0,0,1-2.3-3.37,10.38,10.38,0,0,1,0-8.32Zm-12.56,20.59a10.61,10.61,0,0,1,2.26-3.38,11.06,11.06,0,0,1,3.38-2.3,10.38,10.38,0,0,1,8.32,0,11,11,0,0,1,3.37,2.3A10.8,10.8,0,0,1,252.68,351a10.53,10.53,0,0,1-2.27,3.38,10.4,10.4,0,0,1-3.37,2.26,10.59,10.59,0,0,1-14-5.64,10.82,10.82,0,0,1,0-8.31Zm-145,0A10.94,10.94,0,0,1,93.79,337a10.36,10.36,0,0,1,8.31,0,11.06,11.06,0,0,1,3.38,2.3A10.76,10.76,0,0,1,107.74,351a10.34,10.34,0,0,1-2.26,3.38,10.71,10.71,0,0,1-15.07,0,10.94,10.94,0,0,1-2.3-3.38,10.36,10.36,0,0,1,0-8.31Zm-25.37,0a11.27,11.27,0,0,1,2.31-3.38,11,11,0,0,1,3.37-2.3,10.38,10.38,0,0,1,8.32,0,11.06,11.06,0,0,1,3.38,2.3,10.61,10.61,0,0,1,2.26,3.38,10.65,10.65,0,0,1-17.33,11.69A11.14,11.14,0,0,1,62.74,351a10.47,10.47,0,0,1,0-8.31Zm59.91,96.63a36.3,36.3,0,0,1-2.92,14.45,37.47,37.47,0,0,1-19.81,19.85,35.83,35.83,0,0,1-14.41,2.92H56.36a37.13,37.13,0,0,1-14.86-3,39,39,0,0,1-12.15-8.16,38.22,38.22,0,0,1-8.19-12.06,36.67,36.67,0,0,1-3-14.82V379.34H39.23v59.13a17,17,0,0,0,1.32,6.67,16.46,16.46,0,0,0,3.66,5.43,17.52,17.52,0,0,0,5.44,3.63,17,17,0,0,0,6.71,1.31H85.51a15.35,15.35,0,0,0,8.19-2.3,17.22,17.22,0,0,0,5.89-5.93H75.3a26.17,26.17,0,0,1-10.54-2.14,27.5,27.5,0,0,1-14.49-14.49,26.22,26.22,0,0,1-2.14-10.55V403.55a37.64,37.64,0,0,1,2.92-14.82,38.58,38.58,0,0,1,8-12.1,37.88,37.88,0,0,1,11.81-8.2,36.3,36.3,0,0,1,29,0,38.27,38.27,0,0,1,19.89,20.18,36.64,36.64,0,0,1,2.92,14.49ZM443.56,420a26.6,26.6,0,0,1-2.14,10.58,27.1,27.1,0,0,1-5.89,8.69,28.12,28.12,0,0,1-8.73,5.85,26.68,26.68,0,0,1-10.66,2.14H386.08a36.53,36.53,0,0,1-11.45,7.66,35.35,35.35,0,0,1-13.91,2.71q-15.24,0-25.37-10.37H174.12a41.5,41.5,0,0,1-3.05,7.33,39.66,39.66,0,0,1-5.81,8.11,55.37,55.37,0,0,1-9.51,8.19,74.38,74.38,0,0,1-14.08,7.5l-8.07-19.36a58.36,58.36,0,0,0,7.13-3.58,43.55,43.55,0,0,0,5.31-3.7,29.78,29.78,0,0,0,3.7-3.63,26.81,26.81,0,0,0,2.47-3.41,16,16,0,0,0,2.39-7.42V365.43h21.08v60.85h36.07V365.43h20.92v60.85h12.76V365.43h21v60.85h12.84V365.43h21v60.85h24.05a27.69,27.69,0,0,1-.33-3.13c-.06-1-.08-2.11-.08-3.21V403.06a37.18,37.18,0,0,1,2.88-14.58,38.25,38.25,0,0,1,7.9-12,37.49,37.49,0,0,1,11.7-8.11,34.79,34.79,0,0,1,14.33-3A34.13,34.13,0,0,1,375,368.51a38.54,38.54,0,0,1,19.68,20.26,36.07,36.07,0,0,1,2.89,14.29v17q.08,1.74,0,3.21a22.25,22.25,0,0,1-.41,3h18.94a6.28,6.28,0,0,0,4.57-1.81,6,6,0,0,0,1.85-4.45V336.11h21Zm38.29,27.26h-21V336.11h21Z"/><path class="cls-1" d="M96.88,391.45a16.54,16.54,0,0,0-5.19-3.63,16,16,0,0,0-12.68,0,15.82,15.82,0,0,0-5.15,3.63,16.87,16.87,0,0,0-3.42,5.43,18.08,18.08,0,0,0-1.23,6.67V420.1A6,6,0,0,0,71,424.51a5.88,5.88,0,0,0,4.32,1.77h26.35V403.14a16.15,16.15,0,0,0-1.27-6.38A17.63,17.63,0,0,0,96.88,391.45Z"/></g></g></svg>