<svg xmlns="http://www.w3.org/2000/svg" viewBox="0 0 500 500.21"><defs><style>.cls-1{fill:#fff;}</style></defs><g id="Layer_2" data-name="Layer 2"><g id="Layer_1-2" data-name="Layer 1"><path class="cls-1" d="M500,266.63c-.52,5.17-.73,10.4-1.64,15.5-1.91,10.71-3.67,21.49-6.46,32s-6.52,20.78-10.29,31a178.18,178.18,0,0,1-15,30.38c-2.44,4-5.11,7.88-7.66,11.82-1.94,3-3.64,6.15-5.82,8.95q-7.74,9.9-15.86,19.51A123.73,123.73,0,0,1,426.87,427c-7.88,7.27-15.62,14.79-24.17,21.21a361.13,361.13,0,0,1-31.55,20.9c-7.36,4.39-15.32,7.86-23.21,11.28A242.42,242.42,0,0,1,276.23,499a284.68,284.68,0,0,1-49.63.35,192.32,192.32,0,0,1-31.49-5.22c-12.34-3-24.45-7-36.56-10.88a87.51,87.51,0,0,1-12.71-5.49c-8-4-16.11-8-23.78-12.64-9.06-5.5-17.87-11.46-26.45-17.69-5.28-3.83-9.78-8.69-14.85-12.83-9.61-7.85-17.29-17.49-25.25-26.87-3.5-4.11-6.54-8.61-9.81-12.93-10.6-14-18.57-29.48-25.64-45.46A244.09,244.09,0,0,1,2.24,287.07,207.42,207.42,0,0,1,.13,261.19q-.4-16.12.41-32.26c.68-13.79,3.39-27.31,6.7-40.71a220.26,220.26,0,0,1,15.22-42.78c3.9-8.09,8.44-15.89,12.8-23.76,2.66-4.81,5.17-9.77,8.37-14.22A270.5,270.5,0,0,1,65.3,80.76c4.13-4.42,8.07-9,12.45-13.19,4.61-4.36,9.55-8.4,14.51-12.37A198.41,198.41,0,0,1,109,42.63a284.23,284.23,0,0,1,25.77-15,305.78,305.78,0,0,1,30.63-13.37,202.31,202.31,0,0,1,29.2-8.5C207,3.25,219.72,1.88,232.33,0H266.7c8.13.93,16.32,1.53,24.39,2.85C315,6.77,337.93,13.78,359.5,24.77c10.83,5.52,21.31,11.81,31.62,18.28a189.24,189.24,0,0,1,19.35,14.29c5,4.1,9.47,8.87,14.18,13.34,2.71,2.58,5.59,5,8.09,7.77,3.68,4.09,7.18,8.35,10.58,12.67,5.39,6.84,10.94,13.58,15.86,20.74a210.76,210.76,0,0,1,11.34,19.2,250.37,250.37,0,0,1,21.12,52.68c4.5,16.22,6.9,32.82,8.36,49.56Zm-253-253a234.12,234.12,0,0,0-100.4,23.87,237.28,237.28,0,0,0-86.8,71.83,228.29,228.29,0,0,0-35,68.34c-10.59,33.45-14.16,67.85-9.35,102.56C22.88,334.08,45.47,381,84.73,418.93c45.54,44,100.35,67,163.89,67.39,131.69.86,238.82-106,237.79-238.38C485.41,119,380.44,13.33,247,13.64Z"/><path class="cls-1" d="M236.91,406.74c-8.95.69-17.57-.94-26.09-3.47-4.28-1.27-6.88-4.69-10-7.43-3.42-3-6.47-6.47-10.06-9.25-3-2.32-6.56-3.95-9.89-5.86-6.1-3.52-12.54-6.55-16.8-12.56a9.91,9.91,0,0,0-5.94-3.86,12.21,12.21,0,0,1-4.86-2.8A43.53,43.53,0,0,0,137.83,352c-5.22-1.74-8.84-5.71-13-8.94a27.56,27.56,0,0,0-3.1-2.19c-5.61-3.17-9.59-7.55-11-14-.71-3.38-1.46-6.77-2.38-10.1-.61-2.24-1.15-4.68-2.44-6.53-4.94-7.06-5.44-14.74-4.13-22.89a94.12,94.12,0,0,0,1-11.13,11.34,11.34,0,0,0-2.18-7.77c-3.24-4.26-4-9.45-4.29-14.7-.28-5.72-.42-11.44-.91-17.14a24.37,24.37,0,0,0-1.88-7.52c-1.9-4.35-1.7-8.31.1-12.71a90.58,90.58,0,0,0,4.21-14.44c1-4.57,2.29-8.28,6.93-11,5.52-3.24,8.48-9.08,9.68-15.42a23.73,23.73,0,0,1,4.9-10.77,121.19,121.19,0,0,0,12-19.38,45.38,45.38,0,0,1,11.93-15.31,34.9,34.9,0,0,0,5.35-5.58,19.84,19.84,0,0,1,15.12-8c5.55-.27,10.59-2.39,15.21-5.23a51.86,51.86,0,0,1,18.93-7.44c7.33-1.21,14.45-3.61,21.75-5A75.22,75.22,0,0,1,235.88,97c10.41.31,20.55-1.14,30.74-2.86,9.2-1.56,18.47-3.7,27.82-2.5,9.79,1.27,18.93,4.65,24.94,13.19,2.82,4,6.91,5.84,11.12,6.91,8.24,2.1,14,7.4,19.45,13.32,2.73,3,5,6.36,9,8a4.23,4.23,0,0,1,1.94,1.68c3.3,5.81,8.88,9.1,14.11,12.74,4.91,3.42,7.5,8.16,8.54,13.9.95,5.19,1.8,10.4,2.85,15.57a17.4,17.4,0,0,0,1.75,4,5.18,5.18,0,0,0,3.79,3c1.56.37,3.19,2.14,4,3.69a47.8,47.8,0,0,1,3.94,10.25c1.23,5.24,3.41,10.38,2.36,16-1.22,6.56-2.29,13.14-3.46,19.7-.71,3.92-1.5,7.77-.41,11.83.4,1.49-.45,3.33-.79,5-.51,2.51-1.5,5-1.53,7.52-.06,5.2.32,10.4.63,15.59.22,3.76-.37,7.19-2.81,10.25-2.78,3.49-2.59,7.84-2.81,11.95-.54,10-4,19.11-8.43,27.88-1.22,2.43-3.73,4.19-5.47,6.4-2.58,3.28-5.54,6.42-7.37,10.1a88.23,88.23,0,0,1-11.84,17.29c-4,4.77-7.93,9.63-12.21,14.15-5.57,5.86-11.79,10.91-19.46,14-2.11.84-3.93,2.43-5.87,3.69-7.49,4.83-15.91,7.18-24.5,8.94-11.37,2.33-22.74,4.69-34.18,6.55-8.16,1.33-16.45,1.85-24.68,2.73Zm4.51-296c-8.91-1.41-15.51.11-22.15,2.07a170.15,170.15,0,0,1-17.51,3.85,36.13,36.13,0,0,0-14.43,5.52,38.24,38.24,0,0,1-16.11,6c-5.48.87-10.07,2.66-13.52,7.26a24.59,24.59,0,0,1-6.21,5.87c-4.53,2.9-7.25,7-9.53,11.67a102.21,102.21,0,0,1-14.44,22.73,6.53,6.53,0,0,0-1.46,3.47A25.13,25.13,0,0,1,115.28,198a12.4,12.4,0,0,0-4.76,7.72c-1.27,5.38-3.23,10.59-4.57,16-.66,2.61-1.31,5.58-.69,8.08A75,75,0,0,1,107.63,249c-.1,6.81.71,13.61,4.54,19.48,1.79,2.76,2.66,5.32,1.53,8.45a7.74,7.74,0,0,0-.26,1.54c-1.26,9.77-2.4,19.48,3.25,28.51,2.45,3.93,3.27,8.4,3.88,13,.46,3.44,1.41,7,4.49,9.34,5.87,4.37,11.65,8.89,17.77,12.89,5.59,3.65,12.07,5.88,17,10.66a8.07,8.07,0,0,0,3.16,1.73c3.38,1,5.84,3.18,8.12,5.79a32,32,0,0,0,6.09,5.54c3.77,2.52,7.82,4.66,11.75,7,6.09,3.57,11.68,7.69,16.15,13.27a11.17,11.17,0,0,0,5,3.5,90.68,90.68,0,0,0,10.28,2.19c13.74,2.7,27.45,1.9,41.09-.61q15.47-2.83,30.82-6.22c5.13-1.13,10.4-2.25,15.14-4.39A140.29,140.29,0,0,0,326,370.22a66,66,0,0,0,12.26-10.14c4.84-5.21,9-11.05,13.36-16.69,2.57-3.33,5.46-6.55,7.32-10.27,2.36-4.74,5-9,9.31-12.22a14.16,14.16,0,0,0,3.62-5,77.1,77.1,0,0,0,5.7-15.75,66.59,66.59,0,0,0,2.24-15.26,8.89,8.89,0,0,1,1.84-4.68,12.87,12.87,0,0,0,2.8-8.68c-.14-2.33-.74-4.66-.63-7,.29-5.87.7-11.74,1.35-17.58,1-9.29,2.46-18.54,3.39-27.84a70.61,70.61,0,0,0,.28-15.64c-.53-4.18-2.6-8.19-4.27-12.16-.42-1-2-1.47-2.94-2.25-1.36-1.08-3.15-2-3.9-3.41a36.18,36.18,0,0,1-2.85-8c-1-4.11-1.6-8.34-2.63-12.45s-2.3-8.53-6.46-10.42c-4.58-2.07-7.91-5.24-11.26-8.82-4.45-4.77-9.95-8.6-14.17-13.55-4.09-4.8-9.14-7.59-14.76-9.58a25.85,25.85,0,0,1-10.74-7.23,29.55,29.55,0,0,0-9.4-7c-9.74-4.28-20-4.06-30.39-2.5C263.25,107.86,251.4,109.37,241.42,110.74Z"/><path class="cls-1" d="M325.29,258.72c-.78-5-1.73-11.09-2.65-17.15-.75-4.94,1.32-8.33,5.95-9.83,3.36-1.09,5.89.46,6.39,3.94.87,6.09,1.68,12.18,2.64,18.26.31,1.94,1.29,3.79,1.53,5.74,1.21,9.8-.65,19.14-4.56,28.12a41.89,41.89,0,0,1-3.29,6.07c-2.2,3.39-5.56,4.79-9.48,5-8.22.48-16.43,1.12-24.66,1.39a89.67,89.67,0,0,1-11.66-.78c-5.08-.5-10.15-1.13-15.21-1.79-4.32-.56-8.63-1.29-13-1.82a32,32,0,0,0-4.15.07c-3.55,0-6.16,1.17-7.92,4.65-2.66,5.28-8,7.39-13,9.72-4.21,1.95-8.38,4-12.61,5.93-1.41.64-2.4.52-3.55-1.15-2.06-3-.51-5.06,1-7.28,1.08-1.57,2.33-3,3.45-4.56,1.57-2.18,1.08-3.92-1.13-5.47a74.21,74.21,0,0,1-7.95-6.15,11.3,11.3,0,0,1-2.18-13.57c1.1-2.16,2.3-4.27,3.39-6.44,5-9.87,19.73-10.92,26.46-7,3.05,1.78,4.6,4.8,5.46,8.21,1.4,5.58,3.77,7.25,9.79,7.37,3.89.08,7.39-2.93,8.6-7.38,1.53-5.63,2.36-6.19,8.48-6.22,4.27,0,4.56.38,4.81,4.65.18,3,.4,6.14,3.4,7.85,4.18,2.4,11,2.71,12.19-4.29A21.92,21.92,0,0,1,293,271.1a7.54,7.54,0,0,1,10.46-4.23c2.45,1.25,2.14,3.43,1.84,5.67s-.79,4.51-.38,6.62c1,5.26,6,7.16,11,5.42,6.05-2.06,6.73-7.25,7.84-12.08C324.69,268.39,324.73,264.08,325.29,258.72Zm-88.8,23.34c.07-3.45-3.3-6.31-7.47-6.34-4.85,0-8.7,3.16-8.84,7.34-.12,3.6,4.09,7.88,7.83,7.94C232.16,291.08,236.41,286.6,236.49,282.06Z"/><path class="cls-1" d="M182.72,308.81c1,1,1.81,1.6,2.44,2.35a7.33,7.33,0,0,1,1.78,2.71c1,4.84-3.6,9.47-8.45,8.68-3.67-.59-5.53-3.53-4.21-7a44.8,44.8,0,0,1,3-5.5l-7.28,1.1a10.2,10.2,0,0,0,.89,2c2.51,3.22,1.12,6.38-1.32,9.14-2,2.31-4.91,1.48-7.33.73a6.35,6.35,0,0,1-2.69-10.6,12.22,12.22,0,0,0,1.24-2.21,89.51,89.51,0,0,1-9.08-.72,30.69,30.69,0,0,1-7.9-2.37c-4.67-2.25-6.08-6.06-4.15-10.8a14.93,14.93,0,0,1,3.14-4.68c2.9-3,4.2-3.05,6.59.36,3.68,5.25,9,6.85,14.71,6.79a125.91,125.91,0,0,0,18.53-2c3.91-.64,5.08-6.24,1.72-9.37-2.38-2.21-5.62-3.57-8.6-5.05-2.6-1.29-5.44-2.11-8.08-3.34-3.07-1.43-4.69-6.79-2.87-10a73.38,73.38,0,0,1,6.61-10.36,56.94,56.94,0,0,1,14.31-12.45c4.58-2.88,9.34-2.95,14.23-1.35,4,1.31,5.46,6.31,3.05,9.89-3.3,4.93-8.4,6.75-13.86,7.81-3.51.69-5.55,2.84-6.74,6.06a2.47,2.47,0,0,0,1.34,3.42c2.15,1,4.54,1.62,6.52,2.88,2.51,1.6,5.23,3.29,6.9,5.63,2.32,3.26,3.9,7.1,5.53,10.81,1.49,3.36.74,6.32-2.13,8.85C196.16,304,191.92,306.25,182.72,308.81Z"/><path class="cls-1" d="M192.83,224c-6.57-.41-13.15-.78-19.71-1.3a4.74,4.74,0,0,1-3-1.32c-3.53-4.08-6.53-8.39-6.72-14.16a77.44,77.44,0,0,0-1.26-10c-.6-3.67.41-5.14,4-5.64,1.12-.15,2.2-.48,3.3-.71,3.07-.65,4.86.68,5.08,3.79.07.87.09,1.74.13,2.6.19,5.2,2.44,6.4,6.54,7.63,2.25.68,4.74.55,7.12.81,2.75.3,5.49.8,8.24.92,5.69.24,11.4.52,17.09.34,3.73-.12,6.17-2.72,7.11-6.18A85,85,0,0,0,223,189.3c.47-3.51,1.32-4.77,4.73-5.5a40.76,40.76,0,0,1,5.88-1,3.39,3.39,0,0,1,2.37,1.11,10.16,10.16,0,0,1,2.4,7.7,57.63,57.63,0,0,1-7.3,24.19c-2.12,3.86-5.55,5.64-10,6-8.2.57-16.38,1.42-24.57,2.13-1.21.1-2.43,0-3.64,0Z"/><path class="cls-1" d="M286.52,194.38c-.65-6.26-1.35-12.79-2-19.33-.3-3.1-.56-6.22-.66-9.33a7.72,7.72,0,0,1,8.81-7.91c2.13.22,3.13,1.23,3.32,3.49.6,7,1,14,2.23,20.9,2.26,12.83-1.12,24.6-6.14,36.06a20.13,20.13,0,0,1-10.64,10.23c-2.95,1.3-6,1.88-9.09-.1s-3.17-3.77-.4-6.09C280.23,215.41,286.54,205.2,286.52,194.38Z"/><path class="cls-1" d="M304.27,196.61c1.31-10.37,2.53-20.76,4-31.11a6,6,0,0,1,5.52-5.42c3.09-.32,4.7,1.7,6.3,4a13.67,13.67,0,0,1,2.3,7.51c.51,12.45,0,24.81-3.67,36.82a29,29,0,0,1-3.79,8.17c-2.24,3.2-4.22,3.1-6.06-.35a35.69,35.69,0,0,1-3.34-9.71c-.63-3.2-.41-6.56-.56-9.85Z"/><path class="cls-1" d="M361.35,271.78c-.29,4.14-.55,8.27-.88,12.4a3,3,0,0,1-.58,1.69c-1.25,1.36-2.61,2.61-3.92,3.9-1-1-2.25-1.88-2.76-3.08A69,69,0,0,1,349,275.31c-1.67-7.24-2.85-14.59-4.14-21.91a59.36,59.36,0,0,1-.89-7.74,12.38,12.38,0,0,1,.61-5c1.54-3.79,5.33-4.7,8.45-2.09a14.15,14.15,0,0,1,3.61,4.34A46.67,46.67,0,0,1,361,263.19c0,2.86,0,5.72,0,8.58Z"/><path class="cls-1" d="M233.05,236.84c-3.84-2.82-2.1-5.8-.82-8.64,1.65-3.64,3.79-7.09,5.17-10.82,1.64-4.44,2.77-9.09,4-13.68,1.46-5.53,4-10.39,8.65-13.87,1.05-.78,3-1.94,3.51-1.56,1.27.93,2.68,2.63,2.76,4.09.47,8.36-.3,16.6-3.42,24.49-.57,1.43-.82,3-1.38,4.41C248.15,229.9,241.45,234.56,233.05,236.84Z"/><path class="cls-1" d="M279.87,201.07c-1.09,3.14-1.82,6.47-3.34,9.39-1.82,3.49-4.75,3.23-6.61-.31-3-5.68-4.16-11.88-5.1-18.16-.83-5.57-1.88-11.11-2.54-16.69a16.81,16.81,0,0,1,.46-6.89c1.2-3.77,5.43-4.92,8.73-2.71a12.4,12.4,0,0,1,5.6,9.27c.69,6.37,1.1,12.76,1.63,19.14.19,2.25.39,4.49.58,6.73Z"/><path class="cls-1" d="M200.63,180.69c5.92-3,9.9-1,11.89,4.6a6.58,6.58,0,0,1-3.4,7.74c-5.38,2.63-8.24-.93-11-5.41a39.88,39.88,0,0,1-2.16,3.92c-2.41,3.35-6.64,4-9.77,1.33a12,12,0,0,1-3.14-4.7,4.13,4.13,0,0,1,2.29-5.64c2.52-1.15,5.1-2.18,7.65-3.27l.35.63c0-.24.19-.54.09-.7-2.39-4.3-2.16-7.56,1.64-10.66,1.15-.94,3.94-.88,5.46-.16,3.86,1.81,4.38,6.37,1.51,9.61a17.08,17.08,0,0,0-1.16,1.39C200.75,179.54,200.78,179.83,200.63,180.69Z"/><path class="cls-1" d="M260.87,225c1.57.53,2.68.94,3.82,1.28,2.88.86,4.16,3.27,5.24,5.7a3.33,3.33,0,0,1-.84,2.77c-3.07,3.33-7.08,4.4-11.48,4.28a19,19,0,0,0-2.55-.3c-2.63.33-2.84-2-3.44-3.44-.19-.47,1.63-2,2.77-2.7.81-.46,2-.12,3.05-.32.46-.1.84-.63,1.26-1-.36-.37-.68-1-1.11-1.07-3.84-.94-5.16-2.14-5.15-4.84a7.86,7.86,0,0,1,5.44-6.79c1.76-.43,3.54-.82,5.32-1.15a3.19,3.19,0,0,1,4.09,2.6c.46,1.95-1,2.41-2.5,2.94A38.74,38.74,0,0,0,260.87,225Z"/><path class="cls-1" d="M271.05,310.2c-.91,1.63-2.16,3.95-3.5,6.22-.18.31-.88.67-1.11.55-2.63-1.3-6-2.07-7.63-4.19-3.54-4.61-1.67-9.17,4-10.95a5.4,5.4,0,0,1,4,.83A8.53,8.53,0,0,1,271.05,310.2Z"/><path class="cls-1" d="M292.1,254.66c0-3.09,3.86-7.2,6.67-7.13s5.48,2.44,5.53,4.88c.06,3-4.15,8.63-6.44,8.64C295.23,261.07,292.07,257.57,292.1,254.66Z"/></g></g></svg>