<svg xmlns="http://www.w3.org/2000/svg" viewBox="0 0 500 297.64"><defs><style>.cls-1{fill:#fff;}</style></defs><g id="Layer_2" data-name="Layer 2"><g id="Layer_1-2" data-name="Layer 1"><path class="cls-1" d="M436.63,0H36.76A36.87,36.87,0,0,0,0,36.76V178.17a36.87,36.87,0,0,0,36.76,36.77H463.24A36.87,36.87,0,0,0,500,178.17V63.37A63.55,63.55,0,0,0,436.63,0ZM98.37,162.5a26.94,26.94,0,1,1,26.93-26.93A26.93,26.93,0,0,1,98.37,162.5Zm57.35-9.59a56.05,56.05,0,0,0,1.59-13.3,56.65,56.65,0,0,0-.62-8.39,56,56,0,1,0-110.8,0,56.65,56.65,0,0,0-.62,8.39,55.72,55.72,0,0,0,4.88,22.89,73.17,73.17,0,1,1,105.57-9.59Zm70.44,27.73a72.87,72.87,0,0,1-24.24-4.12c.88,0,1.76.06,2.65.06A71.15,71.15,0,0,0,215.3,35.1a74.73,74.73,0,0,1,10.86-.8,73.17,73.17,0,0,1,0,146.34Zm176.83,0A73.17,73.17,0,1,1,466.14,70.48a62,62,0,1,0,8.66,51.09A73.19,73.19,0,0,1,403,180.64Z"/><path class="cls-1" d="M19,246.36a4.6,4.6,0,0,0,1.42.95,4.39,4.39,0,0,0,1.74.34,4.27,4.27,0,0,0,1.73-.34,4.44,4.44,0,0,0,2.35-2.37,4.4,4.4,0,0,0,.35-1.74,4.43,4.43,0,0,0-1.3-3.16,4.56,4.56,0,0,0-1.4-1,4.12,4.12,0,0,0-1.73-.36,4.24,4.24,0,0,0-1.74.36,4.61,4.61,0,0,0-2.38,2.38,4.29,4.29,0,0,0-.37,1.75,4.24,4.24,0,0,0,.37,1.74A4.68,4.68,0,0,0,19,246.36Z"/><path class="cls-1" d="M8.39,246.36a4.6,4.6,0,0,0,1.42.95,4.65,4.65,0,0,0,3.49,0,4.6,4.6,0,0,0,1.42-.95,4.48,4.48,0,0,0,.95-1.42A4.39,4.39,0,0,0,16,243.2,4.37,4.37,0,0,0,14.72,240a4.65,4.65,0,0,0-1.42-1,4.41,4.41,0,0,0-3.49,0,4.65,4.65,0,0,0-1.42,1A4.37,4.37,0,0,0,7.1,243.2a4.39,4.39,0,0,0,.34,1.74A4.48,4.48,0,0,0,8.39,246.36Z"/><path class="cls-1" d="M78.83,246.36A4.37,4.37,0,0,0,82,247.65a4.39,4.39,0,0,0,1.74-.34,4.39,4.39,0,0,0,2.37-2.37,4.39,4.39,0,0,0,.34-1.74A4.37,4.37,0,0,0,85.15,240a4.53,4.53,0,0,0-1.42-1,4.24,4.24,0,0,0-1.74-.36,4.32,4.32,0,0,0-1.75.36,4.71,4.71,0,0,0-2.38,2.38,4.28,4.28,0,0,0-.36,1.75,4.24,4.24,0,0,0,.36,1.74A4.53,4.53,0,0,0,78.83,246.36Z"/><path class="cls-1" d="M68.19,246.36a4.55,4.55,0,0,0,4.9.95,4.39,4.39,0,0,0,2.37-2.37,4.4,4.4,0,0,0,.35-1.74,4.43,4.43,0,0,0-1.3-3.16,4.53,4.53,0,0,0-1.42-1,4.38,4.38,0,0,0-3.48,0,4.42,4.42,0,0,0-1.42,1,4.66,4.66,0,0,0-1,1.41,4.28,4.28,0,0,0-.36,1.75,4.24,4.24,0,0,0,.36,1.74A4.71,4.71,0,0,0,68.19,246.36Z"/><path class="cls-1" d="M96.89,246.36a4.6,4.6,0,0,0,1.42.95,4.65,4.65,0,0,0,3.49,0,4.6,4.6,0,0,0,1.42-.95,4.68,4.68,0,0,0,1-1.42,4.24,4.24,0,0,0,.37-1.74,4.29,4.29,0,0,0-.37-1.75,4.61,4.61,0,0,0-2.38-2.38,4.41,4.41,0,0,0-3.49,0,4.65,4.65,0,0,0-1.42,1,4.37,4.37,0,0,0-1.29,3.16,4.39,4.39,0,0,0,.34,1.74A4.48,4.48,0,0,0,96.89,246.36Z"/><path class="cls-1" d="M107.53,246.36a4.6,4.6,0,0,0,1.42.95,4.65,4.65,0,0,0,3.49,0,4.44,4.44,0,0,0,1.41-.95,4.32,4.32,0,0,0,1-1.42,4.4,4.4,0,0,0,.35-1.74,4.45,4.45,0,0,0-.35-1.75,4.28,4.28,0,0,0-1-1.41,4.49,4.49,0,0,0-1.41-1,4.41,4.41,0,0,0-3.49,0,4.65,4.65,0,0,0-1.42,1,4.37,4.37,0,0,0-1.29,3.16,4.39,4.39,0,0,0,.34,1.74A4.48,4.48,0,0,0,107.53,246.36Z"/><path class="cls-1" d="M218.71,273.91a2.49,2.49,0,0,1-.78,1.86,2.61,2.61,0,0,1-1.91.76h-8a8.34,8.34,0,0,0,.17-1.28,10,10,0,0,0,0-1.34v-7.12a15.12,15.12,0,0,0-1.21-6,16.11,16.11,0,0,0-8.25-8.5,14.34,14.34,0,0,0-6-1.3,14.6,14.6,0,0,0-6,1.25,15.72,15.72,0,0,0-4.91,3.4,16.05,16.05,0,0,0-3.31,5,15.49,15.49,0,0,0-1.21,6.11v7.08q0,.69,0,1.35a11.65,11.65,0,0,0,.14,1.31H167.41V251h-8.8v25.53h-5.39V251h-8.81v25.53h-5.36V251h-8.77v25.53H115.12V251h-8.81v25.53H92.11V266.31a14.71,14.71,0,0,0-1.23-6,15.39,15.39,0,0,0-8.25-8.13,15.24,15.24,0,0,0-6-1.2,15.47,15.47,0,0,0-10.92,4.43,15,15,0,0,0-3.31,4.9,15.44,15.44,0,0,0-1.21,6.15v10H51.25V238.71H42.44v37.82H32.52v-9.71a14.64,14.64,0,0,0-1.19-6A16,16,0,0,0,23,252.32a15.14,15.14,0,0,0-12.14,0,16,16,0,0,0-5,3.42,16.24,16.24,0,0,0-3.35,5.06A15.76,15.76,0,0,0,1.3,267v7a11.15,11.15,0,0,0,.89,4.42A11.45,11.45,0,0,0,4.65,282a11.75,11.75,0,0,0,3.62,2.43,11,11,0,0,0,4.43.9h5.18v-8.81H12.7a2.52,2.52,0,0,1-1.85-.74A2.46,2.46,0,0,1,10.1,274v-7a7.43,7.43,0,0,1,2-5.08,6.76,6.76,0,0,1,2.16-1.52,6.71,6.71,0,0,1,5.32,0,7.19,7.19,0,0,1,2.18,1.5,7,7,0,0,1,1.46,2.21,6.75,6.75,0,0,1,.54,2.68v18.55H182.13a14.26,14.26,0,0,0,10.64,4.35,14.87,14.87,0,0,0,5.84-1.14,15.43,15.43,0,0,0,4.8-3.21H216a11.19,11.19,0,0,0,4.47-.9,11.76,11.76,0,0,0,3.66-2.45,11.38,11.38,0,0,0,2.47-3.65,11.07,11.07,0,0,0,.9-4.43v-35.2h-8.81ZM83.27,276.53H69.93v-10a6.74,6.74,0,0,1,.52-2.63,6.63,6.63,0,0,1,1.43-2.1A6.91,6.91,0,0,1,74,260.33a6.62,6.62,0,0,1,2.59-.52,6.79,6.79,0,0,1,2.59.5,6.94,6.94,0,0,1,2.13,1.39,6.29,6.29,0,0,1,1.43,2.07,6.37,6.37,0,0,1,.52,2.54Zm116.17-2.62a7,7,0,0,1-.52,2.66,7.4,7.4,0,0,1-1.44,2.21,6.93,6.93,0,0,1-2.12,1.52,6.37,6.37,0,0,1-5.18,0,7.11,7.11,0,0,1-2.13-1.49,6.79,6.79,0,0,1-1.43-2.21,7.1,7.1,0,0,1-.52-2.73v-7.08a7,7,0,0,1,.52-2.71,6.81,6.81,0,0,1,1.43-2.19,6.93,6.93,0,0,1,2.13-1.49,6.37,6.37,0,0,1,5.18,0,6.93,6.93,0,0,1,2.12,1.52,7.25,7.25,0,0,1,1.44,2.23,7,7,0,0,1,.52,2.64Z"/><rect class="cls-1" x="234.77" y="238.71" width="8.81" height="46.63"/><path class="cls-1" d="M288.42,281.85a6,6,0,0,1-.76,3,6.85,6.85,0,0,1-2,2.19,8.71,8.71,0,0,1-2.8,1.32,12.35,12.35,0,0,1-6.46,0,8.66,8.66,0,0,1-2.79-1.32,6.57,6.57,0,0,1-2-2.19,6,6,0,0,1-.75-3v-25h-8.84v25a15.13,15.13,0,0,0,1.5,6.91,14.77,14.77,0,0,0,4,4.94,16.92,16.92,0,0,0,5.63,2.95,21.67,21.67,0,0,0,12.95,0,17,17,0,0,0,5.63-2.95,14.8,14.8,0,0,0,4-4.94,15,15,0,0,0,1.52-6.91V251h-8.84Z"/><path class="cls-1" d="M276.48,246.36a4.6,4.6,0,0,0,1.42.95,4.65,4.65,0,0,0,3.49,0,4.44,4.44,0,0,0,1.41-.95,4.53,4.53,0,0,0,1-1.42,4.24,4.24,0,0,0,.36-1.74,4.28,4.28,0,0,0-.36-1.75,4.71,4.71,0,0,0-2.38-2.38,4.41,4.41,0,0,0-3.49,0,4.65,4.65,0,0,0-1.42,1,4.37,4.37,0,0,0-1.29,3.16,4.39,4.39,0,0,0,.34,1.74A4.48,4.48,0,0,0,276.48,246.36Z"/><path class="cls-1" d="M348.83,266.48a7.32,7.32,0,0,1,1.28-3.87,6.42,6.42,0,0,1,2.85-2.28,7.59,7.59,0,0,1,3.77-.45,8.89,8.89,0,0,1,4,1.59l3.49-8a15.58,15.58,0,0,0-5.46-2.2,16.56,16.56,0,0,0-5.52-.12,16.17,16.17,0,0,0-5.13,1.71,15.66,15.66,0,0,0-4.25,3.3,15.35,15.35,0,0,0-2.87,4.63,14.81,14.81,0,0,0-1,5.7v10h-9.88v-9.46a16.71,16.71,0,0,0-1.33-6.89,12.17,12.17,0,0,0-4.21-5,21.06,21.06,0,0,0-7.41-3.09A48.79,48.79,0,0,0,306.28,251v8.81a40.73,40.73,0,0,1,6.85.49,16.61,16.61,0,0,1,4.67,1.4,6.48,6.48,0,0,1,2.66,2.26,5.75,5.75,0,0,1,.84,3.11v9.46H304.51v8.81h62.7v-8.81H348.83Z"/><path class="cls-1" d="M403.33,246.36a4.37,4.37,0,0,0,3.16,1.29,4.26,4.26,0,0,0,1.72-.34,4.51,4.51,0,0,0,1.4-.95,4.32,4.32,0,0,0,.95-1.42,4.4,4.4,0,0,0,.35-1.74,4.45,4.45,0,0,0-.35-1.75,4.28,4.28,0,0,0-.95-1.41,4.56,4.56,0,0,0-1.4-1,4.11,4.11,0,0,0-1.72-.36,4.25,4.25,0,0,0-1.75.36,4.71,4.71,0,0,0-2.38,2.38,4.28,4.28,0,0,0-.36,1.75,4.24,4.24,0,0,0,.36,1.74A4.53,4.53,0,0,0,403.33,246.36Z"/><path class="cls-1" d="M392.69,246.36a4.37,4.37,0,0,0,3.16,1.29,4.39,4.39,0,0,0,1.74-.34,4.6,4.6,0,0,0,1.42-.95,4.48,4.48,0,0,0,.95-1.42,4.39,4.39,0,0,0,.34-1.74A4.37,4.37,0,0,0,399,240a4.65,4.65,0,0,0-1.42-1,4.24,4.24,0,0,0-1.74-.36,4.28,4.28,0,0,0-1.75.36,4.49,4.49,0,0,0-1.41,1,4.28,4.28,0,0,0-.95,1.41,4.45,4.45,0,0,0-.35,1.75,4.4,4.4,0,0,0,.35,1.74A4.32,4.32,0,0,0,392.69,246.36Z"/><path class="cls-1" d="M412.12,255.67a16,16,0,0,0-4.94-3.4,14.47,14.47,0,0,0-6-1.27,14.73,14.73,0,0,0-6,1.25,15.76,15.76,0,0,0-4.91,3.38,16.17,16.17,0,0,0-3.31,5,15.54,15.54,0,0,0-1.23,6.16v7.09a12,12,0,0,0,.88,4.69,10.86,10.86,0,0,0,2.42,3.61,10.41,10.41,0,0,0,3.63,2.32,12.42,12.42,0,0,0,4.54.81h8a12.13,12.13,0,0,0,4.48-.83,10.91,10.91,0,0,0,6.13-6,12,12,0,0,0,.9-4.72v-7.11a15.06,15.06,0,0,0-1.23-6A16.28,16.28,0,0,0,412.12,255.67Zm-4.29,18.13a2.58,2.58,0,0,1-.77,1.95,2.63,2.63,0,0,1-1.89.75h-8a2.66,2.66,0,0,1-1.87-.71,2.47,2.47,0,0,1-.76-1.88v-7.09a7.18,7.18,0,0,1,.52-2.71,7.28,7.28,0,0,1,1.42-2.21,6.76,6.76,0,0,1,2.11-1.5,6.37,6.37,0,0,1,5.18,0,7,7,0,0,1,2.12,1.49,6.74,6.74,0,0,1,1.95,4.8Z"/><path class="cls-1" d="M446.37,246.36a4.37,4.37,0,0,0,3.16,1.29,4.39,4.39,0,0,0,1.74-.34,4.6,4.6,0,0,0,1.42-.95,4.48,4.48,0,0,0,.95-1.42,4.39,4.39,0,0,0,.34-1.74,4.37,4.37,0,0,0-1.29-3.16,4.65,4.65,0,0,0-1.42-1,4.24,4.24,0,0,0-1.74-.36,4.28,4.28,0,0,0-1.75.36,4.49,4.49,0,0,0-1.41,1,4.28,4.28,0,0,0-.95,1.41,4.45,4.45,0,0,0-.35,1.75,4.4,4.4,0,0,0,.35,1.74A4.32,4.32,0,0,0,446.37,246.36Z"/><path class="cls-1" d="M484,246.36a4.55,4.55,0,0,0,4.9.95,4.39,4.39,0,0,0,2.37-2.37,4.4,4.4,0,0,0,.35-1.74,4.43,4.43,0,0,0-1.3-3.16,4.53,4.53,0,0,0-1.42-1,4.38,4.38,0,0,0-3.48,0,4.42,4.42,0,0,0-1.42,1,4.66,4.66,0,0,0-1,1.41,4.28,4.28,0,0,0-.36,1.75,4.24,4.24,0,0,0,.36,1.74A4.71,4.71,0,0,0,484,246.36Z"/><path class="cls-1" d="M473.31,246.36a4.49,4.49,0,0,0,6.32,0,4.48,4.48,0,0,0,.95-1.42,4.4,4.4,0,0,0,.35-1.74,4.5,4.5,0,0,0-2.72-4.13,4.38,4.38,0,0,0-3.48,0,4.42,4.42,0,0,0-1.42,1,4.66,4.66,0,0,0-1,1.41,4.28,4.28,0,0,0-.36,1.75,4.24,4.24,0,0,0,.36,1.74A4.71,4.71,0,0,0,473.31,246.36Z"/><path class="cls-1" d="M496,260.33a15.26,15.26,0,0,0-3.32-4.87,15.48,15.48,0,0,0-4.92-3.26,15.24,15.24,0,0,0-6-1.2,15.45,15.45,0,0,0-6,1.18,15.25,15.25,0,0,0-4.9,3.25,14.91,14.91,0,0,0-3.32,4.9,15.44,15.44,0,0,0-1.21,6.15v10h-9.95V251h-8.81v25.53h-12a2.56,2.56,0,0,1-1.88-.76,2.49,2.49,0,0,1-.78-1.86v-35.2H424v35.2a10.92,10.92,0,0,0,.92,4.43,11.71,11.71,0,0,0,2.47,3.65,11.55,11.55,0,0,0,3.64,2.45,11.24,11.24,0,0,0,4.48.9h50.22a12.13,12.13,0,0,0,4.48-.83,11.27,11.27,0,0,0,3.66-2.33,10.72,10.72,0,0,0,2.47-3.64,12.13,12.13,0,0,0,.9-4.74v-7.49A15,15,0,0,0,496,260.33Zm-7.6,13.47a2.63,2.63,0,0,1-.78,2,2.7,2.7,0,0,1-1.92.74H475.05v-10a6.74,6.74,0,0,1,.52-2.63,6.66,6.66,0,0,1,1.44-2.1,6.86,6.86,0,0,1,2.12-1.42,6.62,6.62,0,0,1,2.59-.52,6.93,6.93,0,0,1,2.61.5,6.76,6.76,0,0,1,2.14,1.39,6.14,6.14,0,0,1,1.43,2.07,5.88,5.88,0,0,1,.49,2.54Z"/></g></g></svg>