<svg xmlns="http://www.w3.org/2000/svg" viewBox="0 0 500 500"><defs><style>.cls-1{fill:#fff;}</style></defs><g id="Layer_2" data-name="Layer 2"><g id="Layer_1-2" data-name="Layer 1"><path class="cls-1" d="M250,0C111.93,0,0,111.93,0,250S111.93,500,250,500,500,388.07,500,250,388.07,0,250,0Zm0,483C121.65,483,17.59,378.66,17.59,250S121.65,17,250,17,482.41,121.34,482.41,250,378.35,483,250,483Z"/><path class="cls-1" d="M250,72.94A177.06,177.06,0,1,0,427.06,250,177.06,177.06,0,0,0,250,72.94ZM250,415c-90.91,0-164.6-73.87-164.6-165S159.09,85,250,85s164.6,73.87,164.6,165S340.91,415,250,415Z"/><path class="cls-1" d="M239.52,174.45v22a17.93,17.93,0,0,1-1.36,7,18.24,18.24,0,0,1-3.74,5.75,18.48,18.48,0,0,1-5.59,4,18.12,18.12,0,0,1-6.85,1.68H174.35a17.87,17.87,0,0,1-7.16-1.45,18.32,18.32,0,0,1-9.78-9.77,18,18,0,0,1-1.45-7.16v-22h11.51v22a6.64,6.64,0,0,0,.56,2.71,6.89,6.89,0,0,0,3.7,3.63,6.61,6.61,0,0,0,2.62.54h46.78a7,7,0,0,0,2.6-.5,6.6,6.6,0,0,0,2.2-1.4,6.69,6.69,0,0,0,1.52-2.17,6.94,6.94,0,0,0,.56-2.81v-22Zm-55.79-12.77a6.79,6.79,0,0,1-.54-2.71,6.88,6.88,0,0,1,6.93-6.93,6.7,6.7,0,0,1,4,1.29,6.8,6.8,0,0,1,2.48,3.3,7,7,0,0,1,9.26-4,6.93,6.93,0,0,1,3.68,3.67,7.05,7.05,0,0,1,.53,2.72,7,7,0,0,1-.53,2.71,6.9,6.9,0,0,1-6.39,4.21,6.71,6.71,0,0,1-4-1.28,7.09,7.09,0,0,1-2.5-3.3,6.86,6.86,0,0,1-6.5,4.58,6.94,6.94,0,0,1-4.92-2A7,7,0,0,1,183.73,161.68Zm6.5-14.74a7,7,0,0,1,1.48-7.62,6.69,6.69,0,0,1,2.2-1.47,7.07,7.07,0,0,1,5.42,0,6.69,6.69,0,0,1,2.2,1.47,6.82,6.82,0,0,1,1.48,2.2,7.19,7.19,0,0,1,0,5.42,6.9,6.9,0,0,1-3.68,3.68,7.07,7.07,0,0,1-5.42,0,6.9,6.9,0,0,1-3.68-3.68Z"/><path class="cls-1" d="M270.82,180.4v29.89a28.3,28.3,0,0,1-2.32,11.42,30.15,30.15,0,0,1-6.29,9.33,29.32,29.32,0,0,1-9.36,6.31,28.53,28.53,0,0,1-11.46,2.32V228.21a17.54,17.54,0,0,0,7-1.41,18.29,18.29,0,0,0,5.73-3.83,17.89,17.89,0,0,0,3.86-5.71,17.43,17.43,0,0,0,1.4-7h-.09V180.4Z"/><path class="cls-1" d="M326.63,153.26v43.23a17.87,17.87,0,0,1-1.45,7.16,18.65,18.65,0,0,1-3.93,5.84,18.25,18.25,0,0,1-5.85,3.93,17.82,17.82,0,0,1-7.15,1.45H277.88v-11.5H294l-5.76-41.69,11.32-1.5,6,43.19h2.67a6.66,6.66,0,0,0,3.57-1,6.37,6.37,0,0,0,2.46-2.66,6.26,6.26,0,0,0,.89-3.23V153.26Zm-32.05,77a2.57,2.57,0,0,0,1.36,2.29,2.58,2.58,0,0,0,1.17.28h7v4.4h-18v-4.4h4.68a7,7,0,0,1-.35-1.24,7.15,7.15,0,0,1-.12-1.33v-2.34a6.63,6.63,0,0,1,.54-2.69,6.83,6.83,0,0,1,3.67-3.65,6.83,6.83,0,0,1,2.71-.54h6.88v4.3H297.2a2.43,2.43,0,0,0-1.33.38,3.1,3.1,0,0,0-1,1,1.94,1.94,0,0,0-.26.61,3.46,3.46,0,0,0-.07.61Z"/><path class="cls-1" d="M334.54,153.17h11.51v61.7H334.54Z"/><path class="cls-1" d="M206.68,324.89a18,18,0,0,1-1.45,7.16,18.55,18.55,0,0,1-4,5.85,18.79,18.79,0,0,1-5.87,3.93,18,18,0,0,1-7.15,1.45H158.16a18,18,0,0,1-7.15-1.45,18.29,18.29,0,0,1-9.78-9.78,17.87,17.87,0,0,1-1.45-7.16V300.8h11.51v24.09a7.1,7.1,0,0,0,.75,3.23,7.41,7.41,0,0,0,2.52,2.64,6.6,6.6,0,0,0,3.6,1h30.09a7.05,7.05,0,0,0,1.75-.21,7.26,7.26,0,0,0,1.61-.63,7.13,7.13,0,0,0,2.58-2.48,6.69,6.69,0,0,0,1-3.56v-4.16H169.58v-15.3a17.87,17.87,0,0,1,1.45-7.16,19.23,19.23,0,0,1,3.93-5.89,18.27,18.27,0,0,1,5.85-4A17.51,17.51,0,0,1,188,286.9h18.3v11.51H188a6.53,6.53,0,0,0-3.6,1,6.56,6.56,0,0,0-3.27,6v3.84h25.59Zm-46.53,33.59a7.07,7.07,0,0,1,0-5.42,6.93,6.93,0,0,1,3.67-3.68,6.88,6.88,0,0,1,2.72-.54,6.65,6.65,0,0,1,4,1.29,6.74,6.74,0,0,1,2.48,3.3,6.95,6.95,0,0,1,12.94-.37,7.19,7.19,0,0,1,0,5.42,6.82,6.82,0,0,1-1.48,2.2,6.69,6.69,0,0,1-2.2,1.47,6.79,6.79,0,0,1-2.71.54,6.71,6.71,0,0,1-4.05-1.28,7.09,7.09,0,0,1-2.5-3.3,6.86,6.86,0,0,1-6.5,4.58,6.88,6.88,0,0,1-2.72-.54,6.75,6.75,0,0,1-2.19-1.47A6.82,6.82,0,0,1,160.15,358.48Z"/><path class="cls-1" d="M251.12,318.34h8v11.51h-8.24a28.66,28.66,0,0,1-3.37,9.92,30.35,30.35,0,0,1-6.45,8,30,30,0,0,1-8.84,5.36,28.59,28.59,0,0,1-10.48,1.94h-6.6V343.56h6.6a17.65,17.65,0,0,0,6-1,18,18,0,0,0,5.17-2.88,18.46,18.46,0,0,0,4-4.35,17.17,17.17,0,0,0,2.34-5.45H214.3V305.34a18.1,18.1,0,0,1,1.52-7.14,18.81,18.81,0,0,1,4-5.82,18.45,18.45,0,0,1,5.87-3.91,18.2,18.2,0,0,1,7.16-1.43h18.29v31.3Zm-11.69-19.83h-6.6a6.67,6.67,0,0,0-3.63,1,7.5,7.5,0,0,0-2.5,2.57,7.07,7.07,0,0,0-.79,3.37h-.1v12.91h13.62Z"/><path class="cls-1" d="M291.31,318.34v11.51H287v-.09a17.8,17.8,0,0,1-6.88-1.34,19.3,19.3,0,0,1-5.76-3.67,18.27,18.27,0,0,1-5.73,3.74,17.59,17.59,0,0,1-6.9,1.36h-3.18V318.34h3.18a6.69,6.69,0,0,0,3.56-1,6.86,6.86,0,0,0,2.48-2.67,5.67,5.67,0,0,0,.63-1.54,6.92,6.92,0,0,0,.21-1.69v-22h11.51v21.94a6.82,6.82,0,0,0,.84,3.32,7.07,7.07,0,0,0,2.46,2.58,6.61,6.61,0,0,0,3.58,1v.09Zm-23.7,31.11a7.19,7.19,0,0,1,0-5.42,6.9,6.9,0,0,1,3.68-3.68,7.19,7.19,0,0,1,5.42,0,6.9,6.9,0,0,1,3.68,3.68,7.19,7.19,0,0,1,0,5.42,6.82,6.82,0,0,1-1.48,2.2,6.72,6.72,0,0,1-2.2,1.48,7.19,7.19,0,0,1-5.42,0,6.72,6.72,0,0,1-2.2-1.48A6.82,6.82,0,0,1,267.61,349.45Z"/><path class="cls-1" d="M322.89,318.34v11.51h-4.31v-.09a17.79,17.79,0,0,1-6.87-1.34,19.3,19.3,0,0,1-5.76-3.67,18.27,18.27,0,0,1-5.73,3.74,17.66,17.66,0,0,1-6.9,1.36h-3.18V318.34h3.18a6.69,6.69,0,0,0,3.56-1,6.86,6.86,0,0,0,2.48-2.67,5.67,5.67,0,0,0,.63-1.54,6.92,6.92,0,0,0,.21-1.69v-22h11.51v21.94a6.82,6.82,0,0,0,.84,3.32,7.07,7.07,0,0,0,2.46,2.58,6.6,6.6,0,0,0,3.57,1v.09ZM299.57,276.7a7.07,7.07,0,0,1,0-5.42,7,7,0,0,1,1.47-2.2,6.82,6.82,0,0,1,2.2-1.48,7.22,7.22,0,0,1,5.43,0,6.84,6.84,0,0,1,3.67,3.68,7,7,0,0,1-1.47,7.62,6.83,6.83,0,0,1-4.92,2,6.84,6.84,0,0,1-6.38-4.21Z"/><path class="cls-1" d="M340.71,311.46a24.21,24.21,0,0,1-1,7.16,14.68,14.68,0,0,1-3.34,5.85,16.16,16.16,0,0,1-6,3.93,24.89,24.89,0,0,1-9.05,1.45V318.34a12.63,12.63,0,0,0,2.83-.26,7.1,7.1,0,0,0,2-.72,5,5,0,0,0,1.35-1.12,8.68,8.68,0,0,0,1-1.45,6.86,6.86,0,0,0,.84-3.33V268.14h11.51Z"/><path class="cls-1" d="M348.71,268.14h11.51v61.71H348.71Z"/></g></g></svg>