<svg xmlns="http://www.w3.org/2000/svg" viewBox="0 0 500 599.72"><defs><style>.cls-1{fill:#fff;}</style></defs><g id="Layer_2" data-name="Layer 2"><g id="Layer_1-2" data-name="Layer 1"><path class="cls-1" d="M489.45,300.93c-4.53-2.75-9.1-5.44-13.57-8.29-2.94-1.87-2.76-4.79-1.83-7.58,7-21-6.63-54.62-29.25-65.31-12.54-5.92-25-10.19-38.94-7.08-23.95,5.35-40.07,19.56-47.6,43.09-.8,2.5-.66,5.29-1.29,7.86-.28,1.15-1.22,2.71-2.16,3s-2.46-.73-3.26-1.61c-5.61-6.13-11.22-12.27-16.53-18.66-1.35-1.62-2.63-4.44-2.17-6.25,2.58-10,1.3-19.91-.81-29.58A186.13,186.13,0,0,0,315.62,164c-6.82-13.13-13.43-26.46-21.4-38.88a151.12,151.12,0,0,0-56.39-52.51c-14.13-7.55-29.09-13.45-45.08-16-30.9-4.87-61.83-9.5-92.73-14.33a228.88,228.88,0,0,1-53.5-14.82C32.89,21.79,19.71,14.9,8.39,5.05,7.2,4,5.68,3.35,3.18,1.82,5.38,1,6.81,0,8.22,0,36.87.18,65.51.59,94.16.72,120.44.84,146.72.6,173,.68q100.62.33,201.23.84c18.82.1,36.91,3.93,53.42,13.24,23.13,13.05,40.54,31.3,51,56.12a111.66,111.66,0,0,1,8.92,45.85c-.38,27.61-.24,55.23,0,82.85.12,15.58.94,31.15,1.19,46.73.21,13.2,0,26.41.11,39.61,0,3,.87,6.05,1.32,9.07.26,1.76.49,3.52.73,5.29Z"/><path class="cls-1" d="M2.49,11.25A21.44,21.44,0,0,1,3.67,14C7.61,27.3,11.13,40.78,15.54,54,19.15,64.77,23.8,75.22,28,85.82c2.59,6.55,5.08,13.14,7.82,19.62,2.18,5.13,4.66,10.12,7,15.18,3.88,8.36,7.72,16.74,11.66,25.08,1.2,2.54,2.65,5,4,7.41,5,8.8,9.31,18.08,15.15,26.29,8.86,12.44,18.64,24.25,28.29,36.11,4.94,6.07,10,12.19,15.85,17.33,6.72,5.93,14.29,10.93,21.64,16.11a95.44,95.44,0,0,0,13.16,8.12,174.17,174.17,0,0,0,17,6.72c5,1.78,10.32,2.67,15,4.94,9.33,4.47,19.43,4.08,29.21,5.12,13,1.38,26.25,2.32,39.32,1.73,17.4-.79,34.86-2.46,51.61-7.93a27.42,27.42,0,0,0,7.94-3.94c3.68-2.76,6.41-1.4,8.91,1.34,3.2,3.51,6.2,7.19,9.22,10.85,2.46,3,1.57,5.48-1.62,7.67-5.32,3.66-10.22,7.93-15.53,11.62-2.12,1.47-4.82,2.9-7.3,3-21,.54-42.16-.11-63.13,1.36-14.55,1-29,4.31-43.32,7.55-13.56,3.07-27,6.89-40.18,11.29-21.48,7.17-41.74,17-59.76,30.93-8.56,6.59-16.57,13.89-24.66,21.07-2.51,2.22-4.31,5.22-6.68,7.63s-4.62,2.31-7.58.53c-7.34-4.41-15.29-7.85-22.34-12.64A94.7,94.7,0,0,1,8.83,333.58C1.64,320.71-.09,307,0,292.45.52,209.3.6,126.14.79,43c0-9.2-.16-18.4-.18-27.59a29.34,29.34,0,0,1,.59-4.13Z"/><path class="cls-1" d="M277.86,326c5.18,0,10.37-.22,15.53.07,3.57.19,5.53,2.45,4.46,6.1-2.77,9.39-.15,18.33,2.56,27.05,3.24,10.37,9.54,19,17.59,26.36.75.69,1,1.91,1.51,2.88-1.15.49-2.36,1.5-3.45,1.4-40.7-3.95-81.49-.86-122.23-1.57-26.72-.47-53.47.26-80.19-.2-11.24-.2-22.45-2-33.64-3.38-1.74-.21-3.29-2-4.92-3,1.16-1.57,2-3.68,3.52-4.64a330.56,330.56,0,0,1,65.62-31.41,309.09,309.09,0,0,1,85.63-17.15c16-.88,32-1.93,48-2.91Z"/><path class="cls-1" d="M361.44,391.16c-27.33,1.54-52.34-23-53.17-50.69-.9-30.3,23.15-55.31,53.31-54.92,28.19.37,51.3,21,52.63,51.31C415.5,366.38,390.54,392.15,361.44,391.16Z"/><path class="cls-1" d="M446.32,403.74c-13.91-.4-25.92-5.53-36.26-14.7-4.32-3.83-4.25-4.7-.63-9,10.14-12.09,16.16-25.72,15.46-41.8-.19-4.32,2-6.72,5.84-7.75a54.24,54.24,0,0,0,23.69-12.62A79.08,79.08,0,0,0,464.14,307c3.51-4.78,6.25-5.45,11.08-2.07,16.38,11.45,25.52,26.93,24.73,47.09-.75,19.47-9.77,34.5-26.95,44.25C464.74,401,456,404,446.32,403.74Z"/><path class="cls-1" d="M464.29,273.4c.87,20.88-15.3,40.39-35.54,46.5-4.26,1.29-6.5.18-8.24-4.37-4.08-10.67-10.8-19.29-19.45-26.66-8.28-7.06-18.25-10.27-28.42-13-4.47-1.19-6.18-3.4-5.58-7.92,2.1-15.87,10.06-28,23.43-36.54,11.5-7.36,24.15-8.86,37.22-5.72C447.07,230.36,465.41,249.21,464.29,273.4Z"/><path class="cls-1" d="M17.28,482.23a10.19,10.19,0,0,0,3.24,2.17,10.5,10.5,0,0,0,8,0,10.19,10.19,0,0,0,3.24-2.17A10.37,10.37,0,0,0,33.93,479a10.5,10.5,0,0,0,0-8,10.33,10.33,0,0,0-2.18-3.24,10.64,10.64,0,0,0-3.24-2.21,10,10,0,0,0-8,0,10.64,10.64,0,0,0-3.24,2.21A10.16,10.16,0,0,0,15.1,471a10.5,10.5,0,0,0,0,8A10.21,10.21,0,0,0,17.28,482.23Z"/><path class="cls-1" d="M41.64,482.23a10.19,10.19,0,0,0,3.24,2.17,10.05,10.05,0,0,0,4,.79,9.75,9.75,0,0,0,3.95-.79,10.35,10.35,0,0,0,3.2-2.17A10.21,10.21,0,0,0,58.21,479a10.5,10.5,0,0,0,0-8A10.16,10.16,0,0,0,56,467.75a10.83,10.83,0,0,0-3.2-2.21,9.29,9.29,0,0,0-3.95-.83,9.59,9.59,0,0,0-4,.83,10.64,10.64,0,0,0-3.24,2.21A11,11,0,0,0,39.42,471a10,10,0,0,0,0,8A11,11,0,0,0,41.64,482.23Z"/><path class="cls-1" d="M61.77,503.54a36.71,36.71,0,0,0-11.31-7.79,34.54,34.54,0,0,0-27.57,0,35.63,35.63,0,0,0-11.23,7.75A37.07,37.07,0,0,0,4.07,515a35.74,35.74,0,0,0-2.81,14.12V545.3a27.55,27.55,0,0,0,2,10.76,24.82,24.82,0,0,0,5.53,8.27,24.29,24.29,0,0,0,8.31,5.29,28.47,28.47,0,0,0,10.4,1.86H45.87a27.61,27.61,0,0,0,10.24-1.89,25.51,25.51,0,0,0,8.39-5.38,24.91,24.91,0,0,0,5.65-8.35,27.45,27.45,0,0,0,2.06-10.79v-16.3A34.58,34.58,0,0,0,69.4,515,37,37,0,0,0,61.77,503.54ZM52,545.07a5.87,5.87,0,0,1-1.78,4.46,6,6,0,0,1-4.31,1.71H27.52a6,6,0,0,1-4.27-1.63,5.6,5.6,0,0,1-1.74-4.31V529.09a16,16,0,0,1,1.19-6.21,16.36,16.36,0,0,1,3.24-5.06,15.33,15.33,0,0,1,4.82-3.44,14.5,14.5,0,0,1,11.87,0,16.08,16.08,0,0,1,4.86,3.4,15.72,15.72,0,0,1,4.47,11Z"/><path class="cls-1" d="M172.94,582.28a10.37,10.37,0,0,0-3.25-2.18,10.25,10.25,0,0,0-11.23,2.18,10.24,10.24,0,0,0,11.23,16.65,10.21,10.21,0,0,0,3.25-2.18,10.64,10.64,0,0,0,2.21-3.24,10,10,0,0,0,0-8A10.64,10.64,0,0,0,172.94,582.28Z"/><path class="cls-1" d="M197.3,582.28a10.37,10.37,0,0,0-3.25-2.18,10.27,10.27,0,0,0-11.23,2.18,10.24,10.24,0,0,0,11.23,16.65,10.08,10.08,0,0,0,5.42-5.42,10.5,10.5,0,0,0,0-8A10.19,10.19,0,0,0,197.3,582.28Z"/><path class="cls-1" d="M438.34,545.3a5.76,5.76,0,0,1-1.78,4.27,6,6,0,0,1-4.39,1.74h-17.8V492.86H394.2v58.45H381.86V492.86H361.69v58.45H349.44V492.86H329.35v58.45H284.81a61.15,61.15,0,0,0,4.16-6.68,48.71,48.71,0,0,0,3.28-7.63,57.64,57.64,0,0,0,1.9-7.28,39.78,39.78,0,0,0,.71-7.43,35.55,35.55,0,0,0-1.78-11.35,23.14,23.14,0,0,0-5.93-9.38,28.82,28.82,0,0,0-11-6.36,61.16,61.16,0,0,0-33.37,0,28.87,28.87,0,0,0-10.88,6.28,22.83,22.83,0,0,0-5.93,9.3A35,35,0,0,0,224.23,522a40.7,40.7,0,0,0,.75,7.75,47.52,47.52,0,0,0,2.1,7.52v-.08a56.89,56.89,0,0,0,3.4,7.51,59.5,59.5,0,0,0,4.19,6.64H200.42V492.86H180.25v58.45H147.51V529.64a38.46,38.46,0,0,0-3-15.78,27.93,27.93,0,0,0-9.65-11.51q-6.6-4.67-17-7.07a111.28,111.28,0,0,0-24.92-2.42V513a95.21,95.21,0,0,1,15.7,1.11,38.4,38.4,0,0,1,10.68,3.2,14.86,14.86,0,0,1,6.09,5.18,13.13,13.13,0,0,1,1.94,7.12v21.67H88.9v20.17H432.17a25.66,25.66,0,0,0,10.24-2.05,27,27,0,0,0,8.38-5.62,26,26,0,0,0,5.66-8.34,25.5,25.5,0,0,0,2.06-10.17V464.71H438.34ZM273.11,530.51a32.69,32.69,0,0,1-2.61,5.74,57.13,57.13,0,0,1-3.4,5.18,52.2,52.2,0,0,1-3.76,4.51c-1.29,1.37-2.49,2.55-3.6,3.56q-1.67-1.51-3.6-3.52a54.72,54.72,0,0,1-7.27-9.54,32.74,32.74,0,0,1-2.73-5.69,22.82,22.82,0,0,1-1.31-4.47,23.54,23.54,0,0,1-.43-4.31,8.1,8.1,0,0,1,.75-3.44,6.86,6.86,0,0,1,2.53-2.81,15,15,0,0,1,4.67-1.9,30.26,30.26,0,0,1,7.08-.71,29.43,29.43,0,0,1,7.19.75,14.77,14.77,0,0,1,4.71,2,7.38,7.38,0,0,1,2.57,2.89,8.1,8.1,0,0,1,.79,3.56A25.11,25.11,0,0,1,273.11,530.51Z"/><rect class="cls-1" x="475.12" y="464.71" width="20.17" height="106.78"/></g></g></svg>