<svg xmlns="http://www.w3.org/2000/svg" viewBox="0 0 500 283.63"><defs><style>.cls-1{fill:#fff;}</style></defs><g id="Layer_2" data-name="Layer 2"><g id="Layer_1-2" data-name="Layer 1"><path class="cls-1" d="M223.49,0a82.87,82.87,0,0,0-12.08.89,79.12,79.12,0,0,1-11.93,157.33c-1,0-2,0-2.95-.06A81.38,81.38,0,1,0,223.49,0Z"/><path class="cls-1" d="M433.42,148.05A68.94,68.94,0,1,1,490.36,40.24,81.37,81.37,0,1,0,500,97.05,69,69,0,0,1,433.42,148.05Z"/><circle class="cls-1" cx="81.37" cy="112.62" r="29.95"/><path class="cls-1" d="M23,107.79a62.3,62.3,0,1,1,123.9-9.32,63.6,63.6,0,0,1-.69,9.32,63.7,63.7,0,0,1,.69,9.32,62.21,62.21,0,0,1-1.77,14.8A81.37,81.37,0,1,0,27.74,142.57,62.48,62.48,0,0,1,23,107.79Z"/><path class="cls-1" d="M26.81,233.52a4.1,4.1,0,0,0,1.38.93,4.25,4.25,0,0,0,1.71.34,4.07,4.07,0,0,0,1.68-.34,4.16,4.16,0,0,0,1.37-.93,4.37,4.37,0,0,0,0-6.17,4.73,4.73,0,0,0-1.37-.95,4.08,4.08,0,0,0-1.68-.35,4.25,4.25,0,0,0-1.71.35,4.65,4.65,0,0,0-1.38.95,4.47,4.47,0,0,0-.95,1.38,4.33,4.33,0,0,0,0,3.41A4.47,4.47,0,0,0,26.81,233.52Z"/><path class="cls-1" d="M16.41,233.52a4.24,4.24,0,0,0,1.39.93,4.2,4.2,0,0,0,1.7.34,4.25,4.25,0,0,0,1.71-.34,4.2,4.2,0,0,0,1.38-.93,4.37,4.37,0,0,0,0-6.17,4.78,4.78,0,0,0-1.38-.95,4.25,4.25,0,0,0-1.71-.35,4.2,4.2,0,0,0-1.7.35,4.83,4.83,0,0,0-1.39.95,4.37,4.37,0,0,0,0,6.17Z"/><path class="cls-1" d="M85.23,233.52a4.1,4.1,0,0,0,1.38.93,4.45,4.45,0,0,0,3.41,0,4.35,4.35,0,0,0,2.31-2.31,4.45,4.45,0,0,0,0-3.41,4.1,4.1,0,0,0-.93-1.38A4.65,4.65,0,0,0,90,226.4a4.33,4.33,0,0,0-3.41,0,4.65,4.65,0,0,0-1.38.95,4.47,4.47,0,0,0-1,1.38,4.33,4.33,0,0,0,0,3.41A4.47,4.47,0,0,0,85.23,233.52Z"/><path class="cls-1" d="M74.83,233.52a4.24,4.24,0,0,0,1.39.93,4.2,4.2,0,0,0,1.7.34,4.25,4.25,0,0,0,1.71-.34,4.2,4.2,0,0,0,1.38-.93,4.37,4.37,0,0,0,0-6.17,4.78,4.78,0,0,0-1.38-.95,4.25,4.25,0,0,0-1.71-.35,4.2,4.2,0,0,0-1.7.35,4.83,4.83,0,0,0-1.39.95,4.44,4.44,0,0,0-.94,1.38,4.22,4.22,0,0,0,0,3.41A4.44,4.44,0,0,0,74.83,233.52Z"/><path class="cls-1" d="M102.88,233.52a4.1,4.1,0,0,0,1.38.93,4.45,4.45,0,0,0,3.41,0,4.1,4.1,0,0,0,1.38-.93,4.47,4.47,0,0,0,1-1.38,4.33,4.33,0,0,0,0-3.41,4.47,4.47,0,0,0-1-1.38,4.65,4.65,0,0,0-1.38-.95,4.33,4.33,0,0,0-3.41,0,4.65,4.65,0,0,0-1.38.95,4.37,4.37,0,0,0,0,6.17Z"/><path class="cls-1" d="M113.27,233.52a4.24,4.24,0,0,0,1.39.93,4.2,4.2,0,0,0,1.7.34,4.25,4.25,0,0,0,1.71-.34,4.2,4.2,0,0,0,1.38-.93,4.37,4.37,0,0,0,0-6.17,4.78,4.78,0,0,0-1.38-.95,4.25,4.25,0,0,0-1.71-.35,4.2,4.2,0,0,0-1.7.35,4.83,4.83,0,0,0-1.39.95,4.4,4.4,0,0,0,0,6.17Z"/><path class="cls-1" d="M221.9,260.44a2.46,2.46,0,0,1-.76,1.82,2.56,2.56,0,0,1-1.88.74H211.5a7.85,7.85,0,0,0,.17-1.24q0-.61,0-1.32v-6.95a14.82,14.82,0,0,0-1.18-5.86,16.14,16.14,0,0,0-3.24-4.91,15.61,15.61,0,0,0-4.83-3.39,14,14,0,0,0-5.87-1.27,14.29,14.29,0,0,0-5.87,1.22,15.44,15.44,0,0,0-8,8.23,15.2,15.2,0,0,0-1.19,6v6.92c0,.45,0,.89,0,1.31s.07.86.13,1.28h-9.85V238.06h-8.61V263h-5.26V238.06H149.3V263h-5.23V238.06H135.5V263H120.68V238.06h-8.6V263H98.2V253A14.52,14.52,0,0,0,97,247.18a15.09,15.09,0,0,0-8.07-8,14.89,14.89,0,0,0-5.89-1.17,15.08,15.08,0,0,0-10.66,4.32,14.53,14.53,0,0,0-3.24,4.8,15,15,0,0,0-1.18,6V263H58.28V226.05H49.67V263H40v-9.48a14.43,14.43,0,0,0-1.17-5.9,15.55,15.55,0,0,0-8.15-8.27,14.32,14.32,0,0,0-5.94-1.25,14.5,14.5,0,0,0-5.92,1.23,15.46,15.46,0,0,0-8.13,8.29,15.4,15.4,0,0,0-1.2,6.07v6.82a10.83,10.83,0,0,0,.87,4.32,11.27,11.27,0,0,0,5.94,5.9,10.67,10.67,0,0,0,4.32.88h5.07V263H20.61a2.44,2.44,0,0,1-1.8-.72,2.41,2.41,0,0,1-.73-1.77v-6.82a7.1,7.1,0,0,1,.53-2.73A7.18,7.18,0,0,1,20,248.73a6.57,6.57,0,0,1,2.11-1.49,6.53,6.53,0,0,1,5.2,0,6.88,6.88,0,0,1,2.13,1.47,7.07,7.07,0,0,1,1.43,2.16,6.62,6.62,0,0,1,.52,2.62v18.12H186.16a13.89,13.89,0,0,0,10.39,4.25,14.48,14.48,0,0,0,5.7-1.11,15,15,0,0,0,4.7-3.14h12.31a10.83,10.83,0,0,0,4.37-.88,11.29,11.29,0,0,0,3.58-2.39,10.94,10.94,0,0,0,2.41-3.56,10.79,10.79,0,0,0,.88-4.34V226.05h-8.6ZM89.56,263h-13v-9.82a6.35,6.35,0,0,1,1.9-4.62,6.69,6.69,0,0,1,2.08-1.38,6.32,6.32,0,0,1,2.53-.51,6.48,6.48,0,0,1,2.53.49,6.78,6.78,0,0,1,2.08,1.35,6.36,6.36,0,0,1,1.4,2,6.16,6.16,0,0,1,.5,2.49Zm113.5-2.56a6.65,6.65,0,0,1-.5,2.6,7.24,7.24,0,0,1-1.4,2.16,6.64,6.64,0,0,1-2.08,1.48,6.2,6.2,0,0,1-5.06,0,6.89,6.89,0,0,1-2.08-1.45,6.66,6.66,0,0,1-1.4-2.16,7.15,7.15,0,0,1-.5-2.66v-6.92a7,7,0,0,1,.5-2.65,6.67,6.67,0,0,1,1.4-2.14,6.92,6.92,0,0,1,2.08-1.46,6.2,6.2,0,0,1,5.06,0,6.67,6.67,0,0,1,2.08,1.49,7.09,7.09,0,0,1,1.4,2.18,6.66,6.66,0,0,1,.5,2.58Z"/><rect class="cls-1" x="237.59" y="226.05" width="8.61" height="45.56"/><path class="cls-1" d="M290,268.2a5.84,5.84,0,0,1-.74,3,6.89,6.89,0,0,1-1.94,2.15,8.58,8.58,0,0,1-2.73,1.28,12.1,12.1,0,0,1-6.32,0,8.58,8.58,0,0,1-2.73-1.28,6.59,6.59,0,0,1-1.92-2.15,5.84,5.84,0,0,1-.73-3V243.73h-8.64V268.2a14.72,14.72,0,0,0,1.47,6.75,14.31,14.31,0,0,0,3.88,4.83,16.71,16.71,0,0,0,5.5,2.88,21.14,21.14,0,0,0,12.66,0,16.71,16.71,0,0,0,5.5-2.88,14.28,14.28,0,0,0,5.38-11.58V238.06H290Z"/><path class="cls-1" d="M278.34,233.52a4.24,4.24,0,0,0,1.39.93,4.42,4.42,0,0,0,3.4,0,4.24,4.24,0,0,0,1.39-.93,4.44,4.44,0,0,0,.94-1.38,4.22,4.22,0,0,0,0-3.41,4.44,4.44,0,0,0-.94-1.38,4.83,4.83,0,0,0-1.39-.95,4.3,4.3,0,0,0-3.4,0,4.83,4.83,0,0,0-1.39.95,4.37,4.37,0,0,0,0,6.17Z"/><path class="cls-1" d="M349,253.18a7.13,7.13,0,0,1,1.25-3.78,6.29,6.29,0,0,1,2.78-2.22,7.36,7.36,0,0,1,3.68-.44,8.72,8.72,0,0,1,3.93,1.55l3.41-7.83a15.28,15.28,0,0,0-5.33-2.14,15.6,15.6,0,0,0-10.41,1.55,14.88,14.88,0,0,0-6.95,7.75,14.32,14.32,0,0,0-1,5.56V263h-9.65v-9.24a16.57,16.57,0,0,0-1.3-6.74,12,12,0,0,0-4.12-4.91,20.73,20.73,0,0,0-7.24-3,47.88,47.88,0,0,0-10.63-1v8.61a41.37,41.37,0,0,1,6.7.47,16.35,16.35,0,0,1,4.56,1.37,6.3,6.3,0,0,1,2.59,2.21,5.53,5.53,0,0,1,.83,3V263h-16.4v8.61H367V263H349Z"/><path class="cls-1" d="M402.27,233.52a4.1,4.1,0,0,0,1.38.93,4.25,4.25,0,0,0,1.71.34,4,4,0,0,0,1.68-.34,4.16,4.16,0,0,0,1.37-.93,4.25,4.25,0,0,0,.93-1.38,4.45,4.45,0,0,0,0-3.41,4.25,4.25,0,0,0-.93-1.38,4.73,4.73,0,0,0-1.37-.95,4,4,0,0,0-1.68-.35,4.25,4.25,0,0,0-1.71.35,4.62,4.62,0,0,0-2.33,2.33,4.33,4.33,0,0,0,0,3.41A4.65,4.65,0,0,0,402.27,233.52Z"/><path class="cls-1" d="M391.87,233.52a4.42,4.42,0,0,0,4.8.93,4.1,4.1,0,0,0,1.38-.93,4.37,4.37,0,0,0,0-6.17,4.65,4.65,0,0,0-1.38-.95,4.33,4.33,0,0,0-3.41,0,4.83,4.83,0,0,0-1.39.95,4.4,4.4,0,0,0,0,6.17Z"/><path class="cls-1" d="M410.86,242.62A15.58,15.58,0,0,0,406,239.3a14.12,14.12,0,0,0-5.87-1.24,14.41,14.41,0,0,0-5.89,1.22,15.16,15.16,0,0,0-4.79,3.31,15.78,15.78,0,0,0-3.24,4.91,15.19,15.19,0,0,0-1.2,6v6.92a11.84,11.84,0,0,0,.86,4.59,10.57,10.57,0,0,0,2.36,3.53,10.41,10.41,0,0,0,3.55,2.26,12.12,12.12,0,0,0,4.44.79h7.83a11.78,11.78,0,0,0,4.37-.81,10.66,10.66,0,0,0,6-5.85,11.83,11.83,0,0,0,.87-4.61v-6.95a14.87,14.87,0,0,0-1.19-5.89A15.87,15.87,0,0,0,410.86,242.62Zm-4.19,17.72a2.52,2.52,0,0,1-.76,1.91,2.56,2.56,0,0,1-1.83.72h-7.83a2.6,2.6,0,0,1-1.83-.69,2.4,2.4,0,0,1-.74-1.84v-6.92a6.87,6.87,0,0,1,.51-2.65,6.76,6.76,0,0,1,1.38-2.16,6.57,6.57,0,0,1,2.06-1.47,6.2,6.2,0,0,1,5.06,0,6.92,6.92,0,0,1,2.08,1.46,6.69,6.69,0,0,1,1.4,2.12,6.58,6.58,0,0,1,.5,2.57Z"/><path class="cls-1" d="M444.32,233.52a4.37,4.37,0,0,0,3.09,1.27,4.2,4.2,0,0,0,1.7-.34,4.24,4.24,0,0,0,1.39-.93,4.37,4.37,0,0,0,0-6.17,4.83,4.83,0,0,0-1.39-.95,4.3,4.3,0,0,0-3.4,0,4.7,4.7,0,0,0-1.39.95,4.37,4.37,0,0,0,0,6.17Z"/><path class="cls-1" d="M481,233.52a4.2,4.2,0,0,0,1.38.93,4.25,4.25,0,0,0,1.71.34,4.2,4.2,0,0,0,1.7-.34,4.38,4.38,0,0,0,1.39-7.1,4.83,4.83,0,0,0-1.39-.95,4.2,4.2,0,0,0-1.7-.35,4.25,4.25,0,0,0-1.71.35,4.78,4.78,0,0,0-1.38.95,4.44,4.44,0,0,0-.94,1.38,4.22,4.22,0,0,0,0,3.41A4.44,4.44,0,0,0,481,233.52Z"/><path class="cls-1" d="M470.65,233.52a4.1,4.1,0,0,0,1.38.93,4.45,4.45,0,0,0,3.41,0,4.1,4.1,0,0,0,1.38-.93,4.25,4.25,0,0,0,.93-1.38,4.45,4.45,0,0,0,0-3.41,4.25,4.25,0,0,0-.93-1.38,4.65,4.65,0,0,0-1.38-.95,4.33,4.33,0,0,0-3.41,0,4.65,4.65,0,0,0-1.38.95,4.47,4.47,0,0,0-.95,1.38,4.33,4.33,0,0,0,0,3.41A4.47,4.47,0,0,0,470.65,233.52Z"/><path class="cls-1" d="M492.8,247.18a14.88,14.88,0,0,0-3.24-4.76,15.08,15.08,0,0,0-4.81-3.19,14.85,14.85,0,0,0-5.89-1.17,15.08,15.08,0,0,0-10.66,4.32,14.84,14.84,0,0,0-3.24,4.8,15,15,0,0,0-1.18,6V263h-9.72V238.06h-8.61V263H433.67a2.52,2.52,0,0,1-1.84-.74,2.46,2.46,0,0,1-.76-1.82V226.05h-8.64v34.39a10.64,10.64,0,0,0,.9,4.34,11.43,11.43,0,0,0,2.41,3.56,11.2,11.2,0,0,0,3.56,2.39,10.87,10.87,0,0,0,4.37.88h49.07a11.8,11.8,0,0,0,4.38-.81,10.9,10.9,0,0,0,3.57-2.28,10.4,10.4,0,0,0,2.42-3.56,11.88,11.88,0,0,0,.87-4.62V253A14.52,14.52,0,0,0,492.8,247.18Zm-7.42,13.16a2.58,2.58,0,0,1-.76,1.94,2.63,2.63,0,0,1-1.88.72H472.35v-9.82a6.39,6.39,0,0,1,.51-2.56,6.22,6.22,0,0,1,1.4-2.06,6.53,6.53,0,0,1,2.07-1.38,6.32,6.32,0,0,1,2.53-.51,6.67,6.67,0,0,1,4.64,1.84,6.06,6.06,0,0,1,1.4,2,5.82,5.82,0,0,1,.48,2.49Z"/></g></g></svg>