<svg xmlns="http://www.w3.org/2000/svg" viewBox="0 0 500 324.68"><defs><style>.cls-1{fill:#fff;}</style></defs><g id="Layer_2" data-name="Layer 2"><g id="Layer_1-2" data-name="Layer 1"><path class="cls-1" d="M500,170c-3.76,7.35-9.58,7.73-16.2,7.7q-144.39-.62-288.79-.89c-9.84,0-9.89-.11-9.88-10,0-8,0-16.05,0-24.07,0-8.94,5.13-13.73,14.24-13.53,8.84.19,17.68.18,26.52.33,32.06.52,43.14-35.8,32.61-57-6.63-13.32-16.88-21.22-31.6-22.36-12.27-1-24.63-1.13-36.95-1.09-6.23,0-10.08-1.58-13-7.72-6.17-13-14.95-24-28.42-30.52-1.9-.91-3.49-2.44-5.43-3.82,4.64-5.05,9.38-6.84,15.68-6.71,21,.41,42,.64,62.94.08,44.93-1.21,71.7,28.25,81.13,64.45,5.55,21.29,4,41.49-5.61,61.16-1.37,2.81-1.24,5.1,2.41,5.14,14.13.14,28.27.06,43.26.06-.54-2.41-.75-3.93-1.23-5.36C330,90.06,334.29,57,361.28,29.83,380.36,10.61,403.93-.78,432.08.15q10.8.36,21.6.27c4.92,0,7.43,2.43,7.42,7,0,10.28.36,20.64-1,30.78-.45,3.46-4.89,7.68-8.49,9.15-4.74,1.92-10.42,1.71-15.72,2-6.78.34-13.58.2-20.36.3-18.58.28-31.77,13-32.91,31.78-1.2,19.78,7.36,34.65,23.71,45,3.56,2.25,8.55,2.93,12.92,3.07,11.92.4,23.86.19,35.79.08,6.73-.06,11.27,2,14.57,8.76C476.28,151.81,485.93,163,500,170Z"/><path class="cls-1" d="M124,176.2c-12.74,0-25.51.52-38.21-.11-28.94-1.42-48.35-17.71-61.83-41.9C-5.81,80.81,24.9,22.25,72.39,4.56c17.13-6.38,34.25-6.17,51,1.28,23,10.21,40.67,26.11,50.69,49.62,4.46,10.47.75,15.79-10.84,15.88-8.84.08-17.68,0-26.52,0-5.43,0-9.35-1.63-12.66-6.75C115.46,51.17,105,46.83,91.86,49.81A34.48,34.48,0,0,0,65.44,78.3c-3.16,19.15,4.49,36.45,21.43,46a37.22,37.22,0,0,0,17,4.28c21,.4,41.93.13,62.9-.22,5.56-.09,7.8,1.57,7.51,7.36-.44,8.62-.2,17.26-.29,25.9-.11,9.46-5.89,15.2-15.46,15.25-11.52.07-23,0-34.54,0Z"/><path class="cls-1" d="M49.28,239.23l30.84,85.45H61.51l-6.46-19.12H24.84l-6.57,19.12H0l31-85.45Zm1.45,52.71-5.25-15.37a187.45,187.45,0,0,1-5.42-18.52q-2,7.56-5.7,18.52l-5.25,15.37Z"/><path class="cls-1" d="M90.44,239.41h32.8q10.38,0,17,2.6,11.46,4.67,17.58,16.7,4.84,9.57,4.84,22.28,0,21.84-11.47,33.89a28.64,28.64,0,0,1-14.93,8.59,59.45,59.45,0,0,1-12.57,1.21H90.44Zm17.7,15.79v53.69H121.8q6.92,0,10.66-1.51,6.53-2.67,9.8-10.84a39.71,39.71,0,0,0,2.48-14.89q0-14.88-7.9-21.54-5.82-4.91-15.67-4.91Z"/><path class="cls-1" d="M238.47,239.41V255.2H195.24v18.16H234.9V288H195.24v20.88h44v15.79H177.54V239.41Z"/><path class="cls-1" d="M322.46,239.41v85.27H304.59l-24.21-41.15q-5.65-9.81-6.29-11-1.89-3.51-4-8.17.74,9.63.74,24v36.31H253.8V239.41h18.1l23.58,40.25q7.26,12.4,10.66,19.67-.75-13.26-.75-24.4V239.41Z"/><path class="cls-1" d="M419.47,239.41V255.2H394.8v69.48H377.1V255.2H352.55V239.41Z"/><path class="cls-1" d="M496,239.41l-27,85.27H448.81l-26.63-85.27h18.56l10.61,34.44q2.23,7.5,5.41,21.18,1.33,5.57,2.31,11.86,1-6.17,2.54-12.29Q465.18,279.78,467,274l10.55-34.56Z"/></g></g></svg>