<svg xmlns="http://www.w3.org/2000/svg" viewBox="0 0 500 305.65"><defs><style>.cls-1{fill:#fff;}</style></defs><g id="Layer_2" data-name="Layer 2"><g id="Layer_1-2" data-name="Layer 1"><path class="cls-1" d="M61.55,245.44a5.29,5.29,0,0,0,5.75,1.11,5.08,5.08,0,0,0,2.78-2.78,5.13,5.13,0,0,0,.41-2A5.25,5.25,0,0,0,69,238a5.75,5.75,0,0,0-1.67-1.14,5.19,5.19,0,0,0-4.09,0A5.57,5.57,0,0,0,61.55,238a5.51,5.51,0,0,0-1.14,1.66,5,5,0,0,0-.42,2,5,5,0,0,0,.42,2A5.56,5.56,0,0,0,61.55,245.44Z"/><path class="cls-1" d="M98.92,296.71a5.25,5.25,0,0,0-3.71-1.52,5.13,5.13,0,0,0-2,.41,5.08,5.08,0,0,0-2.78,2.78,5.21,5.21,0,0,0,4.82,7.27,5.2,5.2,0,0,0,2.05-.4,5.12,5.12,0,0,0,1.66-1.12,5.57,5.57,0,0,0,1.14-1.66,5.19,5.19,0,0,0,0-4.09A5.75,5.75,0,0,0,98.92,296.71Z"/><path class="cls-1" d="M111.41,296.71a5.3,5.3,0,0,0-1.67-1.11,5.31,5.31,0,0,0-4.09,0,5.26,5.26,0,0,0-1.66,1.11,5.33,5.33,0,0,0-1.12,1.67,5.24,5.24,0,1,0,9.65,4.09,5.31,5.31,0,0,0,0-4.09A5.3,5.3,0,0,0,111.41,296.71Z"/><path class="cls-1" d="M138.57,296.71a5.3,5.3,0,0,0-1.67-1.11,5.26,5.26,0,0,0-6.87,6.87,5.25,5.25,0,0,0,2.78,2.78,5.25,5.25,0,0,0,6.87-6.87A5.3,5.3,0,0,0,138.57,296.71Z"/><path class="cls-1" d="M126.08,296.71a5.22,5.22,0,0,0-8.53,1.67,5.23,5.23,0,0,0,2.77,6.87,5.45,5.45,0,0,0,4.1,0,5.12,5.12,0,0,0,1.66-1.12,5.57,5.57,0,0,0,1.14-1.66,5.19,5.19,0,0,0,0-4.09A5.75,5.75,0,0,0,126.08,296.71Z"/><path class="cls-1" d="M155.47,245.44a5.3,5.3,0,0,0,5.76,1.11,5.37,5.37,0,0,0,1.66-1.11,5.3,5.3,0,0,0,1.11-1.67,5.13,5.13,0,0,0,.41-2,5.25,5.25,0,0,0-1.52-3.71,5.84,5.84,0,0,0-1.66-1.14,5.21,5.21,0,0,0-4.1,0,5.7,5.7,0,0,0-1.66,1.14,5.28,5.28,0,0,0-1.12,1.66,5.2,5.2,0,0,0-.4,2,5.12,5.12,0,0,0,.4,2A5.33,5.33,0,0,0,155.47,245.44Z"/><path class="cls-1" d="M240.64,296.71A5.3,5.3,0,0,0,239,295.6a5.27,5.27,0,0,0-5.75,1.11,5.33,5.33,0,0,0-1.12,1.67,5.24,5.24,0,0,0,1.12,5.75,5,5,0,0,0,1.66,1.12,5.25,5.25,0,0,0,6.87-6.87A5.3,5.3,0,0,0,240.64,296.71Z"/><path class="cls-1" d="M228.15,296.71a5.3,5.3,0,0,0-5.76-1.11,5.37,5.37,0,0,0-1.66,1.11,5.3,5.3,0,0,0-1.11,1.67,5.27,5.27,0,0,0,1.11,5.75,5.34,5.34,0,0,0,5.76,1.12,5.12,5.12,0,0,0,1.66-1.12,5.57,5.57,0,0,0,1.14-1.66,5.19,5.19,0,0,0,0-4.09A5.75,5.75,0,0,0,228.15,296.71Z"/><path class="cls-1" d="M254.56,277.76a2.92,2.92,0,0,1-.91,2.19,3.08,3.08,0,0,1-2.25.89h-9.16V250.89H231.9v29.95h-17a11.53,11.53,0,0,0,.2-1.49,14,14,0,0,0,0-1.59v-8.35a17.77,17.77,0,0,0-1.42-7,19.28,19.28,0,0,0-3.89-5.9,18.92,18.92,0,0,0-5.8-4.07,16.8,16.8,0,0,0-7-1.52,17.18,17.18,0,0,0-7.05,1.46,18.37,18.37,0,0,0-5.76,4,18.76,18.76,0,0,0-3.89,5.9,18.17,18.17,0,0,0-1.42,7.17v8.31c0,.54,0,1.07,0,1.58s.08,1,.16,1.54H167.16V250.89H156.83v29.95H140.17V250.89H129.83v29.95H113V250.89H102.67v29.95H93.39v0h-7.5V250.89H75.51v36.2a7,7,0,0,1-.89,3.56,8.11,8.11,0,0,1-2.33,2.58A10.22,10.22,0,0,1,69,294.77a14.19,14.19,0,0,1-7.54,0,10.58,10.58,0,0,1-3.31-1.54,7.88,7.88,0,0,1-2.33-2.58,7.09,7.09,0,0,1-.87-3.56V257.7H44.62v29.39a17.64,17.64,0,0,0,1.77,8.1,17.17,17.17,0,0,0,4.66,5.8,20,20,0,0,0,6.61,3.47,25.37,25.37,0,0,0,7.6,1.15,25.74,25.74,0,0,0,6.7-.89A21.22,21.22,0,0,0,78,302.05a17.6,17.6,0,0,0,4.73-4.5,16,16,0,0,0,2.69-6.37h99A16.73,16.73,0,0,0,197,296.29a17.43,17.43,0,0,0,6.85-1.34,17.79,17.79,0,0,0,5.63-3.77h42a13.23,13.23,0,0,0,5.25-1.05,13.72,13.72,0,0,0,4.29-2.88,13.34,13.34,0,0,0,2.9-4.28,12.91,12.91,0,0,0,1.06-5.21v-41.3H254.56Zm-49.78,0a8,8,0,0,1-.61,3.13,8.37,8.37,0,0,1-1.68,2.59,7.84,7.84,0,0,1-2.49,1.78,7.43,7.43,0,0,1-6.08,0,8.09,8.09,0,0,1-2.49-1.74,7.9,7.9,0,0,1-1.69-2.59,8.57,8.57,0,0,1-.61-3.21v-8.31a8.41,8.41,0,0,1,.61-3.18,8,8,0,0,1,1.69-2.57,8.3,8.3,0,0,1,2.49-1.75,7.54,7.54,0,0,1,6.08,0,8,8,0,0,1,2.49,1.79,8.23,8.23,0,0,1,1.68,2.61,8,8,0,0,1,.61,3.1Z"/><rect class="cls-1" x="273.41" y="236.46" width="10.34" height="54.72"/><path class="cls-1" d="M320.37,245.44a5.22,5.22,0,0,0,8.53-1.67,5.13,5.13,0,0,0,.41-2,5.25,5.25,0,0,0-1.52-3.71,5.7,5.7,0,0,0-1.66-1.14,5.21,5.21,0,0,0-4.1,0,5.7,5.7,0,0,0-1.66,1.14,5.49,5.49,0,0,0-1.13,1.66,4.89,4.89,0,0,0-.43,2,4.82,4.82,0,0,0,.43,2A5.53,5.53,0,0,0,320.37,245.44Z"/><path class="cls-1" d="M332.86,245.44a5.25,5.25,0,0,0,3.71,1.52,5,5,0,0,0,2-.41,5.28,5.28,0,0,0,1.64-1.11,5.25,5.25,0,0,0,0-7.42,5.74,5.74,0,0,0-1.64-1.14,4.87,4.87,0,0,0-2-.42,5,5,0,0,0-2.05.42,5.57,5.57,0,0,0-1.66,1.14,5.34,5.34,0,0,0-1.14,1.66,5,5,0,0,0-.42,2,5,5,0,0,0,.42,2A5.38,5.38,0,0,0,332.86,245.44Z"/><path class="cls-1" d="M344.75,277.72a3,3,0,0,1-.89,2.21,2.92,2.92,0,0,1-2.19.91H323.92a8,8,0,0,1-3.18-.62,8,8,0,0,1-4.3-4.3,7.93,7.93,0,0,1-.63-3.14V257.7H305.43v15.08a17.72,17.72,0,0,0,1.46,7.15,18.54,18.54,0,0,0,9.81,9.79,17.85,17.85,0,0,0,7.22,1.46h17.75a13,13,0,0,0,5.23-1.05,13.58,13.58,0,0,0,4.26-2.88A13.78,13.78,0,0,0,354,283a13.16,13.16,0,0,0,1-5.25V250.89H344.75Z"/><path class="cls-1" d="M454,261a15.71,15.71,0,0,0-3.73-5.83,14.21,14.21,0,0,0-5.49-3.27,21.8,21.8,0,0,0-6.67-1,25.29,25.29,0,0,0-8.17,1.4,34.16,34.16,0,0,0-7.72,3.71v-5.11H411.84v29.95H400.25V269.45a17.75,17.75,0,0,0-1.44-7.05,19,19,0,0,0-9.77-10,17.67,17.67,0,0,0-14.25,0,18.79,18.79,0,0,0-5.82,4,19.08,19.08,0,0,0-3.93,6,18.53,18.53,0,0,0-1.44,7.3v8.19a12.77,12.77,0,0,0,1.06,5.18,13.41,13.41,0,0,0,2.85,4.24,13.66,13.66,0,0,0,4.24,2.86,12.94,12.94,0,0,0,5.19,1.05h12a6.89,6.89,0,0,1-2.8,3,8.14,8.14,0,0,1-4.13,1.06H369v10.33h13a17.35,17.35,0,0,0,6.18-1.11,19.16,19.16,0,0,0,5.31-3.06,19.51,19.51,0,0,0,4.05-4.58,17.84,17.84,0,0,0,2.37-5.68h42a13.23,13.23,0,0,0,5.25-1.05,14,14,0,0,0,4.29-2.86,13.41,13.41,0,0,0,2.92-4.22,12.46,12.46,0,0,0,1.08-5.16v-8.11A24.55,24.55,0,0,0,454,261Zm-64.09,19.84h-13a3,3,0,0,1-3-3v-8.19a8.64,8.64,0,0,1,.63-3.29,8.46,8.46,0,0,1,1.7-2.67,8,8,0,0,1,2.51-1.79,7.51,7.51,0,0,1,3.1-.64,7.67,7.67,0,0,1,3.15.66,8.66,8.66,0,0,1,2.57,1.79,7.81,7.81,0,0,1,1.7,2.61,8.14,8.14,0,0,1,.61,3.12ZM445,277.89a2.75,2.75,0,0,1-.93,2.08,3.16,3.16,0,0,1-2.23.87H422.22v-9.72a5.53,5.53,0,0,1,1.48-3.59,14.82,14.82,0,0,1,3.79-3.16,21.67,21.67,0,0,1,5.13-2.25,18.76,18.76,0,0,1,5.49-.85,7.68,7.68,0,0,1,2.63.44,5.59,5.59,0,0,1,2.21,1.46,7,7,0,0,1,1.5,2.64,12.35,12.35,0,0,1,.55,4Z"/><path class="cls-1" d="M251.79,151.87a13.25,13.25,0,0,0-4.19-2.81,13.24,13.24,0,0,0-17.32,17.32,13,13,0,0,0,7,7,13.56,13.56,0,0,0,10.32,0,13,13,0,0,0,7-7,13.56,13.56,0,0,0,0-10.32A13.3,13.3,0,0,0,251.79,151.87Z"/><path class="cls-1" d="M220.32,151.87a13.27,13.27,0,0,0-18.7,0,13.3,13.3,0,0,0-2.81,4.19,13.56,13.56,0,0,0,0,10.32,13,13,0,0,0,7,7,13.56,13.56,0,0,0,10.32,0,13.3,13.3,0,0,0,4.19-2.81,13.91,13.91,0,0,0,2.86-4.19,13,13,0,0,0,0-10.32A13.79,13.79,0,0,0,220.32,151.87Z"/><path class="cls-1" d="M306,22.63a13.25,13.25,0,0,0,18.69,0,13.17,13.17,0,0,0,3.84-9.35,13.17,13.17,0,0,0-3.84-9.35,13.92,13.92,0,0,0-4.18-2.86,13,13,0,0,0-10.32,0A14,14,0,0,0,306,3.93a13.73,13.73,0,0,0-2.86,4.19,12.43,12.43,0,0,0-1.08,5.16,12.43,12.43,0,0,0,1.08,5.16A13.61,13.61,0,0,0,306,22.63Z"/><path class="cls-1" d="M337.5,22.63a13.25,13.25,0,0,0,4.19,2.81A13.15,13.15,0,0,0,360,13.28a13.05,13.05,0,0,0-1-5.16,13.25,13.25,0,0,0-2.81-4.19A14,14,0,0,0,352,1.07a13,13,0,0,0-10.32,0,13.68,13.68,0,0,0-7.05,7,12.58,12.58,0,0,0-1.07,5.16,12.58,12.58,0,0,0,1.07,5.16A14,14,0,0,0,337.5,22.63Z"/><path class="cls-1" d="M496.07,151.67a13.08,13.08,0,0,0-4.19-2.81,13.27,13.27,0,0,0-14.51,2.81,13.32,13.32,0,0,0-2.81,4.13,12.71,12.71,0,0,0-1,5.11,13.11,13.11,0,0,0,3.83,9.35,14,14,0,0,0,4.19,2.86,13,13,0,0,0,10.32,0,14.09,14.09,0,0,0,4.19-2.86,13.3,13.3,0,0,0,2.81-4.19,13.05,13.05,0,0,0,1-5.16,12.71,12.71,0,0,0-1-5.11A13.5,13.5,0,0,0,496.07,151.67Z"/><path class="cls-1" d="M474,36.37V104a7.58,7.58,0,0,1-2.3,5.57,7.45,7.45,0,0,1-5.47,2.3H432.06V0H406V111.87H376.79V81.63A43.45,43.45,0,0,0,373.16,64,45.59,45.59,0,0,0,348.74,39.9,45.54,45.54,0,0,0,288.82,64a45.85,45.85,0,0,0-3.57,18.18v29.73H255.82V36.37h-26v75.5h-42.3V36.37H161.52v75.5H145.79V36.37h-26v75.5H104V36.37H77.85V128a16.86,16.86,0,0,1-2.25,8.79,19.9,19.9,0,0,1-5.87,6.28,27,27,0,0,1-8.28,3.78,35.89,35.89,0,0,1-19,0,27,27,0,0,1-8.28-3.78,19.41,19.41,0,0,1-5.82-6.28,17.22,17.22,0,0,1-2.2-8.79V53.53H0V128q0,11.66,4.44,20.28A43.5,43.5,0,0,0,16.19,162.7a50.31,50.31,0,0,0,16.66,8.63,65.49,65.49,0,0,0,36.16.61,52.78,52.78,0,0,0,15.28-6.79,45.49,45.49,0,0,0,11.9-11.34A40,40,0,0,0,103,137.92h363.2a32.92,32.92,0,0,0,13.13-2.65,33.9,33.9,0,0,0,18-18A33.24,33.24,0,0,0,500,104V36.37Zm-123.32,75.5H311.2V82.14a19.5,19.5,0,0,1,1.53-7.76A19.23,19.23,0,0,1,317,68.14,20.24,20.24,0,0,1,323.25,64a19.14,19.14,0,0,1,7.67-1.54A19.92,19.92,0,0,1,344.86,68a18.92,18.92,0,0,1,4.24,6.13,18.65,18.65,0,0,1,1.53,7.51Z"/></g></g></svg>