<svg xmlns="http://www.w3.org/2000/svg" viewBox="0 0 500 459.45"><defs><style>.cls-1{fill:#fff;}</style></defs><g id="Layer_2" data-name="Layer 2"><g id="Layer_1-2" data-name="Layer 1"><path class="cls-1" d="M334.85,144.12c1.56.63,3.19.33,4.78.33q78.38,0,156.73-.17c2.78,0,3.64.83,3.64,3.63q-.12,77.15-.05,154.31c0,2.4-.49,4.78,0,7.21.3,1.56-.55,2.48-2.22,2.48s-3.62,0-5.43,0c-61.8-.13-123.61-.48-185.41-.29-33,.11-66,.32-99,.42-3.75,0-7.5-.26-11.28-.4a46,46,0,0,1-9.58.64q-10.84,0-21.69,0a6.78,6.78,0,0,0-3.53.48,6.08,6.08,0,0,0-3.67-1.06c-18.92.07-37.84-.09-56.76.16-32.11.42-64.21-.32-96.31-.11a14.82,14.82,0,0,0-2.4.17c-1.72.26-2.45-.59-2.48-2.17,0-1.92,0-3.83,0-5.74Q.1,225.76,0,147.56c0-2.67,1.1-3.17,3.45-3.16,64.32.1,128.64.75,193-.05,33.28-.42,66.56-.18,99.84-.89,1.6,0,3.2.16,4.82.24a7.37,7.37,0,0,0,2,.57C313.66,144.25,324.25,144.18,334.85,144.12Zm46.9,71.13a6.54,6.54,0,0,0,4.37,1q33.83-.07,67.65-.2c2.76,0,3.75,1.08,3.66,3.8-.14,4.52-.14,9.06,0,13.58.1,2.8-1,3.66-3.73,3.65q-41.84-.17-83.65-.13c-2.69,0-3.51-1-3.48-3.54.1-10.77,0-21.54.12-32.31,0-2.3-.67-3.32-3.06-3.32q-34.72,0-69.46-.18a4.48,4.48,0,0,0-3.46,1.42Q281.9,207.94,273,216.7a6.54,6.54,0,0,0-2.08,5.11c.08,3.82-.08,7.65.07,11.47.1,2.68-.59,4-3.61,3.51a28.8,28.8,0,0,0-5.42-.1c-3.75.08-3.84,0-3.83-3.85,0-9.46-.07-18.92.08-28.38.05-2.82-1-3.67-3.64-3.54-3.61.18-7.24.08-10.87.07-4.63,0-4.63,0-4.62,4.58,0,21.44,0,42.88.1,64.32,0,2.49-.78,3.39-3.33,3.28-4.22-.2-8.46.08-12.68-.12a7.17,7.17,0,0,0-5.67,2.21c-4.71,4.64-9.37,9.34-14,14-.64.63-1.47,1.25-1,2.3s1.46.85,2.36.85c9.86,0,19.72,0,29.59,0a5.57,5.57,0,0,0,4.27-1.76c4-4,8-7.94,12-11.88,4.46-4.36,8.64-8.42,7.7-15.87-.92-7.2-.19-7.29,7.23-7.28,37.24,0,74.48.12,111.72.08,21.23,0,42.46-.23,63.7-.34,4.42,0,8.85,0,13.28,0,1.43,0,2.79-.06,3.9-1.2q8-8.18,16-16.3a5.27,5.27,0,0,0,1.69-4q0-16.45,0-32.91c0-2.13-.82-3.06-3.06-3.06-23.26,0-46.51,0-69.76,0a7.19,7.19,0,0,0-5.07,1.56C392.61,204.58,387.35,209.79,381.75,215.25ZM185,255.94v0c7.25,0,14.49-.08,21.73,0a5.45,5.45,0,0,0,4.22-1.72c5.29-5,9.91-10.75,15.6-15.36a6.39,6.39,0,0,0,2.44-5.46c0-10.87-.06-21.73.07-32.6,0-2.73-1-3.55-3.57-3.4-4.79.27-9.56-.36-14.38,0-5.2.37-10.45.14-15.68.08a6.34,6.34,0,0,0-5,2.15c-4.37,4.59-8.86,9-13.38,13.49a6.17,6.17,0,0,0-2,4.82c.07,5,0,10.06.06,15.09,0,3.7-.55,4.13-4.16,3.94s-7.25-.23-10.86-.1-3.82.07-3.81-3.43c0-10.76,0-21.53.1-32.29,0-2.82-1-3.68-3.69-3.65-10,.13-20.12.12-30.18.07a6.45,6.45,0,0,0-5.06,2.14q-8.33,8.69-16.73,17.27a5.08,5.08,0,0,0-1.52,3.78c0,10.77.08,21.53,0,32.3,0,2,.69,2.78,2.56,2.77,10.86,0,21.73,0,32.58-.21,2.24,0,2.89.85,2.88,2.79,0,3.72,0,7.44,0,11.17,0,3.36-.34,3.69-3.82,3.68-12,0-23.95,0-35.92-.05-2.26,0-3.27.76-3.19,3.16.13,4.32.18,8.66,0,13-.11,2.39,1,3,3,3,13.18,0,26.36,0,39.54,0a3.14,3.14,0,0,0,2.7-.91c4.52-5,9.3-9.74,14.25-14.31a7.1,7.1,0,0,0,2.59-6.06c-.29-4.11-.06-8.25-.1-12.37,0-1.66.4-2.7,2.33-2.7C167.34,256,176.16,255.94,185,255.94Zm-100.6-9.69q0-22.2,0-44.38c0-3.75-.16-4-3.85-4-11,0-21.94.15-32.9-.07a10.1,10.1,0,0,0-8,3.44c-4.05,4.18-8.19,8.28-12.31,12.4a5.37,5.37,0,0,0-1.79,4c0,7.05.06,14.09,0,21.14,0,2.28.84,3.29,3.23,3.21,3.92-.13,7.85-.17,11.77,0,2.42.09,3.21-.88,3.19-3.18-.08-6.34.09-12.68-.1-19-.08-2.77.85-3.84,3.6-3.78,5.13.1,10.26.09,15.39,0,2.6,0,3.5,1,3.49,3.62-.07,23.75,0,47.5-.08,71.25,0,2.51.87,3.49,3.29,3.45,3.93-.06,7.86-.13,11.78,0,2.52.08,3.29-.91,3.27-3.38C84.32,276,84.37,261.14,84.38,246.25ZM34.6,266.55v0c2.11,0,4.23-.08,6.34,0,2.46.11,3.09-1.11,3-3.36-.14-4-.17-8-.05-12,.07-2.11-.73-3-2.76-3-4.32,0-8.65,0-13,0-2,0-2.61,1-2.61,2.81,0,4.32-.1,8.64-.16,13A2.24,2.24,0,0,0,28,266.55C30.17,266.53,32.38,266.55,34.6,266.55Zm245.76-85.88v0c2.11,0,4.22-.08,6.33,0s3-.81,3-2.8c0-4.42,0-8.83,0-13.25a2.34,2.34,0,0,0-2.56-2.66q-6.48,0-12.95,0c-2.06,0-3.1,1-3.05,3.17.07,4.11.05,8.23,0,12.34,0,2.46,1.05,3.44,3.51,3.25C276.54,180.54,278.46,180.67,280.36,180.67ZM34.49,292.12v0c2.12,0,4.23-.06,6.34,0s3-.77,3-2.84c0-4.22,0-8.44,0-12.66,0-2.2-1-3-3.22-2.92-3.91.11-7.84.11-11.76,0-2.34-.07-3.3.92-3.27,3.2.06,4,.09,8,0,12.06-.05,2.32.86,3.34,3.22,3.2C30.67,292,32.58,292.12,34.49,292.12Z"/><path class="cls-1" d="M161.73,319.38a6.79,6.79,0,0,1,3.53-.49q10.85,0,21.69,0a46.68,46.68,0,0,0,9.58-.63,33.82,33.82,0,0,1,7.24-.36l93.3.33a3.76,3.76,0,0,1,2.76.52c-.29,1.42-1.5,2.21-2.42,3.17Q272,348.3,246.49,374.66q-25.12,25.93-50.34,51.79c-9.81,10.07-19.4,20.36-29.59,30.05-1.31,1.25-2.53,3.61-4.54,2.77-1.74-.73-.67-3.11-.68-4.67q-.1-64.46,0-128.92C161.33,323.58,161.59,321.48,161.73,319.38Z"/><path class="cls-1" d="M334.85,135.66c-10.6.06-21.19.13-31.79.15a7.74,7.74,0,0,1-2-.57,21.19,21.19,0,0,1-6,.42q-44.67-.16-89.34-.39c-1,0-2,.28-3.07-.66.76-2.2,2.72-3.58,4.22-5.14,12.7-13.17,25.54-26.22,38.32-39.31q25.59-26.23,51.17-52.49,14.72-15.15,29.32-30.4c2.08-2.16,4.68-3.8,6.44-6.31.45-.66,1.15-1.26,2.05-.8s.8,1.31.79,2.13c-.63,43.55-.06,87.11-.28,130.66C334.68,133.85,334.8,134.76,334.85,135.66Z"/><path class="cls-1" d="M319.61,216.1c7.91,0,16.56.05,25.21,0,2.27,0,3.34.64,3.29,3.08-.12,5-.11,10.06,0,15.09,0,2.35-.93,3.16-3.26,3.14q-26.1-.26-52.19-.34c-2,0-2.95-.75-2.93-2.82.05-5.13.07-10.26,0-15.39,0-2.25,1.31-2.33,3-2.33C301.38,216.46,310.13,216.64,319.61,216.1Z"/><path class="cls-1" d="M137.42,226.86c0,2.51,0,5,0,7.53,0,2-.85,2.9-2.92,2.86-4.52-.09-9-.12-13.56,0-2.28.05-3.38-.8-3.37-3.12,0-5.13,0-10.25,0-15.38a2.3,2.3,0,0,1,2.58-2.62q7.38,0,14.77,0c1.74,0,2.52.9,2.49,2.66,0,2.71,0,5.42,0,8.14Z"/><path class="cls-1" d="M193.82,226.43c0-2.4.09-4.81,0-7.21-.1-2.05.65-2.93,2.76-2.88,3.91.1,7.82.06,11.73,0,2,0,2.92.77,2.78,2.9a91.33,91.33,0,0,0,.05,14.7c.2,2.1-.8,2.9-2.81,2.88-3.91,0-7.82-.09-11.73,0-2.14,0-2.85-.93-2.79-2.91.06-2.5,0-5,0-7.52Z"/></g></g></svg>