<svg xmlns="http://www.w3.org/2000/svg" viewBox="0 0 500 194.9"><defs><style>.cls-1{fill:#fff;}</style></defs><g id="Layer_2" data-name="Layer 2"><g id="Layer_1-2" data-name="Layer 1"><path class="cls-1" d="M405.05,40.16,378.09,67c-4.2,4.2-8.44,8.36-12.56,12.63a6.06,6.06,0,0,1-4.81,2c-25.82-.06-51.64,0-77.45-.07a6.15,6.15,0,0,0-5,2c-4.6,4.86-9.49,9.45-14.13,14.27-1.68,1.75-2.75,2.09-4.62.09-4.34-4.66-9.06-9-13.44-13.59-1.85-2-3-1.68-4.72.08-4.5,4.67-9.2,9.13-13.68,13.82-1.51,1.58-2.41,1.52-3.89,0-5.27-5.41-10.66-10.71-16-16-.67-.67-1.12-1.64-2.22-1.68L185.94,98.89l1,1.06c-1.34,0-2-1.11-2.8-1.92-4.52-4.49-9.09-8.93-13.5-13.52-1.69-1.77-2.76-1.64-4.43.06-7.62,7.79-15.37,15.45-23.07,23.15L125.07,89c1.49-1.52,3.55-3.65,5.64-5.75,2.67-2.68,5.27-5.43,8.07-8,1.84-1.67,2-2.78.11-4.66-11.15-11.3-22.16-22.72-33.21-34.11-.67-.69-1.26-1.44-2.31-2.64,6-5.83,11.83-11.57,17.71-17.26.85-.82,2-.6,3.11-.6,13.82,0,27.65,0,41.47-.07,2.53,0,3,.85,3,3.2-.08,19.55,0,39.11,0,58.67a3.46,3.46,0,0,0,.81,2.91c3-3.12,6-6.12,8.88-9.18.82-.87.47-2.06.47-3.12V17.81c0-.42.07-.84.1-1.16.73-.9,1.64-.68,2.48-.68,19.77,0,39.54,0,59.3,0,2.25,0,3.19.42,3.17,3.07-.13,18.58-.06,37.17,0,55.75,0,1.67-.29,3.4.47,5,5.25-2.19,9.57-8.39,9.58-13.57,0-15.78.08-31.55,0-47.33,0-2.38.75-3,2.93-3,6.7.08,13.4.1,20.1,0,2.23,0,3,.6,2.94,2.94-.11,11.67.06,23.34-.11,35-.05,3.32,1.06,4.15,4.28,4.23a10.8,10.8,0,0,0,8.75-3.66c10-10.29,20.28-20.33,30.38-30.54a6.53,6.53,0,0,1,5.08-2.14c18.69.07,37.37.05,56.06,0,1.42,0,2.69.05,3.83,1.22C393.56,28.65,399.14,34.2,405.05,40.16ZM296.17,57.4c1.39.91,2.6.57,3.73.57q38.37,0,76.74,0a15,15,0,0,0,3.54,0c1.53-.38,3.33-1.05,2.92-3.13s-7.21-7-9.37-7q-32.87,0-65.73,0c-.95,0-2.21-.1-2.8.43A77.93,77.93,0,0,0,296.17,57.4ZM210.89,78.6,217,72a3.66,3.66,0,0,0,1-2.63c0-9.07-.07-18.15,0-27.22,0-2-.83-2.68-2.73-2.61a54.56,54.56,0,0,1-7.12,0c-2.62-.24-3.38.77-3.35,3.3.13,8,.38,16-.06,24C204.41,71.91,205.87,75.61,210.89,78.6ZM142.36,66.68c-.14.16.12,0,.12-.16q.08-12.6.11-25.2c0-.84-.35-1.67-1.2-1.67-2.13,0-4.63-.89-6.34.36a57.47,57.47,0,0,0-10.57,10.75Z"/><path class="cls-1" d="M78.41,52,63.35,36.65,47.53,53.27c-4.09-4.18-7.51-7.71-11-11.21-4.71-4.77-4.72-4.77-9.35-.14-1.53,1.53-3,3.14-4.59,4.57-1.32,1.18-1.25,2.14.05,3.17a2.5,2.5,0,0,1,.23.23c3.3,4.54,7.56,6,13.3,5.89,23.66-.35,47.32-.12,71-.18a6.81,6.81,0,0,1,5.39,2.27q6.77,7,13.77,13.73c1.75,1.68,2.09,2.82.12,4.69-4.85,4.6-9.55,9.38-14.19,14.2-1.44,1.5-2.47,1.42-3.68-.06-.13-.16-.33-.28-.45-.45-5-7.42-12.05-8.76-20.66-8.53-22,.58-44.07.16-66.11.25a7.82,7.82,0,0,1-6.21-2.61c-5-5.19-10.24-10.18-15.17-15L47.76,16.46,62.48,32,77.87,15.71l18.41,18.8Z"/><path class="cls-1" d="M402,22.44c.69-.89,1.49-.59,2.2-.59q34,0,68.07-.06a4.81,4.81,0,0,1,3.8,1.34c7.6,7.68,15.26,15.3,22.89,23A13.9,13.9,0,0,1,500,47.62c-4.61,4.48-9.27,9-13.85,13.48q-9.33,9.24-18.55,18.57a5.79,5.79,0,0,1-4.48,2q-25.44-.12-50.89,0A5.31,5.31,0,0,1,408,79.84c-4.22-4.45-8.52-8.83-13.08-13.54-4.55,4.51-8.81,8.45-12.71,12.73a7.1,7.1,0,0,1-7.47,2.43l36.16-36c2.81,2.95,6.13,6.31,9.3,9.81a7.76,7.76,0,0,0,6.47,2.8c7.89-.2,15.78-.07,23.66-.06,1,0,2,.21,2.76-.58,2.89-3,5.75-6,8.65-9.08-.37-.84-1.18-.53-1.9-.54-10.05,0-20.1-.06-30.15,0a5.86,5.86,0,0,1-4.54-1.93c-6.69-6.75-13.48-13.4-20.09-20.23C404.06,24.63,402.05,24.32,402,22.44Z"/><path class="cls-1" d="M320.33,17.69c-6.23,6.21-11.74,11.66-17.2,17.17-1.2,1.22-2.13,1.09-3.25,0-5-5.07-10-10.14-15.08-15.13-1.29-1.27-1.39-2.16-.06-3.47,5-4.9,9.93-9.9,14.91-14.84.79-.78,1.58-2.12,2.92-.83C308.4,6.12,314.19,11.75,320.33,17.69Z"/><path class="cls-1" d="M35.93,154.43v39.51H27.32V176.75H11.14v17.19H2.53V154.43h8.61v15H27.32v-15Z"/><path class="cls-1" d="M64.9,154.35l15,39.59H70.84l-3.14-8.86H53l-3.2,8.86H40.92L56,154.35Zm.7,24.42-2.55-7.12a83.28,83.28,0,0,1-2.64-8.58q-1,3.5-2.78,8.58l-2.55,7.12Z"/><path class="cls-1" d="M84.92,154.43h16a23.55,23.55,0,0,1,8.24,1.21,16.1,16.1,0,0,1,8.56,7.74A21.65,21.65,0,0,1,120,173.7q0,10.11-5.58,15.7a14.11,14.11,0,0,1-7.26,4,30,30,0,0,1-6.12.56H84.92Zm8.61,7.32v24.87h6.65a14.92,14.92,0,0,0,5.18-.7,8.55,8.55,0,0,0,4.77-5,17.5,17.5,0,0,0,1.21-6.9q0-6.9-3.84-10a11.9,11.9,0,0,0-7.63-2.27Z"/><path class="cls-1" d="M160.69,154.43v39.51h-8.61V176.75H135.9v17.19h-8.61V154.43h8.61v15h16.18v-15Z"/><path class="cls-1" d="M169.78,154.43h19.13q5.66,0,8.69,1.79a10.15,10.15,0,0,1,5.16,9.4A10.26,10.26,0,0,1,200,173a9,9,0,0,1-3.53,2.3,6.65,6.65,0,0,1,4.09,2.92,11.34,11.34,0,0,1,1.54,4.63c.1.56.28,2.4.56,5.52q.38,4.13,1.18,5.13l.37.45h-9a7.37,7.37,0,0,1-.58-1.76c-.14-.6-.33-2.72-.59-6.37-.27-3.25-1.19-5.38-2.78-6.39a9.79,9.79,0,0,0-5.1-1h-7.77v15.53h-8.61Zm8.61,6.79V172.1h8.22q4,0,5.6-1.13a4.92,4.92,0,0,0,2-4.34,4.71,4.71,0,0,0-2.78-4.74,11.45,11.45,0,0,0-4.48-.67Z"/><path class="cls-1" d="M231.67,154.35l15,39.59h-9l-3.14-8.86h-14.7l-3.2,8.86h-8.89l15.06-39.59Zm.7,24.42-2.55-7.12a83.28,83.28,0,0,1-2.64-8.58c-.65,2.33-1.58,5.19-2.77,8.58l-2.55,7.12Z"/><path class="cls-1" d="M294.38,154.43v39.51h-8.19V182.11q0-9.54.53-20-1.91,7.65-4,13.82l-6.17,18h-6.78l-6.34-17.66a126.92,126.92,0,0,1-4-14q.5,11.61.5,18.93v12.76h-8.19V154.43H264l5.91,17.16a98.31,98.31,0,0,1,3.29,12.51,105.74,105.74,0,0,1,3.39-12.59l5.64-17.08Z"/><path class="cls-1" d="M323.34,154.35l15,39.59h-9.06l-3.14-8.86h-14.7l-3.19,8.86h-8.89l15.06-39.59Zm.71,24.42-2.56-7.12a85.49,85.49,0,0,1-2.63-8.58c-.66,2.33-1.58,5.19-2.78,8.58l-2.55,7.12Z"/><path class="cls-1" d="M376.57,154.43v23.36a25.89,25.89,0,0,1-.92,7.8q-3.12,9.3-15.91,9.31-6.89,0-10.82-2.53a12.29,12.29,0,0,1-5.44-7.51,28.61,28.61,0,0,1-.7-7.18V154.43h8.61v23.81q0,4.51,1.32,6.48,2,3,7.2,3c3.24,0,5.47-.95,6.71-2.84.89-1.36,1.34-3.58,1.34-6.64V154.43Z"/><path class="cls-1" d="M414.06,154.43v7.32h-12v32.19h-8.61V161.75H381.51v-7.32Z"/><path class="cls-1" d="M457.59,154.43v7.32h-12v32.19H437V161.75H425v-7.32Z"/><path class="cls-1" d="M494.8,154.43l-13.15,39.51h-9.79l-12.95-39.51h9l5.16,16c.72,2.31,1.6,5.59,2.63,9.81.43,1.72.81,3.55,1.12,5.5q.51-2.87,1.24-5.7,1.74-6.87,2.61-9.56l5.13-16Z"/></g></g></svg>