<svg xmlns="http://www.w3.org/2000/svg" viewBox="0 0 500 265.57"><defs><style>.cls-1{fill:#fff;}</style></defs><g id="Layer_2" data-name="Layer 2"><g id="Layer_1-2" data-name="Layer 1"><path class="cls-1" d="M116.69,0V122.06c7.89,0,15.52.13,23.13-.06,3.18-.09,4.43-2.24,4.41-5.44-.08-11.44,0-22.89,0-34.34,0-6.8,3.18-10.08,9.89-10.13,7-.06,13.95,0,21,0,1.07,2.51.56,5,.57,7.48.06,12,0,24,0,36,0,5.09,1.32,6.45,6.37,6.63,1.81.07,3.63,0,5.44,0h5.84c-6.35,10.22-4.85,19.41,2.85,28.43-10.54,0-20.38.12-30.21-.06-3.64-.07-4.1-3.64-5.39-7-2.36,6-6.44,7.32-11.84,7.16-10.57-.32-21.16-.1-32-.1,0,10.23,0,20.11,0,30,0,11.78-5.07,16.92-16.76,16.84-31.11-.22-62.23.59-93.34-.51-2.28-.08-4.7.17-6.7-1.43.53-2.51,2.54-3.12,4.19-4a26.39,26.39,0,0,0,14.29-19.91c.56-3.37,2.19-4.27,5.37-4.25,17.17.11,34.33,0,51.5,0,6.24,0,7.53-1.33,7.53-7.66q0-73.92,0-147.84c0-8.44,3.49-12,11.83-12Z"/><path class="cls-1" d="M452.26,72.07v49.4c4.1,0,8,.17,11.81,0,4.11-.23,4.59-3.25,4.59-6.6q0-24.07,0-48.17a23.72,23.72,0,0,1,.32-5.41c.91-3.87,3.46-6.4,7.47-6.51,7.65-.22,15.3-.07,22.92-.07,1,2.18.48,4.14.48,6q.06,40.22,0,80.42c0,6.46-3,9.57-9.35,9.58-12.69,0-25.38,0-38,0-1.14-1.6-.36-3.19-.92-5.63-3,6.42-8.3,5.66-13.42,5.64-11.7-.05-23.4,0-35.34,0v-5.56c-3.77,6.9-10.2,5.56-16.15,5.57-11.57,0-23.14,0-35.65,0,7.36-8.58,8.67-17.89,5.19-28.32,3.09,0,5.7.05,8.31,0,5-.1,6.48-1.59,6.5-6.53,0-10.75,0-21.5,0-32.25,0-8.76,3.07-11.92,11.77-12,6.65-.08,13.3,0,20.26,0v49.94c4.59,0,8.88.26,13.12-.07,3.8-.3,4.86-3.18,4.86-6.62q0-15.28,0-30.57c0-8.7,3.5-12.13,12.16-12.15C439.44,72.06,445.56,72.07,452.26,72.07Z"/><path class="cls-1" d="M253.28,86.36l14.31,11c-14.17,10.88-28.59,20.78-42.19,31.7l.7,1.34h99.24l-20-15.14,9.87-14.14c8.32,6.83,17.06,12.77,24.75,20a18.28,18.28,0,0,1,5.83,9.48c1.68,8.12-2.79,14.67-11.26,16.65a40.84,40.84,0,0,1-9.48,1.07q-52.12,0-104.25,0c-3.79,0-7.5-.31-11-2-6.89-3.23-9.72-9.85-7.2-17.05a23.84,23.84,0,0,1,8.36-11.27C224.93,107.47,239,97,253.28,86.36Z"/><path class="cls-1" d="M292.52,77.67l-12.6-9.55L350,18.31c3.63,3.83,4,9.9.83,15.68-2.41,4.38-5.19,8.57-8,12.73-16.4,24.52-32.89,49-49.24,73.54-1.56,2.34-3.14,3.45-6,3.32-5.39-.24-10.79-.06-17.42-.06L315,62l-1.09-1C306.34,65.84,300,72.42,292.52,77.67Z"/><path class="cls-1" d="M196.77,264.76c2.94-5.77,5.85-11.55,8.82-17.31,14.74-28.61,29.55-57.19,44.19-85.86,1.56-3.06,3.41-4.11,6.75-3.94,5.49.27,11,.07,17.44.07-3.9,5.9-7.14,10.89-10.45,15.82Q237,213.1,210.34,252.6c-3.4,5-7.2,9.8-12.51,13Z"/><path class="cls-1" d="M231.72,93.93c-5.76-6.69-7.95-14.35-9.66-22.2-.56-2.57-1.22-5.14-.79-7.85,1.49-9.32,9.64-14.19,19.91-11.62a21.32,21.32,0,0,1,6.9,2.86c13.95,9.6,27.78,19.37,42,29.37l-9.82,12.88c-11.66-8.35-23.05-16.5-34.45-24.64a23.29,23.29,0,0,0-6.13-3.51c-5.69-1.89-9.36.56-9.64,6.49a39.7,39.7,0,0,0,1.42,12A12.73,12.73,0,0,1,231.72,93.93Z"/><path class="cls-1" d="M196.86,182.7c0,3.07,0,6.14,0,9.21,0,3.49-1.85,5.21-5.12,5.27-6.41.11-12.83.06-19.24,0-3.43,0-4.89-2-4.88-5.36,0-5.86,0-11.72,0-17.58,0-3.88,2.2-5.59,5.76-5.65q9-.15,18,0c3.61.07,5.7,1.82,5.54,5.74C196.78,177.12,196.86,179.91,196.86,182.7Z"/><path class="cls-1" d="M146,168.6c2.78,0,5.56,0,8.35,0,4.48.1,6.16,1.64,6.22,6,.09,5.7,0,11.41,0,17.12,0,3.66-2.05,5.4-5.43,5.48-6.12.15-12.24.13-18.37,0-3.65,0-5.59-1.92-5.53-5.77q.13-8.57,0-17.12c-.06-3.88,2-5.62,5.58-5.75,3.06-.1,6.12,0,9.19,0Z"/><path class="cls-1" d="M392.07,171.18h4.7v26.4c-1.34.86-2.78.62-4.6,0v-10.8H380.36v10.64c-1.66,1.15-3,.67-4.67.38V171.71c1.26-1.06,2.66-.48,4.45-.49v10.44c4.09.65,7.78.32,11.93.26Z"/><path class="cls-1" d="M308.85,179.94c-1.64-4.54-5.29-6.23-9.1-4.43a3.44,3.44,0,0,0-2.24,2.75c-.14,1.46,1,2.25,2.25,2.64,2.79.87,5.59,1.72,8.42,2.45a7.21,7.21,0,0,1,5.65,6c.6,3.24-1.05,5.72-3.64,7.43-4.33,2.87-9.06,2.75-13.54.65-3.39-1.58-5-4.63-4.38-8.74H296c1.68,4.93,4.28,6.55,9,5.68,2.12-.39,3.75-1.51,3.94-3.71s-1.83-2.56-3.38-3.07c-2.37-.77-4.8-1.39-7.2-2.1-3.43-1-5.64-3-5.5-6.86s2.23-6.18,5.77-7.35c5.69-1.88,12.13.49,14,5a4.64,4.64,0,0,1,.25,3.16C311.52,180.41,310.14,179.81,308.85,179.94Z"/><path class="cls-1" d="M413.27,197.69c3.21-8.54,6.3-17,9.57-25.36,1.06-2.71,3.49-.31,5.24-1.66,3.36,9.27,6.5,18,9.73,26.9-3.38,1.24-5.71.8-6.28-2.86-.61-3.89-2.87-4.44-6.4-4.54s-5.06,1.35-5.64,4.49C418.86,198,416.77,198.72,413.27,197.69Zm14.93-12.06L425.66,178l-3.14,8.29C424.67,186,426.28,186.61,428.2,185.63Z"/><path class="cls-1" d="M350.14,171.37a7.8,7.8,0,0,1,4.79.12c0,6.62.33,13.41-.11,20.16-.29,4.56-5.34,7.46-11.15,7.23s-10-3.42-10.18-8.37c-.22-6.25-.06-12.51-.06-18.68,1.56-1.16,3-.86,4.84-.36,0,5.52,0,11.06,0,16.6,0,4.7,1.74,6.48,6.14,6.43,4.19,0,5.72-1.71,5.73-6.32C350.15,182.64,350.14,177.1,350.14,171.37Z"/><path class="cls-1" d="M485.44,193.54h12.35a4.37,4.37,0,0,1,.25,4.34H481V171.52a7.28,7.28,0,0,1,4.43-.27Z"/><path class="cls-1" d="M456.23,171.68c1.55-.85,2.89-.61,4.51-.43v26.33c-1.43,1-2.86.5-4.51.24Z"/></g></g></svg>