<svg xmlns="http://www.w3.org/2000/svg" viewBox="0 0 500 298.4"><defs><style>.cls-1{fill:#fff;}</style></defs><g id="Layer_2" data-name="Layer 2"><g id="Layer_1-2" data-name="Layer 1"><path class="cls-1" d="M230.93,298.4c-2.86-1-5.66-2-7.83-4.36a13.73,13.73,0,0,1-1.63-16.52A13.62,13.62,0,1,1,235.75,298c-.31.06-.67,0-.85.37Z"/><path class="cls-1" d="M499.68,22.26a.29.29,0,0,1,.32,0V132.75l-.13.12-.17-.06c0-.66-.09-1.32-.09-2q0-53.49,0-107C499.61,23.32,499.65,22.79,499.68,22.26Z"/><path class="cls-1" d="M78.52,155.39H24.27A24.23,24.23,0,0,1,0,131.18q0-53.52,0-107A24.17,24.17,0,0,1,24.13,0H133a24.22,24.22,0,0,1,24.29,24.18q0,53.52,0,107.05A24.28,24.28,0,0,1,133,155.39Zm30-96.24v2.08c0,6.15.06,12.31,0,18.46-.13,10.45-9.42,16.15-18.84,11.61a44.1,44.1,0,0,1-9-6.09c-7.26-6.06-13.79-13-21.23-18.82-7.29-5.75-15-10.6-24.53-11.7a29.51,29.51,0,0,0-13.4,1.55V87.78c0,.25.05.5.09.86.5-.16.94-.27,1.36-.43,4.79-1.89,9.24-1.5,13.48,1.64C39.32,92,42.23,94.19,45,96.52c8.5,7,16.83,14.33,26.25,20.19,5.57,3.47,11.33,6.73,17.82,8,14,2.72,26.24-1,36.16-11.37,6.42-6.72,10.32-14.53,10-24.21-.3-9.25-.06-18.53-.08-27.79a3.84,3.84,0,0,0-.23-2.18ZM90.62,45.56A11.63,11.63,0,0,0,78.81,33.77a11.8,11.8,0,0,0-12,11.72,12.05,12.05,0,0,0,12,12A11.82,11.82,0,0,0,90.62,45.56Z"/><path class="cls-1" d="M499.68,22.26c0,.53-.07,1.06-.07,1.58q0,53.51,0,107c0,.66.06,1.32.09,2a24.16,24.16,0,0,1-24.23,22.58H366.77a24.13,24.13,0,0,1-24.21-24q-.06-53.73,0-107.45A24.06,24.06,0,0,1,366.67,0h109.1A24.12,24.12,0,0,1,499.68,22.26Zm-21.94,65.6c0-10.42,0-20.74,0-31.07,0-1-.39-1.33-1.3-1.59a31.15,31.15,0,0,0-13.74-.86c-8.5,1.38-15.54,5.75-22.18,10.9-6.29,4.87-11.9,10.51-17.83,15.79-4.59,4.09-9.14,8.28-15.06,10.47A12.29,12.29,0,0,1,391,82.16a42,42,0,0,1-.32-7.92c0-5.2,0-10.41,0-15.68H364.07c0,.46-.06.84-.06,1.23q0,16.08,0,32.17a15.47,15.47,0,0,0,.29,3c1.58,8.11,5.85,14.71,11.95,20.09,10.63,9.39,23,12.23,36.58,8.34,9.34-2.67,17.31-8.15,24.9-14.07S453,97,460.61,90.83c5-4.11,10.35-5.73,16.53-2.93A2,2,0,0,0,477.74,87.86Zm8.78,30a11.9,11.9,0,0,0-11.88-12.06,12.09,12.09,0,0,0-11.92,11.91,11.89,11.89,0,0,0,11.66,11.86A11.73,11.73,0,0,0,486.52,117.86ZM449,122.75a11.67,11.67,0,0,0-12,11.83,11.87,11.87,0,0,0,23.73,0A11.69,11.69,0,0,0,449,122.75Z"/><path class="cls-1" d="M130.83,213V172.06c0-2.93.44-3.38,3.29-3.38h20.27c2.8,0,3.23.43,3.23,3.21q0,34.16,0,68.32c0,3.74.61,7.22,3.15,10.16,3.59,4.17,8.8,5.46,14.23,3.36,5.68-2.2,10.07-6.28,14.48-10.28,5.44-4.93,10.77-10,16.51-14.58a42.06,42.06,0,0,1,53.6.55c5.89,4.84,11.38,10.09,17,15.18,3.79,3.41,7.66,6.74,12.4,8.81,6.79,3,13.61.63,16.75-5.61a8.52,8.52,0,0,0,.85-4c0-7,0-13.9,0-20.85,0-1.26.36-1.72,1.68-2.08,12.54-3.42,23.16.69,33,8.11,6,4.51,11.28,9.8,16.81,14.83,4,3.65,8.06,7.3,13.1,9.53,7.6,3.37,15.25.17,17.69-7.33a12.92,12.92,0,0,0,.64-4.1c0-6.15,0-12.31,0-18.46a3,3,0,0,1,2.58-3.36c9.88-2.54,18.85-.25,27.29,5,6.57,4.06,12.16,9.33,17.78,14.56,4.27,4,8.44,8,13.39,11.18,3.17,2,6.51,3.63,10.38,3.32a12.59,12.59,0,0,0,11.6-12.82c.05-6,0-11.92,0-17.88,0-2.59.58-3.18,3.11-3.18q10.33,0,20.67,0c2.31,0,3,.64,3,2.92,0,10.06.12,20.12,0,30.18-.11,7.42-3.52,13.6-8.11,19.17-11.4,13.85-30.77,18.77-48.62,9.48-8.87-4.62-16.81-10.53-24.49-16.83-2.9-2.38-3.4-2.31-5.12.93-8.43,15.93-25.46,24.09-43.05,20.31-7-1.5-13.15-5.09-19.11-8.95a175.05,175.05,0,0,1-15.88-11.89c-2.34-1.93-3.06-1.78-4.53.88-8.95,16.27-26.55,24.27-44.19,19.6-8.68-2.29-16.12-7.22-23.33-12.43-8-5.74-15.22-12.34-22.89-18.42-5.62-4.45-9.3-4.49-14.92-.06-7.84,6.19-15.23,13-23.36,18.78-6.53,4.67-13.29,8.91-20.95,11.53a38.41,38.41,0,0,1-40.39-10.85c-4.81-5.48-8.38-11.54-9.32-18.91a20,20,0,0,1-.13-2.57Q130.83,233,130.83,213Z"/><path class="cls-1" d="M249.53,0h54.25A24.13,24.13,0,0,1,328.1,24.13q.07,53.52,0,107a24.21,24.21,0,0,1-24.46,24.22H195.16a24.14,24.14,0,0,1-24.3-24.15q-.06-53.52,0-107A24.1,24.1,0,0,1,195.09,0Zm.34,125.66c26.69,0,47.82-21.59,47.64-48.57-.18-27.57-21.14-48.4-48.65-48.36-25.77.05-46.74,21.89-46.62,48.57C202.36,104.46,223.29,125.71,249.87,125.66Z"/><path class="cls-1" d="M1.28,222.53a32.22,32.22,0,0,1,24.93,1.77c7.37,3.57,13.42,8.9,19.34,14.4,4.55,4.23,8.91,8.69,13.88,12.46,3,2.29,6.2,4.36,10,5.06A12.35,12.35,0,0,0,84,243.91c.07-6.35,0-12.71,0-19.06v-2.23h26.61c.49.6.23,1.35.23,2,0,9.27-.2,18.54.08,27.8.26,9-3.14,16.51-8.88,23.09a38,38,0,0,1-28.93,13.52c-8,.15-15.17-2.55-22-6.38-9.25-5.18-17.21-12.05-25.16-18.95-3.15-2.73-6.36-5.37-9.67-7.92-4.23-3.27-8.74-3.74-13.62-1.86-.31.12-.61.24-.93.33a1.82,1.82,0,0,1-.47,0Z"/><path class="cls-1" d="M27.43,282.81a13.69,13.69,0,0,1-13.75,13.54A13.65,13.65,0,0,1,14,269.06,13.58,13.58,0,0,1,27.43,282.81Z"/><path class="cls-1" d="M390.57,194.34a13.6,13.6,0,1,1,13,13.82A13.64,13.64,0,0,1,390.57,194.34Z"/><path class="cls-1" d="M472.11,194.57a13.58,13.58,0,1,1,13.56,13.59A13.42,13.42,0,0,1,472.11,194.57Z"/><path class="cls-1" d="M330.75,194.59a13.58,13.58,0,1,1-27.16-.06,13.58,13.58,0,1,1,27.16.06Z"/><path class="cls-1" d="M271.65,77.36a37.64,37.64,0,0,1-2.47,13.76c-3.77,9.24-12.05,14-22,12.9-8.65-1-14.46-5.58-17.21-13.73a39.19,39.19,0,0,1,.45-27.37c3.09-7.91,9.07-12.18,17.52-12.75,8.84-.6,15.53,3,19.88,10.77C270.69,66,271.62,71.59,271.65,77.36Z"/></g></g></svg>