<svg xmlns="http://www.w3.org/2000/svg" viewBox="0 0 500 454.7"><defs><style>.cls-1{fill:#fff;}</style></defs><g id="Layer_2" data-name="Layer 2"><g id="Layer_1-2" data-name="Layer 1"><path class="cls-1" d="M488,272.32H12a12.08,12.08,0,0,0-12,12v158.3a12.08,12.08,0,0,0,12,12H488a12.08,12.08,0,0,0,12-12V284.36A12.08,12.08,0,0,0,488,272.32ZM51.08,374.92v38.35H36.77V374.63L12.25,313.75H28.61l10.26,26.49q2.61,6.86,5.22,16.31,3.16-11.22,5.5-17.23l9.93-25.57h16Zm81.16,38.35H82.32V313.75h49.27v18.44h-35v21.19H128.7v17.09H96.63v24.37h35.61Zm82.7,0H201.33V383.46q0-24,.89-50.43-3.18,19.29-6.72,34.82l-10.25,45.42H174l-10.54-44.5q-3.5-14.68-6.66-35.31.82,29.24.83,47.67v32.14H144V313.75h20.42L174.25,357q3.17,14.13,5.45,31.5,2-15.12,5.64-31.71l9.37-43h20.23Zm65.22,0H230.23V313.75h49.28v18.44h-35v21.19h32.07v17.09H244.55v24.37h35.61Zm67.27,0H333l-19.58-48q-4.57-11.44-5.08-12.78-1.54-4.09-3.22-9.54.61,11.24.61,28v42.38h-13.8V313.75h14.64l19.06,47q5.88,14.47,8.63,23-.62-15.48-.61-28.47V313.75h13.8Zm78.46-81.08H405.94v81.08H391.62V332.19H371.77V313.75h54.12Zm40,81.08H449.62l-21.54-99.52h15l8.58,40.19q1.81,8.76,4.38,24.72c.71,4.33,1.34,8.95,1.86,13.84q.84-7.2,2.06-14.33,2.88-17.31,4.33-24.09l8.53-40.33h14.92Z"/><path class="cls-1" d="M57.38,29.08a16.11,16.11,0,0,0,5.18,3.61,16.14,16.14,0,0,0,12.74,0,16.22,16.22,0,0,0,5.18-3.61A16.88,16.88,0,0,0,84,23.7a17.39,17.39,0,0,0,1.26-6.63A17.32,17.32,0,0,0,84,10.44a17,17,0,0,0-3.47-5.39A17.22,17.22,0,0,0,75.3,1.38a15.39,15.39,0,0,0-12.74,0,17.1,17.1,0,0,0-5.18,3.67,17.92,17.92,0,0,0-3.53,5.39,16.46,16.46,0,0,0-1.33,6.63,16.53,16.53,0,0,0,1.33,6.63A17.75,17.75,0,0,0,57.38,29.08Z"/><path class="cls-1" d="M322.92,195.16a16.33,16.33,0,0,0-5.17-3.61,16.17,16.17,0,0,0-12.75,0,16.22,16.22,0,0,0-5.17,3.61,16.92,16.92,0,0,0-3.47,5.39,17.94,17.94,0,0,0,0,13.26,17,17,0,0,0,3.47,5.38A16.22,16.22,0,0,0,305,222.8a16.17,16.17,0,0,0,12.75,0,16.33,16.33,0,0,0,5.17-3.61,18.09,18.09,0,0,0,3.54-5.38,17.31,17.31,0,0,0,0-13.26A18,18,0,0,0,322.92,195.16Z"/><path class="cls-1" d="M361.79,195.16a16.22,16.22,0,0,0-5.17-3.61,16.17,16.17,0,0,0-12.75,0,16.33,16.33,0,0,0-5.17,3.61,16.92,16.92,0,0,0-3.47,5.39,18.07,18.07,0,0,0,0,13.26,17,17,0,0,0,3.47,5.38,16.33,16.33,0,0,0,5.17,3.61,16.17,16.17,0,0,0,12.75,0,16.22,16.22,0,0,0,5.17-3.61,17,17,0,0,0,3.48-5.38,18.07,18.07,0,0,0,0-13.26A17,17,0,0,0,361.79,195.16Z"/><path class="cls-1" d="M405.15,133.79a9.71,9.71,0,0,1-2.84,7.08,9.44,9.44,0,0,1-7,2.89H366.78v-97H334.6v97H281.72a35.25,35.25,0,0,0,.63-4.85c.08-1.58.08-3.29,0-5.12v-27A59.86,59.86,0,0,0,277.93,84a62.38,62.38,0,0,0-12.12-19.1,59,59,0,0,0-18-13.2,50.52,50.52,0,0,0-22-4.92,51.52,51.52,0,0,0-22,4.73A57.4,57.4,0,0,0,185.92,64.4a61.71,61.71,0,0,0-16.53,42.34v26.91c0,1.76,0,3.46.13,5.12a49.3,49.3,0,0,0,.5,5h-13.5v-.13H133.17V46.74H100.86V164a23.4,23.4,0,0,1-2.78,11.56,26.22,26.22,0,0,1-7.25,8.33,31.06,31.06,0,0,1-10.23,5,42.06,42.06,0,0,1-11.67,1.64,42.51,42.51,0,0,1-11.8-1.64,31.76,31.76,0,0,1-10.29-5,25,25,0,0,1-7.25-8.33A23.82,23.82,0,0,1,36.87,164V68.8H4.69V164q0,15,5.49,26.26A55.64,55.64,0,0,0,24.69,209a61.8,61.8,0,0,0,20.58,11.22,76.82,76.82,0,0,0,44.55.85,64.92,64.92,0,0,0,18.86-8.66,55.67,55.67,0,0,0,14.71-14.57,53.18,53.18,0,0,0,8.39-20.62h55.15q15.52,16.55,38.88,16.55a52.3,52.3,0,0,0,21.32-4.34,55.84,55.84,0,0,0,17.55-12.21H395.3a39.53,39.53,0,0,0,16.35-3.41A43,43,0,0,0,425,164.51a44,44,0,0,0,12.3-30.72V0H405.15Zm-155,0a26.92,26.92,0,0,1-1.89,10.1A27.53,27.53,0,0,1,243,152.3a24.59,24.59,0,0,1-7.76,5.77,22.28,22.28,0,0,1-18.93,0,25.5,25.5,0,0,1-13-14,28.38,28.38,0,0,1-1.89-10.38V106.74a27.86,27.86,0,0,1,1.89-10.31,25.74,25.74,0,0,1,13-14,22.38,22.38,0,0,1,18.93,0A24.77,24.77,0,0,1,243,88.23a27.57,27.57,0,0,1,7.13,18.51Z"/><rect class="cls-1" x="463.83" width="32.18" height="177.24"/></g></g></svg>