<svg xmlns="http://www.w3.org/2000/svg" viewBox="0 0 500 442.11"><defs><style>.cls-1{fill:#f7f7f7;}.cls-2{fill:#fff;}</style></defs><g id="Layer_2" data-name="Layer 2"><g id="Layer_1-2" data-name="Layer 1"><path class="cls-1" d="M48.31,47.44c1.51,3.12,2.21,4.74,3.06,6.28,7.84,14.36,12.44,25.69-3.63,40.79-20.33,19.1-18.69,50-2.11,70.68,13.06,16.27,33.43,22.15,53,15.36,20.89-7.27,36.22-27.6,35.67-46-.82-27.91-2.28-55.95,1-84.79,9.76-2.23,19.76-.63,31-1.11V143.9h26.95c0-17.22-.07-33.9,0-50.58.1-19.93,9.5-29.27,29.49-29.19,20.39.09,40.78.22,61.17.58,15.58.28,24.83,9.7,25,25.42.18,17.09,0,34.18,0,52.12h29.22V50h33.93v92.92c11,0,20.76,0,30.48,0,7.48,0,7.42-5,7.4-10.48q-.24-58.95-.17-117.92c0-4.92-1.18-10.13,1.59-14.5h33V179.37H309.72c-4.71,23.73-9.15,27.29-32.55,27.33-17.11,0-34.23.27-51.34.14-24.53-.19-28.08-3-33.94-26.11-11.12,0-22.36.12-33.59-.06-5.2-.08-7.63,3.19-10.28,6.84-16.07,22.11-36.85,32-65.17,32.16-36.91.16-60.48-17.25-73.84-48.74C-6,135.54-3.06,101.24,24,71.29,31.32,63.22,41.2,57.94,48.31,47.44ZM274,134.56c0-7.26,0-14.52,0-21.78,0-8-3.79-12.13-12-12-7.62.15-15.25.28-22.87.11-7.88-.17-11.18,3.65-11.11,11.28.13,13.43.47,26.87-.07,40.28-.41,10.27,3.38,14.37,13.91,14.06C275.45,165.56,274.17,172.77,274,134.56Z"/><path class="cls-1" d="M336.82,345.39V253.06h33.53v92.87c10.8,0,20.86.15,30.92-.05,7.49-.15,6.83-5.75,6.82-10.89q0-58.38,0-116.75V203.49H443V380.83c-29.42,0-58,0-86.55,0-26.18-.05-52.36-.07-78.53-.4-5.58-.07-8.5,3.09-11.69,6.69q-21.34,24.08-42.88,48c-2.58,2.89-4.51,6.73-10.76,7,7.37-20.27,14.52-39.91,22.27-61.23a116.16,116.16,0,0,1-38-4.75c-20.14-5.68-30.25-20.76-35.65-38.34C153.1,311.38,158.15,286,178,266c18.48-18.6,42.38-20.21,66.25-13.42,27.81,7.91,35.91,31.25,40.64,56.59,2.22,11.89,0,23.75.35,36.19Zm-87.5-.16c0-12.08.35-22.58-.09-33-.46-10.84-4.87-19.58-15.49-24.12s-20.61-2.9-29.78,3.55c-10,7-13.11,21.31-9.33,36.62,2.8,11.33,10.43,16.28,21.11,16.86S237.36,345.23,249.32,345.23Z"/><path class="cls-1" d="M462.65,1.53H500V379.68c-13,1.74-25-.66-37.35,1.95Z"/><path class="cls-1" d="M395.1,219.91c-.07,12.75-7,20.17-19,20.26-12.27.09-19.06-7.12-18.87-20.08.17-12.49,7.84-21,18.78-20.87C387.1,199.37,395.16,208.09,395.1,219.91Z"/><path class="cls-1" d="M312.16,219.17c.24-12,8.19-20.29,19.42-20.18,10.32.11,19.11,10,18.84,21.27-.29,11.48-9.22,20.34-20.1,19.93C318.13,239.73,311.9,232.51,312.16,219.17Z"/><path class="cls-1" d="M392.16,420.47c.09,11.58-7,19.3-17.6,19.22-11.13-.08-19-8.12-19.09-19.48-.07-10.24,8.4-19.45,18-19.58C383.61,400.49,392.08,409.49,392.16,420.47Z"/><path class="cls-1" d="M311,420c.17-11.18,7.59-19.36,17.71-19.51,10.49-.16,19.27,9,18.87,19.61-.41,11.17-8.05,19.48-17.94,19.54C318.82,439.72,310.86,431.33,311,420Z"/><path class="cls-2" d="M69,1.67,56.65,22V34.69H49.46V21.87L37.13,1.67h8.23l5.15,8.79a47.41,47.41,0,0,1,2.63,5.41,52.41,52.41,0,0,1,2.76-5.72l5-8.48Z"/><path class="cls-2" d="M97.13,1.67V7.78H79.55v7H95.68v5.68H79.55v8.08H97.46v6.12H72.36v-33Z"/><path class="cls-2" d="M139,1.67v33h-6.85V24.8q0-8,.45-16.74-1.59,6.4-3.38,11.56l-5.15,15.07h-5.67l-5.3-14.77a105.58,105.58,0,0,1-3.35-11.71q.42,9.69.42,15.82V34.69h-6.85v-33h10.27l5,14.34a84.4,84.4,0,0,1,2.74,10.45,90.78,90.78,0,0,1,2.83-10.52l4.71-14.27Z"/><path class="cls-2" d="M171.5,1.67V7.78H153.92v7h16.13v5.68H153.92v8.08h17.91v6.12H146.72v-33Z"/><path class="cls-2" d="M205.65,1.67v33h-7.27l-9.84-15.94c-1.53-2.53-2.39-3.94-2.56-4.24-.51-.91-1-2-1.61-3.16q.3,3.72.3,9.28V34.69h-6.94v-33h7.36l9.59,15.58c2,3.21,3.41,5.74,4.33,7.62q-.3-5.13-.3-9.45V1.67Z"/><path class="cls-2" d="M245.09,1.67V7.78h-10V34.69h-7.19V7.78h-10V1.67Z"/><path class="cls-2" d="M264.64.87A15.24,15.24,0,0,1,275.7,5.21q4.92,4.8,4.93,13a18,18,0,0,1-3.73,11.65q-4.54,5.64-12.47,5.65-8.08,0-12.7-5.77a17.82,17.82,0,0,1-3.64-11.51q0-8.21,4.71-12.79A16.24,16.24,0,0,1,264.64.87Zm-.12,6a8.13,8.13,0,0,0-6.68,3,12.7,12.7,0,0,0-2.48,8.25q0,5.25,2.44,8.29a7.75,7.75,0,0,0,3.37,2.39,9,9,0,0,0,3.31.61,7.69,7.69,0,0,0,6.25-2.76q2.63-3.16,2.63-8.63A12.81,12.81,0,0,0,271,9.92,7.78,7.78,0,0,0,264.52,6.89Z"/><path class="cls-2" d="M286.7,1.67H300a19.88,19.88,0,0,1,6.89,1,13.46,13.46,0,0,1,7.15,6.47,18.16,18.16,0,0,1,2,8.63q0,8.46-4.66,13.12a11.8,11.8,0,0,1-6.07,3.33,25.62,25.62,0,0,1-5.11.47H286.7Zm7.19,6.11V28.57h5.56a12.56,12.56,0,0,0,4.33-.58,7.21,7.21,0,0,0,4-4.2,14.75,14.75,0,0,0,1-5.76q0-5.78-3.21-8.35a9.93,9.93,0,0,0-6.37-1.9Z"/><path class="cls-2" d="M338.63,1.6l12.54,33.09H343.6L341,27.28H328.7L326,34.69h-7.43L331.18,1.6ZM339.22,22l-2.13-6a69.51,69.51,0,0,1-2.21-7.18c-.54,2-1.32,4.35-2.32,7.18l-2.13,6Z"/><path class="cls-2" d="M382.91,1.67,370.6,22V34.69h-7.19V21.87L351.08,1.67h8.23l5.15,8.79a47.41,47.41,0,0,1,2.63,5.41,52.41,52.41,0,0,1,2.76-5.72l5-8.48Z"/><path class="cls-2" d="M114.83,249.59H34.89A26.35,26.35,0,0,0,8.62,275.86v91.67a26.14,26.14,0,0,0,.68,5.84,7.93,7.93,0,0,0-.68,3.19v41.1a8,8,0,0,0,8,8H40.91a8,8,0,0,0,8-8V393.8h66a26.35,26.35,0,0,0,26.27-26.27V275.86A26.35,26.35,0,0,0,114.83,249.59ZM95,342.24a8,8,0,0,1-8,8H62.7a8,8,0,0,1-8-8V301.15a8,8,0,0,1,8-8H87a8,8,0,0,1,8,8Z"/><circle class="cls-2" cx="82.92" cy="129.5" r="37.73"/></g></g></svg>