<svg xmlns="http://www.w3.org/2000/svg" viewBox="0 0 526.04 188.22"><defs><style>.cls-1{fill:#fff;}</style></defs><g id="Layer_2" data-name="Layer 2"><g id="Layer_1-2" data-name="Layer 1"><path class="cls-1" d="M31.37,151v6.73H12v7.74H29.77v6.23H12v8.9h19.7v6.73H4.12V151Z"/><path class="cls-1" d="M63.9,180.62v6.73H38.22V151h7.92v29.6Z"/><path class="cls-1" d="M116.85,151v36.33h-7.53V176.47q0-8.78.49-18.41-1.75,7-3.71,12.71l-5.67,16.58H94.19l-5.83-16.24a119.61,119.61,0,0,1-3.68-12.89q.46,10.67.46,17.4v11.73H77.61V151h11.3l5.43,15.78a90.58,90.58,0,0,1,3,11.5,98.71,98.71,0,0,1,3.12-11.58l5.18-15.7Z"/><path class="cls-1" d="M141.73,150.15a16.79,16.79,0,0,1,12.16,4.77q5.42,5.28,5.42,14.28a19.77,19.77,0,0,1-4.1,12.81q-5,6.21-13.72,6.21-8.88,0-14-6.34-4-5-4-12.66,0-9,5.18-14.07A17.86,17.86,0,0,1,141.73,150.15Zm-.13,6.62a8.93,8.93,0,0,0-7.35,3.33c-1.82,2.23-2.73,5.26-2.73,9.07s.89,6.89,2.68,9.13a8.61,8.61,0,0,0,3.71,2.63,10.09,10.09,0,0,0,3.64.67,8.5,8.5,0,0,0,6.88-3q2.88-3.48,2.89-9.49,0-5.62-2.66-9A8.53,8.53,0,0,0,141.6,156.77Z"/><path class="cls-1" d="M196.51,151V172.5a23.67,23.67,0,0,1-.85,7.16q-2.86,8.57-14.62,8.56-6.34,0-9.95-2.32a11.31,11.31,0,0,1-5-6.91,26.3,26.3,0,0,1-.65-6.6V151h7.92v21.89q0,4.16,1.21,6c1.24,1.84,3.44,2.76,6.62,2.76,3,0,5-.86,6.17-2.6q1.23-1.87,1.23-6.11V151Z"/><path class="cls-1" d="M204.32,151H221.9q5.21,0,8,1.65a9.33,9.33,0,0,1,4.74,8.64,9.45,9.45,0,0,1-2.52,6.78,8.4,8.4,0,0,1-3.25,2.11,6.12,6.12,0,0,1,3.76,2.68,10.5,10.5,0,0,1,1.42,4.26c.09.51.26,2.21.52,5.08q.33,3.78,1.08,4.71l.33.42H227.7a6.58,6.58,0,0,1-.54-1.63q-.18-.83-.54-5.85c-.24-3-1.1-5-2.56-5.88a9,9,0,0,0-4.69-.93h-7.14v14.29h-7.91Zm7.91,6.24v10h7.55c2.45,0,4.16-.34,5.16-1a4.52,4.52,0,0,0,1.88-4,4.34,4.34,0,0,0-2.55-4.36,10.63,10.63,0,0,0-4.12-.62Z"/><path class="cls-1" d="M251,151v36.33H243V151Z"/><path class="cls-1" d="M286,151v6.73h-11v29.6H267v-29.6H256V151Z"/><path class="cls-1" d="M309.21,151,323,187.35h-8.32l-2.89-8.15H298.28l-2.94,8.15h-8.17L301,151Zm.65,22.45-2.35-6.55a76,76,0,0,1-2.42-7.89c-.6,2.15-1.46,4.78-2.55,7.89l-2.35,6.55Z"/><path class="cls-1" d="M358.32,151v36.33h-8L339.5,169.82c-1.68-2.79-2.62-4.34-2.81-4.67-.57-1-1.16-2.16-1.78-3.48.23,2.73.34,6.14.34,10.21v15.47h-7.63V151h8.09l10.55,17.15q3.24,5.28,4.76,8.37-.33-5.64-.33-10.38V151Z"/><path class="cls-1" d="M374.69,151v36.33h-7.91V151Z"/><path class="cls-1" d="M413.44,151,399.9,173.35v14H392V173.24L378.43,151h9.05l5.67,9.67a53.93,53.93,0,0,1,2.89,6,55.69,55.69,0,0,1,3-6.29l5.49-9.34Z"/><path class="cls-1" d="M435.35,151l13.79,36.4h-8.33l-2.88-8.15H424.42l-2.94,8.15h-8.17L427.15,151ZM436,173.4l-2.34-6.55a76.28,76.28,0,0,1-2.43-7.89q-.9,3.22-2.55,7.89l-2.34,6.55Z"/><path class="cls-1" d="M488.68,151v6.73h-11v29.6h-7.91v-29.6h-11V151Z"/><path class="cls-1" d="M522.89,151,510.8,187.35h-9L489.9,151h8.3l4.74,14.67q1,3.19,2.42,9c.4,1.59.74,3.27,1,5.06.31-1.76.69-3.5,1.14-5.24q1.59-6.32,2.4-8.79L514.64,151Z"/><path class="cls-1" d="M514,1.11H127.4a12,12,0,0,0-12,12V124.42a12,12,0,0,0,12,12H514a12,12,0,0,0,12-12V13.11A12,12,0,0,0,514,1.11ZM293,25.17h12.76V37.93H293Zm-17.62,0h12.76V37.93H275.39Zm-38.22,0h12.76V37.93H237.17Zm-62.4,0h12.76V37.93H174.77Zm-18.22,0H169.3V37.93H156.55Zm50,89.62H193.79V102h12.76Zm18.23,0H212V102h12.76ZM250,95.65H175.93v-33q-13.68,6.93-19.63,25.15l-1.64,7.84H141.9a53.92,53.92,0,0,1,14.71-35.73,40.19,40.19,0,0,1,13.76-9.53,45.23,45.23,0,0,1,18.56-3.59V84.11h21.51V47h12.39V84.11H237.6V47H250Zm72.67,19.14H309.9V102h12.76Zm18.22,0H328.12V102h12.76Zm.79-30.68V95.65H257.4V22.74h12.4V84.11h23V47h12.39V84.11h24.06V47h12.39Zm6.14,29.71h-1.64v-12.4q10-.06,10-13.91V47h12.09V87.69c0,.81.07,1.6.07,2.37Q368.29,113.82,347.81,113.82ZM486.34,95.65H459.42q-4.62,11.55-20.05,11.54H425.58V95.65H415q0,8-3.34,12.64-5.12,5.58-14.58,5.59h-20V101.54h20.59q5.65-.48,4.92-5.89-24.6,2.43-26-18.11v-14Q378.06,48.44,393.14,47H415V84.11h10.57V68q.68-20.42,22.91-21h12.82V84.11h12.45V22.74h12.58Zm19.5,1.23H493.45V22.74h12.39Z"/><path class="cls-1" d="M388.88,66.3v9.91q-.24,6.81,6.14,7.9h7.23V59h-7.66Q389.07,59.86,388.88,66.3Z"/><path class="cls-1" d="M438.64,64.24V94.86H443q6-.24,5.71-5.1V59.44h-4.19C440.87,59.64,438.93,61.24,438.64,64.24Z"/><path class="cls-1" d="M95.23,0H12A12,12,0,0,0,0,12V123.32a12,12,0,0,0,12,12H95.23a12,12,0,0,0,12-12V12A12,12,0,0,0,95.23,0ZM66.38,113.75H49.5V36L29,44.67l-2.71-14L53.15,20.4H66.38Z"/></g></g></svg>