<svg xmlns="http://www.w3.org/2000/svg" viewBox="0 0 500 333.2"><defs><style>.cls-1{fill:#fff;}</style></defs><g id="Layer_2" data-name="Layer 2"><g id="Layer_1-2" data-name="Layer 1"><path class="cls-1" d="M396.06,154q4-30.28-8.95-47.47-1.29,7-3.08,17.11l4.66.36Q389,145.57,396.06,154Z"/><path class="cls-1" d="M492.25,159.42a62.17,62.17,0,0,1-9.3-16.11,121.74,121.74,0,0,1-6-20.69,200.85,200.85,0,0,1-3.4-23.12q-1-11.5-1.22-24.31t.22-23.31q.42-10.49,1.29-21L491.5,35q-1.65,61.42,1.29,89.5,2,19.41,7.21,33.59V11.45A11.48,11.48,0,0,0,488.55,0H11.45A11.48,11.48,0,0,0,0,11.45v45.9q14.29-12.87,36.78-7.29L40,66a41.29,41.29,0,0,0-17.4-2.93A45.33,45.33,0,0,0,7.78,66.24,33,33,0,0,0,0,70.71v34.45q1.92-5.1,5.06-7.2l8.67-1.65-11-5.37a40.43,40.43,0,0,1,18-12.53A43.88,43.88,0,0,1,44.66,94.84Q53.6,107,54.54,124.09a69.58,69.58,0,0,1-6.73,33.36,55.44,55.44,0,0,1-28,4.8q-3.36-.44-7.52-4.33a46.68,46.68,0,0,1-7.73-9.77A48.73,48.73,0,0,1,0,138.1v50.78Q10,190.5,18.52,191a140,140,0,0,0,20.09-.07,48.51,48.51,0,0,0,15.57-3.87,64.73,64.73,0,0,0,11.74-6.55,42.84,42.84,0,0,0,9.24-9.7,101.16,101.16,0,0,0,7.37-11.71q2.86-5.44,6.8-14.1,11.82-26.07,19.19-37.95a39.92,39.92,0,0,1,21.2,3.15l-7.09,14.46q1.14,7.74,5.47,12t9.28,4.12v.15c2.19.09,5.68.19,10.45.28q8.8-23.26,22.19-33.36l-6.22-.5q-12.31-31.87-12.61-72.82,13.47,3.79,21.13,5.3a147.39,147.39,0,0,0,9.3,59.71,67.68,67.68,0,0,1,20.48-5.3,49.07,49.07,0,0,1,18,1.29,28.17,28.17,0,0,1,12.71,7.34A18.54,18.54,0,0,1,238.19,115q.78,14.46-6.09,21.4a20.5,20.5,0,0,0,13.39,4.51v-.07h.43q20.63.79,56.28-25.56-19.56,1.86-29.79-29-1.79,25.14,2.36,37l-20.9-1.86a208,208,0,0,1,.21-46,111.36,111.36,0,0,1,35.59-.93Q298,109,314.08,107.26a56.93,56.93,0,0,1,16.33-5.44l16.25,11.82a80,80,0,0,0-27,13.53q14.38,13.81,31.86,13.67h1.07v0a9.49,9.49,0,0,0,5.77-2.83,21.81,21.81,0,0,0,4.83-7.16,64.91,64.91,0,0,0,3.33-10.31,111,111,0,0,0,2.18-11.28c.48-3.5.88-7.22,1.22-11.13a83.67,83.67,0,0,1,34-1.07q3.72,3.29,7.37,18.9t7.16,20.33a11.19,11.19,0,0,0,8.59,4.55v0h.29a31.12,31.12,0,0,0,7-.61,8.78,8.78,0,0,0,4.44-2.68,11.58,11.58,0,0,0,2.61-6.05,59.13,59.13,0,0,0,.54-10.63L435.3,33.16l19.54-2.08q7.82,93.8,4.23,107a36.61,36.61,0,0,1-5,10.92,25.27,25.27,0,0,1-7.41,7.2,31.09,31.09,0,0,1-8.88,3.72,35.75,35.75,0,0,1-9.92.93h-1.43A19.91,19.91,0,0,1,413,156.67l-2,7.3q-13.09,3.36-22.19,3.37-9.45-3.51-15.18-20.34-6,12.6-21,13.82h-.79q-31.67-.88-47.54-22.77-19.54,13.53-31.11,18.15t-26.81,4.62h-.43q-14,.57-26.35-11.1a61.94,61.94,0,0,1-12.85,6.09,78.64,78.64,0,0,1-14.57,3.43q-7.67,1.08-14,1.4t-14.64.32a32.6,32.6,0,0,0-.64,10.38q-10.11.93-19.91,2.15A51.69,51.69,0,0,1,144,161l-5-.14h-2.58v0q-16.89-.45-25-14.72-4.67,9.38-9,16.79a126.07,126.07,0,0,1-9,13.39,103.27,103.27,0,0,1-9,10.31,49.14,49.14,0,0,1-9.52,7.34,54.12,54.12,0,0,1-10.17,4.69,44.47,44.47,0,0,1-11.28,2.07A77.83,77.83,0,0,1,41,200.45,114.12,114.12,0,0,1,26.79,198q-7.91-1.83-15.93-4.3-5-1.54-10.86-3.55v46.92a11.49,11.49,0,0,0,11.45,11.45h477.1A11.49,11.49,0,0,0,500,237.09V166.72A37.34,37.34,0,0,1,492.25,159.42ZM207.76,77q-9.31-3.87-10-13.75,4.88-4.36,14.61-6.8.72,7.95,9,14.32Z"/><path class="cls-1" d="M30.19,150.08q3.51-4,4.8-20.19t-11.88-27q-11.53,15.6-3,35.08A26,26,0,0,0,30.19,150.08Z"/><path class="cls-1" d="M216.56,123.62q2.66-7.05-.71-11.81t-11.39-3.4q-24.4,4.23-35.87,33.72,26.78-.28,38.09-7.09A22.4,22.4,0,0,0,216.56,123.62Z"/><path class="cls-1" d="M58.25,324.3a5,5,0,0,0-1.52-1,4.74,4.74,0,0,0-1.86-.36,4.76,4.76,0,1,0,0,9.51,4.75,4.75,0,0,0,1.86-.37,5,5,0,0,0,1.52-1,5.18,5.18,0,0,0,1-1.51,4.74,4.74,0,0,0,0-3.72A5.18,5.18,0,0,0,58.25,324.3Z"/><path class="cls-1" d="M61.58,307a2.77,2.77,0,0,1-.83,2,2.7,2.7,0,0,1-2,.83H46.13a17.47,17.47,0,0,0,.23-2.84v-7.56a16.49,16.49,0,0,0-1.31-6.53,17.86,17.86,0,0,0-3.54-5.36A16.31,16.31,0,0,0,36.27,284a16,16,0,0,0-12.62-.06,17.12,17.12,0,0,0-5.15,3.45,17.5,17.5,0,0,0-3.59,5.05,16.21,16.21,0,0,0-1.55,6.08,16.38,16.38,0,0,0-5.69,1.64,12.11,12.11,0,0,0-3.84,3.1,11.94,11.94,0,0,0-2.17,4.26,18.17,18.17,0,0,0-.69,5v19.83h9.41V312.52a5.32,5.32,0,0,1,.66-2.65,4,4,0,0,1,2.32-1.74,16,16,0,0,0,1.57,6.09,17.8,17.8,0,0,0,3.59,5,16.83,16.83,0,0,0,5.14,3.41,15.78,15.78,0,0,0,6.22,1.25,16.18,16.18,0,0,0,6.25-1.2,15.47,15.47,0,0,0,5.1-3.44H58.78a11.75,11.75,0,0,0,4.72-1,12.43,12.43,0,0,0,3.87-2.62A12.69,12.69,0,0,0,70,311.8,11.79,11.79,0,0,0,71,307V282.62h-9.4ZM37,307a7.65,7.65,0,0,1-.56,2.91,7.4,7.4,0,0,1-1.51,2.36,7.32,7.32,0,0,1-2.25,1.58,6.46,6.46,0,0,1-2.76.59,6.62,6.62,0,0,1-2.79-.59,7.08,7.08,0,0,1-2.28-1.62,7.74,7.74,0,0,1-1.53-2.36,7.27,7.27,0,0,1-.56-2.84v-7.59a7.35,7.35,0,0,1,.56-2.82,7.71,7.71,0,0,1,1.53-2.38,7.08,7.08,0,0,1,2.28-1.62,6.78,6.78,0,0,1,2.79-.59,6.61,6.61,0,0,1,2.76.59,7.32,7.32,0,0,1,2.25,1.58A7.6,7.6,0,0,1,37,299.47Z"/><path class="cls-1" d="M69.6,324.3a4.88,4.88,0,0,0-5.24-1,4.91,4.91,0,0,0-1.51,1,4.79,4.79,0,0,0,0,6.74,4.91,4.91,0,0,0,1.51,1,4.77,4.77,0,0,0,5.24-1,4.79,4.79,0,0,0,0-6.74Z"/><path class="cls-1" d="M154.3,307.06a2.68,2.68,0,0,1-.83,2,2.81,2.81,0,0,1-2.05.82h-8.29V299.76a20.23,20.23,0,0,0-.78-5.88,15,15,0,0,0-2.12-4.44,13,13,0,0,0-3.2-3.17,18,18,0,0,0-4-2.08,23.36,23.36,0,0,0-4.57-1.16,35.5,35.5,0,0,0-4.83-.41L132,275.1l-6.78-6.6-20.54,19,4.17,7.59c.59-.27,1.4-.58,2.43-.94s2.19-.69,3.47-1,2.62-.57,4-.8a26.67,26.67,0,0,1,4.08-.33,22.24,22.24,0,0,1,3.92.35,10.84,10.84,0,0,1,3.47,1.24,7,7,0,0,1,2.47,2.38,6.91,6.91,0,0,1,.94,3.77v10.11h-39V282.62H85.25v32.19a7.23,7.23,0,0,1-1.07,3.31,11.47,11.47,0,0,1-1.11,1.53,12.89,12.89,0,0,1-1.66,1.63A18.68,18.68,0,0,1,79,322.93a26.26,26.26,0,0,1-3.19,1.61l3.61,8.66a33.87,33.87,0,0,0,6.31-3.35A25.73,25.73,0,0,0,90,326.18a17.52,17.52,0,0,0,2.6-3.63A18.62,18.62,0,0,0,94,319.27h57.43a12,12,0,0,0,4.78-1,12.45,12.45,0,0,0,3.9-2.62,12.18,12.18,0,0,0,2.64-3.89,11.85,11.85,0,0,0,1-4.74V269.5h-9.4Z"/><rect class="cls-1" x="171.44" y="269.5" width="9.4" height="49.77"/><path class="cls-1" d="M216,277.66a5,5,0,0,0,1.52,1,4.75,4.75,0,0,0,1.86.37,4.8,4.8,0,0,0,4.4-2.9,4.63,4.63,0,0,0,0-3.72,4.92,4.92,0,0,0-2.54-2.54,4.49,4.49,0,0,0-1.86-.39,4.43,4.43,0,0,0-1.86.39,5,5,0,0,0-1.52,1,4.76,4.76,0,0,0-1,1.51,4.86,4.86,0,0,0,0,3.72A4.76,4.76,0,0,0,216,277.66Z"/><path class="cls-1" d="M228.69,315.54a6.4,6.4,0,0,1-.81,3.25,7.54,7.54,0,0,1-2.12,2.34,9.46,9.46,0,0,1-3,1.4,13.13,13.13,0,0,1-6.89,0,9.41,9.41,0,0,1-3-1.4,7.27,7.27,0,0,1-2.11-2.34,6.6,6.6,0,0,1-.79-3.25V288.82h-9.44v26.72a16.17,16.17,0,0,0,1.61,7.38,15.7,15.7,0,0,0,4.24,5.27,18.17,18.17,0,0,0,6,3.15,23.26,23.26,0,0,0,13.82,0,18.27,18.27,0,0,0,6-3.15,15.88,15.88,0,0,0,4.26-5.27,16,16,0,0,0,1.62-7.38V282.62h-9.44Z"/><rect class="cls-1" x="245.87" y="269.5" width="9.4" height="49.77"/><path class="cls-1" d="M308.41,277.66a4.91,4.91,0,0,0,1.51,1,4.77,4.77,0,0,0,5.24-1,4.79,4.79,0,0,0,0-6.74,4.82,4.82,0,0,0-1.51-1,4.65,4.65,0,0,0-3.73,0,4.94,4.94,0,0,0-1.51,1,5,5,0,0,0-1,1.51,4.63,4.63,0,0,0,0,3.72A5,5,0,0,0,308.41,277.66Z"/><path class="cls-1" d="M297.06,277.66a4.81,4.81,0,0,0,5.23,1,4.68,4.68,0,0,0,1.51-1,4.76,4.76,0,0,0,0-6.74,4.71,4.71,0,0,0-1.51-1,4.43,4.43,0,0,0-1.86-.39,4.49,4.49,0,0,0-1.86.39,4.92,4.92,0,0,0-2.54,2.54,4.63,4.63,0,0,0,0,3.72A4.82,4.82,0,0,0,297.06,277.66Z"/><path class="cls-1" d="M333.76,307.06a2.68,2.68,0,0,1-.83,2,2.79,2.79,0,0,1-2.05.82h-8.29V299a15.72,15.72,0,0,0-1.31-6.37,16.42,16.42,0,0,0-3.56-5.2,16.68,16.68,0,0,0-5.25-3.49,16.66,16.66,0,0,0-18.08,3.45,16.16,16.16,0,0,0-3.54,5.24,16.51,16.51,0,0,0-1.29,6.56v10.73H279V282.62h-9.44v32.19a7.23,7.23,0,0,1-1.07,3.31,11.47,11.47,0,0,1-1.11,1.53,12.89,12.89,0,0,1-1.66,1.63,18.68,18.68,0,0,1-2.37,1.65,27,27,0,0,1-3.19,1.61l3.61,8.66a33.45,33.45,0,0,0,6.3-3.35,25.43,25.43,0,0,0,4.26-3.67,17.52,17.52,0,0,0,2.6-3.63,18.62,18.62,0,0,0,1.37-3.28h52.6a12,12,0,0,0,4.78-1,12.45,12.45,0,0,0,3.9-2.62,12.18,12.18,0,0,0,2.64-3.89,11.85,11.85,0,0,0,1-4.74V269.5h-9.4Zm-20.61,2.81H298.92V299.14a7,7,0,0,1,2.08-5.05,7.16,7.16,0,0,1,2.27-1.51A6.93,6.93,0,0,1,306,292a7.07,7.07,0,0,1,2.76.54,7.22,7.22,0,0,1,2.27,1.47,7,7,0,0,1,1.53,2.21,6.7,6.7,0,0,1,.55,2.71Z"/><rect class="cls-1" x="350.9" y="269.5" width="9.4" height="49.77"/><path class="cls-1" d="M398.84,277.66a4.91,4.91,0,0,0,1.51,1,4.84,4.84,0,0,0,1.87.37,4.69,4.69,0,0,0,1.84-.37,4.94,4.94,0,0,0,1.49-1,4.76,4.76,0,0,0,0-6.74,5,5,0,0,0-1.49-1,4.37,4.37,0,0,0-1.84-.39,4.51,4.51,0,0,0-1.87.39,4.94,4.94,0,0,0-1.51,1,5,5,0,0,0-1,1.51,4.63,4.63,0,0,0,0,3.72A5,5,0,0,0,398.84,277.66Z"/><path class="cls-1" d="M387.49,277.66a4.77,4.77,0,0,0,6.75-6.74,4.86,4.86,0,0,0-1.52-1,4.43,4.43,0,0,0-1.86-.39,4.49,4.49,0,0,0-1.86.39,4.82,4.82,0,0,0-1.51,1,4.79,4.79,0,0,0,0,6.74Z"/><path class="cls-1" d="M408.23,287.6A17.14,17.14,0,0,0,403,284a16,16,0,0,0-12.84,0,16.57,16.57,0,0,0-5.24,3.61,17.19,17.19,0,0,0-3.54,5.37,16.66,16.66,0,0,0-1.31,6.58v7.55a13,13,0,0,0,.94,5,11.63,11.63,0,0,0,2.58,3.85,11.44,11.44,0,0,0,3.88,2.47,13.18,13.18,0,0,0,4.84.87h8.56a12.84,12.84,0,0,0,4.77-.89,11.71,11.71,0,0,0,3.91-2.51,11.59,11.59,0,0,0,2.63-3.88,12.83,12.83,0,0,0,1-5v-7.59a15.94,15.94,0,0,0-1.31-6.43A17.26,17.26,0,0,0,408.23,287.6ZM403.65,307a2.77,2.77,0,0,1-.82,2.09,2.86,2.86,0,0,1-2,.79h-8.56a2.8,2.8,0,0,1-2-.76,2.61,2.61,0,0,1-.81-2v-7.55a7.53,7.53,0,0,1,2.07-5.26,7,7,0,0,1,2.25-1.6,6.75,6.75,0,0,1,5.52,0,7.53,7.53,0,0,1,2.27,1.58,7.37,7.37,0,0,1,1.53,2.33,7.17,7.17,0,0,1,.55,2.8Z"/><path class="cls-1" d="M444.78,277.66a4.77,4.77,0,1,0,5.23-7.77,4.63,4.63,0,0,0-3.72,0,4.77,4.77,0,0,0-1.51,7.77Z"/><path class="cls-1" d="M497.73,292.58a16.34,16.34,0,0,0-3.53-5.2,16.61,16.61,0,0,0-5.26-3.49,16.66,16.66,0,0,0-18.08,3.45,16.16,16.16,0,0,0-3.54,5.24,16.51,16.51,0,0,0-1.29,6.56v10.73H455.41V282.62H446v27.25H433.15a2.73,2.73,0,0,1-2-.82,2.64,2.64,0,0,1-.83-2V269.5h-9.44v37.56a11.7,11.7,0,0,0,1,4.74,12.66,12.66,0,0,0,2.63,3.89,12.4,12.4,0,0,0,3.89,2.62,12,12,0,0,0,4.78,1h53.6a12.8,12.8,0,0,0,4.77-.89,12,12,0,0,0,3.91-2.49,11.36,11.36,0,0,0,2.64-3.89,12.88,12.88,0,0,0,1-5.05v-8A15.88,15.88,0,0,0,497.73,292.58ZM489.62,307a2.79,2.79,0,0,1-.82,2.12,2.87,2.87,0,0,1-2.05.8H475.39V299.14a7.06,7.06,0,0,1,4.36-6.56,6.88,6.88,0,0,1,2.76-.56,7.21,7.21,0,0,1,2.78.54,7.09,7.09,0,0,1,2.29,1.47,7,7,0,0,1,1.53,2.21,6.21,6.21,0,0,1,.51,2.71Z"/><path class="cls-1" d="M484.89,277.66a4.77,4.77,0,1,0,5.23-7.77,4.63,4.63,0,0,0-3.72,0,4.92,4.92,0,0,0-2.54,2.54,4.63,4.63,0,0,0,0,3.72A4.82,4.82,0,0,0,484.89,277.66Z"/><path class="cls-1" d="M473.53,277.66a4.91,4.91,0,0,0,1.51,1,4.89,4.89,0,0,0,3.73,0,4.91,4.91,0,0,0,1.51-1,4.79,4.79,0,0,0,0-6.74,4.94,4.94,0,0,0-1.51-1,4.65,4.65,0,0,0-3.73,0,4.94,4.94,0,0,0-1.51,1,5,5,0,0,0-1,1.51,4.63,4.63,0,0,0,0,3.72A5,5,0,0,0,473.53,277.66Z"/></g></g></svg>