<svg xmlns="http://www.w3.org/2000/svg" viewBox="0 0 500 455.49"><defs><style>.cls-1{fill:#fff;}</style></defs><g id="Layer_2" data-name="Layer 2"><g id="Layer_1-2" data-name="Layer 1"><path class="cls-1" d="M181.05,98.45H204v6.12c0,23.65.12,47.3-.1,71,0,4.6,1.34,6.18,5.85,5.72,3.22-.33,6.5-.06,10.41-.06,0-14.92,4.67-27.63,16.6-36.86a44.26,44.26,0,0,1,28.4-9.47A43.79,43.79,0,0,1,296.9,148.4c8.71,8.85,12,20,11.89,31.91a7,7,0,0,0,1.61.67c13.24.05,13.23.05,13.24-13.27,0-21.1.11-42.21,0-63.31,0-3.75.91-5.23,4.86-5,5.79.3,11.6.08,17.82.08V203.34c-1.81.12-3.54.32-5.28.35-12.72.24-25.44.33-38.15.78a9.22,9.22,0,0,0-6,2.76c-15.16,17.39-48.87,17.34-64,.63a12.2,12.2,0,0,0-8-3.36c-13.28-.35-26.57-.22-39.86-.12-3.05,0-4.63-.56-4.61-4.17.12-32.75.07-65.49.11-98.23A26,26,0,0,1,181.05,98.45Zm83.49,97.45c12.8,0,18.61-5.6,18.71-18.1.1-12.11-6.21-18.68-18.38-18.6-13.3.09-19.26,5.89-19.28,18.72C245.56,190.05,251.79,195.88,264.54,195.9Z"/><path class="cls-1" d="M79.88,135.43c0,13.35.28,25.89-.13,38.4-.19,5.57,1.46,7.15,7,7,12.79-.38,12.79-.08,12.8-12.91,0-9.28.14-18.56,0-27.83-.07-3.52,1-4.87,4.66-4.75,6.86.22,13.73.06,21.31.06V156c0,6.73.1,13.46,0,20.19-.06,3.15.88,4.69,4.34,4.54,4.86-.22,9.73-.06,15.19-.06V135.28c8.14,0,15.71-.11,23.26.14.92,0,2.55,2,2.56,3.09.15,20.56.17,41.12-.08,61.67,0,1.18-2.56,3.28-4,3.35-7.63.34-15.29.18-22.93.18q-56.79,0-113.58-.05c-8.54,0-16.06-2.35-22.22-8.59-9.77-9.87-8.92-21.92-6.24-33.76,3.26-14.41,16-24.47,31.67-25.63,6.08-.45,12.27.74,18.42.88,2.34.05,4.7-1,7.06-1.08C65.63,135.32,72.34,135.43,79.88,135.43ZM41.36,180.51v.37c3.64,0,7.29.08,10.92,0,1.19-.05,2.75-.28,3.47-1.05,2.33-2.49.16-15.46-2.75-17.65-6.77-5.09-19.79-5.53-26.8-.6a15.78,15.78,0,0,0-4.89,5.66c-3.48,7-.74,12.27,7,13.21C32.59,180.94,37,180.51,41.36,180.51Z"/><path class="cls-1" d="M442.77,99.44c7.18,0,13.36,0,19.53,0,2.85,0,3.68,1.27,3.67,4q-.11,48,0,96.05c0,4.18-2.39,4.17-5.3,4.17-22.75,0-45.5.15-68.25-.09-4.92-.05-7.11,1.11-8.61,6.27-6.77,23.22-19.19,43-37.94,58.57-.84.7-1.68,1.4-2.54,2.06a10,10,0,0,1-1.61.66l-17.23-20.43,8-7.42c12.14-11.35,20-25.26,24.49-41.14a30.61,30.61,0,0,0,1.09-8c.09-17.64,0-35.29,0-52.93v-5.65h26.11c.11,2.07.3,4,.3,5.89,0,11.46.15,22.93-.06,34.38-.07,3.89,1.32,4.94,5.06,5,13.65.11,13.67.23,13.69-13.23,0-9.1.17-18.2-.11-27.28-.13-4,1.36-5.1,5-4.93a124.31,124.31,0,0,0,13.65,0c4-.26,4.92,1.46,4.87,5.11-.18,11.46.1,22.93-.17,34.38-.1,4.41,1,6.15,5.75,6,12.32-.48,10.48,1.41,10.54-10.35.11-21.1,0-42.2,0-63.31Z"/><path class="cls-1" d="M153.86,292l17-14.05c5,3.53,11.42,8.58,18.34,12.73,49.7,29.78,99.57,29.69,149.43.33,18.54-10.91,33-26,44.2-44.18,1.95-3.15,3.7-3.81,6.92-1.77,4.29,2.72,8.78,5.15,13.32,7.43,3.36,1.69,3.94,3.35,1.87,6.76C393.54,278,378.22,292.9,360.68,306,342,319.83,321,328,299,334c-6.25,1.69-12.93,1.92-19.45,2.4-35.36,2.62-68.86-3.42-99.46-22.12-7.25-4.43-14.38-9.1-21.18-14.17C156.72,298.47,155.79,295.22,153.86,292Z"/><path class="cls-1" d="M265.08,41.47c-14.69,2.26-29.67,3.39-44,7-20.89,5.31-38.62,17-54.24,31.8-.89.84-1.88,1.58-2.78,2.41-8.12,7.46-8.15,7.51-16.5.57-6.69-5.56-13.21-11.33-19.93-16.85-2.81-2.3-3.23-4-.61-7,13.85-15.94,30.67-27.86,49.19-37.72C201.67,8.14,228.58.25,257.55,0a36.61,36.61,0,0,1,5.75.85l0-.09c.12,4.25.23,8.51.34,12.74-.13,7.72-.37,15.46-.31,23.19C263.31,38.29,264.46,39.88,265.08,41.47Z"/><path class="cls-1" d="M263.32,299.12c-16.59.23-32.21-3.92-47.24-10a121.44,121.44,0,0,1-50.87-38.65c-1.53-2-2.66-4.25-4.14-6.27-2-2.76-.94-4.88,1.46-6.39,5.33-3.36,10.71-6.65,16.28-9.56,1-.52,3.61.45,4.48,1.54,10.27,12.76,21.32,24.71,36.52,31.6,19.38,8.79,39.35,12,60.83,7.94a133,133,0,0,0,30.09-9.81c5.06-2.26,6.54,3.06,8.48,5.61,2.85,3.75,4.35,8.5,6.57,12.75,1.37,2.64,1,4.6-1.79,5.76-5,2.1-9.9,4.34-15,6a199.85,199.85,0,0,1-22.5,6.52C278.88,297.76,271.05,298.19,263.32,299.12Z"/><path class="cls-1" d="M265.08,41.47c-.62-1.59-1.77-3.18-1.79-4.78-.06-7.73.18-15.47.31-23.19.28,3.68,2.79,3.86,5.69,4,21.86.73,43,5.09,62.9,14.17A170.53,170.53,0,0,1,371.8,57.07a163,163,0,0,1,33.66,38.79c1.56,2.53,2.79,5.26,4.41,8.34-6.47,3.3-12.6,6.29-18.61,9.53-3,1.64-4.48.55-6-2.13C369.19,83.62,346.1,63.32,316,52c-13.09-4.93-27.43-6.56-41.24-9.52A87.21,87.21,0,0,0,265.08,41.47Z"/><path class="cls-1" d="M477.47,99.76h22c.13,1.88.38,3.64.38,5.4,0,30.91-.07,61.82.11,92.73,0,4.54-1.27,6.21-5.84,5.86a121.61,121.61,0,0,0-13.09,0c-2.89.1-4.38-.76-4.37-4q.12-49.09.12-98.19A7.15,7.15,0,0,1,477.47,99.76Z"/><path class="cls-1" d="M303.78,91c-8.3-2.07-16.07-4.56-24-5.88a97.07,97.07,0,0,0-50.33,4.62c-3.87,1.43-6.12,1.09-7.8-2.76-2.38-5.45-5.13-10.76-7.3-16.29-.43-1.12.65-3.85,1.72-4.36,4.81-2.26,9.73-4.65,14.87-5.78,20.6-4.53,41.34-5.56,62-.46A163.1,163.1,0,0,1,310.66,66c2.64,1,3.15,3.15,1.7,5.72-2.19,3.85-4.44,7.68-6.34,11.67C305,85.64,304.59,88.17,303.78,91Z"/><path class="cls-1" d="M161,268.15l-18.72,16.94c-5.89-7.72-11.42-14.86-16.76-22.14-.43-.58.06-2.67.74-3.11,6.31-4.07,12.75-7.93,19.18-11.87C150.74,254.82,155.69,261.25,161,268.15Z"/><path class="cls-1" d="M117.06,249.2c-3.4-8.71-6.65-16.71-9.5-24.85-.34-1,1.3-3.59,2.5-4,5.49-1.83,11.18-3.07,16.75-4.65,3-.86,4.5-.15,5.52,3.12,1.94,6.26,4.55,12.31,7.22,19.35Z"/><path class="cls-1" d="M422.47,219.56c-2.55,7.05-4.7,13.55-7.36,19.83-.45,1.06-3.43,2.06-4.7,1.59-6.43-2.38-12.69-5.25-19.5-8.16,2.14-6,4-11.64,6.24-17.13.34-.85,2.35-1.72,3.35-1.5C407.55,215.74,414.54,217.58,422.47,219.56Z"/><path class="cls-1" d="M145.43,122.31V99.54c7.85,0,15.43-.09,23,.12.87,0,2.37,1.73,2.42,2.71.23,5.63.26,11.27,0,16.9-.05,1-1.77,2.87-2.76,2.9C160.66,122.42,153.25,122.31,145.43,122.31Z"/><path class="cls-1" d="M79.09,125.21c-7.17,0-13.86.18-20.52-.17-1.17-.06-3.1-2.22-3.19-3.52a111.74,111.74,0,0,1,0-15.74c.09-1.3,2-3.47,3.17-3.53,6.66-.34,13.34-.16,20.51-.16Z"/><path class="cls-1" d="M24.19,125.26V102.19c7.27,0,14.46-.1,21.65.14.77,0,2.08,1.92,2.12,3,.23,5.44.31,10.91,0,16.34-.07,1.25-1.84,3.39-2.91,3.44C38.21,125.41,31.35,125.26,24.19,125.26Z"/><polygon class="cls-1" points="263.26 0.76 263.3 0.85 263.53 0.79 263.26 0.76"/><path class="cls-1" d="M133.53,416.77V438h5.31v7.32H111.42a12.61,12.61,0,0,1-5.08-1,13.14,13.14,0,0,1-6.94-6.92,12.51,12.51,0,0,1-1-5.06V421.59h7.34v10.67a5.58,5.58,0,0,0,.45,2.22,5.68,5.68,0,0,0,1.21,1.82,5.75,5.75,0,0,0,1.83,1.22,5.53,5.53,0,0,0,2.22.44h14.77V416.77Zm-21.28,35a3.62,3.62,0,0,1,1.08-2.59,3.51,3.51,0,0,1,1.17-.79,3.74,3.74,0,0,1,4.08.79,3.94,3.94,0,0,1,.8,1.16,3.39,3.39,0,0,1,.3,1.43,3.52,3.52,0,0,1-.3,1.45,3.78,3.78,0,0,1-2,2,3.65,3.65,0,0,1-2.9,0,3.86,3.86,0,0,1-1.17-.8,3.72,3.72,0,0,1-1.08-2.63Z"/><path class="cls-1" d="M173,445.28H136.43V438h9.5a20.5,20.5,0,0,1-1.53-2.41,21.93,21.93,0,0,1-1.23-2.72v0a17.76,17.76,0,0,1-.76-2.73,14.78,14.78,0,0,1-.27-2.81,12.71,12.71,0,0,1,.64-4.07,8.2,8.2,0,0,1,2.16-3.37,10.27,10.27,0,0,1,3.94-2.28,18.65,18.65,0,0,1,6-.83,19,19,0,0,1,6.08.84,10.67,10.67,0,0,1,4,2.31,8.45,8.45,0,0,1,2.15,3.4,12.93,12.93,0,0,1,.64,4.12,13.62,13.62,0,0,1-.26,2.69,21.29,21.29,0,0,1-.68,2.64,18.63,18.63,0,0,1-1.19,2.77,21.17,21.17,0,0,1-1.51,2.42H173Zm-22.92-14.77a12.6,12.6,0,0,0,1,2.06,20.78,20.78,0,0,0,1.27,1.85,18.36,18.36,0,0,0,1.37,1.61c.47.49.91.91,1.31,1.27.4-.36.83-.79,1.3-1.29a19,19,0,0,0,1.37-1.63,21,21,0,0,0,1.23-1.88,11.86,11.86,0,0,0,1-2.08,9.12,9.12,0,0,0,.57-3,3,3,0,0,0-.29-1.29,2.64,2.64,0,0,0-.93-1,5.24,5.24,0,0,0-1.71-.72,10.67,10.67,0,0,0-2.61-.27,10.91,10.91,0,0,0-2.56.26,5.28,5.28,0,0,0-1.7.69,2.42,2.42,0,0,0-.91,1,2.85,2.85,0,0,0-.28,1.25,9.18,9.18,0,0,0,.16,1.57A8.87,8.87,0,0,0,150.08,430.51Z"/><path class="cls-1" d="M211.09,416.77V438h5.31v7.32H170.59V438h9.67V416.77h7.28V438H192V416.77h7.31V438h4.48V416.77Zm-23.69-6.49a3.72,3.72,0,0,1,1.08-2.62,3.86,3.86,0,0,1,1.17-.8,3.65,3.65,0,0,1,2.9,0,3.86,3.86,0,0,1,1.17.8,3.71,3.71,0,1,1-6.32,2.62Zm4.36-7.17a3.51,3.51,0,0,1,.3-1.44,3.9,3.9,0,0,1,.8-1.18,4,4,0,0,1,1.18-.8,3.52,3.52,0,0,1,1.45-.3,3.39,3.39,0,0,1,1.43.3,3.94,3.94,0,0,1,1.16.8,3.55,3.55,0,0,1,.79,1.18,3.73,3.73,0,0,1-.79,4.07,3.73,3.73,0,0,1-1.16.79,3.54,3.54,0,0,1-1.43.28,3.67,3.67,0,0,1-1.45-.28,3.82,3.82,0,0,1-1.18-.79,4,4,0,0,1-.8-1.18A3.52,3.52,0,0,1,191.76,403.11Zm4.45,7.17a3.51,3.51,0,0,1,.3-1.44,3.85,3.85,0,0,1,.8-1.18,3.9,3.9,0,0,1,1.18-.8,3.61,3.61,0,0,1,2.88,0,3.94,3.94,0,0,1,1.16.8,3.82,3.82,0,0,1,.79,1.18,3.75,3.75,0,0,1,0,2.89,3.82,3.82,0,0,1-.79,1.18,3.73,3.73,0,0,1-1.16.79,3.84,3.84,0,0,1-2.88,0,3.71,3.71,0,0,1-1.18-.79,3.85,3.85,0,0,1-.8-1.18A3.52,3.52,0,0,1,196.21,410.28Z"/><path class="cls-1" d="M227.1,406.56v29.22a9.22,9.22,0,0,1-.75,3.69,9.6,9.6,0,0,1-2,3,9.76,9.76,0,0,1-3,2,9.25,9.25,0,0,1-3.71.75H214V438h3.56a2.19,2.19,0,0,0,1.59-.63,2.07,2.07,0,0,0,.64-1.55V406.56Z"/><path class="cls-1" d="M240.43,406.56v38.72h-7.31V406.56Z"/><path class="cls-1" d="M290.92,416.77v19a9.3,9.3,0,0,1-.75,3.72,9.74,9.74,0,0,1-2,3,9.62,9.62,0,0,1-3,2,9.13,9.13,0,0,1-3.7.75H268.86a12.69,12.69,0,0,1-5.11-1,13.14,13.14,0,0,1-6.94-6.92,12.51,12.51,0,0,1-1-5.06V421.59h7.34v10.67a5.69,5.69,0,0,0,3.49,5.26,5.64,5.64,0,0,0,2.25.44h12.56a2.08,2.08,0,0,0,1.55-.64,2.16,2.16,0,0,0,.63-1.57v-19Zm-25.67-6.49a3.51,3.51,0,0,1,.3-1.44,3.85,3.85,0,0,1,.8-1.18,3.9,3.9,0,0,1,1.18-.8,3.47,3.47,0,0,1,1.44-.3,3.52,3.52,0,0,1,1.45.3,4,4,0,0,1,1.18.8,3.82,3.82,0,0,1,.79,1.18,3.87,3.87,0,0,1,0,2.89,3.66,3.66,0,0,1-2,2A3.67,3.67,0,0,1,269,414a3.63,3.63,0,0,1-1.44-.28,3.71,3.71,0,0,1-1.18-.79,3.85,3.85,0,0,1-.8-1.18A3.52,3.52,0,0,1,265.25,410.28Zm8.83,0a3.51,3.51,0,0,1,.3-1.44,3.78,3.78,0,0,1,2-2,3.52,3.52,0,0,1,1.45-.3,3.43,3.43,0,0,1,1.43.3,3.94,3.94,0,0,1,1.16.8,3.73,3.73,0,0,1,0,5.25,3.73,3.73,0,0,1-1.16.79,3.58,3.58,0,0,1-1.43.28,3.67,3.67,0,0,1-1.45-.28,3.82,3.82,0,0,1-1.18-.79,4,4,0,0,1-.8-1.18A3.52,3.52,0,0,1,274.08,410.28Z"/><path class="cls-1" d="M300.75,448.17h9.18a5.72,5.72,0,0,0,2.93-.74,5,5,0,0,0,2-2.15h-8.46a9.14,9.14,0,0,1-3.68-.75,9.68,9.68,0,0,1-3-2,9.44,9.44,0,0,1-2-3,9.06,9.06,0,0,1-.75-3.67v-5.79a13.14,13.14,0,0,1,1-5.17,13.42,13.42,0,0,1,2.78-4.21,13.19,13.19,0,0,1,4.12-2.86,12.57,12.57,0,0,1,10.08,0,13.54,13.54,0,0,1,4.13,2.89,13.7,13.7,0,0,1,2.78,4.18,12.55,12.55,0,0,1,1,5V438h5.3v7.32h-5.56a12.52,12.52,0,0,1-1.68,4,13.54,13.54,0,0,1-6.62,5.41,12.19,12.19,0,0,1-4.38.79h-9.18ZM315.55,438V429.9a5.71,5.71,0,0,0-.43-2.2,5.38,5.38,0,0,0-1.2-1.85,6,6,0,0,0-1.82-1.27,5.43,5.43,0,0,0-2.22-.47,5.23,5.23,0,0,0-2.2.46,5.6,5.6,0,0,0-1.78,1.26,6.15,6.15,0,0,0-1.2,1.89,6.08,6.08,0,0,0-.45,2.33v5.79a2.07,2.07,0,0,0,.62,1.51,2,2,0,0,0,1.51.61Z"/><path class="cls-1" d="M338.41,416.77v3.61a24.4,24.4,0,0,1,5.47-2.62,18.06,18.06,0,0,1,5.78-1,15.58,15.58,0,0,1,4.72.71,10,10,0,0,1,3.88,2.31,11.13,11.13,0,0,1,2.64,4.13,17.44,17.44,0,0,1,1,6.21v5.74a9,9,0,0,1-.76,3.66,9.72,9.72,0,0,1-2.07,3,9.91,9.91,0,0,1-3,2,9.25,9.25,0,0,1-3.71.75H325.77V438h5.3V416.77Zm11.25,7.34a13.49,13.49,0,0,0-3.89.6,15.71,15.71,0,0,0-3.63,1.59,10.74,10.74,0,0,0-2.68,2.24,3.93,3.93,0,0,0-1,2.54V438H352.3a2.24,2.24,0,0,0,1.58-.61,2,2,0,0,0,.66-1.48v-5.74a8.82,8.82,0,0,0-.39-2.81,5.07,5.07,0,0,0-1.06-1.86,3.87,3.87,0,0,0-1.57-1A5.51,5.51,0,0,0,349.66,424.11Z"/><path class="cls-1" d="M375.13,441.58A3.53,3.53,0,0,1,373,444.9a3.42,3.42,0,0,1-1.43.29,3.36,3.36,0,0,1-1.41-.29,3.63,3.63,0,0,1-1.15-.77,3.68,3.68,0,0,1-.77-1.15,3.47,3.47,0,0,1-.29-1.4,3.6,3.6,0,0,1,.29-1.44A3.64,3.64,0,0,1,369,439a3.44,3.44,0,0,1,1.15-.76,3.51,3.51,0,0,1,1.41-.28,3.58,3.58,0,0,1,1.43.28,3.44,3.44,0,0,1,1.15.76,3.61,3.61,0,0,1,.76,1.14A3.77,3.77,0,0,1,375.13,441.58Z"/><path class="cls-1" d="M388.38,441.58a3.64,3.64,0,0,1-.27,1.4,3.5,3.5,0,0,1-.76,1.15,3.63,3.63,0,0,1-1.15.77,3.42,3.42,0,0,1-1.43.29,3.36,3.36,0,0,1-1.41-.29,3.63,3.63,0,0,1-1.15-.77,3.68,3.68,0,0,1-.77-1.15,3.47,3.47,0,0,1-.29-1.4,3.6,3.6,0,0,1,.29-1.44,3.64,3.64,0,0,1,.77-1.14,3.44,3.44,0,0,1,1.15-.76,3.51,3.51,0,0,1,1.41-.28,3.58,3.58,0,0,1,1.43.28,3.47,3.47,0,0,1,1.91,1.9A3.77,3.77,0,0,1,388.38,441.58Z"/><path class="cls-1" d="M401.63,441.58a3.64,3.64,0,0,1-.27,1.4,3.5,3.5,0,0,1-.76,1.15,3.63,3.63,0,0,1-1.15.77,3.42,3.42,0,0,1-1.43.29,3.36,3.36,0,0,1-1.41-.29,3.48,3.48,0,0,1-1.14-.77,3.55,3.55,0,0,1-.78-1.15,3.47,3.47,0,0,1-.29-1.4,3.6,3.6,0,0,1,.29-1.44,3.5,3.5,0,0,1,.78-1.14,3.31,3.31,0,0,1,1.14-.76A3.51,3.51,0,0,1,398,438a3.58,3.58,0,0,1,1.43.28,3.47,3.47,0,0,1,1.91,1.9A3.77,3.77,0,0,1,401.63,441.58Z"/></g></g></svg>