<svg xmlns="http://www.w3.org/2000/svg" viewBox="0 0 500 681.11"><defs><style>.cls-1{fill:#fff;}</style></defs><g id="Layer_2" data-name="Layer 2"><g id="Layer_1-2" data-name="Layer 1"><path class="cls-1" d="M479.31,367.93c-4.26.73-8.44.45-12.46,1A124.11,124.11,0,0,0,452,372.29c-48.89,13.37-93.71,35-134,65.83-11.63,8.89-23.65,17.06-36.76,23.59-37.76,18.8-78.18,26.45-119.88,28.79-14,.78-28,.62-42,.49h-5.93a5.93,5.93,0,0,0,2.38,2.25,264.5,264.5,0,0,0,99.52,33.26,271.64,271.64,0,0,0,61.59.64c5.61-.57,11.13-1.9,16.79-1.9.26.94-.33,1.68-.66,2.44A502.46,502.46,0,0,1,214.68,654.9c-7.66,9-15.91,17.51-23.93,26.21h125.9c1.31-1.18,2.63-2.35,3.93-3.53,27.5-24.87,53.63-51.06,76.75-80.12a462.62,462.62,0,0,0,59.84-99.09c7.77-17.3,15.75-34.58,20.37-53.1,5.08-20.35,8.22-40.9,5.53-61.95A58.49,58.49,0,0,0,479.31,367.93ZM293.77,525.14l0-.25.22.07Z"/><path class="cls-1" d="M499.69,169.51a54.93,54.93,0,0,0-2.39-6.29A266.49,266.49,0,0,0,412.67,54.57c-1.14-.87-2.18-1.84-3.86-1.81-6.37.09-12.74,0-19.11,0A404.11,404.11,0,0,0,292,64.59c-32.44,8.14-63,20.61-90.46,40a345.34,345.34,0,0,1-34,20.92C116,153.57,61.63,172.29,2.52,175.05a2,2,0,0,0-2.27,2c-.62,3.89.93,6.89,3.85,9.29a30.22,30.22,0,0,0,11.05,5.29c11.51,3.28,23.36,4,35.22,4,26.25.07,52.21-3.15,78-7.7a836,836,0,0,0,118.47-30.26,285.5,285.5,0,0,1,78.49-14.88c37.17-1.57,73.42,4,109.14,13.86,17.35,4.78,34.3,10.87,51.59,15.87a33.68,33.68,0,0,0,10.09,1.75C499.47,174.19,500.61,172.68,499.69,169.51Z"/><path class="cls-1" d="M298.56,424.57a418.48,418.48,0,0,1,95.55-49.11q12.56-4.57,25.38-8.28c8.45-2.45,16.93-5,25.62-6.35s16.6-5.17,25.43-5.17a10.71,10.71,0,0,0,2.35-.62,44.66,44.66,0,0,0-25.13-17.47c-1.43-.4-2.93-.63-3.7-2.1-1-1.85-2.52-2.07-4.42-2a493.27,493.27,0,0,0-65.4,7.2,817.26,817.26,0,0,0-121.61,30.95c-45.73,15.45-92.34,18.32-139.79,11.05-25.22-3.86-49.73-10.56-74-18.36-10.32-3.33-20.49-7.23-31.21-9.22-2.39-.44-5.1-1.24-6.88,1s-.11,4.52.76,6.62a267.19,267.19,0,0,0,86,111.88,8.36,8.36,0,0,0,5.09,1.81c38,1.1,75.56-2.29,112.55-11.2C238.68,457.11,270.06,444.3,298.56,424.57Z"/><path class="cls-1" d="M10.41,163.48a123.46,123.46,0,0,0,22.65-3.27A380.72,380.72,0,0,0,183.41,89.94,220.44,220.44,0,0,1,213,70.38c38.4-20.6,80-29,123-31.7,15.47-1,31-.67,46.45-.61,1.4,0,2.88.34,5-.92C311.87-4.47,234-12,153.9,19,84.57,45.89,35.87,95.12,5.41,162.94A11.61,11.61,0,0,0,10.41,163.48Z"/><path class="cls-1" d="M40.08,247.61c.1,3.81.46,7.61.58,11.41.4,12.74.74,25.47,1.13,38.21.17,5.43,3,8.19,8.18,8.06q45.29-1.1,90.56-2.19c1.91,0,3.73,0,4.64-2.23a1.08,1.08,0,0,1,1.53-.27c.69.61-.33,1.59-.11,1.74,9.8,0,19,.26,28.19-.1,5.55-.21,11.55,1.63,16.64-3.05.05,3.85,2.5,2.65,4.24,2.61q48.21-1.11,96.42-2.25c2.78-.06,5.23-.64,7-2.93s2.09-5,2-7.8c-.51-16.75-1.11-33.51-1.48-50.27-.06-2.93-.73-3.78-3.78-3.69-21.26.63-42.53,1.06-63.8,1.55-4.68.11-4.68.11-4.62-4.53,0-.39.11-.78.09-1.17-.24-4.53.1-9.12-.74-13.27H207.9a11.27,11.27,0,0,0-.23,1.21q1,30.71,2.07,61.43c.07,1.85-.23,2.61-2.34,2.58-4.8-.07-9.6.1-14.4.32-1.76.07-2.36-.36-2.4-2.25-.28-11.76-.74-23.52-1.09-35.27-.24-8.09-.21-8.1-8.33-7.86-3.76.11-7.53.29-11.15.44a6.43,6.43,0,0,0-.27,1c.48,14,.93,28,1.49,42,.08,2-.47,2.48-2.42,2.48-6.77,0-13.53.27-20.29.43-1,0-1.95.26-2.94-.53.2-14.86-.77-29.77-1.11-44.41h-19.7c.51,15.42,1,30.36,1.53,46-7,0-13.69-.12-20.34.06-2.41.07-3.22-.53-3.26-3-.15-9.6-.59-19.2-.83-28.8-.11-4.49,0-9,0-13.1-.91-.43-1.09-.58-1.26-.58q-27,.66-54.09,1.34A6.55,6.55,0,0,0,40.08,247.61Zm189,11.19c1.67,0,3.51,0,5.35,0q21.3-.49,42.58-1c3.74-.09,3.74-.1,3.84,3.78.13,5.08.28,10.17.4,15.26.08,3.29-.56,4-4.09,4.1-8,.22-16.06.37-24.08.55-7.15.17-14.29.31-21.44.52-1.43.05-2.56,0-2.56-1.84C229.07,273.22,229.06,266.3,229.06,258.8ZM61,262.35c6.47,0,13.29,0,20.11,0,1.37,0,1.56.81,1.6,1.91.25,6.35.48,12.71.82,19.06.09,1.67-.46,2.25-2.13,2.27-6.16.08-12.33.21-18.48.45-1.57.06-1.9-.73-1.91-1.91C61,277.2,61,270.27,61,262.35Z"/><path class="cls-1" d="M372,228c0-.86.21-1.79-.67-2.46-4.1.29-7.34,2.57-11,3.54-6,1.57-11.65,3.92-17.5,5.79-7.07,2.27-14.19,4.42-21.14,7-3.84,1.42-8.59,1.91-9.93,7.08a18.06,18.06,0,0,0-.77,6.95q2.22,16.58,4.53,33.15a4.63,4.63,0,0,0,4.13,4.33c8.6,1.27,17.22,2.48,25.83,3.7,2.19.3,5.3.12,6.06,1.93.93,2.19-.52,4.87-2.21,6.89-.25.3-.49.61-.72.92-2.68,3.63-6.5,6.07-9.82,9.4,4.16,2.55,8.31,5,12.31,7.63,1.49,1,2.43.8,3.56-.32,1.95-1.93,4.1-3.68,5.89-5.74,4.18-4.83,7.92-9.91,9.08-16.47,1.24-7.09.69-14.25.93-21.36C371.15,262.63,371.26,245.3,372,228ZM352.37,254.4c-.51,8.31-.71,15.44-.55,22.59.05,2.39-.61,3.56-3.3,3.54-5.37,0-10.75.18-16.12.47-2.86.16-4.21-1.14-4.52-3.78-.63-5.53-.58-11.11-1.44-16.63a2.79,2.79,0,0,1,2.36-3.49c6.65-1.13,13.12-3,19.65-4.61C352,251.6,352.44,252.11,352.37,254.4Z"/><path class="cls-1" d="M381.55,297.48c6.66-.26,13.33-.56,20-.46,7.46.11,9.69-4.84,9.51-10.13q-.82-25-1.63-50-.39-11.86-.81-23.78H388.55c0,1,0,1.46,0,1.94.68,20.09,1.33,40.17,2.11,60.25.09,2.4-.55,3.13-2.89,3-3-.18-6-.05-8.76-.05,0,6.05.08,11.42,0,16.79C378.93,297.07,379.66,297.55,381.55,297.48Z"/><path class="cls-1" d="M437.82,212.5H418.25c.94,28.21,1.86,56,2.78,83.62,5.83,0,11.13-.24,16.39.1,3,.19,3.65-.81,3.55-3.54-.93-25.47-1.76-50.94-2.64-76.4C438.28,214.86,438.56,213.34,437.82,212.5Z"/><path class="cls-1" d="M187.26,229.7c1,0,1.77-.23,1.72-1.45-.24-5.74-.47-11.49-.7-17.1h-17.8c-1.3,0-1.61.68-1.6,1.87,0,5.56,0,11.11,0,16.68Z"/><path class="cls-1" d="M127.69,328.9h19.23V310.31H127.69Z"/><path class="cls-1" d="M97.43,218.59c-.12-5.68-.18-5.62-5.78-5.52-4.65.09-9.3,0-13.65,0v18.75H97.45C97.45,227.16,97.53,222.87,97.43,218.59Z"/><path class="cls-1" d="M54.72,213.85v18.48H73.84V213.85Z"/><path class="cls-1" d="M104.52,327.67c0,.93,0,2.09,1.46,2.1H123.8v-19H104.49C104.49,316.77,104.47,322.22,104.52,327.67Z"/><polygon class="cls-1" points="168.18 310.87 153.9 311.13 154.25 330.16 168.72 329.89 168.65 326.37 158.33 326.56 158.25 321.9 167.54 321.73 167.48 318.46 158.19 318.63 158.11 314.58 168.24 314.39 168.18 310.87"/><polygon class="cls-1" points="175.91 310.73 171.77 310.8 172.12 329.83 185.57 329.58 185.5 326.06 176.2 326.23 175.91 310.73"/><path class="cls-1" d="M208.58,325.06c-.16-1.26-.34-2.29-.51-3.07-.55-2.5-.85-3.84-.9-4L205,310.19l-3.93.07-1.91,8.06c-.2.81-.45,2.15-.77,4q-.22,1.35-.36,2.91a56.18,56.18,0,0,0-1.35-6.92l-2-8-4.17.08,5.43,18.93,4.21-.08L202,321a57,57,0,0,0,1.07-6.27q.61,3.69,1.32,6.34l2.22,8.1,4.16-.07L215.59,310l-4.15.08-1.69,7.7A57.25,57.25,0,0,0,208.58,325.06Z"/><path class="cls-1" d="M216.44,329l4.28-.08,1.46-4.29,7.07-.13,1.6,4.23,4.36-.08-7.58-18.93-4.29.08Zm9.11-15a40.81,40.81,0,0,0,1.34,4.11l1.3,3.41-5.07.09,1.17-3.45C224.83,316.49,225.25,315.1,225.55,314Z"/><polygon class="cls-1" points="251.18 309.34 235.5 309.63 235.57 313.15 241.32 313.04 241.61 328.55 245.75 328.47 245.47 312.97 251.25 312.86 251.18 309.34"/><path class="cls-1" d="M252.17,328.35l4.28-.08,1.46-4.29,7.07-.13,1.6,4.23,4.36-.08-7.58-18.93-4.29.08Zm9.11-15a41.65,41.65,0,0,0,1.34,4.11l1.3,3.41-5.07.09,1.17-3.45C260.56,315.83,261,314.44,261.28,313.31Z"/><path class="cls-1" d="M279.41,318.66l5.84,9.08,4.19-.08-.35-19-4,.07.15,7.93q0,2.48.27,5.43c-.55-1.07-1.41-2.51-2.58-4.34l-5.69-8.88-4.24.08.35,19,4-.07-.15-8.11q-.06-3.19-.27-5.34c.33.69.66,1.29,1,1.8Z"/><rect class="cls-1" x="293.69" y="308.51" width="4.15" height="19.03" transform="translate(-5.84 5.53) rotate(-1.06)"/><path class="cls-1" d="M309,316.45a27.55,27.55,0,0,0-1.57-3.09l-3.06-5-4.74.09L306.94,320l.13,7.39,4.15-.08-.14-7.33L318,308.1l-4.65.09-2.78,4.94A30.06,30.06,0,0,0,309,316.45Z"/><path class="cls-1" d="M318.24,327.13l4.28-.08,1.46-4.3,7.08-.13,1.59,4.24,4.36-.08-7.58-18.93-4.29.08Zm9.11-15a40.25,40.25,0,0,0,1.35,4.11l1.29,3.4-5.07.1,1.17-3.46C326.64,314.6,327.06,313.22,327.35,312.09Z"/></g></g></svg>