<svg xmlns="http://www.w3.org/2000/svg" viewBox="0 0 500 125.13"><defs><style>.cls-1{fill:#fff;}</style></defs><g id="Layer_2" data-name="Layer 2"><g id="Layer_1-2" data-name="Layer 1"><path class="cls-1" d="M437.42,0a14.7,14.7,0,0,1,10.51,4.47l9.77,9.77,25.72,25.7Q489.51,46,495.59,52.1a14.61,14.61,0,0,1,0,20.94c-1.32,1.32-2.71,2.58-4,3.9-3,3.06-6.05,6.15-9.1,9.21q-10.32,10.34-20.66,20.64l-7.64,7.63c-2,2-4.07,4.09-6.12,6.13a14.68,14.68,0,0,1-21.32,0Q402.91,96.79,379.14,73a14.62,14.62,0,0,1,.06-21q17.26-17.28,34.56-34.53Q420.24,11,426.7,4.56A14.84,14.84,0,0,1,437.42,0ZM407.09,27.93l-.15.15h0l-.15.14h0l-.14.15h0l-.15.15h0l-.15.15h0l-.15.14h0l-.14.15h0l-.15.15h0l-.15.15h0l-.15.14h0l-.14.14h0l-.15.15h0l-.15.15h0l-.15.14h0l-.14.14h0l-.14.15h0l-.15.15h0l-.15.14h0l-.14.14h0l-.14.15h0l-.15.15h0l-.15.14h0l-.14.14h0l-.14.15h0l-.15.15h0l-.15.14h0l-.14.14h0l-.14.15h0l-.15.15h0l-.15.15h0l-.14.14h0l-.14.15h0l-.15.15h0l-.15.15h0l-.14.14h0l-.14.15h0l-.15.15h0l-.15.15h0l-.15.14h0l-.14.15h0l-.15.15h0l-.15.15h0l-.15.14h0l-.14.15h0l-.15.15h0l-.15.15h0l-.14.14h0l-.14.15h0l-.15.15h0l-.15.15h0l-.15.14h0l-.14.14h0l-.15.15h0l-.15.15h0l-.15.14h0l-.14.14h0l-.15.15h0l-.15.15h0l-.15.14h0l-.14.14h0l-.15.15h0l-.15.15h0l-.15.14h0l-.14.14h0l-.15.15h0l-.15.15h0l-.15.14h0l-.14.14h0l-.15.15h0l-.15.15h0l-.15.14h0l-.14.14h0l-.15.15h0l-.15.15h0l-.15.15h0l-.14.14h0l-.15.15h0l-.15.15h0l-.15.15h0l-.14.14h0l-.15.15h0l-.15.15h0l-.15.15h0l-.14.14h0l-.15.15h0l-.15.15h0l-.15.15h0l-.14.14h0l-.14.15h0l-.15.15h0l-.15.15h0L394,41h0l-.14.15h0l-.15.15h0l-.15.15h0l-.14.14h0l-.14.15h0l-.15.15h0L393,42h0l-.14.14h0l-.14.14h0l-.15.15h0l-.15.15h0l-.14.14h0l-.14.14h0L392,43h0l-.15.15h0l-.14.14h0l-.14.14h0l-.15.15h0l-.15.15h0l-.14.14h0L391,44h0l-.15.15h0l-.15.15h0l-.14.14h0l-.14.14h0l-.15.15h0l-.15.15h0L390,45h0l-.14.14h0l-.15.15h0l-.15.15h0l-.14.15h0l-.14.14h0l-.15.15h0L389,46h0l-.14.15h0l-.14.14h0l-.15.15h0l-.15.15h0l-.15.15h0l-.14.14h0L388,47h0l-.15.15h0l-.15.15h0l-.14.14h0l-.15.15h0l-.15.15h0l-.15.15h0L387,48h0l-.15.15h0l-.15.15h0l-.15.15h0l-.14.14h0l-.15.14h0l-.15.15h0L386,49h0l-.14.14h0l-.15.14h0l-.15.15h0l-.15.15h0l-.14.14h0l-.15.14h0L385,50h0l-.15.15h0l-.14.15h0l-.15.14h0l-.15.15h0l-.15.15h0l-.14.15h0L384,51h0l-1.43,1.43h0l-.14.15h0l-.15.14h0l-.15.15h0l-1.43,1.43h0l-.14.14h0l-.14.18-1.3,1.62-.4.78h0l-.14.29h0a1.85,1.85,0,0,0-.25.32,11.44,11.44,0,0,0-.86,7.12,23,23,0,0,0,1.39,3.67h0l.28.56a15,15,0,0,0,1.24,1.61q10.89,11,21.82,22c3.61,3.63,7.17,7.32,10.8,10.94,5.22,5.21,10.48,10.38,15.71,15.59a11.63,11.63,0,0,0,4,2.56,9.44,9.44,0,0,0,4.32.88l3.31-.41a1.15,1.15,0,0,0,1.43-.86c1-2.62,2.06-5.24,3.3-7.76,1.71-3.49,3.55-6.91,5.42-10.31C451.66,101,453,99,454.28,97c1.75-2.61,3.5-5.23,5.42-7.72,2.12-2.74,4.38-5.38,6.67-8q3.12-3.54,6.45-6.87c2.13-2.12,4.35-4.15,6.58-6.16,1.73-1.57,3.48-3.13,5.32-4.58,2.59-2,5.26-4,7.89-6l2.85-2.14c-.35-.41-.62-.77-.94-1.08L486,46c-.7-.68-1.37-1.38-2.08-2a3.23,3.23,0,0,0-.71-.39,4.46,4.46,0,0,0-.47-.72L459.93,20.12c-4.72-4.71-9.42-9.44-14.18-14.12a11.61,11.61,0,0,0-9.2-3.37,12.34,12.34,0,0,0-8.15,3.89c-4.57,4.63-9.2,9.2-13.8,13.8-1.29,1.29-2.56,2.6-3.84,3.9a.24.24,0,0,0-.11.06l-.13.26-2.38,2.39-.2.15h0l-.14.15h0l-.15.15h0l-.15.15h0l-.15.14h0l-.14.15h0l-.15.15Z"/><path class="cls-1" d="M410.76,24.22c.71.85,1.47,1.66,2.11,2.55,1.43,2,2.86,4,4.18,6.08A104.3,104.3,0,0,1,424,46a137.55,137.55,0,0,1,9.27,29.08c.53,2.64.93,5.31,1.35,8,.32,2.06.56,4.14.86,6.21a198.27,198.27,0,0,1,1.69,30c0,1.07-.07,2.14-.1,3.2a9.44,9.44,0,0,1-4.32-.88c0-.16-.06-.33-.11-.48-.93-2.61-1.8-5.23-2.8-7.81a104.84,104.84,0,0,0-7.93-16.17,80.38,80.38,0,0,0-13.95-17.74C405.52,77.18,403,75,400.44,73A60.11,60.11,0,0,0,394,68.79a50,50,0,0,0-10.59-4.92c-2-.59-3.86-1.34-5.78-2a5.8,5.8,0,0,1,.06-1.18c.28-1.13.61-2.25.92-3.38h0l.14-.29h0l.4-.78,1.3-1.62.14-.18h0l.14-.14h0l1.43-1.43h0l.15-.14h0l.15-.14h0l.14-.15h0L384,51h0l.15-.14h0l.14-.15h0l.15-.15h0l.15-.15h0l.15-.14h0l.14-.15h0L385,50h0l.15-.15h0l.15-.14h0l.14-.14h0l.15-.15h0l.15-.15h0l.15-.14h0L386,49h0l.15-.15h0l.15-.15h0l.15-.14h0l.14-.14h0l.15-.15h0l.15-.15h0L387,48h0l.14-.14h0l.15-.15h0l.15-.15h0l.15-.15h0l.14-.14h0l.15-.15h0L388,47h0l.15-.15h0l.14-.14h0l.15-.15h0l.15-.15h0l.15-.15h0l.14-.14h0L389,46h0l.15-.15h0l.15-.15h0l.14-.14h0l.14-.15h0l.15-.15h0l.15-.15h0L390,45h0l.14-.15h0l.15-.15h0l.15-.15h0l.14-.14h0l.14-.14h0l.15-.15h0L391,44h0l.14-.14h0l.14-.14h0l.15-.15h0l.15-.15h0l.14-.14h0l.14-.14h0L392,43h0l.15-.15h0l.14-.14h0l.14-.14h0l.15-.15h0l.15-.15h0l.14-.14h0L393,42h0l.15-.15h0l.15-.15h0l.14-.15h0l.14-.14h0l.15-.15h0l.15-.15h0L394,41h0l.14-.14h0l.15-.15h0l.15-.15h0l.14-.15h0l.14-.14h0l.15-.15h0L395,40h0l.15-.15h0l.14-.14h0l.15-.15h0l.15-.15h0l.15-.15h0l.14-.14h0L396,39h0l.15-.15h0l.15-.15h0l.14-.14h0l.15-.15h0l.15-.15h0l.15-.15h0l.14-.14h0l.15-.14h0l.15-.15h0l.15-.15h0l.14-.14h0l.15-.14h0l.15-.15h0l.15-.15h0l.14-.14h0l.15-.14h0l.15-.15h0l.15-.15h0l.14-.14h0l.15-.14h0l.15-.15h0l.15-.15h0l.14-.14h0l.15-.14h0l.15-.15h0l.15-.15h0l.14-.14h0l.15-.14h0l.15-.15h0l.15-.15h0l.14-.15h0l.14-.14h0l.15-.15h0l.15-.15h0l.14-.15h0l.15-.14h0l.15-.15h0l.15-.15h0l.14-.15h0l.15-.14h0l.15-.15h0l.15-.15h0l.14-.15h0l.14-.14h0l.15-.15h0l.15-.15h0l.14-.15h0l.14-.14h0l.15-.15h0l.15-.15h0l.14-.15h0l.14-.14h0l.15-.14h0l.15-.15h0l.14-.15h0l.14-.14h0l.15-.14h0l.15-.15h0l.14-.15h0l.14-.14h0l.15-.14h0l.15-.15h0l.14-.15h0l.14-.14h0l.15-.14h0l.15-.15h0l.15-.15h0l.14-.14h0l.15-.14h0l.15-.15h0l.15-.15h0l.14-.14h0l.15-.14h0l.15-.15h0l.15-.15h0l.14-.15h0l.15-.14h0l.15-.15h0l.15-.15h0l.14-.15h0l.15-.14h0l.15-.15h0l.15-.15h0l.14-.15h0l.2-.15,2.38-2.39.13-.26A.24.24,0,0,1,410.76,24.22Z"/><path class="cls-1" d="M440.34,122.08c4.72-18.9,11.36-37,21.62-53.69a101,101,0,0,1,19.39-23.32c.58-.52,1.21-1,1.82-1.47a3.23,3.23,0,0,1,.71.39c.71.67,1.38,1.37,2.08,2l8.56,8.43c.32.31.59.67.94,1.08l-2.85,2.14c-2.63,2-5.3,3.94-7.89,6-1.84,1.45-3.59,3-5.32,4.58-2.23,2-4.45,4-6.58,6.16s-4.37,4.51-6.45,6.87c-2.29,2.6-4.55,5.24-6.67,8-1.92,2.49-3.67,5.11-5.42,7.72-1.33,2-2.62,4.05-3.79,6.16-1.87,3.4-3.71,6.82-5.42,10.31-1.24,2.52-2.28,5.14-3.3,7.76A1.15,1.15,0,0,1,440.34,122.08Z"/><path class="cls-1" d="M377.63,61.85c1.92.68,3.83,1.43,5.78,2A50,50,0,0,1,394,68.79,60.11,60.11,0,0,1,400.44,73c2.59,2,5.08,4.15,7.48,6.38a80.38,80.38,0,0,1,13.95,17.74,104.84,104.84,0,0,1,7.93,16.17c1,2.58,1.87,5.2,2.8,7.81,0,.15.07.32.11.48a11.63,11.63,0,0,1-4-2.56c-5.23-5.21-10.49-10.38-15.71-15.59-3.63-3.62-7.19-7.31-10.8-10.94q-10.91-11-21.82-22A15,15,0,0,1,379.17,69c-.1-.19-.19-.37-.28-.56h0c-.07-.22-.13-.45-.22-.66A11.71,11.71,0,0,1,377.63,61.85Z"/><path class="cls-1" d="M377.63,61.85a11.71,11.71,0,0,0,1,5.89c.09.21.15.44.22.66a23,23,0,0,1-1.39-3.67,11.44,11.44,0,0,1,.86-7.12,1.85,1.85,0,0,1,.25-.32c-.31,1.13-.64,2.25-.92,3.38A5.8,5.8,0,0,0,377.63,61.85Z"/><path class="cls-1" d="M384,51l-1.43,1.43Z"/><path class="cls-1" d="M382.16,52.86l-1.43,1.43Z"/><path class="cls-1" d="M379.15,56.23l-.4.78Z"/><path class="cls-1" d="M378.89,68.39c.09.19.18.37.28.56C379.07,68.76,379,68.58,378.89,68.39Z"/><path class="cls-1" d="M410.65,24.28l-.13.26Z"/><path class="cls-1" d="M378.75,57l-.14.29Z"/><path class="cls-1" d="M407,28.08l-.15.14Z"/><path class="cls-1" d="M406.8,28.22l-.14.15Z"/><path class="cls-1" d="M406.66,28.36l-.15.15Z"/><path class="cls-1" d="M406.52,28.5l-.15.15Z"/><path class="cls-1" d="M406.38,28.65l-.15.14Z"/><path class="cls-1" d="M406.23,28.79l-.14.14Z"/><path class="cls-1" d="M406.09,28.93l-.15.15Z"/><path class="cls-1" d="M406,29.07l-.15.15Z"/><path class="cls-1" d="M405.81,29.22l-.15.14Z"/><path class="cls-1" d="M405.66,29.36l-.14.14Z"/><path class="cls-1" d="M405.52,29.5l-.15.15Z"/><path class="cls-1" d="M405.38,29.64l-.15.15Z"/><path class="cls-1" d="M405.24,29.79l-.15.14Z"/><path class="cls-1" d="M405.09,29.93l-.14.14Z"/><path class="cls-1" d="M405,30.07l-.14.15Z"/><path class="cls-1" d="M404.81,30.21l-.15.15Z"/><path class="cls-1" d="M404.67,30.36l-.15.14Z"/><path class="cls-1" d="M404.52,30.5l-.14.14Z"/><path class="cls-1" d="M404.38,30.64l-.14.15Z"/><path class="cls-1" d="M404.24,30.78l-.15.15Z"/><path class="cls-1" d="M404.1,30.93l-.15.14Z"/><path class="cls-1" d="M404,31.07l-.14.14Z"/><path class="cls-1" d="M403.81,31.21l-.14.15Z"/><path class="cls-1" d="M403.67,31.35l-.15.15Z"/><path class="cls-1" d="M403.53,31.5l-.15.14Z"/><path class="cls-1" d="M403.38,31.64l-.14.14Z"/><path class="cls-1" d="M403.24,31.78l-.14.15Z"/><path class="cls-1" d="M403.1,31.92l-.15.15Z"/><path class="cls-1" d="M403,32.06l-.15.15Z"/><path class="cls-1" d="M402.81,32.21l-.14.14Z"/><path class="cls-1" d="M402.67,32.35l-.14.15Z"/><path class="cls-1" d="M402.53,32.49l-.15.15Z"/><path class="cls-1" d="M402.39,32.63l-.15.15Z"/><path class="cls-1" d="M402.24,32.78l-.14.14Z"/><path class="cls-1" d="M402.1,32.92l-.14.15Z"/><path class="cls-1" d="M402,33.06l-.15.15Z"/><path class="cls-1" d="M401.82,33.2l-.15.15Z"/><path class="cls-1" d="M401.68,33.35l-.15.14Z"/><path class="cls-1" d="M401.53,33.49l-.14.15Z"/><path class="cls-1" d="M401.39,33.63l-.15.15Z"/><path class="cls-1" d="M401.25,33.77l-.15.15Z"/><path class="cls-1" d="M401.11,33.92l-.15.14Z"/><path class="cls-1" d="M401,34.06l-.14.15Z"/><path class="cls-1" d="M400.82,34.2l-.15.15Z"/><path class="cls-1" d="M400.68,34.34l-.15.15Z"/><path class="cls-1" d="M400.53,34.49l-.14.14Z"/><path class="cls-1" d="M400.39,34.63l-.14.15Z"/><path class="cls-1" d="M400.25,34.77l-.15.15Z"/><path class="cls-1" d="M400.11,34.91l-.15.15Z"/><path class="cls-1" d="M400,35.06l-.15.14Z"/><path class="cls-1" d="M399.82,35.2l-.14.14Z"/><path class="cls-1" d="M399.68,35.34l-.15.15Z"/><path class="cls-1" d="M399.54,35.48l-.15.15Z"/><path class="cls-1" d="M399.4,35.63l-.15.14Z"/><path class="cls-1" d="M399.25,35.77l-.14.14Z"/><path class="cls-1" d="M399.11,35.91l-.15.15Z"/><path class="cls-1" d="M399,36.05l-.15.15Z"/><path class="cls-1" d="M398.83,36.2l-.15.14Z"/><path class="cls-1" d="M398.68,36.34l-.14.14Z"/><path class="cls-1" d="M398.54,36.48l-.15.15Z"/><path class="cls-1" d="M398.4,36.62l-.15.15Z"/><path class="cls-1" d="M398.26,36.77l-.15.14Z"/><path class="cls-1" d="M398.11,36.91l-.14.14Z"/><path class="cls-1" d="M398,37.05l-.15.15Z"/><path class="cls-1" d="M397.83,37.19l-.15.15Z"/><path class="cls-1" d="M397.69,37.34l-.15.14Z"/><path class="cls-1" d="M397.54,37.48l-.14.14Z"/><path class="cls-1" d="M397.4,37.62l-.15.15Z"/><path class="cls-1" d="M397.26,37.76l-.15.15Z"/><path class="cls-1" d="M397.12,37.91l-.15.14Z"/><path class="cls-1" d="M397,38.05l-.14.14Z"/><path class="cls-1" d="M396.83,38.19l-.15.15Z"/><path class="cls-1" d="M396.69,38.33l-.15.15Z"/><path class="cls-1" d="M396.55,38.47l-.15.15Z"/><path class="cls-1" d="M396.4,38.62l-.14.14Z"/><path class="cls-1" d="M396.26,38.76l-.15.15Z"/><path class="cls-1" d="M396.12,38.9l-.15.15Z"/><path class="cls-1" d="M396,39l-.15.15Z"/><path class="cls-1" d="M395.83,39.19l-.14.14Z"/><path class="cls-1" d="M395.69,39.33l-.15.15Z"/><path class="cls-1" d="M395.55,39.47l-.15.15Z"/><path class="cls-1" d="M395.41,39.61l-.15.15Z"/><path class="cls-1" d="M395.26,39.76l-.14.14Z"/><path class="cls-1" d="M395.12,39.9l-.15.15Z"/><path class="cls-1" d="M395,40l-.15.15Z"/><path class="cls-1" d="M394.84,40.18l-.15.15Z"/><path class="cls-1" d="M394.69,40.33l-.14.14Z"/><path class="cls-1" d="M394.55,40.47l-.14.15Z"/><path class="cls-1" d="M394.41,40.61l-.15.15Z"/><path class="cls-1" d="M394.27,40.75l-.15.15Z"/><path class="cls-1" d="M394.12,40.9,394,41Z"/><path class="cls-1" d="M394,41l-.14.15Z"/><path class="cls-1" d="M393.84,41.18l-.15.15Z"/><path class="cls-1" d="M393.7,41.32l-.15.15Z"/><path class="cls-1" d="M393.55,41.47l-.14.14Z"/><path class="cls-1" d="M393.41,41.61l-.14.15Z"/><path class="cls-1" d="M393.27,41.75l-.15.15Z"/><path class="cls-1" d="M393.13,41.89,393,42Z"/><path class="cls-1" d="M393,42l-.14.14Z"/><path class="cls-1" d="M392.84,42.18l-.14.14Z"/><path class="cls-1" d="M392.7,42.32l-.15.15Z"/><path class="cls-1" d="M392.56,42.46l-.15.15Z"/><path class="cls-1" d="M392.41,42.61l-.14.14Z"/><path class="cls-1" d="M392.27,42.75l-.14.14Z"/><path class="cls-1" d="M392.13,42.89,392,43Z"/><path class="cls-1" d="M392,43l-.15.15Z"/><path class="cls-1" d="M391.84,43.18l-.14.14Z"/><path class="cls-1" d="M391.7,43.32l-.14.14Z"/><path class="cls-1" d="M391.56,43.46l-.15.15Z"/><path class="cls-1" d="M391.42,43.6l-.15.15Z"/><path class="cls-1" d="M408.14,26.93l-.2.15Z"/><path class="cls-1" d="M391.27,43.75l-.14.14Z"/><path class="cls-1" d="M391.13,43.89,391,44Z"/><path class="cls-1" d="M391,44l-.15.15Z"/><path class="cls-1" d="M390.85,44.17l-.15.15Z"/><path class="cls-1" d="M390.7,44.32l-.14.14Z"/><path class="cls-1" d="M390.56,44.46l-.14.14Z"/><path class="cls-1" d="M390.42,44.6l-.15.15Z"/><path class="cls-1" d="M390.28,44.74l-.15.15Z"/><path class="cls-1" d="M390.13,44.88,390,45Z"/><path class="cls-1" d="M390,45l-.14.14Z"/><path class="cls-1" d="M389.85,45.17l-.15.15Z"/><path class="cls-1" d="M389.71,45.31l-.15.15Z"/><path class="cls-1" d="M389.56,45.45l-.14.15Z"/><path class="cls-1" d="M389.42,45.6l-.14.14Z"/><path class="cls-1" d="M389.28,45.74l-.15.15Z"/><path class="cls-1" d="M389.14,45.88,389,46Z"/><path class="cls-1" d="M407.94,27.08l-.14.15Z"/><path class="cls-1" d="M388.85,46.17l-.14.14Z"/><path class="cls-1" d="M388.71,46.31l-.15.15Z"/><path class="cls-1" d="M388.57,46.45l-.15.15Z"/><path class="cls-1" d="M388.43,46.59l-.15.15Z"/><path class="cls-1" d="M388.28,46.74l-.14.14Z"/><path class="cls-1" d="M388.14,46.88,388,47Z"/><path class="cls-1" d="M388,47l-.15.15Z"/><path class="cls-1" d="M387.86,47.16l-.15.15Z"/><path class="cls-1" d="M387.71,47.31l-.14.14Z"/><path class="cls-1" d="M387.57,47.45l-.15.15Z"/><path class="cls-1" d="M387.43,47.59l-.15.15Z"/><path class="cls-1" d="M387.29,47.73l-.15.15Z"/><path class="cls-1" d="M387.14,47.88,387,48Z"/><path class="cls-1" d="M387,48l-.15.14Z"/><path class="cls-1" d="M386.86,48.16l-.15.15Z"/><path class="cls-1" d="M386.72,48.3l-.15.15Z"/><path class="cls-1" d="M386.57,48.45l-.14.14Z"/><path class="cls-1" d="M386.43,48.59l-.15.14Z"/><path class="cls-1" d="M386.29,48.73l-.15.15Z"/><path class="cls-1" d="M386.15,48.87,386,49Z"/><path class="cls-1" d="M386,49l-.14.14Z"/><path class="cls-1" d="M385.86,49.16l-.15.14Z"/><path class="cls-1" d="M389,46l-.14.15Z"/><path class="cls-1" d="M385.58,49.44l-.15.15Z"/><path class="cls-1" d="M385.43,49.59l-.14.14Z"/><path class="cls-1" d="M385.29,49.73l-.15.14Z"/><path class="cls-1" d="M385.15,49.87,385,50Z"/><path class="cls-1" d="M385,50l-.15.15Z"/><path class="cls-1" d="M384.86,50.15l-.14.15Z"/><path class="cls-1" d="M384.72,50.3l-.15.14Z"/><path class="cls-1" d="M384.58,50.44l-.15.15Z"/><path class="cls-1" d="M384.44,50.58l-.15.15Z"/><path class="cls-1" d="M384.29,50.72l-.14.15Z"/><path class="cls-1" d="M384.15,50.87,384,51Z"/><path class="cls-1" d="M407.8,27.22l-.15.15Z"/><path class="cls-1" d="M382.58,52.43l-.14.15Z"/><path class="cls-1" d="M382.44,52.58l-.15.14Z"/><path class="cls-1" d="M382.3,52.72l-.15.14Z"/><path class="cls-1" d="M407.66,27.36l-.15.15Z"/><path class="cls-1" d="M380.73,54.29l-.14.14Z"/><path class="cls-1" d="M380.59,54.43l-.14.18Z"/><path class="cls-1" d="M407.52,27.51l-.15.14Z"/><path class="cls-1" d="M407.37,27.65l-.14.15Z"/><path class="cls-1" d="M407.23,27.79l-.15.15Z"/><path class="cls-1" d="M407.09,27.93l-.15.15Z"/><path class="cls-1" d="M385.72,49.3l-.15.15Z"/><path class="cls-1" d="M19.9,32a6.14,6.14,0,0,0,2,1.31,6.24,6.24,0,0,0,2.41.47,6.15,6.15,0,0,0,2.4-.47,6.3,6.3,0,0,0,2-1.31A6.53,6.53,0,0,0,30,30a6,6,0,0,0,0-4.81,6.3,6.3,0,0,0-3.29-3.29,5.83,5.83,0,0,0-2.4-.5,5.91,5.91,0,0,0-2.41.5,6.36,6.36,0,0,0-2,1.33,6.17,6.17,0,0,0-1.79,4.36A6,6,0,0,0,18.59,30,6,6,0,0,0,19.9,32Z"/><path class="cls-1" d="M36.36,80.91a8.24,8.24,0,0,1-1,4.2,9.54,9.54,0,0,1-2.74,3A12,12,0,0,1,28.71,90a17.11,17.11,0,0,1-8.91,0,12.16,12.16,0,0,1-3.86-1.82,9.33,9.33,0,0,1-2.71-3,8.33,8.33,0,0,1-1-4.2V46.36H0V80.91a20.91,20.91,0,0,0,2.07,9.54,20.41,20.41,0,0,0,5.48,6.81,23.66,23.66,0,0,0,7.77,4.08,30.24,30.24,0,0,0,17.87,0A23.66,23.66,0,0,0,41,97.26a20.12,20.12,0,0,0,7.6-16.35V38.36H36.36Z"/><path class="cls-1" d="M196.33,92.14A6.17,6.17,0,0,0,192,90.35a6.06,6.06,0,0,0-2.41.48,5.83,5.83,0,0,0-1.95,1.31,6,6,0,0,0-1.31,1.93,5.85,5.85,0,0,0-.48,2.38,6.12,6.12,0,0,0,1.79,4.36,6.39,6.39,0,0,0,1.95,1.34,6,6,0,0,0,4.81,0,6.56,6.56,0,0,0,2-1.34,6.37,6.37,0,0,0,1.31-2,6.06,6.06,0,0,0,.47-2.41,5.85,5.85,0,0,0-.47-2.38A6.28,6.28,0,0,0,196.33,92.14Z"/><path class="cls-1" d="M186,69.9a3.55,3.55,0,0,1-1.07,2.6,3.48,3.48,0,0,1-2.55,1.07H166.47v-13a28.86,28.86,0,0,0-1.62-10.31,18.35,18.35,0,0,0-4.41-6.87A16.78,16.78,0,0,0,154,39.55a25,25,0,0,0-7.79-1.19A30.32,30.32,0,0,0,136.54,40a39.5,39.5,0,0,0-9,4.33V21.39H115.33V73.57H101.65V60.18A20.84,20.84,0,0,0,100,51.89,22.41,22.41,0,0,0,88.48,40.14a20.12,20.12,0,0,0-8.41-1.78,20.39,20.39,0,0,0-8.34,1.73,21.88,21.88,0,0,0-6.84,4.75,22.31,22.31,0,0,0-4.63,7,22,22,0,0,0-1.69,8.58v9.63a15.12,15.12,0,0,0,1.24,6.1,16.19,16.19,0,0,0,3.36,5,16,16,0,0,0,5,3.36,15.29,15.29,0,0,0,6.1,1.24H88.31A8.14,8.14,0,0,1,85,89.3a9.5,9.5,0,0,1-4.86,1.24H64.91v12.15H80.16a20.23,20.23,0,0,0,7.27-1.31,22,22,0,0,0,6.24-3.6,22.75,22.75,0,0,0,4.77-5.38,20.92,20.92,0,0,0,2.79-6.67h81.16a15.43,15.43,0,0,0,6.12-1.24,16,16,0,0,0,5-3.39,15.8,15.8,0,0,0,3.38-5,15.44,15.44,0,0,0,1.24-6.18V38.36H186ZM89.5,73.57H74.25a3.5,3.5,0,0,1-3.53-3.52V60.42a10.2,10.2,0,0,1,.74-3.86,10,10,0,0,1,2-3.14,9.39,9.39,0,0,1,3-2.1,8.74,8.74,0,0,1,3.65-.76,8.92,8.92,0,0,1,3.69.78,10.14,10.14,0,0,1,3,2.1,9.53,9.53,0,0,1,2,3.07,9.82,9.82,0,0,1,.71,3.67Zm64.77,0H127.49V62.09a5.82,5.82,0,0,1,.78-2.84,11.5,11.5,0,0,1,2.17-2.69,18.54,18.54,0,0,1,3.22-2.38,27.21,27.21,0,0,1,3.9-1.93A24.64,24.64,0,0,1,141.85,51a21.72,21.72,0,0,1,4.32-.45,8.77,8.77,0,0,1,3.1.55,6.6,6.6,0,0,1,2.59,1.74,8.26,8.26,0,0,1,1.77,3.09,15,15,0,0,1,.64,4.67Z"/><rect class="cls-1" x="208.17" y="21.39" width="12.15" height="64.34"/><path class="cls-1" d="M321.74,70a3.49,3.49,0,0,1-1.07,2.58,3.64,3.64,0,0,1-2.65,1h-11a11.08,11.08,0,0,0,.24-1.76q0-.86,0-1.86V60.13a21,21,0,0,0-1.67-8.26,22.63,22.63,0,0,0-4.57-6.94,22.29,22.29,0,0,0-6.82-4.79A19.7,19.7,0,0,0,286,38.36a20.2,20.2,0,0,0-8.29,1.71,21.49,21.49,0,0,0-6.77,4.7,22.14,22.14,0,0,0-4.58,6.93,21.52,21.52,0,0,0-1.66,8.43V69.9c0,.64,0,1.26,0,1.86a18.2,18.2,0,0,0,.19,1.81H251V38.36h-12.2V80a9.36,9.36,0,0,1-1.39,4.29,15.79,15.79,0,0,1-1.42,2,17.24,17.24,0,0,1-2.15,2.09,24.7,24.7,0,0,1-3.07,2.15,33.75,33.75,0,0,1-4.13,2.07l4.67,11.2a43.05,43.05,0,0,0,8.15-4.33,32.24,32.24,0,0,0,5.51-4.75A23.44,23.44,0,0,0,248.3,90a24.15,24.15,0,0,0,1.76-4.24h21.21a19.68,19.68,0,0,0,14.68,6A20.42,20.42,0,0,0,294,90.16a21.24,21.24,0,0,0,6.63-4.43H318a15.56,15.56,0,0,0,6.17-1.24,16.29,16.29,0,0,0,5.06-3.39,15.69,15.69,0,0,0,3.4-5A15.34,15.34,0,0,0,333.89,70V21.39H321.74Zm-26.59,0a9.35,9.35,0,0,1-.72,3.67,9.66,9.66,0,0,1-2,3,9.38,9.38,0,0,1-2.93,2.1,8.79,8.79,0,0,1-7.15,0,9.74,9.74,0,0,1-2.93-2,9.16,9.16,0,0,1-2-3,9.88,9.88,0,0,1-.72-3.77V60.13a9.7,9.7,0,0,1,.72-3.74,9.23,9.23,0,0,1,2-3,9.74,9.74,0,0,1,2.93-2,8.79,8.79,0,0,1,7.15,0,9.38,9.38,0,0,1,2.93,2.1,9.53,9.53,0,0,1,2,3.07,9.42,9.42,0,0,1,.72,3.64Z"/><rect class="cls-1" x="343.9" y="21.39" width="12.15" height="64.34"/></g></g></svg>