<svg xmlns="http://www.w3.org/2000/svg" viewBox="0 0 500 199.37"><defs><style>.cls-1{fill:#fff;}</style></defs><g id="Layer_2" data-name="Layer 2"><g id="Layer_1-2" data-name="Layer 1"><path class="cls-1" d="M118.86,170.76v5.17H104v5.95h13.65v4.8H104v6.84h15.15v5.18H97.9V170.76Z"/><path class="cls-1" d="M143.88,193.52v5.18H124.13V170.76h6.09v22.76Z"/><path class="cls-1" d="M184.61,170.76V198.7h-5.79v-8.37q0-6.74.38-14.16-1.35,5.42-2.86,9.78L172,198.7h-4.8l-4.48-12.49a90.08,90.08,0,0,1-2.84-9.92q.36,8.21.36,13.39v9h-5.79V170.76h8.69l4.18,12.13a70.77,70.77,0,0,1,2.32,8.85,76.43,76.43,0,0,1,2.4-8.91l4-12.07Z"/><path class="cls-1" d="M203.75,170.08a13,13,0,0,1,9.36,3.67q4.15,4.06,4.16,11a15.19,15.19,0,0,1-3.15,9.85,12.8,12.8,0,0,1-10.55,4.78,13,13,0,0,1-10.75-4.88,15.09,15.09,0,0,1-3.07-9.73q0-6.94,4-10.83A13.78,13.78,0,0,1,203.75,170.08Zm-.1,5.1a6.85,6.85,0,0,0-5.65,2.56,10.73,10.73,0,0,0-2.11,7,10.91,10.91,0,0,0,2.07,7,6.6,6.6,0,0,0,2.85,2,7.77,7.77,0,0,0,2.8.52,6.51,6.51,0,0,0,5.29-2.34,11.11,11.11,0,0,0,2.22-7.3,10.82,10.82,0,0,0-2-6.9A6.56,6.56,0,0,0,203.65,175.18Z"/><path class="cls-1" d="M245.89,170.76v16.52a17.92,17.92,0,0,1-.66,5.51Q243,199.38,234,199.37a14.1,14.1,0,0,1-7.66-1.78,8.72,8.72,0,0,1-3.84-5.32,20.23,20.23,0,0,1-.5-5.07V170.76h6.09v16.83a8.5,8.5,0,0,0,.93,4.58q1.43,2.13,5.1,2.13,3.42,0,4.74-2a8.86,8.86,0,0,0,1-4.7V170.76Z"/><path class="cls-1" d="M251.89,170.76h13.53a12.16,12.16,0,0,1,6.15,1.27,7.15,7.15,0,0,1,3.64,6.64,7.23,7.23,0,0,1-1.94,5.21,6.43,6.43,0,0,1-2.5,1.63,4.73,4.73,0,0,1,2.9,2.06,8.1,8.1,0,0,1,1.09,3.28c.06.39.2,1.69.39,3.9.18,1.95.45,3.15.84,3.63l.26.32h-6.37a5.32,5.32,0,0,1-.42-1.25c-.09-.42-.23-1.93-.41-4.5-.19-2.3-.84-3.81-2-4.52a6.91,6.91,0,0,0-3.61-.72H258v11h-6.09Zm6.09,4.8v7.69h5.81a7.32,7.32,0,0,0,4-.79,3.52,3.52,0,0,0,1.45-3.08,3.34,3.34,0,0,0-2-3.35,8.1,8.1,0,0,0-3.17-.47Z"/><path class="cls-1" d="M287.77,170.76V198.7h-6.09V170.76Z"/><path class="cls-1" d="M314.69,170.76v5.17h-8.48V198.7h-6.09V175.93h-8.45v-5.17Z"/><path class="cls-1" d="M332.58,170.7l10.61,28h-6.4l-2.23-6.27H324.17l-2.26,6.27h-6.28l10.65-28Zm.5,17.27-1.81-5a59.81,59.81,0,0,1-1.86-6.06c-.46,1.65-1.12,3.67-2,6.06l-1.81,5Z"/><path class="cls-1" d="M370.36,170.76V198.7h-6.15l-8.33-13.49c-1.3-2.14-2-3.33-2.16-3.59-.44-.76-.89-1.65-1.37-2.67q.25,3.15.26,7.85v11.9h-5.87V170.76H353l8.11,13.18q2.49,4.06,3.66,6.45-.25-4.35-.25-8V170.76Z"/><path class="cls-1" d="M383,170.76V198.7h-6.09V170.76Z"/><path class="cls-1" d="M412.75,170.76l-10.41,17.17V198.7h-6.08V187.85l-10.44-17.09h7l4.37,7.43a41.12,41.12,0,0,1,2.22,4.58,44.62,44.62,0,0,1,2.34-4.83l4.22-7.18Z"/><path class="cls-1" d="M429.61,170.7l10.61,28h-6.41l-2.22-6.27H421.2l-2.26,6.27h-6.29l10.65-28ZM430.1,188l-1.8-5a59.81,59.81,0,0,1-1.86-6.06c-.47,1.65-1.12,3.67-2,6.06l-1.8,5Z"/><path class="cls-1" d="M470.64,170.76v5.17h-8.49V198.7h-6.09V175.93h-8.45v-5.17Z"/><path class="cls-1" d="M497,170.76l-9.3,27.94h-6.92l-9.16-27.94H478L481.6,182q.78,2.46,1.87,6.94c.3,1.22.56,2.51.79,3.89.24-1.35.53-2.69.87-4q1.23-4.86,1.85-6.76l3.62-11.32Z"/><path class="cls-1" d="M35.24,141.58V23.7L4.11,36.82,0,15.64,40.77,0H60.83V141.58Z"/><rect class="cls-1" x="119.65" y="5.79" width="13.89" height="13.89"/><rect class="cls-1" x="139.5" y="5.79" width="13.89" height="13.89"/><rect class="cls-1" x="180.05" y="89.48" width="13.89" height="13.89"/><rect class="cls-1" x="160.21" y="89.48" width="13.89" height="13.89"/><rect class="cls-1" x="207.44" y="5.79" width="13.89" height="13.89"/><path class="cls-1" d="M207.91,70H191.83V29.6h-13.5V70H154.91V29.34a49.28,49.28,0,0,0-20.21,3.9,43.72,43.72,0,0,0-15,10.39q-15.34,16.8-16,38.9H117.6L119.39,74q6.48-19.86,21.37-27.39V82.53H221.4V29.6H207.91Z"/><rect class="cls-1" x="268.24" y="5.79" width="13.89" height="13.89"/><rect class="cls-1" x="249.06" y="5.79" width="13.89" height="13.89"/><polygon class="cls-1" points="307.74 69.96 292 69.96 281.54 69.96 281.54 29.6 268.05 29.6 268.05 69.96 255.41 69.96 246.35 69.96 242.97 69.96 242.97 3.14 229.47 3.14 229.47 82.53 246.35 82.53 255.41 82.53 281.41 82.53 292 82.53 321.24 82.53 321.24 69.96 321.24 29.6 307.74 29.6 307.74 69.96"/><rect class="cls-1" x="306.48" y="89.48" width="13.89" height="13.89"/><rect class="cls-1" x="286.64" y="89.48" width="13.89" height="13.89"/><path class="cls-1" d="M350.15,29.54H337V73.66q.07,15.09-10.85,15.16v13.49h1.79q22.29,0,22.3-25.87c0-.83,0-1.69-.07-2.58Z"/><path class="cls-1" d="M465.07,70H451.51V29.6h-14q-24.23.6-24.95,22.83V70H401.09V29.6H377.28q-16.41,1.53-18,17.93V62.81q1.52,22.36,28.32,19.72.78,5.88-5.36,6.42H359.81v13.43h21.77q10.32,0,15.87-6.09,3.65-5,3.64-13.76H412.6V95.1h15q16.8,0,21.83-12.57h29.31V3.14H465.07ZM387.2,70h-7.87q-6.94-1.18-6.69-8.6V50.58q.21-7,6.22-7.94h8.34Zm44.33,11.71h-4.7V48.33c.31-3.27,2.42-5,6.35-5.23h4.56v33Q438.07,81.41,431.53,81.67Z"/><rect class="cls-1" x="486.5" y="3.14" width="13.5" height="125.9"/><rect class="cls-1" x="96.01" y="123.46" width="403.99" height="18.11" rx="9.06"/></g></g></svg>