<svg xmlns="http://www.w3.org/2000/svg" viewBox="0 0 500 184.86"><defs><style>.cls-1{fill:#fff;}</style></defs><g id="Layer_2" data-name="Layer 2"><g id="Layer_1-2" data-name="Layer 1"><path class="cls-1" d="M0,132V113.79L33.3,85.85q8-6.37,13.82-11.8A135.46,135.46,0,0,0,57,64a29.64,29.64,0,0,0,8.11-20.41q0-10.72-6.81-17.52T38.22,19.11a53.82,53.82,0,0,0-17.66,3A66.12,66.12,0,0,0,6.37,28.66L3,9A83.32,83.32,0,0,1,11.8,5.36q4.56-1.59,9.63-2.9A73.74,73.74,0,0,1,31.78.58,102.07,102.07,0,0,1,43,0Q66.16,0,78,11T89.9,39.52a44.69,44.69,0,0,1-8,25.92Q73.83,77,57.62,90.34l-26.49,22-.58.29q2.46-.28,5.28-.36t6.3-.22q3.61-.14,7.53-.21t8.25-.08q4.2-.14,8.76-.21t9.48-.08H95.69V132Z"/><path class="cls-1" d="M150,158.58v4.76H136.31v5.46h12.53v4.41H136.31v6.28h13.92v4.75H130.72V158.58Z"/><path class="cls-1" d="M173,179.49v4.75H154.82V158.58h5.59v20.91Z"/><path class="cls-1" d="M210.36,158.58v25.66H205v-7.68q0-6.19.35-13-1.24,5-2.62,9l-4,11.71h-4.41l-4.11-11.47a83,83,0,0,1-2.61-9.1Q188,171.2,188,176v8.28h-5.32V158.58h8l3.84,11.15a63.16,63.16,0,0,1,2.13,8.12,68.26,68.26,0,0,1,2.21-8.17l3.66-11.1Z"/><path class="cls-1" d="M227.93,158a11.91,11.91,0,0,1,8.6,3.36q3.83,3.73,3.82,10.09a13.93,13.93,0,0,1-2.89,9.05,11.77,11.77,0,0,1-9.69,4.39,11.94,11.94,0,0,1-9.87-4.48,13.86,13.86,0,0,1-2.82-8.94q0-6.37,3.66-9.94A12.59,12.59,0,0,1,227.93,158Zm-.09,4.68a6.32,6.32,0,0,0-5.19,2.34,9.9,9.9,0,0,0-1.93,6.41,10,10,0,0,0,1.9,6.45,6,6,0,0,0,2.62,1.86,6.94,6.94,0,0,0,2.57.47,6,6,0,0,0,4.86-2.15,10.17,10.17,0,0,0,2-6.7,10,10,0,0,0-1.88-6.34A6,6,0,0,0,227.84,162.65Z"/><path class="cls-1" d="M266.63,158.58v15.17a16.65,16.65,0,0,1-.6,5.07q-2,6-10.32,6a12.85,12.85,0,0,1-7-1.64,8,8,0,0,1-3.54-4.88,18.79,18.79,0,0,1-.45-4.66v-15.1h5.59v15.47a7.81,7.81,0,0,0,.85,4.2q1.32,2,4.68,1.95c2.1,0,3.56-.61,4.36-1.84a8.11,8.11,0,0,0,.87-4.31V158.58Z"/><path class="cls-1" d="M272.15,158.58h12.42a11.13,11.13,0,0,1,5.64,1.17,6.57,6.57,0,0,1,3.36,6.1,6.67,6.67,0,0,1-1.79,4.79,5.8,5.8,0,0,1-2.29,1.49,4.32,4.32,0,0,1,2.66,1.9,7.6,7.6,0,0,1,1,3c.06.37.18,1.56.36,3.59a7.31,7.31,0,0,0,.77,3.33l.23.29h-5.84a4.68,4.68,0,0,1-.39-1.14c-.08-.39-.21-1.77-.38-4.14-.17-2.11-.77-3.49-1.8-4.15a6.39,6.39,0,0,0-3.32-.66h-5v10.09h-5.59Zm5.59,4.41v7.07h5.34a6.77,6.77,0,0,0,3.64-.73,3.23,3.23,0,0,0,1.33-2.82,3.05,3.05,0,0,0-1.81-3.08,7.45,7.45,0,0,0-2.91-.44Z"/><path class="cls-1" d="M305.09,158.58v25.66H299.5V158.58Z"/><path class="cls-1" d="M329.82,158.58v4.76H322v20.9h-5.59v-20.9h-7.76v-4.76Z"/><path class="cls-1" d="M346.25,158.53,356,184.24h-5.88l-2-5.75h-9.54l-2.08,5.75h-5.77l9.78-25.71Zm.45,15.86-1.65-4.62a51.67,51.67,0,0,1-1.71-5.58q-.64,2.28-1.81,5.58l-1.65,4.62Z"/><path class="cls-1" d="M380.94,158.58v25.66H375.3l-7.65-12.38c-1.19-2-1.86-3.06-2-3.3-.4-.7-.82-1.52-1.25-2.45q.22,2.89.23,7.21v10.92h-5.39V158.58H365l7.45,12.11c1.53,2.49,2.65,4.47,3.37,5.92-.16-2.66-.24-5.1-.24-7.34V158.58Z"/><path class="cls-1" d="M392.5,158.58v25.66h-5.59V158.58Z"/><path class="cls-1" d="M419.88,158.58l-9.56,15.78v9.88h-5.6v-10l-9.57-15.7h6.39l4,6.83a37.06,37.06,0,0,1,2,4.21,43,43,0,0,1,2.15-4.44l3.88-6.6Z"/><path class="cls-1" d="M435.36,158.53l9.74,25.71h-5.88l-2-5.75h-9.55l-2.07,5.75h-5.78l9.78-25.71Zm.45,15.86-1.66-4.62a56.63,56.63,0,0,1-1.71-5.58q-.63,2.28-1.8,5.58L429,174.39Z"/><path class="cls-1" d="M473,158.58v4.76h-7.79v20.9h-5.59v-20.9h-7.76v-4.76Z"/><path class="cls-1" d="M497.2,158.58l-8.54,25.66H482.3l-8.41-25.66h5.86L483.1,169c.48,1.5,1,3.63,1.72,6.37q.42,1.68.72,3.57c.22-1.24.49-2.47.81-3.7q1.13-4.45,1.69-6.21l3.33-10.4Z"/><rect class="cls-1" x="150.7" y="7.33" width="12.76" height="12.76"/><rect class="cls-1" x="168.93" y="7.33" width="12.76" height="12.76"/><rect class="cls-1" x="206.18" y="84.19" width="12.76" height="12.76"/><rect class="cls-1" x="187.95" y="84.19" width="12.76" height="12.76"/><rect class="cls-1" x="231.33" y="7.33" width="12.76" height="12.76"/><path class="cls-1" d="M231.75,66.26H217V29.2H204.6V66.26H183.09V29a45.2,45.2,0,0,0-18.56,3.58,40.21,40.21,0,0,0-13.77,9.54,54,54,0,0,0-14.7,35.73h12.76L150.46,70q6-18.22,19.63-25.15v33h74.06V29.2h-12.4Z"/><rect class="cls-1" x="287.17" y="7.33" width="12.76" height="12.76"/><rect class="cls-1" x="269.55" y="7.33" width="12.76" height="12.76"/><polygon class="cls-1" points="323.44 66.26 308.98 66.26 299.38 66.26 299.38 29.2 286.98 29.2 286.98 66.26 275.38 66.26 267.06 66.26 263.96 66.26 263.96 4.9 251.56 4.9 251.56 77.81 267.06 77.81 275.38 77.81 299.26 77.81 308.98 77.81 335.83 77.81 335.83 66.26 335.83 29.2 323.44 29.2 323.44 66.26"/><rect class="cls-1" x="322.28" y="84.19" width="12.76" height="12.76"/><rect class="cls-1" x="304.06" y="84.19" width="12.76" height="12.76"/><path class="cls-1" d="M362.38,29.14H350.29V69.67q.06,13.85-10,13.91V96H342q20.47,0,20.47-23.75,0-1.16-.06-2.37Z"/><path class="cls-1" d="M467.92,66.26H455.46V29.2H442.64q-22.23.56-22.9,21v16.1H409.17V29.2H387.29q-15.06,1.39-16.52,16.47v14q1.39,20.53,26,18.11.74,5.4-4.92,5.89h-20.6V96h20q9.48,0,14.59-5.59c2.22-3.07,3.34-7.29,3.34-12.63h10.57V89.35h13.79q15.44,0,20.05-11.54H480.5V4.9H467.92Zm-71.51,0h-7.23q-6.39-1.1-6.14-7.9v-9.9q.18-6.43,5.71-7.29h7.66ZM437.12,77H432.8V46.4c.28-3,2.23-4.6,5.83-4.8h4.2V71.91C443,75.15,441.13,76.86,437.12,77Z"/><rect class="cls-1" x="487.61" y="4.9" width="12.39" height="115.62"/><rect class="cls-1" x="128.99" y="115.4" width="371.01" height="16.63" rx="8.32"/></g></g></svg>