<svg xmlns="http://www.w3.org/2000/svg" viewBox="0 0 500 150.09"><defs><style>.cls-1{fill:#fff;}</style></defs><g id="Layer_2" data-name="Layer 2"><g id="Layer_1-2" data-name="Layer 1"><path class="cls-1" d="M274.51,99.79c-.67,2.14-1.37,4.28-2,6.44a25.52,25.52,0,0,1-15.3,17.22,56.47,56.47,0,0,1-24.87,4.78A21.32,21.32,0,0,1,225,126.6a10.48,10.48,0,0,1-6.71-8.87c-.88-6.5-.47-13,.15-19.42.18-1.92.47-3.84.71-5.75,0-.36,0-.75.33-1,.05,0,.11,0,.12.06,2.81,5.63,7.81,7.4,13.64,7.85a53.48,53.48,0,0,0,28.16-5.25,32.68,32.68,0,0,0,8-5.55,1.8,1.8,0,0,0,.58-1.94c-2.06-9-4.07-17.93-6.13-26.89-.43-1.83-.83-3.68-1.35-5.48a2.61,2.61,0,0,1,.89-2.77c4.67-5,9-10.33,13.48-15.48,1.11-1.27,2.19-2.55,3.46-4a70.39,70.39,0,0,1,1.84,9.7C283.63,53,285,64.14,288,75a40.9,40.9,0,0,0,7.61,15.49c3.33,4,7.4,6.9,12.68,7.72a17.63,17.63,0,0,0,2.62.14c3.13,0,6.27,0,9.4,0a14.29,14.29,0,0,0,9.09-3.11C333.8,91.88,337,87.4,340.18,83a45.57,45.57,0,0,1,14-13.14,38.18,38.18,0,0,1,16.4-4.87,9,9,0,0,1,7.37,2.73,30.34,30.34,0,0,1,6.28,9.51c2.29,5.11,4.44,10.3,6.66,15.45a26.3,26.3,0,0,0,2.84,5,1.54,1.54,0,0,0,1.35.76c13.22.18,26.45.15,39.68.13a4.54,4.54,0,0,0,.65-.1c.1-3-.16-6.07-.36-9.08-.46-7.12-1-14.23-1.57-21.34-.72-8.67-1.53-17.33-2.34-26-.36-3.84-.8-7.68-1.22-11.53a3.1,3.1,0,0,1,.57-2.31c3.43-4.85,6.59-9.89,10.2-14.6a8.4,8.4,0,0,1,2.45-2.48c.41,0,.57.23.75.42,5.56,5.78,11,11.66,16.22,17.75.45.52.84,1.1,1.29,1.62a2,2,0,0,1,.24,2.41A55.83,55.83,0,0,1,452.73,47a8.08,8.08,0,0,0-2.09,5.24,96.3,96.3,0,0,0,.14,14.21c.5,9.7,1.15,19.4.36,29.11a88.59,88.59,0,0,1-6,26.4,1.71,1.71,0,0,1-1.91,1.26c-17.92,0-35.85,0-53.78-.05a2.32,2.32,0,0,0-2.29,1.26,22,22,0,0,1-7.21,6.92,3.91,3.91,0,0,1-4.1.28c-13.07-5.93-26.2-11.74-39.29-17.62a1.69,1.69,0,0,0-2.25.36,29.8,29.8,0,0,1-19,8.63,58.91,58.91,0,0,1-18.81-1.14c-11.37-2.8-18.59-9.8-21.55-21.14-.08-.3-.17-.6-.25-.91Zm78.61-8.11c5.25,4,11.21,6.55,17.2,9.17,1.24-5.18-1-10.6-5.1-12.42C361.34,86.71,355.53,88.25,353.12,91.68Z"/><path class="cls-1" d="M40.33,101.29c-.51.3-.66.81-.92,1.23-3.15,5.2-6.31,10.38-9.39,15.62a1.67,1.67,0,0,1-2,.94,72.74,72.74,0,0,1-23-8.17,20.58,20.58,0,0,1-2-1.43,6.51,6.51,0,0,1-2.93-6A77.56,77.56,0,0,1,1.83,88.3a35.85,35.85,0,0,1,14-20.57,131.28,131.28,0,0,1,13.53-8.57,1.85,1.85,0,0,0,1.19-1.79c-.07-2.24,1.05-3.8,2.69-5.27,4.24-3.82,8.34-7.81,12.49-11.73.32-.3.67-.58,1.15-1C47.6,42.76,48,46,48.46,49.2c1.34,9.79,2.33,19.64,5,29.21A43.37,43.37,0,0,0,59.2,91.34,25.8,25.8,0,0,0,62.15,95c2.39,2.44,4.95,4,8.72,3.76,6-.37,12.07-.18,18.11-.07a32.52,32.52,0,0,0,14.43-3.18A67,67,0,0,0,125,79.16c.3-.34.6-.7.91-1a1.57,1.57,0,0,1,.31-.17,3.4,3.4,0,0,1,.58,2.29,62.34,62.34,0,0,1-2.07,15.55,5.74,5.74,0,0,0-.36,2.17c2.69.23,5.39.65,8.08.65,17.84,0,35.67-.15,53.51-.25.32,0,.64,0,1-.07-.24-5.24-5.33-15.69-10.17-20.77l14.17-20.89c.77.85,1.49,1.58,2.16,2.37a51.77,51.77,0,0,1,12.26,30.45c.88,11.31-1.44,22.14-4.95,32.8-.31.93-.82,1-1.62,1q-15.21,0-30.42,0c-13.1,0-26.19,0-39.28,0-5.89,0-11.57-.78-16.71-3.93a1.15,1.15,0,0,0-1.27,0,40.07,40.07,0,0,1-18.47,3.9c-8.3-.06-16.6,0-24.89,0a37.33,37.33,0,0,1-8.36-.93c-9-2.07-14.27-8.1-17.46-16.33C41.27,104.45,40.84,102.87,40.33,101.29ZM34.38,74.62c-2.89,3.3-6.27,5.63-9.38,8.28a24.06,24.06,0,0,0-3.24,3c-.47.57-.61,1,.15,1.57,4.83,3.38,10.12,4,15.88,2.8Z"/><path class="cls-1" d="M91.33,31.62a30.16,30.16,0,0,1,60.31.84c0,16.66-13.64,29.88-30.77,29.73A30,30,0,0,1,91.33,31.62Zm39.9,7c-.12-.26-.23-.46-.31-.67q-2.32-6.48-4.63-13c-.27-.78-.59-1.53-1.51-1.59-1.35-.07-2.71,0-4.22,0,.22.6.36,1,.53,1.44q3.33,8.33,6.67,16.64c1.24,3.08,1.25,3,4.52,3.07a1.47,1.47,0,0,0,1.6-1.11c2.48-6.28,5-12.55,7.51-18.82.15-.37.46-.72.17-1.27-1.09,0-2.24,0-3.38,0a2,2,0,0,0-2,1.51C134.54,29.39,132.91,33.93,131.23,38.63ZM112.6,44.44V27.19h5.81V23.45H101.7a18.94,18.94,0,0,0,.07,3.83h5.89V44.44Z"/><path class="cls-1" d="M500,11.62C500,16.9,500,22,500,27q-.19,21.53-.43,43.07a101.29,101.29,0,0,1-11.37,46.3,35.06,35.06,0,0,1-4,6.09c-.31.38-.66.73-1.23,1.35-.17-2.79-.33-5.24-.46-7.7Q481.11,91,479.74,65.8c-.61-11.26-1.16-22.52-1.8-33.77a5.19,5.19,0,0,1,1.41-4,45.28,45.28,0,0,1,6.35-5.72C490.4,18.74,495.13,15.24,500,11.62Z"/><path class="cls-1" d="M46.75,0q8,8,15.54,15.51c-5,5.19-10.11,10.42-15.38,15.87L32.46,16.31,17.6,30.66,2.08,15.26,17.33.09,31.66,14.88Z"/><path class="cls-1" d="M180.16,150.09,165.71,135l-15.25,14.75L135.25,134c.72-.72,1.81-1.82,2.9-2.9,1.41-1.39,2.61-3.3,4.31-4s3.9-.19,5.88-.2c3,0,6.08,0,9.12,0a2.4,2.4,0,0,1,1.82.76c2,1.93,4.12,3.81,6.31,5.81,1.64-1.65,3.6-3.57,5.5-5.55a3,3,0,0,1,2.4-1c4.56.06,9.12,0,13.69,0a2.75,2.75,0,0,1,2.18.87c2.15,2.21,4.36,4.36,6.34,6.33C190.54,139.4,185.45,144.64,180.16,150.09Z"/><path class="cls-1" d="M314.3,36.29V55.68a5.42,5.42,0,0,1-2.23.15V40.77l-.29-.07c-.81,1.47-1.63,2.94-2.43,4.42-1.27,2.29-2.5,4.6-3.79,6.89-.82,1.47-1.95,1.46-2.78,0-1.88-3.32-3.73-6.66-5.59-10a3.17,3.17,0,0,0-.92-1.09V55.77h-2.35V36.34c2.43-.41,2.48-.39,3.57,1.55q3.33,6,6.7,11.93L310.69,38C311.78,36,311.78,36,314.3,36.29Z"/><path class="cls-1" d="M344,55.86V36.43c.34-.37.78-.24,1.18-.24,2,0,4.05,0,6.08,0,6.43.06,10.53,4.77,9.73,11.15-.66,5.28-4.28,8.48-9.63,8.51C348.88,55.87,346.45,55.86,344,55.86Zm2.72-2.29a52,52,0,0,0,6,0,5.84,5.84,0,0,0,5-4.19,9.88,9.88,0,0,0,0-6.76,5.8,5.8,0,0,0-3.87-3.83c-2.32-.71-4.7-.37-7.11-.34Z"/><path class="cls-1" d="M384.24,55.81h-2.35V36.34a2.28,2.28,0,0,1,2.85,1c3.17,4.23,6.43,8.4,9.66,12.59.26.35.56.68,1.07,1.3V36.36a4.67,4.67,0,0,1,2.25-.09V55.74a2.27,2.27,0,0,1-2.77-1c-3.18-4.23-6.43-8.4-9.66-12.59-.27-.35-.44-.8-1.05-1Z"/><path class="cls-1" d="M423.1,55.78c-2.58.22-2.58.22-3.43-2-1.27-3.3-1.27-3.3-4.76-3.3-1.33,0-2.67.06-4,0-1-.05-1.56.18-1.81,1.2a17.38,17.38,0,0,1-.82,2.18c-.83,2.14-.83,2.14-3.26,1.91-.24-.49.11-.88.26-1.28,2.31-5.8,4.66-11.59,6.93-17.41a1.3,1.3,0,0,1,1.58-.91c.72.07,1.51-.27,1.93.8,2.39,6.12,4.85,12.21,7.28,18.31A3,3,0,0,1,423.1,55.78Zm-5.51-7.35c-1.25-3.25-2.4-6.26-3.61-9.4-1.21,3.19-2.37,6.23-3.57,9.4Z"/><path class="cls-1" d="M335.51,53.62a4.6,4.6,0,0,1,.14,2.19h-12V36.27h11.89a3.18,3.18,0,0,1,.07,2h-9.26v6.47h7.33a3.9,3.9,0,0,1,.2,2.16h-7.52v6.68Z"/><path class="cls-1" d="M372.06,55.81h-2.43V36.34c.73-.35,1.54-.07,2.43-.15Z"/></g></g></svg>