<svg xmlns="http://www.w3.org/2000/svg" viewBox="0 0 500 272.19"><defs><style>.cls-1{fill:#fff;}</style></defs><g id="Layer_2" data-name="Layer 2"><g id="Layer_1-2" data-name="Layer 1"><path class="cls-1" d="M13.91,112.69A8.76,8.76,0,0,0,26.3,100.3a9.33,9.33,0,0,0-2.78-1.9,8.57,8.57,0,0,0-6.83,0,9.33,9.33,0,0,0-2.78,1.9,8.8,8.8,0,0,0,0,12.39Z"/><path class="cls-1" d="M34.76,112.69A8.74,8.74,0,0,0,41,115.23a8.45,8.45,0,0,0,3.39-.68,8.83,8.83,0,0,0,4.6-11.48,8.65,8.65,0,0,0-1.86-2.77,9.4,9.4,0,0,0-2.74-1.9A8.14,8.14,0,0,0,41,97.69a8.33,8.33,0,0,0-3.41.71,9.33,9.33,0,0,0-2.78,1.9,9.08,9.08,0,0,0-1.89,2.77,8.48,8.48,0,0,0,0,6.84A9.12,9.12,0,0,0,34.76,112.69Z"/><path class="cls-1" d="M103.88,198.32a8.74,8.74,0,1,0,1.86,2.78A8.7,8.7,0,0,0,103.88,198.32Z"/><path class="cls-1" d="M83,198.32a8.73,8.73,0,1,0,0,12.39,9.12,9.12,0,0,0,1.89-2.78,8.57,8.57,0,0,0,0-6.83A9.12,9.12,0,0,0,83,198.32Z"/><path class="cls-1" d="M156.07,112.69a8.85,8.85,0,0,0,9.61,1.86,8.7,8.7,0,0,0,2.78-1.86,9.12,9.12,0,0,0,1.89-2.78,8.59,8.59,0,0,0,0-6.84,9.08,9.08,0,0,0-1.89-2.77,9.33,9.33,0,0,0-2.78-1.9,8.57,8.57,0,0,0-6.83,0,9.14,9.14,0,0,0-4.68,4.67,8.59,8.59,0,0,0,0,6.84A9.33,9.33,0,0,0,156.07,112.69Z"/><path class="cls-1" d="M190.15,128.93a23.54,23.54,0,0,0-9.17-5.45,36.3,36.3,0,0,0-11.13-1.69,42.48,42.48,0,0,0-13.64,2.34,56.85,56.85,0,0,0-12.9,6.19v-8.53H126v50H106.55v-50H89.29v50H61.2v-19A29.12,29.12,0,0,0,58.86,141a31.47,31.47,0,0,0-16.35-16.59,28.91,28.91,0,0,0-11.91-2.5,29,29,0,0,0-11.88,2.47A31.26,31.26,0,0,0,0,153.13v13.68a21.56,21.56,0,0,0,1.76,8.66,22.31,22.31,0,0,0,4.81,7.08,23,23,0,0,0,7.1,4.77,21.64,21.64,0,0,0,8.67,1.76H32.49V171.82H22.34a4.91,4.91,0,0,1-3.62-1.46,4.83,4.83,0,0,1-1.46-3.55V153.13a14.52,14.52,0,0,1,3.89-9.95,13.28,13.28,0,0,1,4.24-3,13.11,13.11,0,0,1,10.42,0A13.81,13.81,0,0,1,43,147.48a13.3,13.3,0,0,1,1,5.25v36.35H176.07a22,22,0,0,0,8.77-1.76,23.34,23.34,0,0,0,7.18-4.77,22.81,22.81,0,0,0,4.87-7,21.07,21.07,0,0,0,1.79-8.63V153.34a40.94,40.94,0,0,0-2.3-14.66A26.29,26.29,0,0,0,190.15,128.93Zm-8.8,37.95a4.62,4.62,0,0,1-1.55,3.48,5.28,5.28,0,0,1-3.73,1.46H143.31V155.57a9.27,9.27,0,0,1,2.47-6,25.39,25.39,0,0,1,6.33-5.28,37.31,37.31,0,0,1,8.56-3.76,32,32,0,0,1,9.18-1.42,13,13,0,0,1,4.4.75,9.4,9.4,0,0,1,3.69,2.43,12.06,12.06,0,0,1,2.5,4.4,21,21,0,0,1,.91,6.64Z"/><path class="cls-1" d="M259.2,166.61a5,5,0,0,1-1.52,3.68,4.94,4.94,0,0,1-3.62,1.53H235.44a5.11,5.11,0,0,1-3.69-1.49,4.93,4.93,0,0,1-1.52-3.66v-69H212.9v69a21.54,21.54,0,0,0,1.79,8.7,23.17,23.17,0,0,0,4.84,7.14,22.51,22.51,0,0,0,7.15,4.81,22,22,0,0,0,8.76,1.76h18.62a21.59,21.59,0,0,0,8.66-1.76,22.67,22.67,0,0,0,7.11-4.81,23.17,23.17,0,0,0,4.84-7.14,21.52,21.52,0,0,0,1.79-8.76V121.79H259.2Z"/><path class="cls-1" d="M273.93,198.32a8.73,8.73,0,0,0-14.25,2.78,8.92,8.92,0,0,0,0,6.83,8.78,8.78,0,0,0,14.25,2.78,8.87,8.87,0,0,0,1.86-2.78,9,9,0,0,0,0-6.83A8.87,8.87,0,0,0,273.93,198.32Z"/><path class="cls-1" d="M253.08,198.32a8.73,8.73,0,1,0,0,12.39,9.3,9.3,0,0,0,1.89-2.78,8.57,8.57,0,0,0,0-6.83A9.3,9.3,0,0,0,253.08,198.32Z"/><path class="cls-1" d="M340.5,166.67a4.89,4.89,0,0,1-1.52,3.66,5.19,5.19,0,0,1-3.76,1.49H320v-50H302.66v59.1a13.15,13.15,0,0,1-2,6.09,21.79,21.79,0,0,1-2,2.81,24.14,24.14,0,0,1-3.05,3,35,35,0,0,1-4.36,3,50.68,50.68,0,0,1-5.86,2.94L292,214.67a61.52,61.52,0,0,0,11.58-6.16,46.06,46.06,0,0,0,7.82-6.74,33,33,0,0,0,4.77-6.66,34.43,34.43,0,0,0,2.51-6h16.51a22,22,0,0,0,8.77-1.76,22.94,22.94,0,0,0,7.17-4.81,22.17,22.17,0,0,0,4.84-7.14,21.68,21.68,0,0,0,1.76-8.7v-69H340.5Z"/><rect class="cls-1" x="371.98" y="97.69" width="17.26" height="91.39"/><path class="cls-1" d="M499.57,26.84c-.31-1.81-.6-3.61-.93-5.41a29.57,29.57,0,0,0-7.47-14.75c-4.38-4.8-9.9-7.44-16.42-6.49-8.32,1.23-16.55,3-24.82,4.61C441.3,6.46,432.67,8.19,424,9.87c-4.51.88-9,1.65-13.54,2.55-5.33,1.05-10.63,2.24-16,3.26-4.13.8-8.31,1.36-12.44,2.16-7.14,1.38-14.25,2.93-21.4,4.29-8.88,1.69-17.8,3.21-26.68,4.9s-17.9,3.55-26.85,5.29c-7.83,1.52-15.68,3-23.51,4.46-5.35,1-10.73,1.94-16.05,3.09-2.48.54-5.2,1-7.24,2.39-9,6-12.24,15.22-13.73,25.33l-.45,1.82V89.75c.59,1,1.2,1.38,1.85,0,.45-1.35.89-2.71,1.36-4.06,3.12-8.87,7.28-13.39,16.61-14.46,4.65-.54,9.27-1.34,13.89-2.14,8.07-1.39,16.12-2.92,24.2-4.29,6.41-1.08,12.86-1.93,19.27-3,8.77-1.46,17.51-3,26.27-4.55,11.48-2,23-4,34.45-6,5.43-.93,10.89-1.73,16.33-2.65,4.53-.76,9.05-1.62,13.59-2.38,5.36-.9,10.75-1.63,16.09-2.62,5.52-1,10.18.19,13.83,4.61,4.83,5.85,6.53,12.75,6.53,20.13,0,45.58,0,91.16.06,136.74A49.19,49.19,0,0,1,447.68,223c-2.3,6-5.73,11.36-12.16,13.44-3.49,1.14-7.4,1.19-11.13,1.37-5.47.27-10.95.21-16.43.29a.47.47,0,0,0,0,.1,2.14,2.14,0,0,0-.1.22,2.14,2.14,0,0,1,.1-.22.47.47,0,0,1,0-.1l-.54-.15-8.76.44-1,.38,5,0-5,0L381,239l-.87-.14-9.26.44-.52.39-16.12.12-1,.45,1-.45c-3.76,0-7.52-.05-11.28,0a16.49,16.49,0,0,0-2.59.44l-2.41.39-11,.11-.63.43.63-.43c-4.55,0-9.09,0-13.64,0a6.45,6.45,0,0,0-1.67.44l-2.83.4-13,.09h0c-3.89,0-7.78,0-11.68,0a9.86,9.86,0,0,0-2.1.45l-1.52.38c-6,.18-12,.42-17.95.5a10.89,10.89,0,0,1-8.66-3.48,24.23,24.23,0,0,1-5.49-10.61c-.13-.51-1.12-.78-1.71-1.17a1.14,1.14,0,0,0-.45.06c-.17.32-.47.65-.47,1q0,8.66,0,17.32a3,3,0,0,0,.43,1c.13.34.27.67.4,1a32,32,0,0,0,8.22,19.27,13.46,13.46,0,0,0,10.74,4.8c8.17-.17,16.35-.09,24.53-.11h41.36a4.3,4.3,0,0,0,1.24-.41l1-.41,42.95-.13a3.56,3.56,0,0,0,.13-.39,3.56,3.56,0,0,1-.13.39q18.72,0,37.44,0c.32,0,.64-.29,1-.45l11.65-.39,21-.14,16.15.07c3.59,0,7.19,0,10.79,0a15.5,15.5,0,0,0,2.58-.45,2.79,2.79,0,0,0,.1-.39c2.42-1,5-1.74,7.24-3.1,6.22-3.81,9.73-9.87,12.19-16.44,1.43-3.8,1.93-7.94,2.84-11.93l.42-1V27.74Z"/></g></g></svg>