<svg xmlns="http://www.w3.org/2000/svg" viewBox="0 0 500 256.21"><defs><style>.cls-1{fill:#fff;}</style></defs><g id="Layer_2" data-name="Layer 2"><g id="Layer_1-2" data-name="Layer 1"><path class="cls-1" d="M13.09,118.13a8.25,8.25,0,0,0,2.62,1.75,8.4,8.4,0,0,0,6.43,0,8.25,8.25,0,0,0,2.62-1.75,8.37,8.37,0,0,0,1.75-2.61,8.28,8.28,0,0,0-1.75-9,8.89,8.89,0,0,0-2.62-1.79,8,8,0,0,0-6.43,0,8.89,8.89,0,0,0-2.62,1.79,8.34,8.34,0,0,0-1.75,9A8.37,8.37,0,0,0,13.09,118.13Z"/><path class="cls-1" d="M32.72,118.13a8.2,8.2,0,0,0,5.83,2.39,7.84,7.84,0,0,0,3.19-.64,8.2,8.2,0,0,0,4.33-4.36,8.28,8.28,0,0,0-1.75-9,9.11,9.11,0,0,0-2.58-1.79,7.69,7.69,0,0,0-3.19-.67,7.9,7.9,0,0,0-3.22.67,8.72,8.72,0,0,0-2.61,1.79,8.51,8.51,0,0,0-1.78,2.61,8.07,8.07,0,0,0,0,6.44A8.63,8.63,0,0,0,32.72,118.13Z"/><path class="cls-1" d="M97.78,198.73A8.37,8.37,0,0,0,95.17,197a8.28,8.28,0,0,0-9,1.75,8.3,8.3,0,0,0,0,11.67,8.34,8.34,0,0,0,9,1.75,8.37,8.37,0,0,0,2.61-1.75,8.25,8.25,0,0,0,1.75-2.62,8.4,8.4,0,0,0,0-6.43A8.25,8.25,0,0,0,97.78,198.73Z"/><path class="cls-1" d="M78.15,198.73a8.13,8.13,0,0,0-5.83-2.38,8.17,8.17,0,0,0-3.21.63,8.07,8.07,0,0,0-4.37,4.37,8.4,8.4,0,0,0,0,6.43,8.07,8.07,0,0,0,4.37,4.37,8.27,8.27,0,0,0,9-1.75,8.71,8.71,0,0,0,1.79-2.62,8,8,0,0,0,0-6.43A8.71,8.71,0,0,0,78.15,198.73Z"/><path class="cls-1" d="M141.3,118.13a8.2,8.2,0,0,0,5.83,2.39,7.84,7.84,0,0,0,3.19-.64,8.2,8.2,0,0,0,4.33-4.36,8.28,8.28,0,0,0-1.75-9,9.11,9.11,0,0,0-2.58-1.79,7.69,7.69,0,0,0-3.19-.67,7.9,7.9,0,0,0-3.22.67,8.72,8.72,0,0,0-2.61,1.79,8.51,8.51,0,0,0-1.78,2.61,8.07,8.07,0,0,0,0,6.44A8.63,8.63,0,0,0,141.3,118.13Z"/><path class="cls-1" d="M167.33,134.92a28.74,28.74,0,0,0-9.08-6,29.31,29.31,0,0,0-22.21,0,28.5,28.5,0,0,0-9,6,27.73,27.73,0,0,0-6.12,9.05,28.59,28.59,0,0,0-2.23,11.35v18.54H100.3V126.7H84.05v47.09H57.6V155.88a27.3,27.3,0,0,0-2.2-11.15A29.58,29.58,0,0,0,40,129.12a27.92,27.92,0,0,0-22.4,0A29.29,29.29,0,0,0,2.26,144.73,29.12,29.12,0,0,0,0,156.2v12.87a20.22,20.22,0,0,0,1.66,8.16,20.94,20.94,0,0,0,4.52,6.66,21.56,21.56,0,0,0,6.69,4.49A20.22,20.22,0,0,0,21,190h9.56V173.79H21a4.64,4.64,0,0,1-3.41-1.37,4.53,4.53,0,0,1-1.37-3.35V156.2a13.71,13.71,0,0,1,3.66-9.37,12.51,12.51,0,0,1,4-2.8,12.3,12.3,0,0,1,9.81,0,12.79,12.79,0,0,1,4,2.77,13,13,0,0,1,2.71,4.08,12.49,12.49,0,0,1,1,4.94V190h113a22.16,22.16,0,0,0,8.25-1.53,20.81,20.81,0,0,0,6.75-4.3,19.56,19.56,0,0,0,4.56-6.73,22.23,22.23,0,0,0,1.66-8.73V154.93a27.63,27.63,0,0,0-2.23-11A28.18,28.18,0,0,0,167.33,134.92Zm-7.9,33.83a4.86,4.86,0,0,1-1.43,3.67,5,5,0,0,1-3.54,1.37H134.83V155.25a12.07,12.07,0,0,1,3.6-8.73,12.65,12.65,0,0,1,3.92-2.62,12.14,12.14,0,0,1,4.78-1,12.71,12.71,0,0,1,4.81.92,12.43,12.43,0,0,1,3.95,2.55,11.75,11.75,0,0,1,2.65,3.82,11.08,11.08,0,0,1,.89,4.69Z"/><path class="cls-1" d="M237.71,118.13a8.28,8.28,0,0,0,11.66,0,8.2,8.2,0,0,0,1.75-2.61,8.28,8.28,0,0,0-1.75-9,8.72,8.72,0,0,0-2.61-1.79,8.07,8.07,0,0,0-6.44,0,8.72,8.72,0,0,0-2.61,1.79,8.51,8.51,0,0,0-1.78,2.61,8.07,8.07,0,0,0,0,6.44A8.63,8.63,0,0,0,237.71,118.13Z"/><path class="cls-1" d="M257.34,118.13a8.2,8.2,0,0,0,5.83,2.39,8,8,0,0,0,3.21-.64,8.25,8.25,0,0,0,2.62-1.75,8.37,8.37,0,0,0,1.75-2.61,8.28,8.28,0,0,0-1.75-9,8.89,8.89,0,0,0-2.62-1.79,8,8,0,0,0-6.43,0,8.72,8.72,0,0,0-2.61,1.79,8.54,8.54,0,0,0-1.79,2.61,8.07,8.07,0,0,0,0,6.44A8.66,8.66,0,0,0,257.34,118.13Z"/><path class="cls-1" d="M290.66,118.13a8.2,8.2,0,0,0,2.61,1.75,8.25,8.25,0,0,0,10.8-10.8,7.94,7.94,0,0,0-1.75-2.61,8.72,8.72,0,0,0-2.61-1.79,8.07,8.07,0,0,0-6.44,0,8.84,8.84,0,0,0-2.61,1.79,8.09,8.09,0,0,0-1.75,2.61,8.28,8.28,0,0,0,1.75,9Z"/><path class="cls-1" d="M300.41,102.2a8.2,8.2,0,0,0,5.83,2.39,7.84,7.84,0,0,0,3.19-.64A8.42,8.42,0,0,0,312,102.2a8.34,8.34,0,0,0,1.75-9A8.09,8.09,0,0,0,312,90.54a8.91,8.91,0,0,0-2.58-1.79,7.69,7.69,0,0,0-3.19-.67,7.9,7.9,0,0,0-3.22.67,8.57,8.57,0,0,0-4.39,4.4,8.07,8.07,0,0,0,0,6.44A8.63,8.63,0,0,0,300.41,102.2Z"/><path class="cls-1" d="M310.29,106.47a8.54,8.54,0,0,0-1.79,2.61,8.07,8.07,0,0,0,0,6.44,8.66,8.66,0,0,0,1.79,2.61,8.2,8.2,0,0,0,5.83,2.39,7.79,7.79,0,0,0,3.18-.64,8.25,8.25,0,0,0,2.58-13.41,8.83,8.83,0,0,0-2.58-1.79,7.65,7.65,0,0,0-3.18-.67,7.9,7.9,0,0,0-3.22.67A8.72,8.72,0,0,0,310.29,106.47Z"/><path class="cls-1" d="M343.84,169a4.62,4.62,0,0,1-1.44,3.44,4.86,4.86,0,0,1-3.53,1.4h-14.4V126.7H308.22v47.09H281.84V154.93a27.15,27.15,0,0,0-2.27-11,28.39,28.39,0,0,0-6.14-9,28.78,28.78,0,0,0-9.09-6,29.29,29.29,0,0,0-22.2,0,28.55,28.55,0,0,0-9,6A28,28,0,0,0,227,143.9a28.76,28.76,0,0,0-2.23,11.35v18.54h-14.4a4.78,4.78,0,0,1-3.47-1.4,4.61,4.61,0,0,1-1.43-3.44V104H189.12V169a20.27,20.27,0,0,0,1.69,8.18,22,22,0,0,0,4.56,6.73,21.21,21.21,0,0,0,6.72,4.52,20.58,20.58,0,0,0,8.25,1.66H338.87a20.58,20.58,0,0,0,8.25-1.66,21.57,21.57,0,0,0,6.75-4.52,21.14,21.14,0,0,0,4.56-6.73,20.59,20.59,0,0,0,1.66-8.18V104H343.84Zm-78.32,4.84H240.93V155.25a12.3,12.3,0,0,1,.95-4.85,12,12,0,0,1,2.65-3.88,12.54,12.54,0,0,1,3.92-2.62,12.1,12.1,0,0,1,4.78-1,12.42,12.42,0,0,1,8.69,3.47,11.75,11.75,0,0,1,2.65,3.82,11.6,11.6,0,0,1,.95,4.69Z"/><rect class="cls-1" x="373.47" y="104.01" width="16.25" height="86.02"/><path class="cls-1" d="M499.59,25.26c-.29-1.69-.56-3.4-.87-5.09a27.81,27.81,0,0,0-7-13.88c-4.13-4.52-9.32-7-15.45-6.11C468.4,1.33,460.65,3,452.87,4.51c-8.13,1.57-16.24,3.2-24.37,4.78-4.24.82-8.51,1.56-12.75,2.4-5,1-10,2.11-15,3.07-3.89.75-7.82,1.28-11.71,2-6.72,1.3-13.41,2.76-20.14,4-8.36,1.59-16.76,3-25.12,4.61s-16.84,3.34-25.27,5c-7.37,1.43-14.76,2.81-22.13,4.2-5,1-10.1,1.82-15.1,2.91-2.34.5-4.9,1-6.83,2.25C266,45.4,262.92,54.1,261.51,63.63l-.42,1.7V84.48c.56,1,1.13,1.3,1.74,0,.42-1.27.84-2.56,1.28-3.83,2.94-8.35,6.86-12.6,15.63-13.61,4.38-.5,8.73-1.26,13.08-2,7.6-1.31,15.18-2.75,22.78-4,6-1,12.11-1.82,18.14-2.82,8.25-1.38,16.48-2.85,24.72-4.28q16.21-2.82,32.43-5.61c5.12-.88,10.25-1.64,15.37-2.49,4.27-.72,8.53-1.53,12.8-2.25,5-.84,10.12-1.53,15.14-2.47,5.2-1,9.59.18,13,4.34,4.55,5.51,6.15,12,6.15,18.95,0,42.91,0,85.81.06,128.72a46.3,46.3,0,0,1-2.68,16.79c-2.16,5.65-5.39,10.7-11.44,12.65-3.29,1.07-7,1.12-10.48,1.29-5.15.25-10.31.2-15.47.28l-.05.09-.09.2.09-.2.05-.09-.5-.15-8.25.42-1,.35,4.67,0-4.67,0L388,225l-.82-.13-8.72.42-.49.37-15.17.11-.95.42.95-.42c-3.54,0-7.08-.05-10.62,0a15,15,0,0,0-2.44.42l-2.26.37-10.36.1-.59.4.59-.4c-4.28,0-8.56,0-12.83,0a6.46,6.46,0,0,0-1.58.41l-2.67.38-12.22.09h0c-3.66,0-7.33,0-11,0a10.76,10.76,0,0,0-2,.42l-1.43.37c-5.63.16-11.27.39-16.9.46a10.23,10.23,0,0,1-8.15-3.27,22.76,22.76,0,0,1-5.17-10c-.12-.47-1.05-.74-1.61-1.1a1.07,1.07,0,0,0-.43.06c-.15.3-.44.61-.44.91q0,8.16,0,16.31a2.85,2.85,0,0,0,.4,1l.37.94a30.14,30.14,0,0,0,7.74,18.14,12.68,12.68,0,0,0,10.11,4.52c7.69-.16,15.39-.08,23.09-.1h38.93a4.13,4.13,0,0,0,1.17-.39l1-.39,40.43-.11a2.29,2.29,0,0,0,.12-.37,2.29,2.29,0,0,1-.12.37q17.63,0,35.24,0c.3,0,.61-.27.91-.42l11-.37,19.73-.13,15.2.07c3.39,0,6.77,0,10.16,0a14.45,14.45,0,0,0,2.42-.43,1.56,1.56,0,0,0,.1-.37,49.75,49.75,0,0,0,6.82-2.91c5.86-3.59,9.16-9.29,11.47-15.48,1.34-3.57,1.82-7.47,2.68-11.23l.39-.91V26.11C499.86,25.83,499.73,25.55,499.59,25.26Z"/></g></g></svg>