<svg xmlns="http://www.w3.org/2000/svg" viewBox="0 0 500 99.95"><defs><style>.cls-1{fill:#fff;}</style></defs><g id="Layer_2" data-name="Layer 2"><g id="Layer_1-2" data-name="Layer 1"><path class="cls-1" d="M481.71,0H18.29A18.29,18.29,0,0,0,0,18.29V81.66A18.29,18.29,0,0,0,18.29,100H481.71A18.29,18.29,0,0,0,500,81.66V18.29A18.29,18.29,0,0,0,481.71,0Zm-410,77.84q-6,6-16.41,6a34.07,34.07,0,0,1-10.45-1.43,44.61,44.61,0,0,1-8.34-3.62V63.14h1.36a28,28,0,0,0,8.63,6.42,21.69,21.69,0,0,0,9.19,2.24,21.64,21.64,0,0,0,3-.27,9,9,0,0,0,3-.88,7.56,7.56,0,0,0,2.35-2A5.71,5.71,0,0,0,65,65.16a5.53,5.53,0,0,0-1.34-3.71,8.54,8.54,0,0,0-3.94-2.4Q57,58.18,53.94,57.4a34.8,34.8,0,0,1-5.68-1.95,18.11,18.11,0,0,1-8.76-7.28,22.26,22.26,0,0,1-2.68-11.4,19.76,19.76,0,0,1,6-14.92q6-5.78,15.54-5.78a37.73,37.73,0,0,1,17.46,4.4V35.54H74.53a25.08,25.08,0,0,0-7.14-5.3,19,19,0,0,0-8.64-2.13,16.93,16.93,0,0,0-3.09.29,9.85,9.85,0,0,0-3,1.07,5.89,5.89,0,0,0-2.17,2,5.32,5.32,0,0,0-.91,3.06,5.21,5.21,0,0,0,1.46,4q1.45,1.38,5.5,2.52l5.1,1.45A43.37,43.37,0,0,1,67,44.42a17.74,17.74,0,0,1,8.18,6.7q2.64,4.25,2.64,11Q77.77,71.79,71.73,77.84Zm49.44-47.93H98.66v11.3h20.89V53.87H98.66V70h22.51V82.7H86.29V17.26h34.88ZM157.75,82.7H143.82L126.23,17.26h13l11.66,46,11.66-46h12.73Zm59.4-52.79H194.64v11.3h20.89V53.87H194.64V70h22.51V82.7H182.27V17.26h34.88ZM271.44,82.7h-12L239,37.78V82.7H227.58V17.26h14.87L260,54.75V17.26h11.4Zm50.05-52.79H306.43V82.7H294V29.91H278.93V17.26h42.56Zm42.37,0H341.35v11.3h20.89V53.87H341.35V70h22.51V82.7H329V17.26h34.89Zm45.32,0H386.66v11.3h20.9V53.87h-20.9V70h22.52V82.7H374.29V17.26h34.89ZM463.47,82.7h-12L431,37.78V82.7h-11.4V17.26h14.87l17.59,37.49V17.26h11.4Z"/></g></g></svg>