<svg xmlns="http://www.w3.org/2000/svg" viewBox="0 0 500 192.44"><defs><style>.cls-1{fill:#fff;}</style></defs><g id="Layer_2" data-name="Layer 2"><g id="Layer_1-2" data-name="Layer 1"><path class="cls-1" d="M447.22,0c-11.81,0-23.62,0-35.91,0,0,3,0,5.22,0,7.41-.1,25.79-.14,51.58-.32,77.37-.05,8.58-4.92,14.32-13.26,16.16-6.36,1.41-8,.12-8-6.26q0-19.65,0-39.3c0-6.44-1.7-12.87-7.14-16.16-4.65-2.8-10.46-4.13-16.25-4.48-22.73-1.38-45.48-.67-68.22-.78-1.35,0-2.84-.37-4.11,1V69.73h43.07c4.38,0,8.65.59,10.85,5a22.17,22.17,0,0,1-.47,21.93c-2.06,3.65-5.51,4.82-9.74,4.76-11.68-.18-23.37-.06-35.06-.06H277.52c0-13.88,0-27.13,0-40.38,0-19-7.9-27-26.69-27q-31.44-.08-62.88,0c-2.13,0-4.43-.64-6.32.93V69.63c2.14,0,3.9,0,5.67,0,12.5,0,25-.12,37.48-.1,2.59,0,5.34-.23,7.55,1.55,5.07,4.08,6.84,13,4.21,20.61-2.08,6-7.62,9.72-14.54,9.71-11.08,0-22.17-.09-33.25,0-2.3,0-4.79-.82-6.88.74v36.39H336.73c25.79,0,51.58.14,77.38,0,22.7-.17,35.45-11.11,35.92-32.65.72-33.84.19-67.7.22-101.56C450.25,2.05,450,.05,447.22,0Z"/><path class="cls-1" d="M156.71,65.87c.23-10.42,0-20.85,0-31.62H119.07v6.14c0,15.31.05,30.62,0,45.93a53.78,53.78,0,0,1-1,8.36,7.28,7.28,0,0,1-6.92,6.45c-4.51.46-9.09.78-13.77-.38,0-13.37,0-26.46,0-39.54.07-18.31-7.18-26.42-25.12-27C49.15,33.41,26,34,3.17,34v35.3c3.88,0,7.27,0,10.67,0,10.88.09,21.75.09,32.63.33,5.78.12,10,2.93,11.85,8.57a20,20,0,0,1-9,23.55q-22-.18-43.95-.36c-1.22,0-2.45.13-2.81,1.66l-.06,1.73a5.57,5.57,0,0,0,.09,5.16v2.18a76.86,76.86,0,0,0,0,22c.31,1.48-.55,3.22,1.14,4.69,40.69,0,81.58.52,122.45-.27,15.53-.3,27.26-9.36,29.53-26.2C157.81,96.87,156.36,81.36,156.71,65.87Z"/><path class="cls-1" d="M463.6.06v138H500V.06Z"/><path class="cls-1" d="M0,159v33.43H500V159Zm97.19,17.76c-.77,9-9.06,15.66-18.3,14.78-8-.76-14.74-9.27-13.88-17.57s8.47-14.86,16.52-14.09C91.4,160.84,98,167.91,97.19,176.77Zm23.71,15c-7.39.88-15.39-8.91-15-16.21.44-8.74,7.91-16.37,16.21-15.92,9.41.51,16.57,7.95,16.12,16.73S130.14,192.06,120.9,191.78Zm235.59,0a16,16,0,1,1,.78-32.09c8.54.25,15.81,7.54,15.78,15.85A16.42,16.42,0,0,1,356.49,191.78Z"/><rect class="cls-1" x="0.62" y="101.42" width="21.36" height="37.45"/></g></g></svg>