<svg xmlns="http://www.w3.org/2000/svg" viewBox="0 0 500 359.51"><defs><style>.cls-1{fill:#fff;}</style></defs><g id="Layer_2" data-name="Layer 2"><g id="Layer_1-2" data-name="Layer 1"><path class="cls-1" d="M158.32,263.53Q286.59,132.76,414.66,2.22l7.7,9.07c-13.53,19-13.81,39,0,59.42-.2.73-1,1.22-1.69,1.86Q365.54,127.77,310.4,183q-36.06,36.11-72.14,72.2c-4.78,4.76-5.85,10.45-4.08,16.51,2.13,7.31,6.32,13.07,14.49,14.61,10.4,2,19.9-2.62,25.13-12,4.87-8.79,3.54-18-3.75-26.06-.34-.37-.65-.77-1.21-1.43l30-29,46.67,47.67-94.09,94.1Z"/><path class="cls-1" d="M249,87.67l32.58,32.59L204.4,196.78,78.15,69.21c16.2-20.22,12.48-46.12-1.57-62C78.67,4.85,80.77,2.5,83,0L209.57,125.36Z"/><path class="cls-1" d="M0,85.42,11.34,75C28.51,88.1,47.1,89.66,66.64,79.36l127,127.22L130.07,275l-10.22-9.18c2.06-2.62,4-5.08,5.9-7.51,2.46-3.11,2.42-4.82-.32-7.75-1.85-2-3.79-3.85-5.63-5.83A25.58,25.58,0,0,1,117.11,213q2.07-3.17,4.12-6.35Z"/><path class="cls-1" d="M374.33,273.56l-64.47-65.42L434.07,81.48c19.65,11.1,38.49,9.85,56.78-3.59L500,87.51c-.29,1.12-1.22,1.65-1.91,2.34Q461.05,126.93,424,164q-19.61,19.62-39.16,39.26c-3.52,3.53-3.65,6.48-.49,10.4,5.59,6.94,5.64,16.7.11,24.46a47.3,47.3,0,0,1-3.79,5.06c-4.39,4.71-4.47,10.14-2.23,15.55C381.36,265.8,381.11,266.38,374.33,273.56Z"/><path class="cls-1" d="M229,53.62a23.89,23.89,0,1,1,23.89,24A23.69,23.69,0,0,1,229,53.62Z"/></g></g></svg>