<svg xmlns="http://www.w3.org/2000/svg" viewBox="0 0 500 487.38"><defs><style>.cls-1{fill:#fff;}</style></defs><g id="Layer_2" data-name="Layer 2"><g id="Layer_1-2" data-name="Layer 1"><path class="cls-1" d="M500,321.32c-1.14-.07-2.77.42-1.9-1.82.64-1.63.67-3.49,1.9-4.88Z"/><path class="cls-1" d="M245.58,487.29C111.21,490.74,1.65,377.78,0,247.1-1.66,112.14,110.28-3.64,248.67.09,306.73,1.65,358,19.91,402.24,57.26c43.6,36.82,71.79,83.23,82,139.58,15.2,83.75-6.36,157-65.57,218.41C372.84,462.77,308.65,489.07,245.58,487.29Zm-1.28-7.83c130.06-1.1,235.23-103.19,235.89-234.25.67-132.47-104.54-235.32-233-236.61C114.67,7.27,9.72,112.31,9,242.33,8.21,374,112.8,477.92,244.3,479.46Z"/><path class="cls-1" d="M255.82,457.49c-7.3-7.19-12.68-15.91-19.79-23.91l-24.9,31.77-1.06-.77,22.52-35.65c-5.16-6.59-10.39-13.26-15.6-19.94-22.41-28.75-45.4-57-71.92-82.14-23.93-22.69-49.56-43.35-75.45-63.72-1.69-1.33-2.82-1-4.37.14-4.17,3-8.46,5.92-12.72,8.84-1.21.84-2.32,2.14-4.25,1.11L65.53,260,41,241.15c3.6.36,6,2.67,8.68,4.45,5.35,3.56,10.61,7.24,15.83,11,1.55,1.11,2.64,1.46,4.37.11,39.15-30.66,77.78-61.89,110.69-99.51,18.76-21.44,36.13-44,53.76-66.36,1.58-2,1.25-3.23.05-5.07-4.11-6.31-8.08-12.72-12.08-19.1-.74-1.18-2-2.19-1.08-3.74,6.53,6.15,11.11,14.38,17.94,21.6l21.45-27.43c.82,2.41-.72,3.58-1.53,4.88-5,8.07-10,16.11-15.22,24.07-1.34,2-1.49,3.44.24,5.43,3.45,3.94,6.55,8.2,10.23,12.88,13.82-26.84,24.89-53.9,32.08-82.59.65,7.82,1.35,15.44-.27,23.06a278.31,278.31,0,0,1-23.57,67.25,2.83,2.83,0,0,0,.32,3.42l21,26c15.11-11.12,29.37-9.08,43.09,6.34,10.55,11.85,19.41,24.87,25.1,39.81,2.83,7.42,5.45,14.84,5.73,23a14,14,0,0,0,5.35,11c14.63,11.88,29.26,23.75,44.07,35.39a10.17,10.17,0,0,0,1.34.71l17.88-12.24.72,1-16.68,12.76c7.79,8.05,18,12.88,25.95,20.53-1.24.87-1.9-.21-2.57-.66-8-5.36-16-10.64-23.7-16.27-2-1.45-3-1.09-4.62.16-22.58,17.59-44.83,35.56-66.48,54.29a502.91,502.91,0,0,0-37.68,36.33c-20.22,21.53-38,45.08-56.25,68.23-2,2.55-5.78,4.29-5.67,7.79.11,3.13,3.35,5.21,5,7.93C248.25,444.24,252.89,450.36,255.82,457.49ZM70.06,259.84c66,44.55,124.59,95.17,165.25,164.38,2.59-3.69,4.73-6.59,6.72-9.59a446.1,446.1,0,0,1,78.3-90.14c21.62-19,44.63-36.22,68.1-52.82,5.52-3.91,11-7.79,16.76-11.81L359.5,226.39a9.86,9.86,0,0,0-.45,1.5c-1.43,20-8.47,38.09-20,54.31-18.22,25.59-41.91,43.87-72.63,52-13.52,3.57-27.14,3.7-40.23-2.13-17.45-7.76-25.56-22.83-29.63-40.23-6.33-27.12-2.91-53.66,6.47-79.63a403.38,403.38,0,0,1,18.69-43c9-18.11,18.18-36.16,27.25-54.25.71-1.42,2.24-3.06,1.34-4.5-3.43-5.52-7.19-10.84-11.48-17.2C197.23,163.78,137.27,214.74,70.06,259.84ZM258.37,122.12c-6.05,11.95-12.21,23-18.61,34-14.22,24.3-26.26,49.51-30.08,77.8-1.73,12.85-1.55,25.7,3.88,37.85,4.19,9.36,10.64,17.08,21,19a64.19,64.19,0,0,0,26.36-.22,207.48,207.48,0,0,0,43.17-15.73c10.6-5.13,19.73-12.37,28.51-20,9.52-8.26,16.09-18.52,17.71-31.37.23-1.82,1.07-3.87-.86-5.45-5.93-4.83-11.84-9.7-17.72-14.52-10.86,6.26-16.5,8.39-23.69,9-12,1-21.35-4.21-26.32-15.17-6.6-14.57-7.07-29.67-3-45,.36-1.35,1-2.32-.19-3.75C271.46,140.29,265.1,131.49,258.37,122.12Zm50.76,60.49-15.74-16.46c-5.52,3-4.88,10.44-2.36,14.48C294,185.41,301.75,186.28,309.13,182.61Zm-6.48-20.91-.61,1c4.65,5.08,9.31,10.15,14.08,15.35a17.19,17.19,0,0,0,4.73-4.66C315.29,168.49,311.1,161.72,302.65,161.7Zm37.89,34.23c-1.19.75-2.5,1.13-3.13,2.78l9.75,8.84A21.68,21.68,0,0,0,340.54,195.93Z"/><path class="cls-1" d="M173.77,119.12c-2.08-3.92-3.54-1-5.42-.66l2.17-3.36c-7.55-11.23-17.17-20.17-28.16-28.39a100.59,100.59,0,0,0,30.29-30.36c8.09,12,18.14,21.47,29.67,29.77-10.71,7.47-20.35,15.94-27.83,26.65C172.79,115.2,172.77,115.19,173.77,119.12Z"/><path class="cls-1" d="M124.67,361.93a6.42,6.42,0,0,1,.89-.32c12-.59,12.42-.36,15.51,11.05,2.68,9.87,5.85,19.59,8.1,30.63,4.25-14.56,8.2-28.09,12.15-41.65h12.93c-1.83,5.69-3.53,11.17-5.36,16.6-3.56,10.66-7.47,21.21-10.68,32-1.39,4.66-3.42,6.29-8.34,6-7.92-.48-7.94-.12-10.32-7.6C134.61,393.1,129.66,377.6,124.67,361.93Z"/><path class="cls-1" d="M104.78,415.91H92.71V371.86H78.29V361.74h41.15c.25,3.42.47,6.66-1.31,10.09H104.78Z"/><path class="cls-1" d="M319.21,68.46c5.56,9.05,13.33,15.55,21.57,22-8.95,6.25-16.69,13.3-22.37,22.71-5.58-9.18-13-16-21.47-22.25A77.91,77.91,0,0,0,319.21,68.46Z"/><path class="cls-1" d="M86.62,133.28a70.17,70.17,0,0,0,19.46-19.69c4.88,7.75,11.53,13.46,18.88,19.26-7.33,5.44-14.56,11.36-19.55,19.94C100.56,144.65,93.87,138.74,86.62,133.28Z"/><polygon class="cls-1" points="174.85 120.25 174.93 120.05 174.76 120.32 174.85 120.25"/><path class="cls-1" d="M174.76,120.32l-.07-.07h.16A.65.65,0,0,1,174.76,120.32Z"/></g></g></svg>