<svg xmlns="http://www.w3.org/2000/svg" viewBox="0 0 510 556.28"><defs><style>.cls-1,.cls-2{fill:#fff;}.cls-2{stroke:#fff;stroke-miterlimit:10;stroke-width:10px;}</style></defs><g id="Layer_2" data-name="Layer 2"><g id="Layer_1-2" data-name="Layer 1"><path class="cls-1" d="M323.13,360.15c-3.7,4.08-7.63,8.57-11.74,12.89a79.87,79.87,0,0,1-24.26,17.9,76,76,0,0,1-42.93,6.18c-17.83-2.43-32.25-11.11-45-23.54C173,348.07,146.35,323,120,297.56a55.39,55.39,0,0,1-14.92-24.82c-5.44-19.39-3.85-38.23,6.68-55.91a78.49,78.49,0,0,1,12.77-15.63c.36-.36.71-.84,1.53-.67a54.24,54.24,0,0,0,3.23,16.15,51.5,51.5,0,0,0,12.69,19q31.35,30.07,62.76,60.07c14.53,13.87,29,27.81,43.73,41.44s32.12,21.06,51.93,23.2A110.35,110.35,0,0,0,323.13,360.15Z"/><path class="cls-1" d="M186.11,37c6.26-6,12.46-12,18.82-17.85,4.45-4.1,9.12-8,14.58-10.67C250-6.5,285.07-1.44,308.7,22.15,320.28,33.71,332.59,44.54,344,56.24,358.5,71.1,374.3,84.6,388.49,99.72c16.14,17.2,21.72,37.74,17.24,61-1.84,9.57-6.25,18-11.7,25.79-2.69,3.88-6.2,7.18-9.75,11.2-.34-2.62-.61-4.6-.86-6.58-1.06-8.47-4.67-15.82-9.87-22.47-8.36-10.7-19-19.13-28.61-28.57-14.76-14.49-29.81-28.68-44.79-42.94C293,90.38,285.65,83.87,278.64,77c-6.43-6.31-12.81-12.68-19.56-18.63-10.72-9.46-23.29-15.55-37.13-19a89.92,89.92,0,0,0-33.41-2c-.71.09-1.42.09-2.13.14Z"/><path class="cls-1" d="M257.68,322.81c8.11-1.31,16.1-2.8,23.4-6.68,6.09-3.22,11.17-7.71,16.11-12.47,8.85-8.54,17.84-16.94,26.71-25.47,8.26-7.95,16.57-15.85,24.77-23.86,8.76-8.56,17.93-16.7,26.57-25.37,4-4,8-8.12,12.11-12,4.67-4.41,9.74-8.5,14.13-13.21a81.77,81.77,0,0,0,15.34-23.42A92.18,92.18,0,0,0,423.28,159c1.26-7.4,1-15,.33-22.51-.1-1-.46-2.11.31-3.28,2.77,1.3,4.85,3.59,6.93,5.57,5.55,5.28,11.38,10.33,16.28,16.25a70.12,70.12,0,0,1,15.21,52.05,69.72,69.72,0,0,1-6.72,22.06c-5.6,11.78-15,20.2-24.26,28.89-8.73,8.23-17.26,16.67-25.9,25S388,299.76,379.35,308.14c-5.8,5.61-11.32,11.53-17.41,16.8-9,7.81-19.06,14-30.8,17.09a92.49,92.49,0,0,1-18.21,2.83c-6.07.37-12.07-.54-18.06-1.7A70.83,70.83,0,0,1,278,337.6a72.12,72.12,0,0,1-18.75-12.79A4.62,4.62,0,0,1,257.68,322.81Z"/><path class="cls-1" d="M85.79,265.28c-4.6-4.71-8.6-9-12.82-13.07-5-4.86-10.11-9.72-14.22-15.41a58.16,58.16,0,0,1-8.33-17.08,66.37,66.37,0,0,1-3.21-21.63,76.55,76.55,0,0,1,4.6-23.37c4.61-12.92,13.86-22,23.28-31.08,18.12-17.49,36.42-34.78,54.42-52.39,5.72-5.59,11.38-11.26,17.11-16.84A72.13,72.13,0,0,1,175.88,56.6a79.27,79.27,0,0,1,26.25-3.85A75.67,75.67,0,0,1,221.29,56a69.82,69.82,0,0,1,28.49,16.34c.89.84,2.21,1.2,2.74,2.64-2.22.9-4.64.88-6.94,1.2-11.35,1.58-20.88,6.82-29,14.57-14,13.28-27.78,26.79-41.67,40.18-7.48,7.2-14.75,14.62-22.54,21.46-14.72,12.93-28.35,27-42.53,40.44A73.83,73.83,0,0,0,94,214.62a85.5,85.5,0,0,0-8.22,47.51C85.87,262.89,85.79,263.67,85.79,265.28Z"/><path class="cls-2" d="M42.63,508a19.48,19.48,0,0,0-7.91-3.38,48.34,48.34,0,0,0-9.24-.87h-14v12.11H22.8a36,36,0,0,1,5.87.43A10.27,10.27,0,0,1,33.09,518a8,8,0,0,1,2.74,3.6,16.18,16.18,0,0,1,.93,6v11H5v12.65H50.14V526.63a28.42,28.42,0,0,0-2-11.68A17.35,17.35,0,0,0,42.63,508Z"/><path class="cls-2" d="M158.21,538.63H140.3a5.15,5.15,0,0,1-3.84-1.53,11.55,11.55,0,0,1-2.45-3.77,25.84,25.84,0,0,1-1.45-4.8c-.35-1.7-.6-3.28-.76-4.74a33.47,33.47,0,0,0-1.51-6.93,20.49,20.49,0,0,0-3.55-6.49,18,18,0,0,0-6.16-4.8,21.29,21.29,0,0,0-9.37-1.85,33.07,33.07,0,0,0-5.18.43c-1.82.3-3.58.64-5.29,1s-3.31.82-4.83,1.25-2.73.81-3.66,1.1l3.26,11.89a34.65,34.65,0,0,1,13.14-3.06,9.47,9.47,0,0,1,6.57,2.24q2.5,2.24,3.09,7.8a37.67,37.67,0,0,0,1.34,7.74,21.53,21.53,0,0,0,1.92,4.48H79.92V473.17H66.66v78.11h51.07a15.34,15.34,0,0,0,5.06-.87,9.64,9.64,0,0,0,4.59-3.93,20.81,20.81,0,0,0,6,3.38,20.28,20.28,0,0,0,7.39,1.42h30.71V507.86H158.21Z"/><path class="cls-2" d="M155.3,497.17a7,7,0,0,0,5-1.85,6,6,0,0,0,0-8.95,7.68,7.68,0,0,0-10,0,6,6,0,0,0,0,8.95A7,7,0,0,0,155.3,497.17Z"/><path class="cls-2" d="M173.45,484.52a7,7,0,0,0-5,1.85,6,6,0,0,0,0,8.95,7.68,7.68,0,0,0,10,0,6,6,0,0,0,0-8.95A7,7,0,0,0,173.45,484.52Z"/><polygon class="cls-2" points="235.69 538.63 220.8 538.63 220.8 493.57 207.54 493.57 207.54 538.63 183.69 538.63 183.69 551.28 248.95 551.28 248.95 473.17 235.69 473.17 235.69 538.63"/><rect class="cls-2" x="268.03" y="473.17" width="13.15" height="78.11"/><path class="cls-2" d="M351.79,497.17a7,7,0,0,0,5-1.85,6,6,0,0,0,0-8.95,7.68,7.68,0,0,0-10,0,6,6,0,0,0,0,8.95A7,7,0,0,0,351.79,497.17Z"/><path class="cls-2" d="M333.64,497.17a7,7,0,0,0,5-1.85,6,6,0,0,0,0-8.95,7.68,7.68,0,0,0-10,0,6,6,0,0,0,0,8.95A7,7,0,0,0,333.64,497.17Z"/><path class="cls-2" d="M359.53,510a20.53,20.53,0,0,0-7.1-4.47,25.22,25.22,0,0,0-9.13-1.58,24.26,24.26,0,0,0-23,15.65,26.75,26.75,0,0,0-1.8,9.76,23.68,23.68,0,0,0,1.39,8,18.65,18.65,0,0,0,4.54,7,23,23,0,0,0,8.09,5,33.56,33.56,0,0,0,12,1.91h21.05V525.64a23.69,23.69,0,0,0-1.57-8.78A19.47,19.47,0,0,0,359.53,510Zm-7.16,28.64h-8.14a18.32,18.32,0,0,1-4.71-.6,11,11,0,0,1-4-2,9.94,9.94,0,0,1-2.79-3.49,11.61,11.61,0,0,1-1-5.18,11.32,11.32,0,0,1,.93-4.69,11.53,11.53,0,0,1,2.45-3.55,11.15,11.15,0,0,1,3.43-2.29,10,10,0,0,1,3.9-.82,8.81,8.81,0,0,1,7.44,3.33q2.56,3.33,2.56,9.55Z"/><path class="cls-2" d="M425.14,497.17a7.09,7.09,0,0,0,5-1.85,6,6,0,0,0,0-8.95,7.13,7.13,0,0,0-5-1.85,7,7,0,0,0-4.91,1.85,6,6,0,0,0,0,8.95A7,7,0,0,0,425.14,497.17Z"/><path class="cls-2" d="M489.88,497.17a7,7,0,0,0,5-1.85,6,6,0,0,0,0-8.95,7.7,7.7,0,0,0-10,0,6.07,6.07,0,0,0,0,8.95A7,7,0,0,0,489.88,497.17Z"/><path class="cls-2" d="M471.73,497.17a7,7,0,0,0,5-1.85,6,6,0,0,0,0-8.95,7.68,7.68,0,0,0-10,0,6,6,0,0,0,0,8.95A7,7,0,0,0,471.73,497.17Z"/><path class="cls-2" d="M503.49,516.48a19,19,0,0,0-4.31-6.71,19.35,19.35,0,0,0-6.74-4.31,24.94,24.94,0,0,0-9-1.52,27,27,0,0,0-10.59,2,26.33,26.33,0,0,0-8.14,5.29,23.71,23.71,0,0,0-5.24,7.53,21.61,21.61,0,0,0-1.86,8.73,20.47,20.47,0,0,0,1.05,7.14,15.83,15.83,0,0,0,2,4H442.06q-5.82,0-8-2.84a11.32,11.32,0,0,1-2.21-7.2V507.86H418.56V533a8.4,8.4,0,0,1-.87,4.15c-.58,1-1.73,1.53-3.43,1.53h-18.5V473.17H382.5v78.11h32.34a16.41,16.41,0,0,0,8.43-2.07A15.68,15.68,0,0,0,428.8,544a17.71,17.71,0,0,0,4.71,5,13.42,13.42,0,0,0,8.2,2.29H505V525.21A24.31,24.31,0,0,0,503.49,516.48Zm-11.87,22.15H481.5a13.11,13.11,0,0,1-5.35-1.64,13.4,13.4,0,0,1-3.67-3.44,10,10,0,0,1-1.68-6.16,10.73,10.73,0,0,1,1-4.69,11.66,11.66,0,0,1,2.56-3.55A11.5,11.5,0,0,1,482.2,516a10.77,10.77,0,0,1,4.24.77,8.44,8.44,0,0,1,3,2,7.65,7.65,0,0,1,1.69,2.78,9.31,9.31,0,0,1,.52,3Z"/></g></g></svg>