<svg xmlns="http://www.w3.org/2000/svg" viewBox="0 0 500 185.33"><defs><style>.cls-1{fill:#fff;}</style></defs><g id="Layer_2" data-name="Layer 2"><g id="Layer_1-2" data-name="Layer 1"><path class="cls-1" d="M0,3.72C.19.05.19.05,5,0c.8.77,1.8.41,2.71.41Q92.85.49,178,.51c1,0,2.1.27,3-.42l1.11.05c5.45.24,4.68-.85,5,5-.92.86-.42,2-.46,3-.28,6.24.51,12.49-.67,18.73-2.74,14.59-11.52,23.62-25.38,28.16-5.89,1.93-12,1.54-18.07,1.64-17.48.28-35-.78-52.43.65-8.64.71-15.95,4.87-21.75,11.3-6.84,7.58-9.64,16.66-9.63,26.83q0,25.64-.48,51.25C57.93,163,45.7,178.53,30,183.27c-8.38,2.54-16.86,2.24-25.4,1.65-4.23-.29-4.26-.27-4.26-4.39q0-87,0-174C.38,5.55.64,4.57,0,3.72Z"/><path class="cls-1" d="M243.49,152.7c-.11.51-.25,1-.34,1.59-1.45,9.47-8.25,14.49-18.65,13.77-8.94-.61-14.78-6.83-14.91-15.93-.06-4.55,0-9.1,0-13.88H219c.68.65.39,1.56.4,2.38,0,3.7-.08,7.41,0,11.11.19,5.56,3.41,8,8.92,7a5.21,5.21,0,0,0,4.58-4.44,21.91,21.91,0,0,0,.28-4q0-21.23,0-42.45v-3.26h9.62c.71.87.37,2,.38,3,0,10,.07,20,0,29.92,0,3.17.83,5.74,3.95,6.85,3.65,1.3,7.44,1.92,10.89-.59,1.61-1.17,1.71-3.08,1.71-4.92V118.42h10c0,6.34.21,12.59-.06,18.81s1.64,8,8.07,8.06c2.54,0,5.08,0,8.18,0-6.28-9.42-7.66-18.27,2.26-25.43,6.23-4.49,16.38-3.47,21.86,1.43,6.08,5.45,6.21,12.2.21,24,4.06-.1,7.91.53,11.69-.44,2.55-.66,3.56-2.64,3.55-5.21q0-9.11,0-18.23v-3h10v19.7c0,5.2,1.74,7.05,6.91,7.17,4.07.09,8.15,0,12.62,0V118.37h9.79v26.74h12.34V118.39h10.11c0,8.06.11,15.93-.06,23.8-.05,2.54.66,3.41,3.19,3.14a60.06,60.06,0,0,1,6.18,0V118.42h9.83v26.75c4.39.16,8.44.44,12.42-.64a4.28,4.28,0,0,0,3.16-4,48,48,0,0,1,.88-5.62c2.17-8.52,8.19-13,16.83-12.74,8.23.28,14,5.47,15.58,14a24.15,24.15,0,0,1,.32,2.54c.32,5.14,1.65,6.48,6.78,6.57a22.19,22.19,0,0,0,4.81-.42c4-.81,5.66-2.9,5.67-7,0-10,0-19.94,0-29.91v-3.34h9.5c.69.9.36,2,.36,3q0,15.52,0,31.05c0,7-3.49,11.9-10.18,14.17a28.74,28.74,0,0,1-18.89-.28,10.6,10.6,0,0,0-.89,1,16.55,16.55,0,0,1-27.15.7c-.85-1.1-1.52-1.41-2.82-.92a20.52,20.52,0,0,1-7.31,1q-36.09,0-72.18,0c-4,0-7.79-.58-11.16-2.82a2.13,2.13,0,0,0-2.79.17,14.71,14.71,0,0,1-8.63,2.58c-7.3-.11-14.65.82-21.89-.9a3,3,0,0,0-1.4,0c-7,1.71-14.21.79-21.32.95a17.14,17.14,0,0,1-9.76-2.72c-.74-.48-1.35-.84-2.3-.25-6.4,4-13.12,3.85-20,1.38C244,152.6,243.81,152.68,243.49,152.7Zm202.07-11.23a17,17,0,0,0-1.17-7.51,5.43,5.43,0,0,0-5.37-3.47,5.23,5.23,0,0,0-5.27,3.59,20.32,20.32,0,0,0,0,14.17,5.21,5.21,0,0,0,5.28,3.57,5.49,5.49,0,0,0,5.42-3.41A15.41,15.41,0,0,0,445.56,141.47ZM305,133c0-4.72-3.09-7.77-7.17-7.65a6.69,6.69,0,0,0-6.62,7.6c.33,4,2.52,7,5.7,9.41a1.72,1.72,0,0,0,2.32.09C302.57,139.94,304.87,136.84,305,133Z"/><path class="cls-1" d="M181.32,147.8l-.38,2c-1.06.88-.93,2.22-1.24,3.36-5.41,19.74-25.62,33.54-46,31.63-4.08-.38-7.89-1.86-11.94-2.14-7.56-2.23-13.25-7.17-18.14-13C89.28,152.67,90,126.77,105,111c16-16.77,41.83-19.1,59.87-5,13.07,10.22,18.35,23.95,16.6,40.4C180.87,146.82,180.87,147.29,181.32,147.8Z"/><path class="cls-1" d="M490.41,104.35H500V154h-9.59Z"/><path class="cls-1" d="M260.56,169.67v-9.42H270v9.42Z"/><path class="cls-1" d="M296.19,102.07v9.43h-8.63v-9.43Z"/><path class="cls-1" d="M308.6,102v9.55h-8.53V102Z"/><path class="cls-1" d="M323.73,111.59h-7.79V102h7.79Z"/><path class="cls-1" d="M335.43,101.83v9.72h-7.74v-9.44C330.1,101.51,332.62,101.93,335.43,101.83Z"/></g></g></svg>