<svg xmlns="http://www.w3.org/2000/svg" viewBox="0 0 500 275.55"><defs><style>.cls-1{fill:#fff;}</style></defs><g id="Layer_2" data-name="Layer 2"><g id="Layer_1-2" data-name="Layer 1"><path class="cls-1" d="M80.45.2A23.16,23.16,0,0,1,97.94,5.05a32.62,32.62,0,0,1,11.46,19.2c.1,49.79-.24,99.58-.2,149.38a36.18,36.18,0,0,1-.24,6c-1.15,4.47-4,8.25-6.81,11.79-3.67,4.29-8.62,7.72-14.26,8.72a22.41,22.41,0,0,1-17-3.23c-6.94-5-11.45-12.85-13-21.17-1.65-8.78-1.09-17.76-1-26.64,0-33.88.16-67.77-.1-101.65-.06-7-.51-14,.82-20.91C58.59,19.38,60.94,12,66.2,6.84A25,25,0,0,1,80.45.2Z"/><path class="cls-1" d="M198.33,2.36c6.52-3.41,14.59-2.91,21,.59,5.66,2.8,9.58,8.17,12,13.89a46.2,46.2,0,0,1,3,17.22c.05,40.44-.42,80.89-.07,121.32a83.42,83.42,0,0,0,12.18,28.71,73.79,73.79,0,0,0,32,26.3c10,4.41,21,5.8,31.78,6.31,10.32-.06,20.59.72,30.91.83a292.76,292.76,0,0,0,32.18.42c25.52-1.57,49.06-17.57,61.36-39.73A87.57,87.57,0,0,0,444.34,147c.39-5.34.25-10.7.16-16A81.29,81.29,0,0,0,430,91.64C420.28,77.73,405.36,68,389.23,63c-8.36-2.54-17.11-3.45-25.8-4-6.33.13-12.61-.77-18.93-.56-8.66-.05-17.32,0-26-.06a26.7,26.7,0,0,1-19.27-7.77,28.68,28.68,0,0,1-7.63-27.5c2.33-8.52,8.54-16.37,17.11-19.16C313.65,2,319,2.07,324.16,2.13c20.66.52,41.41-.11,61.94,2.77a125.87,125.87,0,0,1,71.11,33.62c17.81,16.81,31.9,38.12,38,62,8.1,29.27,5.73,61.06-5.77,89.09C479.17,215,461.88,238,438.94,253.21c-18.42,12.36-40.19,19.26-62.18,21.42-4.18.59-8.42.22-12.6.74-5.4.6-10.77-.52-16.18-.37-9.57-.25-19.15,0-28.73-.3-6.06-.61-12.18,0-18.23-1-24.42-1.95-48.47-10.72-67.57-26.23a166.12,166.12,0,0,1-27.85-29.1c-6.25,6.83-12.33,13.88-19.41,19.9a134,134,0,0,1-79.44,33.62,371.25,371.25,0,0,1-42.72.4c-8,0-15.9-.08-23.84,0-6.61,0-13.33.07-19.72-1.8a27.5,27.5,0,0,1-15-10.28,29.45,29.45,0,0,1-2.53-29.93,28.89,28.89,0,0,1,11-11.95c5.78-3.35,12.59-4.53,19.21-4.43,5.38.08,10.77,0,16.14.31,6.77.8,13.61.15,20.38.95,5.81.26,11.64.17,17.47.19a111.33,111.33,0,0,0,14-.49,99.67,99.67,0,0,0,21.93-3.06,84.63,84.63,0,0,0,40-25.39c7.93-8.8,14.64-19.27,16.82-31.07.44-8.15-.13-16.35.71-24.48.25-11.22-.11-22.46.7-33.65.17-11.22,0-22.46.73-33.66q0-19.56.78-39.12C184.53,15.38,190,6.69,198.33,2.36Z"/><path class="cls-1" d="M321.53,88.4c9.75-.22,19.52-.1,29.28-.08,9.48,0,19.36,3.24,25.76,10.49,6.73,7.79,9.95,18.31,9.58,28.53,0,8.42,0,16.83,0,25.25-.09,9.71-3.62,19.84-11.28,26.14a43.11,43.11,0,0,1-22,8.59c-10.28.17-20.58,0-30.87.07-4.68.13-9.23-1.14-13.66-2.51a30.54,30.54,0,0,1-15.46-13.52c-3.34-5.68-4.82-12.28-5.43-18.78-.06-10.52,0-21.06,0-31.58.82-7.58,2.95-15.58,8.54-21.08C302.54,92.83,312.14,89.32,321.53,88.4Z"/></g></g></svg>