<svg xmlns="http://www.w3.org/2000/svg" viewBox="0 0 217.34 500"><defs><style>.cls-1{fill:none;}.cls-2{fill:#fff;}</style></defs><g id="Layer_2" data-name="Layer 2"><g id="Layer_1-2" data-name="Layer 1"><path class="cls-1" d="M186.37,327.23a10,10,0,0,0-7.88,0,6.17,6.17,0,0,0-2.64,2.29,6.35,6.35,0,0,0-.93,3.44v12.67h15V333a6.36,6.36,0,0,0-.93-3.42A6.08,6.08,0,0,0,186.37,327.23Z"/><polygon class="cls-1" points="199.78 237.43 177.84 244.97 199.78 252.51 199.78 237.43"/><polygon class="cls-1" points="199.78 66.61 199.78 51.53 177.84 59.07 199.78 66.61"/><path class="cls-1" d="M179.85,158.22a12.66,12.66,0,0,0,5.74,1.25h14.16a12.59,12.59,0,0,0,5.73-1.25,9,9,0,0,0,3.83-3.52,11,11,0,0,0,0-10.54,9,9,0,0,0-3.83-3.52,12.46,12.46,0,0,0-5.73-1.25H185.59a12.53,12.53,0,0,0-5.74,1.25,9,9,0,0,0-3.82,3.52,11,11,0,0,0,0,10.54A9,9,0,0,0,179.85,158.22Z"/><path class="cls-2" d="M82.13,200.41a13.7,13.7,0,0,0,7.94-3.25c3.85-3.43,3.79-8,3-12.57a8.36,8.36,0,0,0-5.68-6.84,25.36,25.36,0,0,0-6.93-1.42c-10.29-.55-20.59-.11-31-.29v24.9C60.44,200.54,71.3,201.45,82.13,200.41Z"/><path class="cls-2" d="M0,431.76H143V.22H0ZM116.3,182a30.64,30.64,0,0,1-1.74,14.82,18.89,18.89,0,0,1-10.16,10.83c-.6.25-.77,1.07-1.58,1.11,2,1.13,4,2.17,5.92,3.41,7.38,4.78,10.46,11.84,11,20.4a39.7,39.7,0,0,1-1.28,13.25A31.77,31.77,0,0,1,107.82,262c-5.87,4.9-13,7-20.52,7.52-18.65,1.4-37.33.33-56,.65-1.53,0-3.06,0-4.79,0v-114c.42-.52,1-.28,1.56-.28,18.29,0,36.58-.13,54.86,0,7.94.07,15.64,1.59,22.34,6.31S115.49,173.81,116.3,182ZM26.11,26.61c7.65,0,15.12,0,22.59,0,1.1,0,1.57.44,1.5,1.52,0,.42,0,.84,0,1.27V120h56.65v20.76H26.11Zm-4.83,312a71,71,0,0,1,4-22.24c6.2-16.86,17.63-28.23,35.48-32.25a59.59,59.59,0,0,1,19.09-.68,50,50,0,0,1,19.45,5.6c11.56,6.35,18.54,16.21,21.65,28.92.41,1.69.55,3.45.86,5.41h-7.87c-4.81,0-9.61-.08-14.41,0a2.17,2.17,0,0,1-2.59-1.93,25.81,25.81,0,0,0-5.31-10.61,19.89,19.89,0,0,0-12.49-6.6c-4.65-.72-9.25-.93-13.82.43-6.54,1.95-11.07,6.37-14.15,12.16a43.78,43.78,0,0,0-5.21,21.22c0,4.79-.38,9.62.1,14.37,1,10,4.29,19.18,13,25.23,4.58,3.18,9.68,4.83,15.57,3.89,3.19-.51,6.44-.64,9.41-2,6.7-3.11,10.24-8.78,12.34-15.58,1.15-3.71,1.19-3.7,5-3.7h20.08c-1.9,9.1-4.71,17.46-10.43,24.59-4.39,5.49-9.48,10.16-15.92,13.1a53,53,0,0,1-27.34,4.37,52.61,52.61,0,0,1-20.78-6c-7.45-4-13-9.95-17.37-17.1a55.19,55.19,0,0,1-6.77-17.92A97.88,97.88,0,0,1,21.28,338.64Z"/><path class="cls-2" d="M91.91,224.11c-3.6-3.34-8.19-4-12.69-4.08-9.86-.26-19.74-.08-29.75-.08v30.17c11.31-.41,22.52.6,33.67-.57,4.87-.51,8.93-2.76,11.09-7.5a18.92,18.92,0,0,0,1.31-10.87A11.59,11.59,0,0,0,91.91,224.11Z"/><rect y="431.76" width="142.98" height="68.24"/><rect class="cls-2" x="168.5" y="489.51" width="48.34" height="6.78"/><polygon class="cls-2" points="168.5 477.54 216.8 477.54 216.8 470.82 181.25 470.82 216.8 448.05 216.8 441.83 168.5 441.83 168.5 448.55 204.6 448.55 168.5 471.39 168.5 477.54"/><polygon class="cls-2" points="174.95 399.75 168.5 399.75 168.5 433.86 174.95 433.86 174.95 420.19 216.84 420.19 216.84 413.41 174.95 413.41 174.95 399.75"/><polygon class="cls-2" points="210.39 386.32 196.06 386.32 196.06 365.71 189.61 365.71 189.61 386.32 174.95 386.32 174.95 362.05 168.5 362.05 168.5 386.32 168.5 389.81 168.5 393.1 216.84 393.1 216.84 389.81 216.84 386.32 216.84 362.05 210.39 362.05 210.39 386.32"/><path class="cls-2" d="M194.66,325.9a12.2,12.2,0,0,0-4.9-4.94,16.18,16.18,0,0,0-14.66,0,12,12,0,0,0-4.9,4.92,15,15,0,0,0-1.73,7.36v19.18h48.37v-6.78H196.39v-10.1l20.45-10.31v-8.05l-21.16,11.15A12.64,12.64,0,0,0,194.66,325.9Zm-4.72,19.73h-15V333a6.35,6.35,0,0,1,.93-3.44,6.17,6.17,0,0,1,2.64-2.29,10,10,0,0,1,7.88,0,6.08,6.08,0,0,1,2.64,2.31,6.36,6.36,0,0,1,.93,3.42Z"/><polygon class="cls-2" points="216.8 272.33 168.5 272.33 168.5 279.04 204.6 279.04 168.5 301.88 168.5 308.03 216.8 308.03 216.8 301.32 181.25 301.32 216.8 278.54 216.8 272.33"/><path class="cls-2" d="M168.5,247.86l48.34,17.82v-7.31l-10.61-3.65v-19.5l10.61-3.65v-7.31L168.5,242.08Zm31.28-10.43v15.08L177.84,245Z"/><polygon class="cls-2" points="174.95 190.82 168.5 190.82 168.5 224.92 174.95 224.92 174.95 211.26 216.84 211.26 216.84 204.48 174.95 204.48 174.95 190.82"/><rect class="cls-2" x="168.5" y="177.39" width="48.34" height="6.78"/><path class="cls-2" d="M176.46,164.3a19.93,19.93,0,0,0,9.36,2.12h13.7a19.93,19.93,0,0,0,9.36-2.12,15,15,0,0,0,6.24-6,19,19,0,0,0,0-17.82,15.1,15.1,0,0,0-6.24-6,20.05,20.05,0,0,0-9.36-2.11h-13.7a20.05,20.05,0,0,0-9.36,2.11,15.18,15.18,0,0,0-6.25,6,19.07,19.07,0,0,0,0,17.82A15.1,15.1,0,0,0,176.46,164.3ZM176,144.16a9,9,0,0,1,3.82-3.52,12.53,12.53,0,0,1,5.74-1.25h14.16a12.46,12.46,0,0,1,5.73,1.25,9,9,0,0,1,3.83,3.52,11,11,0,0,1,0,10.54,9,9,0,0,1-3.83,3.52,12.59,12.59,0,0,1-5.73,1.25H185.59a12.66,12.66,0,0,1-5.74-1.25A9,9,0,0,1,176,154.7a11,11,0,0,1,0-10.54Z"/><polygon class="cls-2" points="216.8 115.42 181.25 115.42 216.8 92.65 216.8 86.43 168.5 86.43 168.5 93.15 204.6 93.15 168.5 115.98 168.5 122.14 216.8 122.14 216.8 115.42"/><path class="cls-2" d="M216.84,72.47l-10.61-3.64V49.32l10.61-3.64V38.36L168.5,56.18V62l48.34,17.81Zm-17.06-5.86-21.94-7.54,21.94-7.53Z"/><polygon class="cls-2" points="216.84 27.66 216.84 24.27 216.84 0 210.39 0 210.39 24.27 168.5 24.27 168.5 31.05 216.84 31.05 216.84 27.66"/></g></g></svg>