<svg xmlns="http://www.w3.org/2000/svg" viewBox="0 0 500 201.08"><defs><style>.cls-1{fill:#fff;}</style></defs><g id="Layer_2" data-name="Layer 2"><g id="Layer_1-2" data-name="Layer 1"><path class="cls-1" d="M499.82,0H.18V161.78H499.82ZM230.69,141.73H186.26V92.67c0-11.39-30.64-11.39-30.24,0l.89,49.06H112.23V92.67c0-11.51-28.91-11.46-28.91,0v49.06H39.51V55l42.91-.31.9,16.5C83.78,47,142.57,43.66,150,68.63c7.76-25,80.7-25,80.7,15.72Zm89.48-57.38H296.65v57.38H251.1V84.35H237V55H251.1V37.52L296.65,20V55h23.52Zm110.09,57.38H354L326.44,55h46L393,128.59,414.55,55h45.94Z"/><rect y="167.08" width="500" height="34"/></g></g></svg>