<svg xmlns="http://www.w3.org/2000/svg" viewBox="0 0 500 283.86"><defs><style>.cls-1{fill:#fff;}</style></defs><g id="Layer_2" data-name="Layer 2"><g id="Layer_1-2" data-name="Layer 1"><path class="cls-1" d="M500,0c-3.32.32-8.12,5.49-11.09,7.49-4.12,2.76-8.37,5.34-12.73,7.7a147,147,0,0,1-33.09,13c-23.71,6.14-48.4,6.64-72.7,4.69C321.19,29,273.46,15,224.63,8.5,175.17,2,122.55.56,77.49,25.39,37.19,47.61,7.72,86.41.85,132.17c-3.67,24.46,5,51.37,17.55,72.1,34,56,111.68,95.07,176.23,73.62a87,87,0,0,0,41.63-30.51,94,94,0,0,0,12.39-24c1.38-3.83,2.55-7.73,3.58-11.66,1.08-4.13,1.37-9.64,3.24-13.52,1.52-3.16,8.86-8,12.4-7.7s3.4,4.13,4.59,7.26a48.79,48.79,0,0,0,6.28,12.2c4.14,5.46,11.27,11.16,18.52,8.87C305,216.39,309,206.08,310,198.79c1-7.08.3-15.64-5.11-20.9a19.93,19.93,0,0,0-8.59-4.56c-4.29-1.22-9.78-.33-13.75-2.06-5.82-2.52-6-15.49-6.79-21.08-1.51-11.07-2.36-22.22-3.18-33.36-.24-3.29-2.17-10.72,1.15-12.57.48-.26,5.59.22,5.26.22,3.4,0,6.81,0,10.2-.08a138.86,138.86,0,0,0,31.38-4.13c18.13-4.76,38.77-14.77,49.06-31.35-3.95.41-9.67,6.39-13.29,8.42a87.28,87.28,0,0,1-16.61,7.18c-12,3.76-24.55,4.76-37.07,4.39-6-.17-12-.66-18-1.36-4-.48-12.3.43-13.9-4.08-1.39-3.93.37-10.84,2.51-14.09,1.16-1.77,3-3,4-4.9,1.6-2.89.78-5,.61-8.15,2.94-1.62,10,.31,13.19.62,5.28.53,10.58,1,15.87,1.42,11.14.89,22.31,1.55,33.48,1.84,22.35.59,44.85-.43,66.81-4.88,19-3.87,37.55-10.34,54.21-20.42a142.18,142.18,0,0,0,21.67-16C488.49,14.1,497.74,6.89,500,0ZM243.93,210.12a79,79,0,0,1-12,25.62,4.4,4.4,0,0,1-.67.62,61.12,61.12,0,0,1-19,17.06c-9.79,5.42-20.39,7.79-31.45,8.51a45.4,45.4,0,0,1-4.91.51,45.4,45.4,0,0,0,4.91-.51l-13.09,0a115.07,115.07,0,0,1-37.17-8.62c-24.25-9.73-45.16-24.22-62-44.31-.39-.47-.8-.93-1.18-1.42-.07-.09,0-.28,0-.5a5.43,5.43,0,0,1,2.66-.11,103.6,103.6,0,0,0,28.33-3.17,3.17,3.17,0,0,1,3.44,1,102,102,0,0,0,47.67,27c13.84,3.55,27.77,3.84,41.52-.69a49.42,49.42,0,0,0,23.37-16.35c1.76,2,1.83,4.53,3,6.93l-12.84,4.83,7.46,16.86c5.21-2.15,10.47-3.54,15.38-6-.36-1.09-1-2-1-3.12h0c.1-.73.14-1.43-.78-1.7a.2.2,0,0,1,0-.24h0c-.05-.79.21-1.71-.87-2.07-.06-.19-.12-.39-.19-.58-.92-.94-.31-1.24.59-1.48,3.21-.88,6.41-1.78,9.61-2.67l2.77-.82L230.54,208l-15,5.51c1.54-3,3.58-5.36,4.56-8.21.87-2.53,2.34-3.29,5-3.08,6.62.51,13.09-1,19.6-1.94.37-.06.74-.1,1.34-.17C245.94,203.67,244.84,206.9,243.93,210.12Zm-87.56-41.45c1.86.89,1.44,2.25.93,3.7a121.48,121.48,0,0,0-3.85,13.37,39.11,39.11,0,0,0,.34,19.08,14.75,14.75,0,0,0,17,10.89c8.28-1.35,14.91-5.71,20.9-11.25a117.37,117.37,0,0,0,9.86-10.83c4.35,4.73,9.91,7,16.52,8.05-7.45,10-16.27,17.07-28.4,19.27-19.16,3.48-36-2.59-52-12.44A100.16,100.16,0,0,1,123,196.88c.28-1.38,1.57-1.49,2.48-1.8,7.78-2.69,13.13-8,17.15-15a99.75,99.75,0,0,0,9.3-23c.47-1.69.83-3.19,3.11-3.67,2.69-.57,4.61-2.71,6.49-4.68,3.11-3.25,6.24-6.46,10.51-8.21a7.33,7.33,0,0,1,1.27-.54c1-.2,2.11-.62,2.91.15s.33,1.89,0,2.83c-1.67,4.83-5.11,8.54-7.73,12.77-1.29-.72-2-1.83-3.49-2.25-3.09,4.42-6.24,8.89-9.36,13.37C155,167.73,155.66,168.33,156.37,168.67Zm69.12,64.19a2.32,2.32,0,0,0,.17.7A2.32,2.32,0,0,1,225.49,232.86Zm22.33-50.69a2.13,2.13,0,0,1-1.84,2.27,19.61,19.61,0,0,1-4.09.86c-8.81.34-17.64,1.66-26.39-.66a53.83,53.83,0,0,1-5.93-2.29c.52-1.91,1.93-3.19,2.83-4.74,2.06-3.54,4.1-7.09,6.38-10.49,2-3,.7-5.85-.05-8.67A183.59,183.59,0,0,0,199.14,112a81.42,81.42,0,0,0-8.54-12,30.53,30.53,0,0,0-3.11,12.23c-.22,3.78,2.13,6.42,3.89,9.2A152.7,152.7,0,0,1,201,140.34c3.22,7.15,6.52,14.29,9.1,21.72.74,2.13.8,4-.63,5.87-2,2.72-3.84,5.59-6,8.7-3.54-4.49-3.83-9.6-4.1-15.11-1.25,1.87-1.33,3.75-1.64,5.44-.95,5.26-1.78,10.57-.71,15.93a2.74,2.74,0,0,1-.68,2.58c-5.72,6.13-11.77,11.86-19.56,15.32a23.81,23.81,0,0,1-10.07,2.5c-4.16-.07-6.9-2.18-8.18-6.84a45,45,0,0,1,.11-24.56,4.13,4.13,0,0,1,.45-.77c3,1.61,5.24,4.25,8.24,6.09,1.61-1.2,2.54-3,3.69-4.58.84-1.15,1.51-1.44,2.78-.37,2.89,2.43,5.93,4.66,9.14,7.16,3.31-4.42,6.53-8.71,9.74-13,.62-.81.23-1.38-.48-1.94-3.45-2.72-6.9-5.45-10.3-8.24-1-.8-1.53-.72-2.22.32-1.14,1.72-2.4,3.36-3.77,5.26-2.25-1.83-4.32-3.51-6.44-5.25,4.75-6.5,9.62-12.68,13.67-19.44a38,38,0,0,0,3.8-8.15c.92-3-.29-4.59-3.42-4.13-5.19.77-9.48,3.63-13.86,6.23-4.57,2.72-9.13,5.43-14.46,6.46-4.77.91-7.42-1-8.13-5.76A7.69,7.69,0,0,0,146,128.4a1.82,1.82,0,0,0-2,1.15,41.15,41.15,0,0,0-4.24,9.15c-.61,2.1-1.48,4.12-2.27,6.16a4.19,4.19,0,0,0,.51,3.89,36.41,36.41,0,0,1,5.14,20,3.19,3.19,0,0,1-1.94,3.06,218.34,218.34,0,0,1-28.29,12.67,57.32,57.32,0,0,1-9.34-21.58c2.33,1,3.75,2.6,5.43,3.83s3.58,2.71,5.28,4.16c.89.76,1.43,1,2.22-.14,3.08-4.23,6.25-8.41,9.55-12.85l-9.25-7.4a8.91,8.91,0,0,1-1.6-1.3c-1.57-2-2.5-1.1-3.6.54-2.44,3.66-5,7.22-7.51,10.75-.84-.1-1.12-.54-1.15-1.13-.26-5.42-.08-10.84,1.84-16,8-21.56,23.79-34.94,45.37-41.66,15-4.67,30.51-4.93,46.09-4,12,.7,23.95,2,35.91,3.18,4,.39,8,.89,12,1.29,1.16.11,1.77.43,1.83,1.79.65,14.8,1.95,29.57,2.32,44.39h0v24.62C248.12,176,247.87,179.09,247.82,182.17Zm.82-31.91c0-.19,0-.38,0-.57C248.66,149.88,248.65,150.07,248.64,150.26Zm0-1.14a5.07,5.07,0,0,1,0,.56A5.07,5.07,0,0,0,248.61,149.12Zm-.06-.28s0,.07,0,.11S248.56,148.88,248.55,148.84Zm-3.16-68.08c-5-.94-9.66-1.79-14.28-2.68-21.05-4.06-42.2-7.3-63.74-6.08a109.91,109.91,0,0,0-35.59,7.9,91.74,91.74,0,0,0-34,24.45A76.54,76.54,0,0,0,79.44,140c-2.3,11.1-1.25,22,2.08,32.66a65.32,65.32,0,0,0,7.79,16.51,11.11,11.11,0,0,1,.6,1.45c-11.16,1.17-21.87,1.83-31.44-4.91a46.43,46.43,0,0,1-8.17-7.49C47,174.45,46.17,169.63,45,165a62.94,62.94,0,0,1-2.12-15.17c-.22-16.23,4.74-30.91,13.54-44.37A121,121,0,0,1,76.55,82.31a123.54,123.54,0,0,1,27.69-19.07,130.8,130.8,0,0,1,35.83-11.66c17.55-3.16,35.28-3.84,53.09-3.28,13,.41,26,1.42,39,2.63,5,.47,10,1,15.05,1.46l3,.3A91.85,91.85,0,0,0,245.39,80.76Zm7.91.45a89.72,89.72,0,0,1,1-27.71,3.24,3.24,0,0,1,4.2,1.62,16.43,16.43,0,0,1,2.87,8.67c0,5.9.23,11.79.34,17.68a3.05,3.05,0,0,1-.41,2.36l-6.76-1.21A1.37,1.37,0,0,1,253.3,81.21Zm12,94.22c-2.65,1.18-5.21,2.54-8.2,4,.09-25.66-.86-50.86-1.86-76.17,2.39-.35,4.47.48,6.94.33.14,3.12.33,6.11.4,9.1.38,17.68,1.41,35.33,3,52.95.23,2.54.6,5.08,1,7.61A1.74,1.74,0,0,1,265.33,175.43Zm22.06,14c5.3.52,10.78,1.5,13.91,7.24,2.41,4.4,2.08,5-2.84,5.82-6.52,1.12-13.2-4.73-14.16-10C283.82,189.88,284.25,189.34,287.39,189.46Z"/></g></g></svg>