<svg xmlns="http://www.w3.org/2000/svg" viewBox="0 0 500 165.22"><defs><style>.cls-1{fill:#fff;}</style></defs><g id="Layer_2" data-name="Layer 2"><g id="Layer_1-2" data-name="Layer 1"><path class="cls-1" d="M120.47,43.55a65.69,65.69,0,0,0-12.35-5.93C80.58,27.79,47.65,41.46,38.29,69.9c-8.35,25.4,4.7,53.55,31.83,59.29a24.14,24.14,0,0,0,8.2.57c-9.61-3.31-17.95-5.22-25.12-13.07a38,38,0,0,1-9.5-20.62c-2.1-16,5.72-32.72,20-40.55,14.93-8.21,34.77-5.77,47.47,5.52,14.1,12.54,18.48,35,10.91,52.16-7.8,17.67-25.52,28.49-44.9,28.08-19.14-.4-35.9-10.88-45.89-26.77-11.44-18.19-9-43.59,1.92-61.35,9.68-15.76,26.2-27.08,44.55-29.8,25.84-3.84,48.25,10.07,72.69,15.42,21,4.6,46.29-.43,55.35-22.07C207.51,12.6,210,7.49,209,2.91c-3.67,2.71-5.92,8.2-9.17,11.56a30.89,30.89,0,0,1-11.58,7.6c-10.63,3.86-22,1.4-32.31-2.23C132.57,11.59,109.51.57,84.32,0,62.32-.47,37.88,10,24,26.78,16.34,36,9.79,44.53,5.48,55.85A84.58,84.58,0,0,0,.22,92a77.88,77.88,0,0,0,30.25,56.73c24.06,18.79,58.91,22.42,85.37,6.32,20.43-12.43,33.73-35.28,33.86-59.26A60.82,60.82,0,0,0,120.47,43.55Z"/><polygon class="cls-1" points="117.67 119.94 117.78 120.06 117.78 120.06 117.79 120.05 117.67 119.94"/><path class="cls-1" d="M349.9,89.44a22,22,0,0,0-2-1.18c-5.49-2.86-11.36-2.9-17.4-3q-10.08-.07-20.16,0c-6.28,0-12.65-.33-18.78,1.26-4.89,1.26-9.93,3.29-13.48,7-3.75,3.93-4.79,9-6.15,14.06-1.69,6.34-3.47,12.66-5.2,19-1.19,4.35-1,8.63,2.74,11.66,4.63,3.73,10.63,4.66,16.38,4.59q5-.06,9.91-.06c6.6,0,13.2.05,19.81.05a50.09,50.09,0,0,0,17.55-2.73,48.08,48.08,0,0,0,7.83-3.66c1.69-1,5.13-3.4,4.6-5.72-.46-2-3.62-1.25-5.07-1.26l-10.07,0-20.15-.05-10.07,0c-1.53,0-3.06.07-4.59.07a20.54,20.54,0,0,1-2.07-.13c-.83-.11-1.32-.19-1.25-1.08.07-1.17.3-3.24,1.23-4.12s2.48-.69,3.58-.7c6.48-.06,13,0,19.45,0,6.23,0,12.64.36,18.79-.81,5-1,10.33-3,13.47-7.17a19.24,19.24,0,0,0,2.89-6.74c.84-3.1,1.82-6.2,2.49-9.35a8.89,8.89,0,0,0-.66-6.19A10.65,10.65,0,0,0,349.9,89.44ZM326,108.69a1.72,1.72,0,0,1-1.88,1.22q-13,0-26.06-.13c-.26,0-.52-.26-1-.53.69-2.69,1.38-5.4,2.08-8.11a2,2,0,0,1,2.27-1.57h27C327.57,102.74,326.79,105.72,326,108.69Z"/><path class="cls-1" d="M485.42,85.17c-.38-.33-.23-.89-.16-1.53s.2-1.51.36-2.25c.8-3.71,3.41-8.42,1.6-12.2-1.55-3.24-6.57-4.75-9.77-5.34a42.45,42.45,0,0,0-8.87-.31c-1.05,0-2.54-.22-3.4.5s-1,2-1.24,3c-.86,3-1.63,6.07-2.46,9.11-.42,1.51-.85,3-1.31,4.53-.37,1.21-.64,2.88-1.46,3.88-.67.83-1.66.78-2.65.79-1.62,0-3.24,0-4.87,0-2.58,0-4.72-.45-5.51,2.44s-1.61,6-2.46,9c-.22.77-.59,1.84.11,2.48s2.08.41,2.92.4c1.46,0,2.92,0,4.38,0,1,0,2.62-.29,3.49.38a1.88,1.88,0,0,1,.41,2c-.32,1.69-.84,3.37-1.27,5-1.83,7.11-3.73,14.21-5.9,21.24-.84,2.71-1.51,4.91-.36,7.66,2.06,4.93,6.38,6,11.21,6.61a46.25,46.25,0,0,0,6.55.38,43.35,43.35,0,0,0,12.58-2,17.58,17.58,0,0,0,7.35-4.24,12.24,12.24,0,0,0,2.3-3.39,16.46,16.46,0,0,0,.77-2.24c.34-1.28.45-1.63-1-1.65-2.16,0-4.32,0-6.48,0h-3a8.1,8.1,0,0,1-2.82-.15c-1.22-.47-1.06-1.67-.8-2.73.55-2.23,1.23-4.44,1.84-6.65q1.85-6.69,3.64-13.4c.45-1.69.65-4.24,1.73-5.68.83-1.1,2.24-1.12,3.5-1.31a21.87,21.87,0,0,0,10.38-4,14.58,14.58,0,0,0,3.73-4.28,11.37,11.37,0,0,0,1.05-2.52c.23-.8.76-2.37.4-3.18-1.19-.45-3-.1-4.31-.1H488.2a11.09,11.09,0,0,1-2.3,0A1.07,1.07,0,0,1,485.42,85.17Z"/><path class="cls-1" d="M428.7,89.11a46,46,0,0,0-16.14-3.93A47.45,47.45,0,0,0,395,87.52q-2.13.69-4.2,1.56a10,10,0,0,1-3.42,1c-2.41.08-4.39-2-6.51-2.93a26.41,26.41,0,0,0-8.8-2c-2.09-.15-4.21,0-5.33,2a17,17,0,0,0-1.2,4c-.44,1.66-.91,3.31-1.39,5-.9,3.06-1.84,6.1-2.69,9.17-1.88,6.73-3.5,13.52-5.19,20.29-.85,3.39-1.72,6.77-2.64,10.14a38.7,38.7,0,0,0-1.35,4.9c-.38,2.89,3.08,2.22,4.9,2.21l4.48,0c3.24,0,6.48-.07,9.71,0,1.83,0,4.67.65,6-1a7,7,0,0,0,1.05-2.72l1.38-5.22c1.57-6,3.18-11.89,4.77-17.84q1.2-4.45,2.38-8.92c.39-1.48.74-3,1.16-4.43A4.35,4.35,0,0,1,389.6,100a4,4,0,0,1,2.54-.51c1.51,0,3,.1,4.52.08q4.13-.06,8.25-.06c1.29,0,4.85-.78,5.54.86.35.85-.15,2-.39,2.79-.51,1.67-1,3.36-1.43,5-1.56,5.78-3.28,11.54-4.65,17.36-1,4.37-1.67,9.08,1.8,12.56,3.65,3.67,9.78,4.39,14.68,4.58,2,.07,4.21.52,5.09-1.65a37.93,37.93,0,0,0,1.13-4.18q.68-2.58,1.37-5.15,2.46-9.2,4.92-18.39,1.08-4,2.15-8.11a20.08,20.08,0,0,0,.94-7.09c-.41-4.13-3.19-7.07-6.84-8.8Z"/><path class="cls-1" d="M232.28,85c-6.53-.1-13.13.3-19.68.26-3.3,0-6.6-.05-9.9-.05-2.49,0-6.38.81-8.73,0-3.73-1.25-3.74-7.27-7.59-9.76A22.82,22.82,0,0,0,171,72.65c5.28,11.16-.7,23.7-3.72,34.88l-5,18.47c-1.14,4.25-3.69,8.52-3.83,13-.2,6.19,7.66,3.73,12,3.71,3.18,0,8.64,1.18,11.57-.19s3-5.32,3.71-8c1.16-4.46,2.36-8.9,3.57-13.35s2.37-8.9,3.6-13.33c1.17-4.2,1.79-4.86,6.13-4.87,7.56,0,17.64,1.69,24.71-1.46C229.23,99,234.48,91.17,232.28,85Z"/><path class="cls-1" d="M268.27,85.29c-.74-.42-3,0-3.78,0l-9.17,0c-3,0-6.09,0-9.13,0-2.1,0-3.3.73-3.91,2.8-1.75,5.91-3.16,12-4.75,17.9q-2.68,10.08-5.41,20.15-1.31,4.85-2.62,9.7a30,30,0,0,0-1.24,4.83c-.29,2.94,2.81,2.2,4.7,2.18,1.29,0,2.57,0,3.85-.14a27.62,27.62,0,0,0,6.1-1.29A23,23,0,0,0,258.51,124c1.28-5.8,3-11.49,4.46-17.24s3.28-11.34,4.57-17.1c.17-.72.32-1.44.47-2.17.05-.26.57-1.89.41-2.09A.36.36,0,0,0,268.27,85.29Z"/><path class="cls-1" d="M269.34,77.59a2,2,0,0,0,1.67-.92,6.88,6.88,0,0,0,.74-3.26,8.4,8.4,0,0,0-2.38-6.25c-1.92-1.93-4.4-2.51-7-2.88a52.14,52.14,0,0,0-10.14-.53c-1,0-2.5-.08-3.23.76-.88,1-1.11,3.14-1.49,4.43-.49,1.61-.95,3.22-1.34,4.85-1.23,5.21,2.79,3.67,7,3.7l14.6.1C268.32,77.59,268.85,77.63,269.34,77.59Z"/></g></g></svg>