<svg xmlns="http://www.w3.org/2000/svg" viewBox="0 0 500 263.25"><defs><style>.cls-1{fill:#fff;}</style></defs><g id="Layer_2" data-name="Layer 2"><g id="Layer_1-2" data-name="Layer 1"><path class="cls-1" d="M175.92,50.59V20.5c0-2.61,0-5.23,0-7.84,0-4.74,2.77-7.15,7.15-7.22q18.83-.29,37.65,0c5,.07,7.75,4,6.61,10.05-.38,2,.69,3.17.33,5.63C243.5.84,263.64-2.21,286.83,2.11,307.74,6,325.88,22.31,328.38,46.2c2.28,1.18,3.1-.6,4-2,18.07-28.07,45.23-38.74,77.13-40.07,15.71-.65,31.23,1.37,45.42,8.32,13.72,6.71,24.92,16.58,32.26,30.47,10.63,20.11,13.84,41.57,12.5,64-.45,7.53-2.93,9.66-10.58,9.68q-54.64.08-109.28.11h-5.13c1.21,9.22,5.6,16.38,12.72,21.07,13.82,9.1,28.79,10.15,44.28,4.15a18.19,18.19,0,0,0,7.9-5.61c3.12-3.95,7.07-5.39,11.86-5.39,10.81,0,21.61-.07,32.42,0,8,0,10.41,3.7,7,11-9.25,20-24.3,33.85-45.16,40.72-27.45,9-54.53,6.76-80.49-5.53-13.62-6.44-23.85-17.18-31.75-30-1-1.56-2-3.05-3.52-5.27-1.29,3.07-.77,5.47-.79,7.75-.07,7.15.06,14.3,0,21.44-.08,5.5-2.55,8-8.05,8-12.55.08-25.1,0-37.65.08-4.05,0-6.17-2.08-6.82-5.76a39.15,39.15,0,0,1-.37-6.77q0-54.9,0-109.81c0-9.13-.21-9.37-9.31-9.41-7.49,0-15,.13-22.48-.09s-14.35.72-21.1,5.19c-9.56,6.33-20,11.36-30.25,16.59-4.36,2.23-5.78,5.45-5.72,10,.13,8.89,0,17.78.1,26.67.05,8,2.66,9.46,9.86,5.49,8.37-4.63,16.66-9.41,25-14.1,1.47-.84,3-1.56,5.32-2.75v9.83q0,32.43,0,64.84c0,8.17-1.71,10-9.68,10q-16.74.06-33.47,0c-7.56,0-8.53-1-8.55-8.36,0-12.8,0-25.6-.44-38.56-12.7,23.45-31.07,40-56.54,47.87-19,5.87-38.09,5.37-57-.81C25.36,167.13-1.88,129.45.1,87.31c1.69-36,26.56-71.06,64-83.25C98.8-7.2,149.88,3.92,175.92,50.59ZM51.76,94.29c-1.22,20.86,21.18,39.22,41.84,38.11a40.92,40.92,0,0,0,38.54-42c-.72-21.69-19.65-39.59-41.68-38.43C67,53.19,51.26,69.1,51.76,94.29ZM373,76.93h74.45c1.19-10.69-12.68-23.43-30.07-26.53C397.09,46.78,380.65,56.51,373,76.93Z"/><path class="cls-1" d="M22.63,242.44c2.78-4.21,5.66-7.75,7.62-11.73,2.75-5.64,6.78-7.28,12.86-5.53v37.45H34.23V243.15l-1.07-.31c-2.48,3.84-5,7.65-7.42,11.51-2.12,3.35-4.13,3.33-6.22,0-2.48-4-5-7.9-8.29-13.08v21.36H2.14v-37.4c5.59-1.53,9.91-.7,12.74,5.15C16.83,234.39,19.71,238,22.63,242.44Z"/><path class="cls-1" d="M381.63,247.24V225.31c3.07-1.05,5.8-.5,8.89-.55v37.67c-5.32,1.37-9.52.55-12.73-4.95s-7.55-10.71-12.23-17.2v22.36H356.5V225.16c5.33-1.19,9.56-.93,12.73,4.66C372.52,235.61,376.94,240.75,381.63,247.24Z"/><path class="cls-1" d="M464.54,225.14c5.94-1.5,10-.06,13.16,5.39,3.25,5.62,7.53,10.65,12.2,17.1V225a22.28,22.28,0,0,1,8.73.08V262.5c-5.94,1.47-10,0-13.17-5.42s-7.39-10.52-11.83-16.71v22.19h-9.09Z"/><path class="cls-1" d="M427.18,263.25a19.52,19.52,0,1,1,19.33-19.63A19.13,19.13,0,0,1,427.18,263.25Zm-10.49-19.66c-.08,6.22,4.24,11,10.06,11.1a10.55,10.55,0,0,0,10.73-10.5c.16-6.36-4.39-11.36-10.39-11.41C421.35,232.74,416.76,237.51,416.69,243.59Z"/><path class="cls-1" d="M263.31,262.94V224.75c5.69,0,11.37-.68,17,.61,7.84,1.79,10.22,9,5.57,16.85,1.39,2.26,3.88,3.84,4.51,6.73,1.34,6.2-2.09,11.56-8.81,13.22C275.74,263.6,269.79,262.57,263.31,262.94Zm9.33-8.68c3.08-.26,6.08.74,8.32-2a2.39,2.39,0,0,0-.2-3.32c-2.37-2.56-5.32-1.42-8.12-1.54Zm-.1-15.43c2.77-.36,5.5.65,6.61-2.44a2,2,0,0,0-1.3-2.49c-1.75-.56-3.61-1-5.31.18Z"/><path class="cls-1" d="M303,262.75c4.44-12.38,8.71-24.12,12.83-35.9,1-2.91,3.21-2.22,5.14-2.06,2.36.2,5.51-1.65,6.81,1.88,4.34,11.87,8.56,23.78,12.86,35.76-8.55,1-8.55,1-12.35-6.92-5.68,1.71-14.61-4.45-15.75,7.24ZM325.51,247c-1.24-3.42-2.26-6.24-3.67-10.15-1.43,4-2.92,6.72-3.18,10.15Z"/><path class="cls-1" d="M245.23,254.11v8.64H223.4V225h21.76a26.14,26.14,0,0,1,0,8.51H232.36v5.63h10a19.76,19.76,0,0,1,.25,8.82h-9.77c-1.12,2.16-.85,3.93-.25,6.12Z"/><path class="cls-1" d="M102.36,225.11c9.21-.92,9.22-.92,11.69,7,1.76,5.59,3.48,11.19,5.71,18.41,2.25-7.07,4-12.67,5.81-18.28,2.51-8,2.5-8,11.61-7.09-2.8,8.95-5.56,17.78-8.34,26.61a42,42,0,0,0-1.75,5.44c-.75,4.55-3,6.16-7.77,5.9-3.72-.21-5.39-1.14-6.46-4.81C109.66,247.29,106,236.46,102.36,225.11Z"/><path class="cls-1" d="M86.5,225c.18,3,.75,5.59-.39,8.54H78.19v29.13h-9V234.18c-2.8-1.46-5.51-.11-8.16-1-1.41-2.53-.28-5.25-.69-8.22Z"/><path class="cls-1" d="M182.61,224.93h8.78v29h14.89c1.07,3,.61,5.71.45,8.66H182.61Z"/></g></g></svg>