<svg xmlns="http://www.w3.org/2000/svg" viewBox="0 0 500 195.31"><defs><style>.cls-1{fill:#fff;}</style></defs><g id="Layer_2" data-name="Layer 2"><g id="Layer_1-2" data-name="Layer 1"><path class="cls-1" d="M153.38,27.47c35.08,36.57,35.08,96,0,132.53s-92,36.67-127.08,0-35.07-96,0-132.53,92-36.63,127.08,0m-22.64,109c22.62-23.6,22.62-61.78,0-85.42A56.19,56.19,0,0,0,49,51c-22.59,23.63-22.59,61.82,0,85.42a56.15,56.15,0,0,0,81.8,0"/><path class="cls-1" d="M460.71,162.23C455,183,440.45,195.31,421.83,195.31s-36.35-14.22-41.36-33.08L355.53,62C352.53,49.62,344,42.64,332,42.64H272V193.78H237.24V42.64H179.69V7.81H333c24.93,0,47.42,16.93,54.63,41.19l27.28,107.62a6.3,6.3,0,0,0,11.53-.39L463.75,7.93H500Z"/></g></g></svg>