<svg xmlns="http://www.w3.org/2000/svg" viewBox="0 0 500 708.62"><defs><style>.cls-1{fill:#fff;}</style></defs><g id="Layer_2" data-name="Layer 2"><g id="Layer_1-2" data-name="Layer 1"><path class="cls-1" d="M330.9,293.57c1.36-6,2.68-11.9,4-17.78q5.79-25.67,11.57-51.32c2-9.16,4-18.33,6.09-27.48,3.37-14.87,6.83-29.72,10.18-44.6,3-13.35,5.88-26.73,8.87-40.08,2.89-12.9,5.87-25.77,8.76-38.67,2.76-12.31,5.42-24.65,8.18-37,2.57-11.44,5.24-22.87,7.77-34.32C396.74.52,397.6,0,399.41,0c18.75.06,37.5,0,56.24.08,6.34,0,11.13,3.85,15.59,7.77,7.46,6.54,10.81,15,11.14,24.91.25,7.67-1.5,15-3.18,22.35-3.08,13.5-6.1,27-9.16,40.53q-7.46,32.91-14.94,65.83-5.58,24.61-11.14,49.26c-3.15,13.93-6.11,27.92-9.51,41.79-4,16.15-7,32.5-11,48.64-3.32,13.36-5.94,26.88-9,40.31-4,17.87-8.15,35.73-12.21,53.6-2.47,10.86-4.94,21.71-7.33,32.58-.92,4.2-3.87,6.74-7.12,9-7.52,5.19-16.09,6.8-25,6.84-20.16.1-40.31,0-60.47.09a2.92,2.92,0,0,1-3.08-2.07c-3-8.51-7.15-16.53-10.79-24.77-5.72-13-11.52-25.87-17.28-38.81q-8.13-18.27-16.24-36.55-13.09-29.53-26.2-59.06c-7.44-16.71-15-33.38-22.41-50.09-9.13-20.5-18.17-41-27.3-61.52-8.5-19.09-17.09-38.13-25.59-57.22-6-13.39-11.78-26.84-17.75-40.22-5.14-11.52-10.42-23-15.58-34.49C114.86,27,109.69,15.28,104.49,3.53a2.36,2.36,0,0,1,0-.76c.9-.94,2-.53,3-.53q45.95,0,91.89-.06a2.9,2.9,0,0,1,3.18,2.05c3.15,7.87,6.57,15.64,10.07,23.34C217.9,39.26,223,51,228.23,62.74c8,18,15.82,36,23.74,54q9.16,20.8,18.37,41.6,7.55,17.08,15.1,34.16,7,15.83,13.92,31.65,8.08,18.36,16.17,36.71,6.71,15.23,13.38,30.47C329.24,292.13,329.37,293.08,330.9,293.57Z"/><path class="cls-1" d="M119,106.67c.75,1.53,1.5,3,2.24,4.58a2.8,2.8,0,0,0,.11,2.31,71,71,0,0,1,3.65,8c2.55,5.75,5.09,11.51,7.88,17.15.84,1.69.63,4.1,2.91,5l8.53,19c-.14,4,2.82,6.93,3.93,10.54a76.8,76.8,0,0,0,4.8,11c.87,1.79,1.2,4.05,2.33,5.4,3.05,3.64,2.68,7.47,1.48,11.36-1.36,4.45-1.49,9.18-3.11,13.5-1,2.77-.77,5.66-1.67,8.42-1.14,3.52-1.68,7.22-2.5,10.84-.91,4-1.84,8.1-2.76,12.15-1,4.27-2.41,8.46-2.47,12.91-1,4.79-2,9.6-3.05,14.39-1.77,7.86-3.61,15.71-5.42,23.57-1.6,1.29-1.81,3.28-1.95,5-.33,3.91-1.58,7.61-2.54,11.31-1.08,4.18-1.74,8.44-2.73,12.63-.69,2.94-1.13,6-1.91,8.94-1.36,5.16-2.44,10.37-3.61,15.57-.73,3.25-1.68,6.46-2.33,9.74-.71,3.62-1.91,7.15-1.72,10.91q-3,13.47-6,26.94c-3.08,13.77-6.2,27.53-9.23,41.3-.79,3.58-.74,3.67-4.39,3.67-18.29,0-36.59.08-54.88,0-8.56-.06-16-3.21-21.53-9.79a23.35,23.35,0,0,1-5.1-19.5c2.14-12.9,5-25.68,7.73-38.46,2-9.15,3.75-18.34,5.61-27.52,1.76-1.28,1.67-3.49,1.83-5.11.61-6.43,2.8-12.52,3.64-18.89a30.78,30.78,0,0,1,1.13-5.3,67.11,67.11,0,0,0,2.73-12.8,67.53,67.53,0,0,1,1.55-7.89c.52-2.12-.1-4.62,1.24-6.29,1.57-2,1.38-4,1.55-6.17.13-1.74.53-3.45.83-5.17.48-2.81,1.77-5.48,1.31-8.44.93-6.77,2.64-13.4,4-20.09,2.75-13.57,5.66-27.11,8.44-40.68,3-14.76,5.94-29.54,8.94-44.31q3.64-18,7.41-36a25.07,25.07,0,0,1,.75-2.52c.28-.19.79-.36.81-.58.36-4.12,2.4-7.9,2.38-12.11,0-3.23,1.69-6.14,2-9.29.46-4.48,2.09-8.68,2.49-13.21.42-4.75,2-9.37,3-14.07.48-2.18.48-4.48,1.29-6.56a35.51,35.51,0,0,0,1.81-8.25c.53-4,2.6-7.61,2.4-11.76C96,56.67,98,61.74,100,66.79c.46,1.15.79,1.87,2,1.9h0c.07,4,2.48,7.16,4,10.61,1.38,3.12,3,6.2,4.26,9.32,2.3,5.54,5.21,10.83,7,16.59A2,2,0,0,0,119,106.67Z"/><path class="cls-1" d="M215.86,593.6c11.72,0,23.31,0,34.9,0,2.05,0,2.57-1.1,2.56-2.85-.06-4.82.11-9.66-.19-14.47-.35-5.56-4-8.63-9.63-8.57a38.06,38.06,0,0,0-5.84.52c-1.9.33-3.7,1.35-5.84.72a3.46,3.46,0,0,1-.67-1c-1.87-8.65-1.86-8.65,7-10.08,16.31-2.62,25.93,5.7,25.7,22.19,0,3,0,6,0,9,0,2-.24,3.64,2.52,4.94,2.92,1.37,2.18,5.43,2,8.23s-3.11,1.62-4.82,1.63c-28.49.07-57,0-85.49,0-6.72,0-6.47.52-6.17-6.38,0-1.17-.48-2.4.71-4.2h17c3.62,0,7.24-.11,10.85,0,2.39.1,3.28-.85,3.18-3.15-.2-4.21-.06-8.46-.51-12.64-.78-7.16-5.35-10.51-12.52-9.77-4.15.43-7.59,2.66-11.45,4.4-1.71-2.42-2-5.15-2.89-7.65-.42-1.18.17-2,1-2.73,11-10.09,31.51-4.89,36.29,9.16,1.64,4.83,1.45,9.8,1.52,14.76C215.23,588.14,214.71,590.57,215.86,593.6Z"/><path class="cls-1" d="M130,593.55c6.36,0,11.77-.09,17.17,0,2.89.07,3.56-1.31,3.5-3.87-.19-7.23.18-14.5-.45-21.68-.46-5.27,1.59-8,6.31-9.25,1.68-.45,3-2.21,4.92-1.56,1.12.82.86,1.92.86,2.95,0,13-.12,25.92.11,38.87.08,4.08-1.36,5-5.24,5q-33.21-.3-66.43,0c-3.83,0-4.4-1.59-4-4.57.33-2.59-1.65-6.37,3.79-6.19,8,.28,16,0,24,.13,3.1.07,4.43-.83,4.12-4.1s-.2-6.62-.35-9.93c-.39-9-6.24-13.33-15-11.12a23.49,23.49,0,0,0-3.84,1.31c-6,2.65-7.16,2-8.31-4.63a3.09,3.09,0,0,1,1.26-3.13c10.41-9,29-5.44,35.12,6.84A26.12,26.12,0,0,1,130,580.45C130,584.64,130,588.82,130,593.55Z"/><path class="cls-1" d="M347.38,604.06c-9,0-18.08.08-27.11,0a19.54,19.54,0,0,1-19-16.14,40.71,40.71,0,0,1,.19-14.8c1.67-8.63,11-15.3,19.3-15.34,6,0,12-.07,18.06-.33,3.12-.13,4.24.9,4.18,4.12-.18,9.34.06,18.68-.12,28-.06,3.08.64,4.31,4,4.15,5.86-.27,11.75-.23,17.62,0,3.2.13,4.21-.92,4.1-4.1-.27-8-.29-16-.31-24,0-3.41,7.32-9.18,10.51-8.42,1.36.32,1.34,1.39,1.34,2.47,0,13.71-.07,27.41,0,41.11,0,2.86-1.61,3.09-3.81,3.08-9.63,0-19.27,0-28.9,0Zm-15.71-23.23h-.11c0-1.05,0-2.11,0-3.16-.1-10.1-.1-10.09-10.32-9.31-3.94.3-6.84,2-8.46,5.74-4.71,10.76.92,19.7,12.45,19.75,6.5,0,6.5,0,6.44-6.26C331.65,585.34,331.67,583.08,331.67,580.83Z"/><path class="cls-1" d="M418.81,603.77c-3.59,0-6.87.1-10.13,0a17.33,17.33,0,0,1-12.93-6.45,25.72,25.72,0,0,1,.48-33.2c3.92-4.35,8.9-6.05,14.49-6.17,5.42-.12,10.85.21,16.27.12,2.86,0,3.51,1.17,3.48,3.83-.12,14.31,0,28.62-.1,42.93-.08,12.25-7.42,19.57-19.7,19.85-.9,0-1.81,0-2.71,0-8-.08-8.07-.32-5.24-7.74,1-2.71,2.94-2.49,5-2.66C414.83,613.7,418,610.93,418.81,603.77Zm.44-22.87h0c0-3,0-6,0-9,0-1.39.11-2.65-1.63-3.23-7.41-2.51-14,1.07-16.15,8.65a15.17,15.17,0,0,0,1,10.51c2.21,5,8.08,7.58,14.61,5.66,4.35-1.27,1.28-5.38,2-8.11C419.56,584,419.25,582.4,419.25,580.9Z"/><path class="cls-1" d="M78.34,580.8c0,6.48-.14,13,.06,19.42.1,3.18-1.33,3.8-4.08,3.76-6.17-.08-12.35,0-18.52.12-6.77.12-11.95-3-15.81-8.18-5.86-7.89-5.46-17-2.42-25.45,3.2-8.85,10.86-12.86,20.39-12.87,5.57,0,11.14.06,16.7-.23,2.86-.15,3.74.87,3.7,3.55C78.27,567.55,78.33,574.18,78.34,580.8Zm-11.71,13a7.86,7.86,0,0,0,.51-1.58c0-5-.16-9.93-.19-14.9,0-9.24,0-9.24-9.39-9-5.69.12-9.59,3.41-10.3,8.68-1.16,8.7,1.29,14.63,6.82,16.47a4,4,0,0,0,1.3.34C59.11,593.81,62.84,593.8,66.63,593.8Z"/><path class="cls-1" d="M89.17,665.42c6.39-1.68,7.34-1.27,9.37,4.53s3.91,11.67,5.81,17.52c.46,1.42.77,2.87,2.62,3.71,2.63-7.77,5.48-15.29,7.66-23,.9-3.21,2.61-3.37,5.19-3.52,2.91-.16,3.67,1.27,4.47,3.79,2.46,7.83,5.34,15.53,8.3,23.95,3.12-5.31,3.89-10.82,5.89-15.84.88-2.23,1.41-4.6,2.13-6.89,1.64-5.24,2.87-5.84,8.73-4.22.45,2.36-.87,4.36-1.54,6.45Q142.6,688,137.14,704c-.67,2-1.12,4.29-4.36,4.27s-3.51-2.2-4.22-4.3c-2.44-7.25-4.87-14.5-7.35-21.74a4.33,4.33,0,0,0-2.2-3L109.41,707c-4.5,1.5-6.71-.24-8-4.49C97.45,690.13,93.25,677.79,89.17,665.42Z"/><path class="cls-1" d="M258.56,708.12c-3.91,0-7.83.1-11.75,0a7.43,7.43,0,0,1-7.62-7.31c-.09-1.63-.88-4.21,1.67-4.4,1.78-.14,4.75-1.61,5.46,2,.33,1.7,1.75,1.84,3.18,1.83,6.18,0,12.36-.07,18.53,0,4,.06,3.51-2.72,3.63-5.28.12-2.77-.37-4.7-3.83-4.64-6.78.12-13.56.06-20.34,0-5.48-.07-8.22-2.83-8.37-8.35-.08-3.16-.08-6.33,0-9.49.15-4.68,3-7.73,7.58-7.8,8-.13,16-.1,23.94,0,4.51.06,7.28,2.72,8.23,7.5.34,1.71.5,3.7-1.61,4-1.81.3-4.45,1.58-5.46-1.22-.78-2.17-2.1-2.65-4.09-2.64-6,0-12.06.13-18.08,0-3.75-.1-3.63,2.27-3.51,4.8s-.71,5.3,3.56,5.16c6.47-.21,13-.07,19.43,0,6,0,9.42,3,9.91,8.79a44.08,44.08,0,0,1-.17,9.4c-.65,4.93-4.25,7.66-9.46,7.67H264c-1.81,0-3.62,0-5.43,0Z"/><path class="cls-1" d="M298.09,685.86c0-4.51-.13-9,0-13.54s3.16-7.46,7.74-7.51c7.82-.08,15.65-.07,23.47,0,5.26,0,8.46,3.1,8.53,8.34q.17,13.1,0,26.17c-.09,5.72-3.38,8.83-9,8.85q-11.06,0-22.12,0c-5,0-8.47-3.26-8.67-8.31-.19-4.66,0-9.33,0-14Zm7.29-13.57c0,9,0,17.34,0,25.71,0,1.69,1.09,2.32,2.67,2.31,6.46,0,12.91,0,19.37-.09,2.25,0,3.07-1.27,3-3.5-.09-6.9-.13-13.81,0-20.71,0-2.9-1.48-3.7-3.88-3.71C319.86,672.26,313.12,672.29,305.38,672.29Z"/><path class="cls-1" d="M83.33,664.72c-1.37,7.64-1.37,7.64-8.5,7.65H55.47c-1.54,1.33-1.27,2.61-1.3,3.77-.19,6.1-.17,6.1,6.08,6.13,4.52,0,9,.17,13.56,0,3.09-.12,4.25,1,4.29,4.13,0,3.43-1.66,4.05-4.5,4-5.27-.09-10.56.19-15.81-.12-4.29-.25-3.61,2.48-3.6,5s-.63,5.2,3.59,5.08c7.83-.22,15.67-.06,23.5,0a8.85,8.85,0,0,1,1.6.33c1.41,2.23-2,4.56.46,7.06H46.59c0-6.32,0-12.58,0-18.84,0-7.07.18-14.14.11-21.21,0-2.19.78-3,2.87-3C60.71,664.74,71.83,664.72,83.33,664.72Z"/><path class="cls-1" d="M7.34,678.09c0,8.68-.15,17.36.08,26,.09,3.59-1.3,4.46-4.53,4.13C.81,708,0,707.24,0,705.14c.06-12.51.05-25,.05-37.54,0-1.26.09-2.76,1.64-2.71,2.67.07,5.55-1.28,7.83,1.77,6.18,8.27,12.61,16.35,19,24.5.79,1,1.32,2.37,2.75,2.75,2-1.2,1.31-3,1.32-4.54.05-7.09.18-14.18,0-21.26-.09-3.1,1.46-3.38,3.87-3.41s3.56.62,3.54,3.31c-.09,12.21,0,24.42,0,36.64,0,1.56,0,3.31-2,3.41-2.59.13-5.42,1.11-7.47-1.68-2.58-3.51-5.32-6.91-8-10.36l-14-18.2Z"/><path class="cls-1" d="M350.38,678.18c0,8.67-.1,17.35.06,26,.05,2.75-.31,4.11-3.57,4.07s-3.8-1.2-3.78-4c.12-12.92.05-25.84.05-38.9,5.11-1.74,8.59,0,11.48,3.85q8.53,11.34,17.22,22.58c.78,1,1.46,2.32,3.74,2.6,0-5.85,0-11.62,0-17.38,0-2.11-.16-4.22-.1-6.32.19-6.47.38-6.6,7.56-5.42q0,20.13,0,40.41c0,1.44-.64,2.42-2.05,2.44-2.6,0-5.27.87-7.35-1.93-4.83-6.51-9.9-12.84-14.89-19.22-2.39-3.06-4.82-6.08-7.23-9.12Z"/><path class="cls-1" d="M464.4,560.65a14.72,14.72,0,0,1,.57,2.79c0,13.7.32,27.42-.11,41.11-.56,18.09-13.32,21.45-27.2,19.77a2.11,2.11,0,0,1-2.06-1.43c-.81-2.63,3.13-8.35,5.9-8.53,9.17-.61,12.22-3.93,12.18-13.07,0-9.79,0-19.58,0-29.37C453.72,563.12,454.84,561.87,464.4,560.65Z"/><path class="cls-1" d="M500,665.43c-7.41,13.91-14.54,27.41-21.82,40.83-1.65,3-6.94,2.86-8.55-.16q-10.75-20.24-21.43-40.56c6.76-1.83,7.95-1.27,11,4.64q6,11.63,12.15,23.17c.74,1.4,1.23,3.07,3.29,4.07,4.87-9.32,9.7-18.58,14.57-27.83C492,664.26,492.83,663.94,500,665.43Z"/><path class="cls-1" d="M170.76,665.28c7.59-1.1,8-.89,11.18,5.13l13.75,25.85a13.47,13.47,0,0,0,1,1.35c3.7-4.39,5.38-9.54,8-14.12,2.54-4.42,4.72-9,7.07-13.58,3-5.75,3.41-5.94,10.47-4.64-.37,2.74-2.11,4.84-3.32,7.15-5.38,10.23-10.76,20.45-16.28,30.61-.82,1.51-1.51,3.2-3.12,4.31-3,2.07-5.59,1.67-7.31-1.56C185.13,692.44,178.07,679.07,170.76,665.28Z"/><path class="cls-1" d="M425.42,664.72c5.42,0,10.84.11,16.25,0,2.95-.08,3.91,1,3.9,4s-1.32,3.89-4.09,3.77c-3-.13-6,.12-9,0-2.78-.12-3.66,1.09-3.63,3.76.09,9.18-.09,18.36.08,27.54.06,2.95-.78,4.35-3.82,4.58-3.37.26-3.56-1.64-3.55-4.21.06-9.18-.09-18.35,0-27.53,0-3-.81-4.51-4.12-4.19-2.54.24-5.12-.15-7.67,0-3,.2-4.38-.69-4.36-4s1.58-3.72,4.23-3.67C414.88,664.79,420.15,664.71,425.42,664.72Z"/><path class="cls-1" d="M227.33,707.63V665.3c6.92-1.31,7.07-1.21,7.07,5.14q0,16,0,32C234.34,708.86,234.29,708.88,227.33,707.63Z"/><path class="cls-1" d="M292.76,665.05c1.06,2.25.5,4.54.51,6.74.07,10.69,0,21.38.05,32.07,0,2.78-.26,4.41-3.82,4.46-3.86.06-3.55-2.05-3.54-4.58,0-11.6,0-23.19,0-34.78,0-1.3-.4-2.74.81-4A16.42,16.42,0,0,1,292.76,665.05Z"/><path class="cls-1" d="M421.34,543.74c3.11,4.1,1.22,5.9-3,7.07-3.89,1.07-7.64,2.59-11.63,4-1-2.4-3.67-4-.9-6.6,1.32-1.23-.33-2.15-.84-3.07-1.77-3.25-1.3-6.16,1.26-8.64a11.56,11.56,0,0,1,10.46-3c1.82.32,1.32,2.08,1.34,3.39,0,1.71-.53,2.83-2.54,3s-5.14-.44-4.21,2.84c.77,2.7,3.56,2.88,6.09,1.62A6.49,6.49,0,0,1,421.34,543.74Z"/><path class="cls-1" d="M376.74,611.7c3.33-.67,5.61.08,5.29,5-.44,6.8-.11,6.88-5.46,6.79-7.42-.13-6.11.72-6.2-7.29C370.32,611.7,370.35,611.7,376.74,611.7Z"/><path class="cls-1" d="M65.24,542c.06-5.67.07-5.4,7.38-5.69,6.72-.26,3.77,4.58,4.33,7.49.88,4.57-2.11,4.64-5.43,4.55C65.19,548.21,65.19,548.3,65.24,542Z"/><path class="cls-1" d="M164,617.46c-.14,7.44.58,5.75-7.43,6.1-3.06.13-4.35-.66-4.27-4,.19-7.86.07-7.53,7.56-8C165.14,611.31,163.82,614.69,164,617.46Z"/><path class="cls-1" d="M142.6,623.57c-7.14-.29-5.39.56-5.93-7.11-.48-6.88,4.39-4.19,7.5-4.76,3.65-.66,4.24,1.43,4.2,4.46C148.27,623.59,148.34,623.59,142.6,623.57Z"/><path class="cls-1" d="M322.39,543.24c-.05,2.9.94,6.12-4.19,5.87-7.53-.37-7.62-.08-7.49-5.81.07-3-1.11-6.73,4.64-6.29C322.36,537.56,322.39,537.15,322.39,543.24Z"/><path class="cls-1" d="M253.22,608.71c6.39,0,5.67-1.17,5.86,7.54.14,6.24-4.38,3.52-7,3.7-5,.35-5,.06-5-7.05C247.2,608.64,247.2,608.64,253.22,608.71Z"/><path class="cls-1" d="M359.88,611.76c3.33,0,7.27-1.11,6.14,4-.62,2.77,3.05,8-3.82,7.77-8-.28-7.31,1.79-7.69-7.22C354.3,611.3,356.89,611.32,359.88,611.76Z"/><path class="cls-1" d="M326.55,544.37c0-4-1.25-8,4.16-7.19,2.93.45,8.21-2.34,7.26,4.3-.39,2.72,2.81,7.52-3.65,7.53C326.59,549,326.59,549.1,326.55,544.37Z"/><path class="cls-1" d="M61.1,542.61c0,5.69,0,5.43-7.26,5.78-6.72.33-3.74-4.52-4.34-7.4-.82-3.93,1.29-4.76,4.81-4.65C61.08,536.54,61.09,536.4,61.1,542.61Z"/></g></g></svg>