<svg xmlns="http://www.w3.org/2000/svg" viewBox="0 0 272.82 500"><defs><style>.cls-1{fill:#fff;}</style></defs><g id="Layer_2" data-name="Layer 2"><g id="Layer_1-2" data-name="Layer 1"><path class="cls-1" d="M269.61,172.36c1.64-5.28,3.23-10.48,3.21-16.24-.17-51-.1-102-.12-153,0-1,.33-2-.42-3.14H.12V370.05c0,2.05.11,4.11,0,6.15-.13,2.3.63,3.12,3.1,3.12q99.6-.1,199.21,0c2.38,0,3.36-.8,4-3q12.93-42.18,26-84.31Q251,232.18,269.61,172.36Zm-158.55,89.2c-4.71-.89-9.72-.21-14.55-.21-1.35,1.84-1.26,3.86-1.26,5.88q0,45.06,0,90.14v4.13H45.9V261.38H24.4c-.47-2.24.42-3.76,1-5.33q6.06-17.38,12.16-34.74c.92-2.63,2.64-4.93,2.69-7.95,0-1.8,1.73-2,3.34-2,9,.06,18,.05,27,.05l58.66,0h3.91c-1.88,5.46-3.62,10.56-5.39,15.64-3.61,10.31-7.28,20.61-10.82,30.95C115.85,261,114.82,262.28,111.06,261.56Zm87.62,64.55q-5.38,16.51-10.76,33c-.52,1.61-1,2.78-3.17,2.77-19.2-.08-38.4,0-58.15,0V351c0-27.53.12-55.06-.09-82.59,0-5.79,2-11,3.87-16,3.41-9.34,6.53-18.79,10-28.11,1.53-4.14,2.9-8.34,4.39-12.65H177v99.39h26.54C201.82,316.45,200.25,321.28,198.68,326.11Z"/><path class="cls-1" d="M107.88,429.35c-2.29.4-4.39,1.75-7.13,1.44V406.24H81.23a13.36,13.36,0,0,0-.17,1.35c0,28.32,0,56.64-.07,85,0,2,.93,2.78,2.48,3.38a56.49,56.49,0,0,0,33.36,2.55c10.56-2.3,17.74-8.7,21.47-18.83A49.78,49.78,0,0,0,140,451.48C136.73,436.27,124.33,426.49,107.88,429.35Zm11.52,48.88c-2.44,7.63-8.06,10.67-15.87,9.26-1.86-.34-2.66-1.09-2.62-3.12.13-6.7,0-13.4,0-20.1s.08-13.39,0-20.09c0-2,.65-2.77,2.49-3.29,7.74-2.18,14.16.83,16.31,8.5A49.63,49.63,0,0,1,119.4,478.23Z"/><path class="cls-1" d="M258.35,430.78c-14.2-3.94-28.26-2.53-42.12,2.06-1.74.57-2.1,1.56-2.09,3.23q.06,30.19,0,60.4c0,.54.07,1.09.11,1.8H234.2v-5c0-15.92,0-31.85,0-47.77,0-1.26-.53-2.73,1.16-3.58,8.82-4.44,17.51.71,17.52,10.43q0,21,0,42c0,1.31-.4,2.7.35,3.88h19.46c0-16.27,0-32.3,0-48.32C272.66,440.25,267.7,433.37,258.35,430.78Z"/><path class="cls-1" d="M272.57,253.21v-22c-2.37.85-2.06,2.63-2.43,3.9-4.21,14.34-8,28.8-12.55,43-3.59,11.27-6.47,22.73-10.07,34s-6.7,22.54-10,33.82c-3,10.11-6,20.2-8.89,30.33-.38,1.34-1.68,3.78,1.82,3,1-3,1.93-6,2.9-9-1,3-1.93,6-2.9,9,13.18,0,26.35,0,39.53.14,2.73,0,2.83-1.28,2.83-3.34q-.07-50.5-.06-101C272.71,267.76,272.62,260.49,272.57,253.21Z"/><path class="cls-1" d="M204.47,450.74c-.12-10.78-7-19.19-17.21-21.19a57.58,57.58,0,0,0-22.65.31,52.83,52.83,0,0,0-12.93,4.06c1.49,3.83,2.86,7.38,4.31,11.12,6.34-2.53,12.5-4.22,19.08-4.05,8.32.21,11.38,3.45,10.81,12.18-2.43.31-4.68.53-6.9.89-7.62,1.22-15.19,2.67-21.88,6.85-6.52,4.08-9.68,10-9.54,17.69.16,8.38,3.68,14.84,11.69,17.87,14.69,5.56,29.35,4,43.87-1,1.61-.57,1.42-1.8,1.42-3C204.53,478.51,204.64,464.63,204.47,450.74Zm-18.56,36.62a17.57,17.57,0,0,1-14.19.08c-4-1.73-5.3-5.27-5.45-9.41-.2-5.27,1.35-9.68,6.23-12.26a28.11,28.11,0,0,1,13.41-3Z"/><path class="cls-1" d="M20.42,406.38H0v91.87H42.63V484.73H20.42Z"/><path class="cls-1" d="M51.83,498.21H71.27V430H51.83Z"/><path class="cls-1" d="M61.65,405.72c-5.76-.1-10.6,4.08-10.66,9.21s4.3,9.32,10.29,9.52c5.61.19,10.72-4.14,10.81-9.16S67.33,405.82,61.65,405.72Z"/></g></g></svg>