<svg xmlns="http://www.w3.org/2000/svg" viewBox="0 0 500 142.86"><defs><style>.cls-1{fill:#fff;}</style></defs><g id="Layer_2" data-name="Layer 2"><g id="Layer_1-2" data-name="Layer 1"><path class="cls-1" d="M21.77,60.87a5.32,5.32,0,0,0-1.63,3.95v18H30V59.26H25.7A5.37,5.37,0,0,0,21.77,60.87Z"/><path class="cls-1" d="M415.18,59.26h-4.39V82.77h9.95v-18a5.57,5.57,0,0,0-5.56-5.56Z"/><path class="cls-1" d="M472.94,0H27.06A27.14,27.14,0,0,0,0,27.06V115.8a27.14,27.14,0,0,0,27.06,27.06H472.94A27.14,27.14,0,0,0,500,115.8V27.06A27.14,27.14,0,0,0,472.94,0ZM173.34,29.35a5.5,5.5,0,0,1,4.07-1.69,5.56,5.56,0,0,1,4.11,1.69,5.79,5.79,0,0,1-4.11,9.87,5.51,5.51,0,0,1-4.07-1.7,5.83,5.83,0,0,1,0-8.17Zm-143,0a5.78,5.78,0,1,1,8.17,8.17,5.78,5.78,0,1,1-8.17-8.17Zm-12.63,0a5.66,5.66,0,0,1,4.11-1.69,5.78,5.78,0,0,1,4.09,9.86,5.59,5.59,0,0,1-4.09,1.7,5.67,5.67,0,0,1-4.11-1.7,5.73,5.73,0,0,1,0-8.17Zm41.54,84.16a5.79,5.79,0,1,1,1.69-4.09A5.58,5.58,0,0,1,59.22,113.51Zm12.65,0a5.44,5.44,0,0,1-4.05,1.69,5.52,5.52,0,0,1-4.1-1.69,5.82,5.82,0,0,1,0-8.18,5.52,5.52,0,0,1,4.1-1.69,5.44,5.44,0,0,1,4.05,1.69,5.89,5.89,0,0,1,0,8.18Zm3.21-36.3A16,16,0,0,1,70.19,89.1a16.49,16.49,0,0,1-12,4.8H16.57A7.29,7.29,0,0,1,9,86.34V64.82A16.05,16.05,0,0,1,13.92,53,16.11,16.11,0,0,1,25.7,48.13H41.13V82.77h17a5.72,5.72,0,0,0,4.09-1.6,5.26,5.26,0,0,0,1.69-4V56a2.26,2.26,0,0,1,2.31-2.31h6.52A2.24,2.24,0,0,1,75.08,56ZM99.9,97.6a23.11,23.11,0,0,1-1.48,8.73,11.6,11.6,0,0,1-4.06,5.44,10.41,10.41,0,0,1-6.17,1.74,18.3,18.3,0,0,1-7.72-2.05V108.9a7.09,7.09,0,0,0,6-3.17,13.49,13.49,0,0,0,2.31-8.13V56a2.24,2.24,0,0,1,2.3-2.31H97.6A2.24,2.24,0,0,1,99.9,56Zm50.6,15.91a5.77,5.77,0,1,1,1.7-4.09A5.56,5.56,0,0,1,150.5,113.51ZM201.58,91.6a2.21,2.21,0,0,1-.66,1.65,2.24,2.24,0,0,1-1.65.65H129.55a16.63,16.63,0,0,1-16.69-16.69v-42a7.29,7.29,0,0,1,7.56-7.56H121l7.86,20.47H124V77.21a5.51,5.51,0,0,0,5.57,5.56h12V56a2.24,2.24,0,0,1,2.3-2.31h6.52A2.24,2.24,0,0,1,152.72,56V82.77h29.86q2.74-7.81,2-13A10.27,10.27,0,0,0,179,61.89q-4.77-2.64-13.76-2.63V56.34a7.72,7.72,0,0,1,2.43-5.86,6.61,6.61,0,0,1,5.92-1.74Q188,51.08,192.56,59.41t.28,23.36h6.43a2.26,2.26,0,0,1,2.31,2.31Zm10-54.6h1a10.38,10.38,0,0,1,6.22,2.13A11.26,11.26,0,0,1,223,44.57l12.87,35.16h-3.57A10.4,10.4,0,0,1,226,77.6a11.21,11.21,0,0,1-4.11-5.43l-6.09-16.61H211.7Zm41.12,11.13V77.21A16.63,16.63,0,0,1,236.05,93.9h-16.7a7.29,7.29,0,0,1-7.56-7.56V82.77h24.26A5.32,5.32,0,0,0,240,81.14a5.38,5.38,0,0,0,1.61-3.93v-42a7.29,7.29,0,0,1,7.56-7.56h.57l7.87,20.47Zm28.3,0V91.6a2.21,2.21,0,0,1-.66,1.65,2.24,2.24,0,0,1-1.65.65h-6.52a2.27,2.27,0,0,1-1.65-.65,2.24,2.24,0,0,1-.65-1.65V35.22a7.29,7.29,0,0,1,7.56-7.56H278l7.87,20.47Zm93.63,65.29a5.78,5.78,0,1,1,1.69-4.09A5.56,5.56,0,0,1,374.67,113.42Zm83.15-65.29V77.21A16.8,16.8,0,0,1,441.13,93.9H311.55a2.24,2.24,0,0,1-1.65-.65,2.2,2.2,0,0,1-.65-1.65V85.08a2.24,2.24,0,0,1,2.3-2.31H333.2a14.66,14.66,0,0,0-.59-3.69,27.5,27.5,0,0,0-2-5,37.55,37.55,0,0,0-3.36-5.5,31.84,31.84,0,0,0-5.18-5.37,33.32,33.32,0,0,0-7-4.49l1.17-2.4a7.88,7.88,0,0,1,4.8-4.36,6.53,6.53,0,0,1,6.11,1.1,40.51,40.51,0,0,1,7.43,7.37,36.43,36.43,0,0,1,4.92,8.2A44.7,44.7,0,0,1,342,76.28a26,26,0,0,1,.72,6.49h29.91q2.73-7.81,2-13a10.27,10.27,0,0,0-5.52-7.84q-4.77-2.64-13.76-2.63V56.34a7.72,7.72,0,0,1,2.43-5.86,6.59,6.59,0,0,1,5.91-1.74q14.35,2.34,18.93,10.67t.29,23.36h16.73V55.69a7.29,7.29,0,0,1,7.57-7.56h7.95a16.63,16.63,0,0,1,16.69,16.69v18h9.26a5.53,5.53,0,0,0,5.57-5.56v-42a7.29,7.29,0,0,1,7.56-7.56h.56l7.87,20.47Zm28.3,0V91.6a2.24,2.24,0,0,1-.65,1.65,2.27,2.27,0,0,1-1.65.65H477.3a2.24,2.24,0,0,1-1.65-.65A2.21,2.21,0,0,1,475,91.6V35.22a7.29,7.29,0,0,1,7.57-7.56h.56L491,48.13Z"/></g></g></svg>