<svg xmlns="http://www.w3.org/2000/svg" viewBox="0 0 500 344.7"><defs><style>.cls-1{fill:#fff;}</style></defs><g id="Layer_2" data-name="Layer 2"><g id="Layer_1-2" data-name="Layer 1"><path class="cls-1" d="M220.07,240.06c77.55,85.49,174.15,96.53,279.93,72.52-21.76,13.62-45.63,23.45-71.47,27.89-62.19,10.69-120.58,2-172.21-36.62-28-21-46.88-48.23-53.92-83.15-.65-3.27-4.79-6.32-8-8.49-8.62-5.88-17.6-11.23-26.43-16.78.57-.78,1.15-1.56,1.73-2.33h23.33l-24.17-25.81,1.79-2.63c7.9,2.42,15.91,4.53,23.66,7.37,6.2,2.27,9.52,1.06,13.77-4.66,18.26-24.53,42-38.78,73.72-32.87a55.53,55.53,0,0,1,45.25,47.23c3.72,26.45-7.35,48.65-30.47,61.19-2.13,1.16-4.13,2.54-6.65,4.1,43.23,19,90.05-13.18,100.85-68.28,10.5,21.07,4.89,65.55-10.66,82.59-1.89,2.08-4.88,3.39-7.6,4.45-40.39,15.78-80,15.06-118.48-6.07C242.6,253.4,231.4,246.62,220.07,240.06ZM243.69,185l13.76-10.24c-4.18-4.09-7.81-10.59-12.66-11.7-7.25-1.65-13.43,4-12.86,11.69C232.17,177.88,238.46,180.61,243.69,185Z"/><path class="cls-1" d="M194.36,29l27.27,14.51L194.72,83.1C156.38,60.23,119.37,63,82.08,87.77L39.81,34.55,67.45,16.37,94.7,62.79l12.89-5.29L95,28.1c25.59-9.21,51.14-9.85,78.8-5.45-2,8.26-3.82,15.61-5.74,23.49L147.79,44c-.56-14.49-9.32-12.23-18.52-9.32-.92,16.52-.31,16.47,14.82,17.63,12.56,1,25,3.78,38.49,5.94C186.19,49.3,190.15,39.46,194.36,29Z"/><path class="cls-1" d="M76.25,230.61l-10.44,9.94c-12.76-12-21-26.42-26.86-42.29-5.56-15-6.15-15.26-22.26-8.08,3,5.34-2,15.21,11.51,14.58,3.14-.14,6.86,12,10.6,18.93L20.36,236.05C5.55,212.2-1,186.82.13,158.41H30.92c.95-4.8,1.8-9.08,2.93-14.8L1.78,136.24l9-31.28c14.87,8.08,28.54,15.53,42.84,23.31C40.93,166.85,48.83,200.58,76.25,230.61Z"/><path class="cls-1" d="M77.2,140.92c-8-30.7-39.17-34.65-58-53.58,6.44-8.47,13-17,21.1-27.76,13.89,16.8,27.81,31.87,39.55,48.47C86.83,118,85.38,129.85,77.2,140.92Z"/><path class="cls-1" d="M147.37,207.47c-20.36,1-37-10-43.3-28.71s.77-40,17.08-50.61c16.81-10.89,37.79-8.82,53.67,8.44-3.62-.33-7.91.49-10.76-1.17-13.45-7.85-26.52-7.89-39.1,1.12C113.23,145,108.1,156.9,111,171c3.2,15.43,13.39,24.56,28.85,28.11,3.42.79,6.43,3.35,9.64,5.09Z"/><path class="cls-1" d="M93.55,103.34c1.08-3,1.24-7.22,3.38-8.86C128.34,70.32,181.56,77,206.25,110.72c-3.24-.52-7.32,0-9.6-1.71-33.93-26.23-62.22-27.72-99.09-4.78Z"/><path class="cls-1" d="M74.4,207c3.16,1.27,7.42,1.63,9.33,3.94,16.88,20.41,38.07,30.88,64.76,30.29,3-.07,6,2.62,8.41,5.24C125.4,254.85,88.24,237.7,74.4,207Z"/><path class="cls-1" d="M117.33,10.78c.9-4.24,1.17-9.51,2.17-9.65a113.62,113.62,0,0,1,22-1c1.05.06,1.81,5.28,3.07,9.24Z"/><path class="cls-1" d="M215.82,16.72l16.67,9.62L227,34.72C217.8,33.73,211.73,24.81,215.82,16.72Z"/><path class="cls-1" d="M190.46,5.52l18,7.41-4.89,9.77C198.7,17.2,184.11,22.13,190.46,5.52Z"/><path class="cls-1" d="M60.33,141.23c7.25,3.81,10.49,17.24,6.38,20.67a6.16,6.16,0,0,1-5.11.81c-1.3-.44-2.94-2.5-2.9-3.79C58.88,153.5,59.63,148.1,60.33,141.23Z"/><path class="cls-1" d="M62.16,190.79c-1.3-6.2-2.55-12.11-3.75-17.82,8.84-4.87,9.37,1.27,10.61,6.12C70.32,184.13,74,190.32,62.16,190.79Z"/></g></g></svg>