<svg xmlns="http://www.w3.org/2000/svg" viewBox="0 0 265.61 83.47"><defs><style>.cls-1{fill:#fff;}</style></defs><g id="Layer_2" data-name="Layer 2"><g id="Layer_1-2" data-name="Layer 1"><path class="cls-1" d="M197.41,62.68c-17.26,5.85-34.63,11.73-52,17.64-2.3.79-3.52.45-4.39-2.17-6.13-18.33-12.43-36.61-18.68-54.9-.77-2.26-.32-3.54,2.27-4.4C142.81,12.8,160.94,6.59,179.07.39c2.51-.86,3.89-.39,4.82,2.38,4.4,13.16,9.65,26.08,13.23,39.46C198.81,48.54,197.41,55.69,197.41,62.68ZM160.33,44c-1.23-3.13-2-6.08-3.51-8.53-.9-1.44-3.27-3.12-4.63-2.87-2.95.55-2.8,3-1.74,5.52,1.92,4.54,3.54,9.22,5.53,13.74,1.36,3.08.59,5.25-2.36,6.39S149,57.6,148,55c-1.08-2.77-1.89-5.72-3.45-8.18-.78-1.23-3-1.55-4.55-2.28-.59,1.64-2,3.49-1.61,4.89A47.64,47.64,0,0,0,142.3,59c2.5,4.89,7.73,7.42,12.25,6.23,6.32-1.65,8.86-4.69,8.59-11.39-.12-2.94,1-4,3.45-4.93,4.8-1.73,9.53-3.65,14.22-5.65,3.21-1.37,5.26-3.68,4-7.43a65.78,65.78,0,0,0-4.33-10.51c-.7-1.26-3-1.63-4.58-2.41-.63,1.64-2.06,3.45-1.73,4.87.72,3.15,2.33,6.1,3.66,9.34l-5.45,2.25c-1.32-3.21-2.26-6.43-3.94-9.19-.78-1.28-3-1.69-4.59-2.49-.57,1.66-1.9,3.5-1.57,5,.73,3.14,2.31,6.07,3.61,9.26Z"/><path class="cls-1" d="M265.61,5.53c0,10.31,0,20.41,0,30.51s-.12,19.92-.05,29.88c0,2.82-.74,4.35-3.89,4.34-20.23-.05-40.47,0-61.14,0-.21-2.32-.44-3.73-.44-5.15,0-18.59.11-37.17.11-55.76,0-2.92.1-5.24,4.08-5.17,19.75.34,39.5.53,59.25.8A11.26,11.26,0,0,1,265.61,5.53ZM228.3,24.21v-.07c-2.49-.15-5-.4-7.46-.43-7.81-.07-12.75,3.9-13.17,10.47-.52,8.07,2.79,12.43,11.34,13.13,11.39.93,22.85,1.14,34.28,1.56,4,.14,6.23-2.21,6.5-6a84.7,84.7,0,0,0,.08-13.42c-.11-1.4-2.09-3.63-3.29-3.68-1.39-.06-3.63,1.57-4.15,3a17.41,17.41,0,0,0-.68,7.35c.35,3.95-1.35,4.79-4.92,4.56-8.61-.54-17.26-.52-25.84-1.28-2.07-.18-5.5-2.41-5.59-3.87-.21-3.29,3-3.72,5.85-3.56,5,.3,10,1,14.88.71,1.89-.11,4.75-2.13,5.22-3.81.81-2.93-1.69-4.22-4.6-4.28S231.12,24.33,228.3,24.21ZM241.9,57c-2.65-2-4.35-4.31-5.58-4.08-1.72.32-3.08,2.51-4.6,3.9,1.49,1.4,2.82,3.55,4.53,3.93C237.47,61,239.22,58.86,241.9,57Z"/><path class="cls-1" d="M125.28,16.73c-6.92,1.21-6.4,4.32-4.91,8.25,3.14,8.32,6,16.75,8.87,25.16a5.81,5.81,0,0,1,.39,3.37c-3.38,9.58-6.9,19.11-10.4,28.65-.16.43-.63.74-1.14,1.31q-25.95-8.49-52-17c-9.53-3.14-9.54-3.19-6.45-12.6Q67.54,29.7,75.5,5.56c.46-1.38,1.14-2.69,1.92-4.5ZM91.34,34.21c-.43,13.6,7.37,17.68,15.87,17.13,7.81-.51,12.35-6.78,12.07-14.9a14,14,0,0,0-13-13.84,72.39,72.39,0,0,0-9-.12c-13.41.57-22.58,11.27-21.19,24.64C77.38,59.34,89.17,68.64,100.58,66a7.39,7.39,0,0,0,4.59-4.6c.69-3.14-2-4-4.82-4.12a29.94,29.94,0,0,1-5.9-.81c-5.44-1.37-8.56-5-9-10.53C85,41,86.54,37,91.34,34.21Z"/><path class="cls-1" d="M66.23,70c-5.2-.28-10.41-.77-15.61-.81-14.94-.11-29.89-.18-44.83,0-4.21,0-5.85-1-5.79-5.53C.23,45.63.17,27.53,0,9.44,0,5.53.83,3.86,5.24,3.92c18.26.24,36.52.19,54.78,0,3.84,0,5.4,1,5.21,5.06-.3,6.46.47,13-.27,19.4-.61,5.32-2.64,10.49-4.21,15.68s-3.07,10.1-5,15c-1.63,4.16-.3,6.2,3.79,7.26a70.47,70.47,0,0,1,6.9,2.52ZM51.65,42.83A16.79,16.79,0,0,0,35.08,25.41c-9.72-.11-17.27,7.13-17.37,16.65-.1,9.72,7.54,17.74,17,17.79S51.48,52.6,51.65,42.83Zm-22-33.27a6.23,6.23,0,0,0-6.78,5.68C22.68,18.79,24,21.35,27.82,22a6.23,6.23,0,0,0,7.49-5.4C35.73,13.56,32.85,10,29.69,9.56ZM15.76,18.49a6.34,6.34,0,0,0-6.47,6.13c0,3.23,3.2,6.56,6.36,6.26,3.46-.33,5.84-2.13,6-5.92A6,6,0,0,0,15.76,18.49ZM2.15,6c.2,1.79.39,3.35.47,4.11C4.08,9.19,5.51,7.57,7,7.49c6.29-.32,12.6-.17,18.91-.19,6.46,0,13-.41,19.4,0,5.85.4,12.16-2.16,17.6,1.85,0-.71.11-1.84.19-3.2Z"/><path class="cls-1" d="M105.25,30.53c2.2,3,4.57,4.77,4.47,6.41s-2.73,4.44-4.16,4.39c-1.76-.07-4.58-2.4-4.81-4.06S103,33.69,105.25,30.53Z"/><path class="cls-1" d="M40.24,41.6c0,4.63-2.19,6.45-5.28,6.5-3.31,0-5.81-1.84-5.75-5.49.07-3.41,2-5.69,5.59-5.63S40.12,39.19,40.24,41.6Z"/></g></g></svg>