<svg xmlns="http://www.w3.org/2000/svg" viewBox="0 0 500 251.59"><defs><style>.cls-1{fill:#fff;}</style></defs><g id="Layer_2" data-name="Layer 2"><g id="Layer_1-2" data-name="Layer 1"><path class="cls-1" d="M286.54,165.61a13,13,0,0,1,0-26,15,15,0,0,1,1.92.13,99.5,99.5,0,0,1,4.86-21.84H240.66a12.91,12.91,0,0,0-8.81,3.27,10,10,0,0,0-3.71,7.78,10.22,10.22,0,0,0,3.66,7.88,12.86,12.86,0,0,0,8.86,3.27h22.2v8a16.41,16.41,0,0,1-17,17h-5.18a39.1,39.1,0,0,1-16-3.23,34.17,34.17,0,0,1-10.88-7.42,98.6,98.6,0,0,1-6.47,29.22,99.48,99.48,0,0,0,89.55,7.92A99.15,99.15,0,0,1,289,165.38,13.48,13.48,0,0,1,286.54,165.61Z"/><path class="cls-1" d="M207.43,112.15a40.29,40.29,0,0,1,5.35-7.73A33.11,33.11,0,0,1,224.66,96a39.57,39.57,0,0,1,16-3.18h26.9q9.78-27.39.73-40.15T228.82,39.9V33.54a17.74,17.74,0,0,1,5.43-13.35,14.45,14.45,0,0,1,13.26-3.86q32.28,5.09,42.5,24t.54,52.53h14.57a5.72,5.72,0,0,1,1,.09,99.75,99.75,0,0,1,44.12-34.84,99.39,99.39,0,0,0-183.06,5.37A99.66,99.66,0,0,1,207.43,112.15Z"/><path class="cls-1" d="M419.73,134l-6.31-4-21.29,33.82,14.32,9,16.25-25.82a9.4,9.4,0,0,0-3-13Z"/><path class="cls-1" d="M400.64,52.87a99.23,99.23,0,0,0-81.11,41.95,4.92,4.92,0,0,1,2.69,1.38,5,5,0,0,1,1.46,3.72v14.67a5,5,0,0,1-5.18,5.19H306.7a98.36,98.36,0,0,0-4.86,21.84,13,13,0,0,1,.57,25.67A99.37,99.37,0,1,0,400.64,52.87Zm51.44,106.19-26.32,41.82-52.52-33a9.4,9.4,0,0,0-13,3l-14.08,22.38L341,190a12.38,12.38,0,0,1-4-17.73l7.24-11.5a28.18,28.18,0,0,1,39.11-8.9l6.19,3.9L414,116.78a12.39,12.39,0,0,1,17.73-4l11.44,7.2a28.24,28.24,0,0,1,8.9,39.11Z"/><path class="cls-1" d="M197.49,155.29a40.76,40.76,0,0,1-7.14-11.64,33.85,33.85,0,0,1,0-25.73,40.8,40.8,0,0,1,1.79-3.85,99.68,99.68,0,1,0,6.36,42.31C198.15,156,197.82,155.66,197.49,155.29ZM104.81,210a5.7,5.7,0,0,1-7.9-2.65l-7.43-14.93a5.71,5.71,0,0,1,2.65-7.9l49.57-24.65a37.68,37.68,0,0,0-5.55-7.79A71.85,71.85,0,0,0,126,142.9a95.38,95.38,0,0,0-14-8.75,79.48,79.48,0,0,0-18-6.4,85.77,85.77,0,0,0-21.09-2.36l0-6.81q-.13-9.49,6-15.47t15.25-4.42a97,97,0,0,1,25.46,8.51A95.73,95.73,0,0,1,140.51,121a114.29,114.29,0,0,1,15.92,17.28A109,109,0,0,1,167.85,157a99.55,99.55,0,0,1,6.63,18.31Z"/></g></g></svg>