<svg xmlns="http://www.w3.org/2000/svg" viewBox="0 0 500 367.8"><defs><style>.cls-1{fill:#fff;}</style></defs><g id="Layer_2" data-name="Layer 2"><g id="Layer_1-2" data-name="Layer 1"><path class="cls-1" d="M242.36,136.19a20,20,0,0,0-5.06-4.52c-8-5.56-16.07-10.93-24.21-16.23-14-9.15-28.36-17.86-42.11-27.45a138.34,138.34,0,0,1-20.06-16.3,46.94,46.94,0,0,1-8.25-10.86,25.94,25.94,0,0,1-3-16.37c.61-4,2.25-7.57,3.74-11.23q1.31-2,2.6-4A9.2,9.2,0,0,1,147.9,27a27.53,27.53,0,0,1,14.74-6.46,38.66,38.66,0,0,1,18.08,2.77c9.92,3.82,18.43,9.94,26.68,16.45s15.83,13.5,23.66,20.36a80.55,80.55,0,0,0,8.38,6.69,10.83,10.83,0,0,0,4.54,2.1c.57-1.45-.14-2.63-.63-3.76-2.18-5.11-4.44-10.19-6.69-15.27a6.85,6.85,0,0,1-.91-3.3,19.41,19.41,0,0,0,5-16.25A12.28,12.28,0,0,0,234,20.69c-13.62-7.25-27.67-13.48-42.68-17.27C179.39.4,167.33-1.12,155,1a50.14,50.14,0,0,0-29.61,15.89,13.4,13.4,0,0,0-2.89,4.45,62.37,62.37,0,0,0-7.62,15.06,49.87,49.87,0,0,0-2.49,27.2,53.42,53.42,0,0,0,8.07,19.28A80.25,80.25,0,0,0,135.07,100c3.3,3.85,7.55,6.71,11.4,10.59C88.88,100.13,37.88,129.52,14.58,173.16A123.34,123.34,0,0,0,30.92,313c-.87-1.75-1.51-3.07-2.16-4.38-12.36-24.81-16.59-50.9-11.17-78.12,8.22-41.21,31.46-71.16,69.42-89.19,24.33-11.57,50-14.18,76.37-8.74,24,4.94,44.5,16.3,61.93,33.39a54,54,0,0,1,5.64,5.68,40.39,40.39,0,0,1,6.63,14.19c2.71,10.3,1.09,20.07-3.83,29.39a66,66,0,0,1-14.46,18c-2.23,2-4.56,3.93-7.18,6.18,14.22-6.21,27.48-13.15,38.79-23.32a59.9,59.9,0,0,0,11-12.87C268.62,192.48,270,181,265.81,169,261.18,155.84,252.47,145.49,242.36,136.19Z"/><path class="cls-1" d="M47.17,327.35A122.44,122.44,0,0,1,38.43,260c4.39-29.23,17.56-53.9,39.2-74a84.8,84.8,0,0,1,6.42-5.57Q89.89,176,96,172a106.21,106.21,0,0,1,13.49-7.16c3.67-1.71,7.47-3.17,11.22-4.74a7.21,7.21,0,0,0,3.12-.79,128,128,0,0,1,23.69-5.2,10.72,10.72,0,0,0,4.8-.52c3.67-.09,7.34-.31,11-.26a125.22,125.22,0,0,1,55.24,13.59c.63.31,1.19,1,2.37.56-.76-.65-1.37-1.16-2-1.68-31.73-27.93-68.22-37.38-109.48-28a56.5,56.5,0,0,0-13.74,4.58,7.71,7.71,0,0,0-.86.21A118.72,118.72,0,0,0,45.39,326.85,13.39,13.39,0,0,0,48,329.69a4.77,4.77,0,0,0-.13-.69C47.65,328.45,47.41,327.9,47.17,327.35Z"/><path class="cls-1" d="M225.47,174.12A87.31,87.31,0,0,0,213,167.47,121.89,121.89,0,0,0,88.54,181.62c-2.12,1.61-4.4,3.07-6.06,5.23a6.88,6.88,0,0,0-1.49,1c-3.42,3.71-7.28,7-10.53,10.88-24.11,28.78-33.92,61.75-28.4,98.93,3.87,26,15.45,48.38,33.88,67.17.67.67,1.19,1.6,2.5,1.78-.28-1.79-1.38-3.1-2.14-4.54-13.25-25-18.27-51.47-14.43-79.49A129.36,129.36,0,0,1,91.38,216c1.52-1.81,2.73-4,4.49-5.48,3.45-3,6.54-6.32,10-9.3,3.09-2.14,5.75-4.94,8.89-6.87,4.51-2.77,8.76-5.93,13.48-8.45A131,131,0,0,1,180,170.38a126.28,126.28,0,0,1,43.39,3.68A2.59,2.59,0,0,0,225.47,174.12Z"/><path class="cls-1" d="M500,304.16c.71-10.23-8.77-20.83-20.78-20.74-9.3.06-20.62,7.07-20.73,20.64-.1,12.72,9.83,21.09,20.93,21.05C492.24,325.07,500.68,314,500,304.16Z"/><path class="cls-1" d="M78.62,367.24l.32.32v-.42Z"/><path class="cls-1" d="M79.16,367.79s.1,0,.15,0l-.22-.09A.27.27,0,0,0,79.16,367.79Z"/><path class="cls-1" d="M79,367.62l0,0,0,0v.09l0,0,0,0,.15.06L79,367.6Z"/><path class="cls-1" d="M124.5,275.21a6.62,6.62,0,1,0-4.69-1.94A6.4,6.4,0,0,0,124.5,275.21Z"/><path class="cls-1" d="M110,275.21a6.63,6.63,0,1,0-4.71-11.31,6.56,6.56,0,0,0,0,9.37A6.48,6.48,0,0,0,110,275.21Z"/><path class="cls-1" d="M162.83,349.08a6.31,6.31,0,0,0-4.71,1.94,6.68,6.68,0,0,0,0,9.37,6.31,6.31,0,0,0,4.71,1.94,6.2,6.2,0,0,0,4.63-1.94,6.75,6.75,0,0,0,0-9.37A6.2,6.2,0,0,0,162.83,349.08Z"/><path class="cls-1" d="M148.27,349.08A6.63,6.63,0,1,0,153,360.39a6.63,6.63,0,0,0-4.69-11.31Z"/><path class="cls-1" d="M258.87,349.08a6.35,6.35,0,0,0-4.71,1.94,6.68,6.68,0,0,0,0,9.37,6.35,6.35,0,0,0,4.71,1.94,6.22,6.22,0,0,0,4.64-1.94,6.75,6.75,0,0,0,0-9.37A6.22,6.22,0,0,0,258.87,349.08Z"/><path class="cls-1" d="M244.32,349.08A6.64,6.64,0,1,0,249,351,6.38,6.38,0,0,0,244.32,349.08Z"/><path class="cls-1" d="M281.85,349.08a6.64,6.64,0,1,0,4.68,1.94A6.38,6.38,0,0,0,281.85,349.08Z"/><path class="cls-1" d="M393.49,262a8.35,8.35,0,0,0-8.67,8.67v48.15a6.17,6.17,0,0,1-1.84,4.51,6.11,6.11,0,0,1-4.54,1.87H367.83V308.8a22.69,22.69,0,0,0-2.37-10.21,19.91,19.91,0,0,0-6.66-7.73,22.08,22.08,0,0,0-8.62-3.19,22.31,22.31,0,0,0-8.72.42,34,34,0,0,0-8.27,3.39,40.33,40.33,0,0,0-7.51,5.49,46.36,46.36,0,0,0-6.1,6.9V285.43h5.63l-9-23.48h-.7a8.35,8.35,0,0,0-8.67,8.67v54.53H289.08v-30.7a2.57,2.57,0,0,0-.75-1.9,2.6,2.6,0,0,0-1.9-.74H279a2.53,2.53,0,0,0-2.64,2.64v30.7H258.67v-30.7a2.55,2.55,0,0,0-2.64-2.64h-7.48a2.55,2.55,0,0,0-2.64,2.64v30.7H220.59a41.82,41.82,0,0,0,7.3-11.69q2.33-5.85,2.92-15.62a8,8,0,0,0-2.29-6.43,8.69,8.69,0,0,0-6.48-2.59H191.19a8.75,8.75,0,0,0-6.56,2.64,8,8,0,0,0-2.22,6.58,59.46,59.46,0,0,0,1.9,11.46,38.19,38.19,0,0,0,3.26,8.25,60.81,60.81,0,0,0,5.06,7.4h-30v-30.7a2.57,2.57,0,0,0-.75-1.9,2.6,2.6,0,0,0-1.9-.74h-7.47a2.53,2.53,0,0,0-2.64,2.64v30.7H132.22V285.43H114.53a19.17,19.17,0,0,0-19.14,19.14v24.67a8.35,8.35,0,0,0,8.67,8.67H378.44a19.26,19.26,0,0,0,19.14-19.14V285.43h5.58l-9-23.48Zm-274,63.2H108.15V304.57A6.11,6.11,0,0,1,110,300a6.17,6.17,0,0,1,4.51-1.84h4.93ZM215,314.58q-2.37,5.15-8.4,10.07a36.49,36.49,0,0,1-8.1-10.44,35.82,35.82,0,0,1-3.22-12.63h22.78A39.64,39.64,0,0,1,215,314.58Zm140.08,10.57H319.58v-.7a13.8,13.8,0,0,1,1.32-5.38,27.35,27.35,0,0,1,3.89-6.21,40.31,40.31,0,0,1,5.85-5.83,28.66,28.66,0,0,1,7.68-4.36,24.55,24.55,0,0,1,8.92-1.69,7.89,7.89,0,0,1,5.71,2,7.66,7.66,0,0,1,2.12,5.78Z"/><path class="cls-1" d="M426.59,262h-.65a8.35,8.35,0,0,0-8.67,8.67v64.65a2.56,2.56,0,0,0,2.64,2.64h7.48a2.56,2.56,0,0,0,2.64-2.64V285.43h5.58Z"/></g></g></svg>