<svg xmlns="http://www.w3.org/2000/svg" viewBox="0 0 500 461.13"><defs><style>.cls-1{fill:#fff;}</style></defs><g id="Layer_2" data-name="Layer 2"><g id="Layer_1-2" data-name="Layer 1"><path class="cls-1" d="M149.12,186.59a85.82,85.82,0,0,0,22.09,17.66,79,79,0,0,0,38,10.64c7.42.16,14.8-.37,22.05-2.72,3.12-1,6.56-1.5,9.67-2.68a81.27,81.27,0,0,0,35.67-26.18c14.68-18.72,19.94-40,16.74-63.39A74.48,74.48,0,0,0,288,100.61a122,122,0,0,0-6.86-13.55c-.67-1.17-2.19-1.63-2.63-2.55-2-4.26-5.23-7.64-8.4-10.93-7.27-7.54-16-13-25.51-17.4a72.71,72.71,0,0,0-19.44-5.73,83,83,0,0,0-53.07,8.77A80.8,80.8,0,0,0,140.8,89.08c-7.94,13-12.24,27.08-12.13,44.51-.36,9.17,2.2,19.89,6.27,30.28A75.71,75.71,0,0,0,149.12,186.59Z"/><path class="cls-1" d="M401.63,378.1c10.93-20.13,10.4-40.82,1.8-61.6a50.9,50.9,0,0,0-11-16.24c-16.13-16.31-36.05-22.41-58.2-18.74-26,4.31-43.69,19.73-52.19,44.9-3.67,10.86-3.64,22.05-1.15,33.21.61,2.77,1.4,5.49,2.14,8.35-2.38.65-4.54.26-6.67.31a2.28,2.28,0,0,0-2.47,1.62c-2.21,6.35-6.17,11.57-10.78,16.34C256,393.6,248.74,400.76,239,404.72c-.4.16-.9.34-.75,1.2.67,0,1.41.1,2.14.09q10-.15,20-.34c17.11-.3,34.23-.56,51.35-.92a26.76,26.76,0,0,1,11.1,1.78A53.8,53.8,0,0,0,342,411.07a28.3,28.3,0,0,0,8-.05,67.37,67.37,0,0,0,24.91-7.55C386.14,397.51,395.53,389.35,401.63,378.1Zm-58.12-1.75c-16.46-.13-30.37-14.69-30.29-31.68.09-16.29,14.45-29.85,31.51-29.75,17.49-.24,31.15,13,30.9,29.32C375.36,362.43,361.47,376.49,343.51,376.35Z"/><path class="cls-1" d="M219.12,404.58c14-.46,25.63-6.14,35.35-16.06A57.1,57.1,0,0,0,266,371.3c6.2-14.2,6-28.61.49-42.95a54.57,54.57,0,0,0-16.75-23.05c-8.61-7-18.38-11.42-29.69-11.65q-12.66-.25-25.33-.26c-17.51,0-35,.12-52.52.11-1.91,0-2.52.54-2.51,2.5.07,10.52,0,21.05,0,31.58,0,3.34,0,3.34,3.29,3.34l69,0a38.22,38.22,0,0,1,7.17.44c7.42,1.42,12.64,5.47,14.56,12.92,1.8,7,.22,13.22-5.22,18.18-3.92,3.58-8.73,4.71-13.94,4.7q-30.22-.08-60.44,0H136.64c-1.26,0-2.53,0-3.07,1.49a49.58,49.58,0,0,1-3.79,7.66,63.65,63.65,0,0,1-20.92,22.35c-2.71,1.79-5.44,3.57-8.56,5.61a6.44,6.44,0,0,0,3.29.49q48.47,0,96.93,0C206.72,404.69,212.92,404.78,219.12,404.58Z"/><path class="cls-1" d="M129.72,336c-3.84-15.81-13.21-27.8-27.24-36a45.48,45.48,0,0,0-23.22-6.44c-10.3,0-20.6-.17-30.9-.2-14.72,0-29.43,0-44.15,0-4.12,0-4,0-4.06,3.82q0,15.21-.15,30.42c0,3.1.1,3.32,3.16,3.32q28,0,56,0c6,0,12.09-.24,18.12.18,10,.69,16.32,6.5,17.63,16.38a16.94,16.94,0,0,1-2.64,11.3,18.16,18.16,0,0,1-8,7c-2.85,1.28-6.38,1.36-9.74,1.35-23.56-.09-47.11-.06-70.66,0-1,0-2.18-.38-3.13.42C0,368,.17,368.75.17,369.4q0,16.46,0,32.91c0,.74-.22,1.58.59,2.11s1.81.31,2.71.31c24.56,0,49.12-.11,73.68,0a51,51,0,0,0,28.16-8.23A56.26,56.26,0,0,0,129.72,336Z"/><path class="cls-1" d="M500,398.27q-.12-44.5-.23-89-.06-28.81,0-57.61c0-2-.54-2.64-2.61-2.62q-16.28.15-32.55,0c-2.06,0-2.61.58-2.6,2.62q.09,36.71,0,73.39h-.33v73.64c0,3.15.16,3.31,3.23,3.31H496.3C500,402,500,402,500,398.27Z"/><path class="cls-1" d="M451.19,248.61c-10.22.1-20.45.13-30.68,0-2.39,0-3,.7-3,3,.08,17.57.05,35.15.05,52.72h-.11q0,25.68,0,51.34a15.08,15.08,0,0,1-1.29,6.75c-1.08,2.25-2.8,4-3.52,6.63-3.56,13-10.34,23.92-22.13,31.2a2.75,2.75,0,0,0-1.38,3.18c.38,1.3,1.71,1.15,2.77,1.14,4.18,0,8.36,0,12.54-.27,26.44-1.69,48.06-24.83,48.72-50.58.88-34.21.34-68.44.61-102.65C453.76,249.22,453.14,248.59,451.19,248.61Z"/><path class="cls-1" d="M207.37,416.68c-12.2,0-23.14,10.38-23.15,22,0,12,10.68,22.48,22.92,22.44,12.61-.05,23.07-10.36,23-22.71C230.13,427.43,218.87,416.7,207.37,416.68Z"/><path class="cls-1" d="M483.42,206.71h0c2.25,0,4.5-.13,6.74,0,1.71.07,2.66-.41,3.13-2.23a119.74,119.74,0,0,0,3.52-20.24,125.53,125.53,0,0,0-1.78-35,133.72,133.72,0,0,0-14.88-39.66A165,165,0,0,0,464,86.05a180.16,180.16,0,0,0-31-29.78c-5.47-4.13-10.91-8.33-17-11.56-3.19-2.28-6.62-4.16-10-6.12a246,246,0,0,0-31.15-15.16A294.8,294.8,0,0,0,338.1,11.19c-9.57-2.5-19.19-4.73-28.91-6.34C297.14,2.86,285,1.6,272.78.77A339.7,339.7,0,0,0,212.27,2.1a332.16,332.16,0,0,0-44,8,301.89,301.89,0,0,0-47.52,16.06A250.65,250.65,0,0,0,75.85,51.26a86.4,86.4,0,0,0-11.12,8.63h0a10,10,0,0,0-1.37.83c-19.81,16.49-36,35.82-47,59.31a126.07,126.07,0,0,0-8,83.68c.52,2.2,1.64,3,3.89,3,21.54-.06,43.08,0,64.62-.06a5.05,5.05,0,0,0,2.79-.37c-.5-.83-1-1.53-1.36-2.27-7.19-13.67-12.12-28-13.8-43.47a103.65,103.65,0,0,1,.13-25.69,106.07,106.07,0,0,1,8.58-30.29,141.05,141.05,0,0,1,10-18.46c2-3,4-5.87,6-8.8A15.83,15.83,0,0,0,90.45,76c11.39-14.75,25.76-26.06,41.75-35.29a174.06,174.06,0,0,1,45.89-18.46,186.56,186.56,0,0,1,37.34-5.33c17.3-.65,34.47.49,51.38,4.51,3.07.73,6.16,1.41,9.2,2.27a179.94,179.94,0,0,1,42.77,18.26,142.55,142.55,0,0,1,34.9,28.65c4.56,5.17,8.48,10.79,12.53,16.34,1.43,2.55,2.87,5.09,4.29,7.64,9.85,17.7,14.95,36.6,14.34,56.91a118.54,118.54,0,0,1-5.84,33c-2.31,7.17-5.7,13.84-9.07,20.53a1.18,1.18,0,0,0-.55,1.86h2.67q15.51,0,31,0c5.71,0,11.42-.06,17.13-.09h22.71a1.59,1.59,0,0,1,1.19-.44,1.59,1.59,0,0,0-1.19.44h18.18l-.15-.48.15.48ZM64.92,62.32V61.4h0v.92ZM370.54,206.16a1.33,1.33,0,0,1-.36-.44,1.33,1.33,0,0,0,.36.44c.81.61,2.13-.23,3,.1,1.73-.75,3.51-.51,5.29-.43-1.78-.08-3.56-.32-5.29.43C372.67,205.93,371.35,206.77,370.54,206.16Z"/></g></g></svg>