<svg xmlns="http://www.w3.org/2000/svg" viewBox="0 0 471.83 422.81"><defs><style>.cls-1{fill:#fff;}</style></defs><g id="Layer_2" data-name="Layer 2"><g id="Layer_1-2" data-name="Layer 1"><path class="cls-1" d="M446.3,0H25.53A25.61,25.61,0,0,0,0,25.53V397.28a25.61,25.61,0,0,0,25.53,25.53H446.3a25.61,25.61,0,0,0,25.53-25.53V25.53A25.61,25.61,0,0,0,446.3,0ZM389.08,149.14c3.49,7.29,2.37,12.47-3.93,18.24C381.13,160.87,382.51,154.48,389.08,149.14Zm-16.43,68.58c-2.89-6.21.34-12.76,8-16.27C382.24,208.25,380,212.72,372.65,217.72Zm1-42.72c1,.62,2,3,1.6,3.95a156.23,156.23,0,0,1-7.71,15.29c-.49.84-3,1.33-4.05.83s-1.51-2.45-2.94-5.09c2.87-4.56,5.78-9.46,9.06-14.11A4.22,4.22,0,0,1,373.6,175Zm-2.26-30.77c0,8.12-3.81,13.57-7.78,13.14-5-.54-6.6-4.35-6.77-8.82-.23-5.7,4.32-12.09,8-10.6C368,139.22,370.09,143,371.34,144.23Zm-15.56,81.49c1-.32,2.71-.55,3.1-.05a5.13,5.13,0,0,1,.87,3.64c-1.16,6.24-8.61,12.7-15.73,13.53C344.08,235.6,349.64,227.69,355.78,225.72Zm-18.45-4.06c-4.57,0-6.17-3.06-6.15-7.24,0-7,7-16,12.75-15.26,2.69.34,5,3.53,6.38,4.57C350.18,212.8,343,221.71,337.33,221.66ZM348.7,100.48c.53-2.52,3.64-5.81,6.1-6.34,4.24-.92,9.25,5.69,9.17,13-1.26,1-3.41,3.89-6.06,4.44C353.31,112.59,347.57,105.85,348.7,100.48Zm-10.49,14.76c5.44,0,9.8,4.79,9.81,10.85,0,5.68-4.14,10.57-9.19,10.82-5.22.25-10-4.76-10.19-10.65C328.45,120.21,332.74,115.26,338.21,115.24ZM328.42,175c.22-6.55,6.55-13.21,12.52-13.22,4.55,0,7.3,3,7.25,8-.06,6.77-6.82,14.11-12.83,13.6C330.39,183,328.25,179.84,328.42,175Zm1,76.8c.68,5-8.25,12.39-16.1,12.64-.85-1.11-3.48-3-3.72-5.12-.57-5.07,8.29-12.87,14.19-12.34C325.89,247.19,329.16,249.92,329.42,251.82Zm-32.16-7c-7.09.67-10.61-4.8-7.34-11.16,4.5-8.74,12.13-13.2,20.65-14.45,8.52-.13,11.84,4.63,8.46,11.12C314.5,239.05,306.94,243.92,297.26,244.84ZM310.33,135c6.75-.21,13.53,7.08,13.57,14.58,0,6-4.34,10.95-9.8,11.12-6.78.21-13.51-7-13.55-14.57C300.52,140.12,304.84,135.2,310.33,135Zm-6.39,45.9c6.83,0,12.54,6.45,12.53,14.28,0,7.44-5.28,13.39-11.73,13.21-6.74-.18-12.36-6.93-12.22-14.66C292.65,186.62,297.67,181,303.94,180.93Zm-23.23-28.38c7.92.07,13.8,5.62,13.76,13-.05,8.39-8.12,15.86-17.24,16-7.86.08-14.05-5.41-14.2-12.6C262.86,160.39,271.44,152.47,280.71,152.55ZM278.33,217a20.65,20.65,0,0,1-16.63,8.3c-6.25-.07-11.19-1.71-13.33-7.37-2.06-5.43.68-9.77,4.53-13.36A20.85,20.85,0,0,1,271.22,199C280.59,200.55,284.11,209.47,278.33,217Zm-24.77-34.59c.1,8.29-5.5,14.88-12.68,14.9-7.85,0-15.09-8.23-15.07-17.2,0-8,5.38-14.18,12.42-14.39C246.37,165.48,253.45,173.19,253.56,182.42ZM228,87.35c2.72.09,5.33,3.34,9.88,6.59-4.19,3.19-7.05,6.83-8.85,6.37-2.75-.7-6-4-6.65-6.68C222,91.91,226,87.28,228,87.35Zm7.24,137.93c0,8.34-5.13,14.46-12.19,14.58-8.83.15-16.89-9.3-16.87-19.77,0-8.45,5-14.44,12.13-14.54C227.13,205.43,235.23,214.87,235.22,225.28Zm2.6,35.84c-2.25,3.72-7.11,5.88-11.83,9.52-6.38-4-12.43-6.48-16.56-10.78-5.63-5.86-2.55-13.67,5.4-15.64a20.14,20.14,0,0,1,18.54,4.5C237.21,252,240.63,256.48,237.82,261.12Zm-26-59.22c-2.75,2-7.77,2.53-11.23,1.65-5.64-1.44-9.37-9.13-9.26-16.1.11-7.27,4.43-13.4,10.19-14.43s12.45,3.73,14.54,10.9C218.06,190.67,217.82,197.53,211.84,201.9Zm-61.75-11.74c-.05-8,6.72-14.11,15.88-14.24,9.65-.13,18.43,7.32,18.32,15.55-.1,7.55-7.7,14-16.5,13.95C158.23,205.39,150.14,198.42,150.09,190.16Zm11.11,39.09c-1.94,2.93-6.15,4.36-8,5.54-10.28-1-17.1-4.17-21.49-11.23-4.21-6.77-1-13.23,6.91-14.54,7.5-1.25,18.55,3.83,21.92,10.87C161.84,222.62,162.6,227.13,161.2,229.25Zm-14.74-79.66c-5.7-.21-7.53-4.2-8-8.56-.08-7.07,5.41-13.66,10.85-13.23,5.66.46,7.58,4.5,7.66,9.48C157,143.44,151.65,149.78,146.46,149.59Zm14.71-26.78c-.08-5.65,5.92-11.75,11.93-12,4.85-.23,8,2.15,8.4,7,.5,5.52-6.41,12.25-12.95,12.49C164.46,129.89,161.25,128,161.17,122.81Zm9.89,93.32c2.37-7.48,9.32-9.78,15.75-5.21,6.2,4.41,8.9,10.74,9.23,17.65-.06,6.4-1.51,11.76-7.69,13.67-5.88,1.81-10.15-1.74-13.38-6.12C170.56,230.16,168.75,223.41,171.06,216.13ZM191,105.51c-.13-4.69,3.41-7.9,8.46-7.77,4.57.12,7.23,3.11,6.84,7.55-.43,4.86-3.68,7.53-10.84,8C194.16,111.28,191,108.43,191,105.51Zm18.7-68.65c1.67-.39,4.21,2.84,6.36,4.45l-7.18,8.11-6.48-6.89C204.76,40.52,206.93,37.51,209.66,36.86ZM193.27,67.58c2.53-.2,5.34,3.08,8,4.84,0,1,.05,2,.08,3-2.56,2-5.33,5.7-7.62,5.43-2.47-.29-6-4.17-6.25-6.79C187.26,72,191,67.77,193.27,67.58Zm-4-34.67L177.63,39l-1.24-2.31C178.81,30.4,182.26,28.79,189.31,32.91ZM170.62,55.43A72.65,72.65,0,0,1,182,48.07c.77-.39,2.87,1.86,3.82,2.51-.17,5.66-9.13,11.54-13.09,9.41C171.48,59.32,170.28,55.7,170.62,55.43Zm-4.84,26c2.7.5,4.84,4,6.19,5.2-.8,7.21-6.16,12.37-9.92,10.56-2.56-1.23-5.4-5.2-5.31-7.86C156.89,84.55,160.41,80.45,165.78,81.45Zm-4.7-39.07c-1.17,7.08-4.64,10-13.37,10.7C149.77,45.16,153.53,42.27,161.08,42.38Zm-21,30.33a109.85,109.85,0,0,1,14.34-11.44c.51-.35,4.73,2.6,4.75,4,0,5-10.75,13.36-17.68,12.81C141.11,76.67,139.39,73.41,140.12,72.71Zm.5,24.23c3,.37,5.57,3.56,7.15,4.66.13,8.88-6.71,16.63-12.57,16.41-4.73-.17-6.82-3.16-6.79-7.67C128.46,104.16,135.09,96.24,140.62,96.94ZM138.38,55.8c-.49,8-7.58,14.73-16.47,15.65C123.22,63.3,129.08,57.73,138.38,55.8Zm-10.9,23c3.55-3.16,5.54-.14,6.9,5.22-4.12,4.49-7.73,9.67-12.53,13.24-3.48,2.59-6.84-.62-5-4.3A48,48,0,0,1,127.48,78.77Zm-2.3,47.5c.13,6.93-4.84,13.86-9.59,13.83-3.89,0-6.89-4.48-6.86-10.16,0-7.07,4.8-14.23,9.57-13.71C124.14,116.85,125.1,121.54,125.18,126.27Zm-8.36-53.52c-.13,8.77-3.78,14.2-12.53,18.61C103.22,83.63,107.92,76.66,116.82,72.75Zm-8.71,26.69c3.6,7.6,1,14.34-7.61,18.72C98.61,108.66,100.47,104.28,108.11,99.44Zm-59,227.87a4.91,4.91,0,1,1-1.44,3.47A4.73,4.73,0,0,1,49.13,327.31Zm-10.74,0a4.8,4.8,0,0,1,3.49-1.44,4.92,4.92,0,1,1,0,9.83,4.8,4.8,0,0,1-3.49-1.44,4.87,4.87,0,0,1,0-6.95Zm35.32,71.55a4.91,4.91,0,1,1,1.44-3.47A4.76,4.76,0,0,1,73.71,398.86Zm10.75,0A4.62,4.62,0,0,1,81,400.3a4.92,4.92,0,1,1,0-9.83,4.62,4.62,0,0,1,3.44,1.44,5,5,0,0,1,0,6.95ZM87.2,368A13.61,13.61,0,0,1,83,378.11a14,14,0,0,1-10.22,4.08H37.45A6.2,6.2,0,0,1,31,375.76V357.47a14.2,14.2,0,0,1,14.19-14.19H58.33v29.45H72.82a4.83,4.83,0,0,0,3.47-1.37A4.45,4.45,0,0,0,77.73,368V350a1.9,1.9,0,0,1,2-2h5.55a1.9,1.9,0,0,1,2,2Zm21.1,17.33a19.71,19.71,0,0,1-1.26,7.43,10,10,0,0,1-3.45,4.62,8.81,8.81,0,0,1-5.25,1.48,15.43,15.43,0,0,1-6.56-1.74v-2.18a6.05,6.05,0,0,0,5.1-2.69,11.54,11.54,0,0,0,2-6.92V350a1.88,1.88,0,0,1,2-2h5.54a1.88,1.88,0,0,1,1.4.55,1.91,1.91,0,0,1,.56,1.41Zm-1.72-154.09c-7.74-5.79-12-13-14.16-22.44-1.61-7.15-5.76-13.7-7.82-20.8-1.73-5.95-2.12-12.3-3-18.49a59.49,59.49,0,0,1-.45-6.69c-.15-5-.54-9.95-.26-14.9.38-6.82,1.11-13.62,2-20.39,1.75-13.23,9.1-23.89,15.58-35,3.34,6.06,1,10.76-2.31,15.15s-1.67,3.71-.11,8.94-.27,11.5-1.6,17.1c-1.57,6.62-4.2,13-5.17,19.84,2.44-3.75,5-7.42,7.29-11.27,2.11-3.57,4.33-3.57,7-.72a14.24,14.24,0,0,1-1.93,20.95,4.15,4.15,0,0,0-1.68,2.75c.32,7.75,0,15.72,1.78,23.14.64,2.63,6.75,3.93,11.7,6.54-.83-2.29-.86-3-1.22-3.27-9.42-5.94-12-19.17-5.51-28.08,3.32-4.52,6.42-4.54,9.66,0,2.71,3.78,5.38,7.59,8.46,11.94l4-4.84c-5.91-3.31-8.42-8.69-6.83-15.17.59-2.38,3.22-5.3,5.46-5.88,1.67-.43,5.6,2.16,6.09,4,1.26,4.87,1.18,10.08,1.69,15.79,9.65,2.3,15.19,10.23,12.23,21.77-1,3.92-5.09,9-8.63,9.81s-8.4-2.61-12.25-4.9c-1.67-1-2.24-3.8-3.54-6.19l-4.47,3.41c3.08,6.43,6.86,12.36,8.81,18.83,2.78,9.27-.08,14.54-7.55,16.53,6.29,6.36,10.78,13.35,10.13,22.75-.08,1.16,2.42,2.67,3.91,3.75,5.27,3.83,10.54,7.68,16,11.23a13.34,13.34,0,0,0,6.44,2.27c12.47.43,22.86,4.71,30.55,14.47-.15.91-.29,1.82-.44,2.72-4.86-.32-10.48.82-14.45-1.22-14.17-7.3-32.07-8.39-41.5-24-.94-1.55-3.32-2.25-5-3.32-6.27-3.91-10.17-9.36-12.39-16.5A20.13,20.13,0,0,0,106.58,231.24Zm72.53,99.54a4.88,4.88,0,0,1-4.92,4.92,4.67,4.67,0,0,1-3.45-1.44,5,5,0,0,1,0-6.95,4.67,4.67,0,0,1,3.45-1.44,4.88,4.88,0,0,1,4.92,4.91Zm-27.79,68.08a4.91,4.91,0,1,1,1.44-3.47A4.74,4.74,0,0,1,151.32,398.86Zm43.42-18.63a1.88,1.88,0,0,1-2,2H133.5A14.14,14.14,0,0,1,119.31,368V332.3a6.2,6.2,0,0,1,6.43-6.43h.48l6.69,17.41h-4.14V368a4.71,4.71,0,0,0,4.73,4.73h10.24V350a1.91,1.91,0,0,1,.56-1.41,1.88,1.88,0,0,1,1.4-.55h5.54a1.88,1.88,0,0,1,2,2v22.76h25.39c1.55-4.43,2.12-8.13,1.68-11.09a8.72,8.72,0,0,0-4.69-6.67q-4.05-2.24-11.7-2.23v-2.48a6.58,6.58,0,0,1,2.07-5,5.65,5.65,0,0,1,5-1.48q12.2,2,16.09,9.08t.24,19.86h5.47a1.91,1.91,0,0,1,1.41.56,1.88,1.88,0,0,1,.55,1.4Zm2.11-113.58c-9.45,2.61-18.55.74-27.2-3.48-2.92-1.43-5.44-4.25-8.68-.28-.66.81-3.11.6-4.59.26-10.47-2.45-18.87-8-24.24-17.4-1.15-2-.71-4.94-1-7.44,2.6-.3,5.72-1.66,7.7-.7,7.43,3.61,14.5,8,22.38,12.46,6.4-8.77,33.36-3.11,40.06,6.39C204.42,260.9,202.87,265,196.85,266.65Zm6.43,67.16h.89a8.78,8.78,0,0,1,5.28,1.82,9.58,9.58,0,0,1,3.48,4.62l10.94,29.9h-3a8.88,8.88,0,0,1-5.31-1.82,9.54,9.54,0,0,1-3.49-4.62l-5.17-14.11h-3.52Zm35,9.47V368a14.14,14.14,0,0,1-14.19,14.19H209.86a6.2,6.2,0,0,1-6.43-6.43v-3h20.62a4.69,4.69,0,0,0,4.73-4.73V332.3a6.2,6.2,0,0,1,6.43-6.43h.48l6.69,17.41Zm11.12-87a16.59,16.59,0,0,1-2.21-11.74c1.25-5.6,9.21-9.46,16.09-9.35s12.91,4.14,14.2,9.67-2.59,11.41-9.19,14.35S252.88,261.41,249.36,256.27Zm12.94,87v37a1.88,1.88,0,0,1-2,2H254.8a1.88,1.88,0,0,1-1.4-.55,1.91,1.91,0,0,1-.56-1.41V332.3a6.2,6.2,0,0,1,6.43-6.43h.48l6.69,17.41ZM266.12,277c-.71-1.22,1.42-5.46,3.32-6.58,5.93-3.49,12.36-6.13,18.89-9.24,3.53,2.06,7.23,3,8.27,5.22.75,1.58-1.42,6.15-3.39,7.1a105.61,105.61,0,0,1-20.11,7.24C271.08,281.28,267.3,279.06,266.12,277Zm75.79,121.75a4.91,4.91,0,1,1,1.44-3.48A4.73,4.73,0,0,1,341.91,398.79Zm70.7-55.51V368a14.27,14.27,0,0,1-14.19,14.19H288.25a1.88,1.88,0,0,1-2-2v-5.54a1.88,1.88,0,0,1,.55-1.4,1.91,1.91,0,0,1,1.41-.56h18.4a12.07,12.07,0,0,0-.5-3.14,23.33,23.33,0,0,0-1.68-4.23,32.1,32.1,0,0,0-2.86-4.68,26.6,26.6,0,0,0-4.4-4.56,28.64,28.64,0,0,0-5.93-3.83l1-2a6.7,6.7,0,0,1,4.08-3.71,5.51,5.51,0,0,1,5.19.94,34.06,34.06,0,0,1,6.32,6.26,31.07,31.07,0,0,1,4.18,7,38.17,38.17,0,0,1,2.12,6.49,22.11,22.11,0,0,1,.61,5.52h25.43q2.32-6.64,1.68-11.09A8.72,8.72,0,0,0,337.2,355q-4.05-2.24-11.7-2.23v-2.48a6.58,6.58,0,0,1,2.07-5,5.65,5.65,0,0,1,5-1.48q12.19,2,16.09,9.08t.24,19.86h14.23v-23a6.2,6.2,0,0,1,6.43-6.43h6.77a14.14,14.14,0,0,1,14.19,14.19v15.26h7.87a4.54,4.54,0,0,0,3.36-1.38,4.61,4.61,0,0,0,1.37-3.35V332.3a6.2,6.2,0,0,1,6.43-6.43h.48l6.69,17.41Zm24.06,0v37a1.88,1.88,0,0,1-2,2h-5.54a1.91,1.91,0,0,1-1.41-.55,2,2,0,0,1-.55-1.41V332.3a6.2,6.2,0,0,1,6.43-6.43h.48l6.69,17.41Z"/><path class="cls-1" d="M41.87,354.1a4.55,4.55,0,0,0-1.39,3.37v15.26h8.39v-20H45.21A4.56,4.56,0,0,0,41.87,354.1Z"/><path class="cls-1" d="M376.36,352.74h-3.74v20h8.47V357.47a4.73,4.73,0,0,0-4.73-4.73Z"/></g></g></svg>