<svg xmlns="http://www.w3.org/2000/svg" viewBox="0 0 500 558.47"><defs><style>.cls-1{fill:#fff;}</style></defs><g id="Layer_2" data-name="Layer 2"><g id="Layer_1-2" data-name="Layer 1"><path class="cls-1" d="M218.49,399.77c-5.88-1.76-11.33-4.2-15.74-8.69-6-6.12-8.52-13.76-10-21.9-.39-2.14-.75-4.28-1.18-6.7-3.58.48-7.05,1-10.53,1.39C170,365.19,158.91,366,148,363.31c-16.41-4-25.78-15.08-29.59-30.88-1.81-7.54-2-15.47-2.86-23.24-.16-1.51,0-3.05,0-5.47-3.35,2.69-6.37,4.69-8.87,7.2-9.44,9.43-22.24,6.06-30-1.28C65.9,299.59,62.82,287,66.07,273.2c2.47-10.53,6.31-20.75,9.56-31.18a39,39,0,0,1-19.82-14.75c-4.59-6.65-5.21-14.38-4.72-22.18.88-14,6.79-26.22,13.75-38,1.65-2.78,2.36-5.13,1.33-8.49-3.45-11.31-.33-21.8,5.51-31.46,4.36-7.22,9.55-13.93,14.25-20.95a6.06,6.06,0,0,0,1-3.84c-1.26-9,.81-17.51,4.11-25.79a4.92,4.92,0,0,1,2.3-2.15C108.51,66.52,123.46,58.07,139,51c16.56-7.48,33.5-14.33,50.71-20.16,20.74-7,41.94-12.75,63-18.94a143.88,143.88,0,0,1,15-3.64c5.42-1,10.66-.46,15.09,3.47,4.21,3.73,3.77,8.4,2.82,13.12-1.73,8.66-6,16.25-11.31,23.07-7.27,9.41-15.27,18.25-23,27.33-3.93,4.63-7.89,9.23-12.19,14.25a33.83,33.83,0,0,1,6.12-14.24c6.11-7.8,12.6-15.3,19-22.89,4.15-4.94,8.42-9.79,12.54-14.76,3.38-4.08,1.14-13.06-5.9-13.35-8.12-.34-16.27,0-24.09,2.17C231.92,30.69,217.05,35,202.39,40a832.35,832.35,0,0,0-79,31.23c-9.88,4.51-19.27,10.11-28.87,15.24a11.32,11.32,0,0,0-1.55,1.21c11.65,8.14,23.16,16.21,34.7,24.25q26.58,18.49,53.2,36.9a3.14,3.14,0,0,0,2.59.39c11.09-5.29,22.69-8.14,35-7.52.73,0,1.46,0,2.19,0,.17,0,.32-.15.89-.44-1.67-6.19-3.31-12.49-5.08-18.76-3.44-12.21-7-24.38-8.18-37.09-.63-7.06-.47-14,3-20.5.49-.93,1-1.83,1.85-3.27,4.77,9.78,9.28,19,14.11,28.88l-7.54-2.71c.74,5.56,1.25,10.68,2.14,15.73A88.65,88.65,0,0,0,231,130.4c4.85,9,12.32,15.39,20.54,21.11a5.58,5.58,0,0,1,2.21,2.8,31.55,31.55,0,0,1-.59,17.53C237.32,158.09,220,153.28,200,160.77c15,12.51,29.84,24.71,44.5,37.11,8.4,7.1,16.4,14.67,24.86,21.7,3.86,3.21,8.39,5.63,12.64,8.35a18.69,18.69,0,0,0,2.81,1.17c-.47-5.3-.81-10.19-1.33-15.06-1-9.14-2-18.28-3.09-27.4-1.17-9.65-2.48-19.29-3.7-28.94q-1.45-11.5-2.86-23c-1.26-10.37-2.54-20.74-3.73-31.12-.5-4.43-1.34-8.93-1-13.32.24-3.55,2-7,3.49-10.47,8.18,12,15.2,24.26,17.84,39l-8.84-7c1.08,9,2.09,17.31,3.11,25.68.94,7.76,1.85,15.53,2.85,23.29,1.21,9.38,2.53,18.74,3.72,28.12,1,7.93,1.92,15.88,2.82,23.83.62,5.43,1.21,10.86,1.67,16.3.15,1.8,1.25,2.26,2.63,2.57,6.76,1.51,12.67-1,18.51-3.9.32-.16.61-.38.93-.54,6-3,8.51-7.25,7.1-14.27-1.53-7.64-1.87-15.52-2.87-23.27-1.33-10.27-2.84-20.52-4.21-30.78-1.2-9-2.25-18-3.46-27-1.54-11.54-3.2-23-4.77-34.59-1-7.29-1.83-14.6-2.88-21.89-1.73-12-3.6-24.07-5.37-36.11-.8-5.49-2.13-11-2-16.48.11-4.33,2.11-8.61,3.62-12.89C310,22.28,318.36,34,321.18,49l-9.24-7c.34,6.48.35,12.3,1,18,1.19,10.29,2.75,20.53,4.17,30.78,1.78,12.85,3.61,25.7,5.36,38.55,1.19,8.73,2.26,17.47,3.43,26.19,1.15,8.54,2.5,17.06,3.54,25.62,1.32,10.82,3.22,21.65,3.41,32.5.24,13.09-6.19,23.1-18,29.21a106.33,106.33,0,0,1-12.74,5.33c-1.9.69-2.74,1.4-2.62,3.59.34,6.28.6,12.58.56,18.87-.06,12.22-1.16,24.32-5.38,35.94a9.68,9.68,0,0,1-1.72,3.23c0-3.92.2-7.85,0-11.75-.68-11.27-1.5-22.54-2.37-33.8-.33-4.35-1-8.67-1.4-13a3.55,3.55,0,0,0-2.66-3.51,67.46,67.46,0,0,1-22.14-13.57c-9.43-8.57-18.65-17.38-28-26.05a247.92,247.92,0,0,0-29.63-24.06c-.72-.48-1.48-.89-2.22-1.33l-.57.56a23.32,23.32,0,0,0,1.66,2.25c6.29,6.87,12,14.11,15.94,22.64a43,43,0,0,1,3.1,27.64c-1.32,6.16-5.52,10.11-10.34,13.44-8.42,5.82-17.77,9.71-27.42,13.06-12.9,4.48-25.84,9-38.4,14.3a66.42,66.42,0,0,0-25.95,19.89c-.87,1.1-1.94,2.45-2,3.73-.58,10.88.74,21.43,6.52,31,5.46,9,13.89,14,23.81,16.39a71.9,71.9,0,0,0,39.28-1.51,5,5,0,0,0,3.38-3.42c3.36-8.77,6.9-17.48,10.24-26.25a3.48,3.48,0,0,0-.61-2.95c-2.2-2.43-4.59-4.68-7-6.91-1.35-1.26-1.71-2.65-.67-4.12,1.91-2.73,3.89-5.43,6.05-8a2.85,2.85,0,0,1,2.75-.4c1.73,1.18,2.91.68,4.24-.53,8-7.27,16-14.5,21.44-24.3-5.12-1.73-6.47-5.55-5.44-10.22a26.93,26.93,0,0,1,3.21-8.51c2.34-3.67,6.16-3.43,8.68.08,2.63,3.68,2.75,7.83,2,12-.54,3-1.41,5.83,1.64,8.1a3.06,3.06,0,0,1,1,2.4,19.85,19.85,0,0,1-1.28,3.91,23.22,23.22,0,0,1-3.1-1.91,17.88,17.88,0,0,1-2.08-2.39l-25.44,24.91c1.73,1.57,3.77,3.46,5.87,5.3s2.2,3.84.67,6c-2,2.82-4,5.6-6.05,8.38a49.48,49.48,0,0,0-9.64,25.6c6-2.67,11.57-5.1,17.09-7.67a181,181,0,0,0,38.42-23.64c3.45-2.8,6.58-6,9.93-8.94a2.83,2.83,0,0,0,.82-3.79c-4.4-10-8.64-20.12-13.06-30.14-2.82-6.39-5.9-12.66-8.76-19-1.68-3.72.8-12.73,4.39-15.63L269,256.47c-3.75,2.73-6.12-1.73-9.85-1.27,1,3,1.74,5.91,3,8.63,2.45,5.46,5.36,10.71,7.72,16.2,5.68,13.21,4.25,25.66-4.62,37.11-7.05,9.1-16.07,15.9-25.73,22-12.5,7.84-25.88,13.88-39.55,19.33a3.59,3.59,0,0,0-2,2.16c-1.35,7.4,2.25,21.36,9.37,26.38,5.37,3.77,10.64,3.52,16.12.59,10.32-5.51,18.15-13.82,25.58-22.63s14.43-17.57,22.3-25.72c9.45-9.79,21.24-16.34,33.64-21.76q16.8-7.35,33.57-14.78c1.81-.8,3.52-1.82,5-2.61-1.24-7.58-2.75-15-3.59-22.41-1.09-9.77,0-19.25,5.59-27.76,3.81-5.81,10.24-8.47,16.82-6.26a14.19,14.19,0,0,1,6.1,4.67,38,38,0,0,1,8.25,24c-.08,11.4-4.43,21.37-12.13,29.82-.73.81-1.52,1.58-2.29,2.35-4.25,4.2-4.28,4.55.15,8.79,7.31,7,16.09,8.31,25.61,6.28,6.52-1.39,12.05-4.74,17.28-8.75,2.73-2.1,1.79-4.77,1.57-7.23q-1.43-16.05-3.2-32.06c-1.15-10.3-2.5-20.57-3.75-30.86-1.49-12.18-2.92-24.37-4.46-36.54-1.19-9.47-2.56-18.91-3.75-28.38s-2.21-19-3.38-28.43c-1-7.85-2.11-15.68-3.12-23.52-1-7.57-1.9-15.15-2.84-22.73-1-8.11-2-16.23-3-24.34-.46-3.6-1.11-7.18-1.49-10.78a9.08,9.08,0,0,1,.49-4c1.12-3,2.49-6,4-9.39A118.36,118.36,0,0,1,399.47,92l-.79.68c-2.24-2.17-4.49-4.34-7.06-6.84.23,3.87.36,7.46.67,11,1,11.79,2,23.59,3.23,35.36,1.71,16,3.62,32,5.53,47.94,1.72,14.35,3.62,28.68,5.34,43,1.74,14.54,3.34,29.09,5,43.63.75,6.42,1.94,12.8,2.29,19.23.57,10.58,0,21.11-4.39,31-4.63,10.49-13.43,15.27-24.08,17.49a35.65,35.65,0,0,1-13.77.33c-8.39-1.53-13.27-7.41-17.58-14-1.54-2.34-2.81-4.85-4.39-7.61-5.78,2.25-11.7,4.23-17.34,6.81-13.51,6.17-27,12.39-40.29,19.05-8.35,4.2-15.1,10.68-21.37,17.57-10.72,11.78-21.35,23.64-32.09,35.41a28.72,28.72,0,0,1-12.25,7.63ZM172.91,172.68C165.6,178.39,158,183.81,151,190c-10.6,9.3-20.69,19.16-31.11,28.66-10.93,10-22.78,18.57-36.74,23.95a4.32,4.32,0,0,0-2.07,2.2c-2.47,5.74-5.19,11.42-7.11,17.35-3.23,9.95-5.27,20.12-1.78,30.5,4.32,12.83,14.12,16.9,25.45,9.57A60.13,60.13,0,0,0,110.24,291a106.76,106.76,0,0,1,37.36-27.64c10.65-4.8,21.6-8.93,32.49-13.17,13.35-5.2,26.47-10.79,38.38-18.94,2.65-1.81,2.77-3.28,1.68-5.91a83.84,83.84,0,0,0-13.79-22C196.66,191.87,185,182.57,172.91,172.68ZM87.83,143.1l.67.56a3.7,3.7,0,0,1,0,.81c-.12.62-.28,1.24-.46,1.85-2.14,7.59-7.18,13.12-12.92,18.15-2.09,1.83-5,3.24-6.17,5.53a189.16,189.16,0,0,0-8.64,19.35c-3.52,9.1-5.55,18.43-2.42,28.18C61.27,228,72.81,233.2,82,228.18a164.23,164.23,0,0,0,14.62-9c12.81-8.86,24.25-19.36,35.56-30q10.64-10,21.23-20.05l7.66-7.26L89.74,107.59c-3.41,5.13-6.95,10-10,15.13-4.42,7.44-7.26,15.33-4.28,24.1.46,1.37,1.74,3.38,2.73,3.43,1.47.08,3.18-1.12,4.48-2.16A67.53,67.53,0,0,0,87.83,143.1ZM353.05,294.78c3.6-2,7.09-3.67,10.15-5.88s6.88-4.19,6.69-8.86c-.29-7.55-3-14.21-8.59-19.3-4.28-3.9-8.11-3.77-12.16.31a12.06,12.06,0,0,0-3.51,8.28C345.2,278.57,348.49,286.7,353.05,294.78Zm-119.32-32c.54-2.59,0-4.7-2-6.15a3.15,3.15,0,0,0-2.47-.25c-.3.09-.51,1.49-.28,2.12A6.23,6.23,0,0,0,233.73,262.8Z"/><path class="cls-1" d="M361,202.19c-.95-16.21-1.31-32.22-5.7-48-6.38,4.26-12,9.45-19.87,12.49,2.24-2.26,3.91-4,5.63-5.68,3.27-3.18,6.36-6.6,9.92-9.42,2.95-2.33,3.26-5,2.83-8.3-1.51-11.91-2.81-23.85-4.4-35.75Q346.92,88.76,344,70c-1.66-10.66-3.6-21.29-5.47-31.92-.72-4.07,1.54-11.7,4.73-15.44,7,10.47,17.1,30.77,17.58,40.67l-8.75-7.62c4,27.85,8,55,11.94,82.15l.76.26c1.73-2.51,3.51-5,5.13-7.57.26-.42,0-1.37-.31-1.92-1.18-2.14-2.61-4.16-3.71-6.34-2.5-5,.63-11.52,6-13,2.34-.62,3.76.43,5,2.31,2.62,4.06,2.62,8.44,1.51,12.85-.84,3.29-2.28,6.43-1.63,10,.06.34-.37.77-.66,1.33-2.34-1.91-3.49-.32-4.77,1.38-1.91,2.53-4.05,4.89-5.89,7.47a5.16,5.16,0,0,0-1,3.36c1.68,12.13,2.56,24.28,1.43,36.52C365.4,190.15,363.19,198.65,361,202.19Zm12.73-78.74c1.5-2.51,1.15-5.15-.93-6.5a2.82,2.82,0,0,0-2.22-.3c-.45.17-.83,1.19-.81,1.81C369.87,121.06,371.7,122.34,373.74,123.45Z"/><path class="cls-1" d="M435.66,131.76l-9-7.22c.47,5.45.72,10.33,1.33,15.16,1.33,10.37,2.8,20.72,4.28,31.07C434,183,436,195.18,437.55,207.43c2.44,19.18,4,38.48,2.67,57.8-.39,5.76-3.21,11.36-4.91,17l-.92-.16c-.53-6.11-1.11-12.2-1.59-18.31-1.11-14-1.85-28-3.34-42-1.61-15-3.9-29.9-5.92-44.85q-3.33-24.7-6.7-49.4c-.72-5.31-1.4-10.63-2.25-15.91-.36-2.29-1.84-4.65-1.48-6.74.7-4.08,2.33-8,3.8-12.67C424.47,105.26,433.1,116.74,435.66,131.76Z"/><path class="cls-1" d="M363.45,215.88c-2.74,3.49-5.43,6.89-8.1,10.28A34.29,34.29,0,0,1,342,215.25a2.89,2.89,0,0,1-.22-2.53c1.92-3.59,4-7.09,6.39-11.19l14.64,11.55c1.69-2.41,3.51-4.84,5.16-7.38,2.65-4.06,3.45-4.26,7.05-.91s7.18,7,11,10.66c-2.26,3.33-4.17,6.62-6.57,9.51-2,2.42-3.11,2.2-5.44.14C370.53,222,367,219,363.45,215.88Z"/><path class="cls-1" d="M217.83,0c-2.37,4.05-4.72,7-8.43,8.45q-33.06,13.22-66.14,26.38c-2.18.87-4.33,1.83-7.22,3.05,2.07-3.63,3.6-6.76,7-8.44C160.18,21,178.08,14.57,195.94,8c6.2-2.28,12.38-4.61,18.57-6.91C215.34.81,216.19.55,217.83,0Z"/><path class="cls-1" d="M143.71,304.21c1.57,2.56,3,4.39,3.84,6.45.44,1.06-.12,2.53-.23,3.82-1.19-.39-2.62-.47-3.52-1.21-6.4-5.2-3.94-14.88,4.59-18.48q21.17-8.93,42.3-17.93c3.71-1.58,7.36-3.29,11.66-5.22-1.08,4.49-3.39,7.25-6.87,8.81-11.59,5.19-23.29,10.12-34.86,15.34C154.93,298.35,149.43,301.34,143.71,304.21Z"/><path class="cls-1" d="M326.54,385.53c-2.23-4.36-4-8-6-11.58a11.61,11.61,0,0,0-8.19-5.77,8,8,0,0,1-6.14-9.27c.75-4.14,2.12-4.83,5.9-2.84,5,2.63,7.74,7.28,10.53,11.88a37.93,37.93,0,0,0,3.82,5.64c.35-4,.66-7.92,1.05-11.87.34-3.56,1-6.93,3.55-9.78,1.57-1.78,3.12-1.89,5.07-1.1a7.53,7.53,0,0,1,4.84,5.79c.23,1.26-.89,2.76-1.58,4.64a50.5,50.5,0,0,0-4.63-3.21c-1-.56-2.57-1.19-3.42-.8s-1.47,2-1.57,3.11c-.5,6.16-.67,12.34-1.26,18.5C328.35,381,327.3,383.11,326.54,385.53Z"/><path class="cls-1" d="M184.66,122.41c.34-4.46.63-8.25.92-12s.95-7.56,3.29-10.76c2.76-3.78,4.77-4.37,7.93-2.44,2.8,1.7,3.25,4.27,1.43,8.06-.2.41-.43.79-.72,1.32a43.11,43.11,0,0,0-3.53-3c-2.43-1.68-4.57-1-5,1.88a103.58,103.58,0,0,0-1.09,12.18c-.17,5.26.36,10.57-1.78,15.59-.18.41-.42.8-.85,1.62-1.5-2.81-2.74-5.38-4.19-7.83-1.28-2.18-2.48-4.55-4.28-6.24a11.39,11.39,0,0,0-5.72-2.66c-3.42-.56-5.56-2.1-5.69-5.64-.08-2,.62-3.95,1-5.93,2.08.39,4.71.13,6.14,1.31,3.09,2.56,5.63,5.81,8.26,8.89C182.06,118.29,183.09,120.11,184.66,122.41Z"/><path class="cls-1" d="M183.2,314.68l-7.27-4.84a44.8,44.8,0,0,0-.57,5c.06,5.27.46,10.55.28,15.81-.1,2.73-1.14,5.43-1.76,8.14l-.73.08c-1-1.56-1.86-3.16-2.9-4.67-1.74-2.54-3.3-5.28-5.44-7.44a9.09,9.09,0,0,0-5.44-2.5c-2.38-.15-3.48-1.17-3.62-3.14a15.2,15.2,0,0,1,.6-5.86c.63-1.86,2.59-1.34,3.61-.46,2.94,2.51,5.73,5.21,8.42,8a52.94,52.94,0,0,1,4,5.41c.21-1.71.37-2.78.45-3.86.4-5,.54-10,1.3-14.92.27-1.79,1.65-4.26,3.13-4.82,2.84-1.08,4.67,1.61,6.56,3.42s.8,3.63,0,5.45C183.65,313.89,183.41,314.28,183.2,314.68Z"/><path class="cls-1" d="M254,124.3c.62-4.15,1-8.15,1.9-12a22.46,22.46,0,0,1,3.29-7.07,3.84,3.84,0,0,1,6.82,1c.61,1.76.37,3.8.56,6.37-2.18-1.19-3.56-2-5-2.7-2.09-1-3.34-.18-3.79,1.94a15.67,15.67,0,0,0-.22,3c0,7,0,14,0,21.74-2.39-3.25-4.28-6-6.33-8.57-3.1-3.92-6.4-7.33-12.11-7.16-3.21.09-4.89-4.51-3.33-8.74C243.89,113,249.07,118.32,254,124.3Z"/><path class="cls-1" d="M232.77,286.14c6.1.52,10.56,2.34,13.58,6.65,3.48,5,1.52,11.15-4.38,15.09a10.42,10.42,0,0,1-7.56,1.4c-2.36-.33-4.63-2.84-4.35-5.19C230.79,298.12,231.83,292.18,232.77,286.14Zm12,13.67c-2.67-3.85-5.6-6.9-11.15-7.15-.1,3.07-.32,6-.21,8.93,0,.63,1.14,1.56,1.9,1.75C239.09,304.3,241.82,302.07,244.73,299.81Z"/><path class="cls-1" d="M280.15,65.3c.8-4,1.66-7.94,2.36-11.93.34-1.94,1.46-2.39,3.07-2a29.93,29.93,0,0,1,6.43,2c5.26,2.78,7,9,3.67,13.93A18.22,18.22,0,0,1,289,73C284.51,75.31,280.45,71.43,280.15,65.3ZM284,58.09a55.1,55.1,0,0,0-.39,6,4.28,4.28,0,0,0,1.25,3c1.84,1.29,6.44.16,7.91-1.93.61-.88.48-2.3.58-3.49,0-.23-.49-.49-.74-.76C290.34,58.6,287.71,57.25,284,58.09Z"/><path class="cls-1" d="M309.5,290.79c1.34-1.7,2.63-3.45,4-5.08.94-1.1,1-2,0-3.08-.85-.93-1.54-2-2.31-3-2.39-3.09-2.5-4.89.32-7.58a36.19,36.19,0,0,1,7-4.93c.56-.32,2.56.56,2.73,1.19.39,1.47.07,3.13,0,4.71l-3.72-1.24.11-.57c-.65.3-1.31.59-1.95.9-3.08,1.53-3.35,4-.22,5.46a14.58,14.58,0,0,0,7,.75c2.3-.2,4.52-1.2,7.49-1.42-.7,1.3-1.12,2.91-2.15,3.83a46.06,46.06,0,0,1-5.64,3.7c-2.79,1.81-5.52,3.72-8.36,5.43a29.91,29.91,0,0,1-4.12,1.69Z"/><path class="cls-1" d="M299.67,136c-.51,4-1,7.94-1.54,11.89-.75,5.28.68,11.68,6.11,14.06.87-1.87,1.75-3.74,2.7-5.76,2.94,3.05,2.33,10.69-.65,12.65-2,1.31-5.34.45-7-1.92-3.23-4.78-4.21-10.23-4-15.83C295.53,145.75,296.43,140.51,299.67,136Z"/><path class="cls-1" d="M143.77,95.8c.44,5.09-2.17,8.46-6.26,8.08-2.74-.25-5.08-3.12-5.58-6.83-.85-6.28,2.19-20.4,6.21-26-.18,2-.27,4.08-.56,6.1-.57,3.94-1.28,7.86-1.89,11.8a3.68,3.68,0,0,0,.1,1.9,28.35,28.35,0,0,0,2.68,5.54C140.45,99.18,141.75,95.25,143.77,95.8Z"/><path class="cls-1" d="M175.05,88.05,178.69,86a6.59,6.59,0,0,1-2.64,7.9c-2.41,1.34-5.6.3-7.26-2.44-1.9-3.15-1.55-6.66-1.31-10.08a48.12,48.12,0,0,1,6-20.21,32.78,32.78,0,0,1,0,3.84c-.17,1.43-.56,2.84-.87,4.25s-.58,2.67-.91,4C170.1,79.7,171,84,175.05,88.05Z"/><path class="cls-1" d="M380.56,188.27l3.21-5.13c1.36,2.81-.1,9-2.42,10.76-1.56,1.16-4.91.42-6-1.57a12.78,12.78,0,0,1-1.67-4.82A59.77,59.77,0,0,1,377.5,161a1.55,1.55,0,0,1,1.12-.9c-.67,3.73-1.58,7.43-1.94,11.18a33.51,33.51,0,0,0,.17,9.7C377.33,183.42,379.11,185.55,380.56,188.27Z"/><path class="cls-1" d="M263.08,171c-.34,6.63-3.92,13-1.62,19.74.58,1.74,1.91,3.22,3,5l4.46-4c1.07,3.63-.63,8.32-3.82,9.58a5.61,5.61,0,0,1-4.38-.78c-2.48-1.6-3.12-4.46-3.24-7.19C257.16,185.34,259.37,178,263.08,171Z"/><path class="cls-1" d="M390.18,269.21c-.71,3.43-1.59,6.84-2.09,10.31-.61,4.16-.79,8.38,1.87,12a17.6,17.6,0,0,0,2.66,2.42c.64-1,1.28-2,1.9-3,.28-.45.5-.93.8-1.47,1.85,3.53-.7,10-4.21,11-2.86.82-5.4-1.34-6-5.06-1-5.6.08-11,1.35-16.43.79-3.38,1.95-6.67,2.94-10Z"/><path class="cls-1" d="M337.94,94.12c-.18,2.26.09,4.7-.69,6.74-.61,1.62-2.44,3.76-3.83,3.83-1.65.1-3.88-1.42-5-2.89-1.24-1.63-1.68-4-2.18-6-1.14-4.67.86-16.24,3.45-20.6-.2,8-4,16.56,4,23.65L337,94.09Z"/><path class="cls-1" d="M290.78,380.58c.38,4.71-.88,8.75-4.18,11.87-1.91,1.81-5.66.37-6.35-2.77a30.77,30.77,0,0,1-.77-10.49c.7-5.26,2.29-10.39,3.53-15.57a1.86,1.86,0,0,1,1.2-1.3c-.16,1.33-.28,2.67-.49,4s-.61,2.84-.82,4.27c-.43,3-.91,5.91-1.12,8.88a6.47,6.47,0,0,0,.87,3.39,35.69,35.69,0,0,0,3,4c1-1.1,2.09-2.16,3.05-3.31C289.45,382.61,290.08,381.57,290.78,380.58Z"/><path class="cls-1" d="M365.9,356.24a16.48,16.48,0,0,1-4.6,11.43c-2,2-5.79.58-6.54-2.71a28.81,28.81,0,0,1-.76-10.23c.79-5.51,2.44-10.91,3.74-16.35a3.7,3.7,0,0,1,.51-.84l.68.18c-.69,3.64-1.28,7.31-2.08,10.93-.94,4.33-.94,8.42,1.75,12.26,1.15,1.64,2.09,1.58,3.13.18,1.23-1.65,2.32-3.4,3.47-5.11Z"/><path class="cls-1" d="M450.78,188.06c-.21,2.13-.06,4.38-.72,6.36-.82,2.46-3.19,2.88-5.31,1.29a10.59,10.59,0,0,1-4.19-9.59c.6-7.9,1.74-15.76,2.66-23.63l1.42.12c-.22,2.8-.52,5.61-.64,8.41-.17,4.14-.57,8.32-.15,12.41.25,2.44,1.87,4.74,3.08,7.61l2.8-3.06Z"/><path class="cls-1" d="M174.75,366.75c1.28,6-2.85,13.09,4.31,17.77l3.77-3.56c1.39,4.15-1.94,9.93-5.5,9.75A5.07,5.07,0,0,1,172.5,387C170,379.88,171.92,373.27,174.75,366.75Z"/><path class="cls-1" d="M106.67,317.26a73.56,73.56,0,0,0-2.3,7.45,16.17,16.17,0,0,0-.23,6.19c.75,3.75,2.45,4.21,6.7,2.22,1.22,2.73.12,4.84-1.62,6.87a3.76,3.76,0,0,1-4.67,1.13c-2.38-1-3.28-3-3.52-5.4C100.31,328.82,101.78,322.53,106.67,317.26Z"/><path class="cls-1" d="M295.23,212.7c1.08-1.49,1.84-3.5,3.29-4.38,6.79-4.15,13.76-8,20.68-11.94a11.47,11.47,0,0,1,1.76-.61c-.55,2.68-1.26,4.72-3.74,6-3.63,1.84-7.08,4-10.63,6s-7,3.79-10.46,5.68Z"/><path class="cls-1" d="M234.62,42.25q-.54,4.64-1.07,9.29c-.44,3.8-1.09,7.64,2.1,10.71a12.7,12.7,0,0,0,1.67,1.15l3.41-3.87c2.5,3.16-1.53,9.74-4.16,10.15-.87.14-2.32-.82-2.89-1.68-3.16-4.86-3.21-10.34-2.39-15.79.51-3.42,1.64-6.75,2.48-10.12Z"/><path class="cls-1" d="M156.26,207.41,170.84,219c2.14-3,4.43-6,6.45-9.19,1.23-1.93,2.49-1.93,3.93-.57,4.25,4,8.43,8,12.76,12.18-2.17,3.25-4,6.49-6.34,9.34-2.13,2.6-3.17,2.39-5.62.21-3.39-3-6.85-6-10.57-9.2l-8,10.27c-5.79-2.38-10-6.74-13.88-11.41a1.5,1.5,0,0,1-.11-1.38C151.53,215.49,153.73,211.75,156.26,207.41Z"/><path class="cls-1" d="M121.2,247.85c-4,1.49-6.18.83-8.64-2.17-1.23-1.5-1.45-6.33-.24-8s2.87-2.64,4.57-.93c3.78,3.78,7.36,7.75,11,11.66.58.61,1.11,1.26,2.09,2.39.49-5.21.73-9.72,1.41-14.17a30.18,30.18,0,0,1,2.26-6.65c.76-1.85,2.44-2.12,4.09-1.51,2.81,1,6.39,4.23,4.7,7.95-.35.78-.74,1.54-1.11,2.31a15.6,15.6,0,0,1-2.79-1.43,30.06,30.06,0,0,1-2.86-2.79l-1.19.36c-.51,4.63-.95,9.27-1.56,13.88s-1.43,9.25-2.19,14.15C127.33,257.48,124.29,252.71,121.2,247.85Z"/><path class="cls-1" d="M101.38,273.19c-.54,2.57-.66,5.34-1.75,7.65a6.46,6.46,0,0,1-4.35,3,4.42,4.42,0,0,1-4.91-3.49,30.22,30.22,0,0,1-.6-9.33,41.94,41.94,0,0,1,6.71-18.72c-1.11,5.52-2.43,10.59-3,15.75-.29,2.46.61,5.13,1.27,7.63.43,1.65,1.66,1.77,2.84.52,1-1,1.91-2.14,2.86-3.22Z"/><path class="cls-1" d="M115.37,162.17c-6.9-4.63-8.94-11.59-5.33-17.63a9.29,9.29,0,0,1,6.88-4.4,4.49,4.49,0,0,1,5.07,4.73c0,3.27-.47,6.55-.45,9.82a8.94,8.94,0,0,0,1.32,3.52c1.38,2.79,3,5.49,4.19,8.35.37.88-.19,2.17-.4,3.87l-7.43-6.92c-11,19.18-27.78,31.77-45.28,43.64C87.76,192.24,103.87,179.43,115.37,162.17Zm3.34-7.85c0-1.77.37-3.13-.1-4a5.73,5.73,0,0,0-2.89-2.39c-.52-.2-2.19.88-2.18,1.35a4.52,4.52,0,0,0,1.35,2.9C115.8,153,117.12,153.46,118.71,154.32Z"/><path class="cls-1" d="M250,536.61a10.94,10.94,0,1,0,7.73,3.21A10.5,10.5,0,0,0,250,536.61Z"/><path class="cls-1" d="M490.8,441.05a30.46,30.46,0,0,0-22.35-9.2h-15a13.78,13.78,0,0,0-14.3,14.29v51.2H273.38q8.13-28.44-.54-44.17T237.06,433a12.52,12.52,0,0,0-11.18,3.28,14.63,14.63,0,0,0-4.6,11.1v5.5q17,0,26,5a19.41,19.41,0,0,1,10.43,14.83q1.44,9.87-3.73,24.66H63.35A50,50,0,0,0,62,485.05a86.89,86.89,0,0,0-4.73-14.42A69.15,69.15,0,0,0,48,455.14a76.58,76.58,0,0,0-14.05-13.93,12.31,12.31,0,0,0-11.55-2.09,14.94,14.94,0,0,0-9.08,8.26l-2.22,4.52a63.37,63.37,0,0,1,13.19,8.5,58.65,58.65,0,0,1,9.78,10.15,71.83,71.83,0,0,1,6.37,10.39,52.9,52.9,0,0,1,3.74,9.41,27.57,27.57,0,0,1,1.11,7H4.36A4.21,4.21,0,0,0,0,501.69V514a4.21,4.21,0,0,0,4.36,4.35H500v-55A30.46,30.46,0,0,0,490.8,441.05ZM479,497.34H460.15V452.88h8.3A10.53,10.53,0,0,1,479,463.4Z"/></g></g></svg>