<svg xmlns="http://www.w3.org/2000/svg" viewBox="0 0 500 427.2"><defs><style>.cls-1{fill:#fff;}</style></defs><g id="Layer_2" data-name="Layer 2"><g id="Layer_1-2" data-name="Layer 1"><path class="cls-1" d="M260.28,194.5l-9.61,2c-.28-3.81-.52-7-.76-10.26-3.4-46.55-31-77.2-73.43-81-29.57-2.62-56.84,6.49-82.81,21.07-31.74,17.82-58,42.91-80.35,73.28a31.84,31.84,0,0,1-11.44,9.47C28.09,122.37,78.36,58.93,154.79,23.18c79.84-37.34,157.5-28.79,232.82,20-2.74,6.68-4.74,12.62-7.48,18.12C353,115.94,314.58,158.54,265.86,190a66.84,66.84,0,0,0-5.84,4.74Z"/><path class="cls-1" d="M260,194.75c34.21-7.84,64.26-25.15,91.27-49.07,21.33-18.89,38.18-42,51.45-68.31,2.47-4.91,6.16-9.07,10.28-15C424,75.2,434.16,87,445.34,100c-3.53,4.74-7.17,10.79-11.82,15.66-37.63,39.38-81.94,65.43-132.21,79.43a20.08,20.08,0,0,0-6.7,2.84c64.15-2.63,118-30.28,163.06-83.91,7.52,13.57,14.88,25.18,20.22,37.82,1.14,2.7-4.07,10.78-8,13.58-21.48,15.25-45,25.83-69.55,33.42-27,8.32-54.38,13.39-83.28,12.61,15,7.86,60.11,5.37,88.22-1.91,29.09-7.52,55.52-21.37,81.43-40.48,4.06,12.18,8.58,23,11.11,34.3,1.76,7.89-4.54,12.13-10.6,13.74-23.28,6.17-46.44,14-70.1,17.16-51,6.75-100.74-1.49-148.41-23.07-2.69-1.22-4.71-4.22-7-6.38l1.43-2.18h-9.19l6.36-8.13Z"/><path class="cls-1" d="M226.39,180.59c.14,42.1-31.47,77.38-69.71,77.82-33.92.4-61.33-29.75-61.47-67.58-.14-39.89,33.29-76.57,70.14-77C199.21,113.52,226.27,143.09,226.39,180.59Zm-89.21,6.69c7.78.22,13.4-5.83,13.75-14.77.4-10.54-6.77-19.27-15.88-19.33a15.43,15.43,0,0,0-15.21,14.72C119.43,177.7,127.77,187,137.18,187.28Z"/><path class="cls-1" d="M41.92,301.72a9.55,9.55,0,1,0-6.74-16.3,9.55,9.55,0,0,0,6.74,16.3Z"/><path class="cls-1" d="M21.11,301.72a9.55,9.55,0,0,0,0-19.1,9.34,9.34,0,0,0-6.79,2.8,9.46,9.46,0,0,0,0,13.5A9.3,9.3,0,0,0,21.11,301.72Z"/><path class="cls-1" d="M97.13,408.11a9.55,9.55,0,1,0,0,19.09,8.93,8.93,0,0,0,6.67-2.8,9.7,9.7,0,0,0,0-13.49A8.93,8.93,0,0,0,97.13,408.11Z"/><path class="cls-1" d="M76.17,408.11a9.56,9.56,0,1,0,6.74,2.8A9.18,9.18,0,0,0,76.17,408.11Z"/><path class="cls-1" d="M138.48,301.72a9.55,9.55,0,0,0,0-19.1,9.36,9.36,0,0,0-6.79,2.8,9.46,9.46,0,0,0,0,13.5A9.32,9.32,0,0,0,138.48,301.72Z"/><path class="cls-1" d="M159.3,301.72a9.56,9.56,0,1,0-6.75-2.8A9.16,9.16,0,0,0,159.3,301.72Z"/><path class="cls-1" d="M218,294.61q3.23-2,10.48-1.43v-8.33a3.77,3.77,0,0,0-4-3.81q-13.22,1.08-17.66,9.19a16.7,16.7,0,0,0-1.87,6.75,17.06,17.06,0,0,0,.94,6.82q1.14,3.22,1.79,4.7a26.12,26.12,0,0,0,1.36,2.7l1.87,2.79h20.53a3.68,3.68,0,0,0,3.81-3.8v-8.47H216.8Q214.71,296.62,218,294.61Z"/><path class="cls-1" d="M227.71,325.62H216.94a3.68,3.68,0,0,0-3.8,3.81v35a8.66,8.66,0,0,1-2.8,6.53,9.43,9.43,0,0,1-6.75,2.66H175.45V344a27.33,27.33,0,0,0-7.65-19.49,26.24,26.24,0,0,0-37.86,0A27.24,27.24,0,0,0,122.25,344v29.65H96.84V329.43a3.7,3.7,0,0,0-1.08-2.73A3.66,3.66,0,0,0,93,325.62H82.27a3.69,3.69,0,0,0-3.81,3.81v44.22H53.05V316.44H27.57a26.61,26.61,0,0,0-19.46,8.07A26.5,26.5,0,0,0,0,344v35.54A12,12,0,0,0,12.49,392h191.1a27.27,27.27,0,0,0,19.85-7.93,26.45,26.45,0,0,0,8.07-19.64v-35a3.68,3.68,0,0,0-3.8-3.81Zm-193,48H18.38V344a9.13,9.13,0,0,1,9.19-9.19h7.1Zm122.4,0H140.63V344a9.9,9.9,0,0,1,2.23-6.42,7.34,7.34,0,0,1,6-2.77,7.24,7.24,0,0,1,6,2.77,10,10,0,0,1,2.19,6.42Z"/><path class="cls-1" d="M305.31,319.59a9.55,9.55,0,0,0,0-19.09,9.3,9.3,0,0,0-6.78,2.8,9.43,9.43,0,0,0,0,13.49A9.3,9.3,0,0,0,305.31,319.59Z"/><path class="cls-1" d="M326.2,300.5a9.14,9.14,0,0,0-6.78,2.8,9.62,9.62,0,0,0,0,13.49,9.52,9.52,0,0,0,16.26-6.74,9.25,9.25,0,0,0-2.77-6.75A9.06,9.06,0,0,0,326.2,300.5Z"/><path class="cls-1" d="M327.21,325.62H316.44a3.69,3.69,0,0,0-3.81,3.81v35a8.65,8.65,0,0,1-2.79,6.53,9.43,9.43,0,0,1-6.75,2.66H280.47a9.15,9.15,0,0,1-9.19-9.19v-48h8.05l-13-33.82h-.93a12,12,0,0,0-12.49,12.49v69.35A27.45,27.45,0,0,0,280.47,392h22.62a27.13,27.13,0,0,0,19.74-8,26.31,26.31,0,0,0,8.18-19.6v-35a3.68,3.68,0,0,0-3.8-3.81Z"/><path class="cls-1" d="M315.72,300.5a9.18,9.18,0,0,0,6.79-2.8,9.55,9.55,0,0,0-6.79-16.3,9.1,9.1,0,0,0-6.71,2.8,9.63,9.63,0,0,0,0,13.5A9.06,9.06,0,0,0,315.72,300.5Z"/><path class="cls-1" d="M439.34,282.62a12,12,0,0,0-12.49,12.49v69.35a8.93,8.93,0,0,1-2.66,6.5,8.83,8.83,0,0,1-6.53,2.69H402.37V316.44H376.88A27.45,27.45,0,0,0,349.32,344v35.54A12,12,0,0,0,361.81,392h21.54q0,10-6.65,15t-18.19,5v.51a11.56,11.56,0,0,0,4.45,9.65,17.48,17.48,0,0,0,11.12,3.48,25.86,25.86,0,0,0,9.8-2.11,31,31,0,0,0,9.05-6A28.48,28.48,0,0,0,399.75,407a40.67,40.67,0,0,0,2.62-15h15.29a27.76,27.76,0,0,0,27.57-27.57v-48h8l-13-33.82Zm-55.35,91H367.7V344a8.8,8.8,0,0,1,2.69-6.53,8.91,8.91,0,0,1,6.49-2.66H384Z"/><path class="cls-1" d="M487,282.62h-.94a12,12,0,0,0-12.49,12.49v93.11a3.69,3.69,0,0,0,3.81,3.81h10.76a3.69,3.69,0,0,0,3.81-3.81V316.44h8Z"/></g></g></svg>