<svg xmlns="http://www.w3.org/2000/svg" viewBox="0 0 500 663.99"><defs><style>.cls-1{fill:#fff;}</style></defs><g id="Layer_2" data-name="Layer 2"><g id="Layer_1-2" data-name="Layer 1"><path class="cls-1" d="M48.67,619.24q2.78-3.78,3-6.16A5.11,5.11,0,0,0,50,608.65a40.44,40.44,0,0,0-6.55-5.09L39.6,601a11.9,11.9,0,0,1,2.28-3.68,14.59,14.59,0,0,1,3.21-2.48q.54-.26,5.23,3c.53.66,1.72,1,3.57.86a10.94,10.94,0,0,0,2.65-2.91q.85-3.51-2.85-7.15-4.09-4-7.93-4.82c-2.25-.58-4.5.35-6.75,2.77s-3.75,4.46-4.9,6c-.18.26-1.1,1.83-2.78,4.7A14.58,14.58,0,0,0,29,603.36q-.14,2.77,7,6.22l5.42,3.11c1.06.61,1.22,1.39.47,2.31a15.41,15.41,0,0,1-4.11,3.84q-7.86,5.42-15.87,5.42-8.86-1.18-12.44-7.6-3-6.49-1.39-15.55a40.5,40.5,0,0,1,4.23-11.71q2.52-4.5,4.17-7.54,1.39-5.43-4.63-2.65-4.17,3.84-7.28,11.71Q-.69,603.22.11,614.14a23.9,23.9,0,0,0,6.35,14.49q6.75,6.35,14,6.42A29.17,29.17,0,0,0,39,628.76,49.14,49.14,0,0,0,48.67,619.24Z"/><path class="cls-1" d="M122.17,622.68a5.46,5.46,0,0,0-3.81,1.58,5.1,5.1,0,0,0-1.68,3.84,5.49,5.49,0,0,0,11,0,5.18,5.18,0,0,0-1.62-3.84A5.36,5.36,0,0,0,122.17,622.68Z"/><path class="cls-1" d="M161,583.64a5.14,5.14,0,0,0,3.84-1.65,5.36,5.36,0,0,0,1.59-3.84,5.43,5.43,0,0,0-1.59-3.9,5.15,5.15,0,0,0-3.84-1.66,5.41,5.41,0,0,0-3.87,1.66,5.29,5.29,0,0,0-1.68,3.9,5.22,5.22,0,0,0,1.68,3.84A5.4,5.4,0,0,0,161,583.64Z"/><path class="cls-1" d="M198.05,564.66c-.09-2.16-.15-4.46-.2-6.88s-.22-6.78-.53-13l-.26-2.64q-2.12-12.78-7.54-12.71-1.86.14-3.84,4.77a19.09,19.09,0,0,0-1,4.69q0,3.71,4.56,5.83c1.55.53,2.25,2.09,2.12,4.69q.33,4,.79,16.28l.4,11,.13,12.17a84.89,84.89,0,0,1,.4,10.39q-.53,3-4.23,4.9a14.46,14.46,0,0,1-6.22,1.91h-5.1q-9.85-.78-12.57-6-.19-.93,1.26-3.57c.84-1.68.31-3.15-1.59-4.43a4.05,4.05,0,0,0-3.31-.67c-1.06.14-2.38,1.19-4,3.18a39.73,39.73,0,0,1-3.7,4.76,19.31,19.31,0,0,1-9.73,6.68h-4.36q-8.67-1.32-11.71-5.82a38.35,38.35,0,0,1,1.06-4.36c.53-1.72.19-3-1-3.84a4.32,4.32,0,0,0-3.11-.86q-1.52,0-3.63,2.78-2.39,3.57-4.17,5.82a20.8,20.8,0,0,1-9.46,6.28H97.23q-.74-10.25-3.91-16-4.17-6-9-6.08-5.23,0-10.19,5.42a27,27,0,0,0-5,15.95q.86,11.44,16.27,11.64l4.83.13a4,4,0,0,1,0,2.52Q88.43,631.41,78,642.13q-13.56,13-29.3,13.63-8-.07-10.72-.34c-2.74.53-3.68,1.59-2.85,3.18a20.61,20.61,0,0,0,7.48,4,35.33,35.33,0,0,0,13.83,1.12q12-2.52,25.2-14,11.65-10.92,15-28.65l.8-4.17h11.25a20,20,0,0,0,7.93-3.64,51.4,51.4,0,0,0,7-7.28,20.06,20.06,0,0,0,4.69,6.69,13.57,13.57,0,0,0,10.46,4.23h5.62a18.63,18.63,0,0,0,8.67-3.7,22.4,22.4,0,0,0,7.21-7.28,24.36,24.36,0,0,0,4.5,6.68,18.57,18.57,0,0,0,12.1,4.3h4.57a24.52,24.52,0,0,0,12.37-6.22,19.58,19.58,0,0,0,5.49-15.15Q198.45,571.15,198.05,564.66ZM87.57,605.94q-9.6.93-10.59-2.71-1-3,2.18-6.69c2-1.28,3.71-1.43,5.3-.46a16.37,16.37,0,0,1,2.05,2.65,12.65,12.65,0,0,1,1.39,4Q88.43,605.28,87.57,605.94Z"/><path class="cls-1" d="M220.15,604.35V546.53l-.07-2.52a58.27,58.27,0,0,0-.92-5.82A18.16,18.16,0,0,0,216,532c-1.68-2.07-3-3.07-4.1-3a9.17,9.17,0,0,0-3.14,3.51,12.67,12.67,0,0,0-1.89,5.89,6.81,6.81,0,0,0,1.32,2.91,11.06,11.06,0,0,0,3.71,3c.75.18,1.23,1.66,1.45,4.43.18,1.86.38,5,.6,9.6,0,1.85.07,3.9.07,6.15q0,11.25.06,16.47v7.61q.33,14.16-.46,16.28a23.43,23.43,0,0,0-1.79,5.29c.4,3.57,1.85,5.78,4.37,6.61a4.59,4.59,0,0,0,2.45-.19q1.78-.54,3.24-3.25a5,5,0,0,0,.86-4.23A16.93,16.93,0,0,0,220.15,604.35Z"/><path class="cls-1" d="M303.18,580.34a5.54,5.54,0,0,0,5.42,5.42,6,6,0,0,0,3.71-1.32,4.06,4.06,0,0,0,1.65-3.51,6.64,6.64,0,0,0-1.55-4.2,4.72,4.72,0,0,0-3.81-2,5.2,5.2,0,0,0-3.77,1.65A5.35,5.35,0,0,0,303.18,580.34Z"/><path class="cls-1" d="M300.6,571.8a5.23,5.23,0,0,0,3.87-1.65,5.48,5.48,0,0,0-3.87-9.33,5.41,5.41,0,0,0-3.87,1.62,5.24,5.24,0,0,0,0,7.71A5.36,5.36,0,0,0,300.6,571.8Z"/><path class="cls-1" d="M293.78,585.69a5.23,5.23,0,0,0,3.87-1.65,5.31,5.31,0,0,0,1.62-3.84,5.38,5.38,0,0,0-1.62-3.9,5.23,5.23,0,0,0-3.87-1.65,5.4,5.4,0,0,0-3.87,1.65,5.3,5.3,0,0,0-1.69,3.9,5.23,5.23,0,0,0,1.69,3.84A5.4,5.4,0,0,0,293.78,585.69Z"/><path class="cls-1" d="M340.62,620.63a5.33,5.33,0,0,0-3.74,1.58,5.1,5.1,0,0,0-1.68,3.84,5.33,5.33,0,0,0,1.62,3.84,5.16,5.16,0,0,0,3.8,1.65,5.37,5.37,0,0,0,3.91-1.65,5.28,5.28,0,0,0,1.65-3.84,5.14,5.14,0,0,0-1.65-3.84A5.46,5.46,0,0,0,340.62,620.63Z"/><path class="cls-1" d="M326.6,622.28a5.27,5.27,0,0,0-3.84,1.65,5.37,5.37,0,0,0-1.65,3.91,5.16,5.16,0,0,0,1.65,3.8,5.35,5.35,0,0,0,7.67,0,5.14,5.14,0,0,0,1.66-3.8,5.34,5.34,0,0,0-1.66-3.91A5.26,5.26,0,0,0,326.6,622.28Z"/><path class="cls-1" d="M346.77,586.49a19.23,19.23,0,0,0-3.17-4.3q-3.64-3.84-6.55-1.19a12.36,12.36,0,0,0-3.37,7q-.68,5.82,4.63,4.56a7.53,7.53,0,0,1,3.11,1.79,11.17,11.17,0,0,1,1.32,3.84,4.68,4.68,0,0,1-.73,4Q338.17,606,330.7,606h-14q-7.34-1-7-5.75l1.85-4.43c-.84-2.65-2.42-3.86-4.76-3.64q-2.25.26-4.7,4.1a31,31,0,0,1-3.11,5.62,11.11,11.11,0,0,1-6.61,4.1h-26q-9.79-.59-12.31-6a12.83,12.83,0,0,1-.79-9.66,38.09,38.09,0,0,1,4.56-8.4q3.38-5-1.72-4.63c-1.19.05-3,1.5-5.42,4.37q-3.92,5.76-4.63,9.59a22.16,22.16,0,0,0-.8,9.92q.66,4.38,4.77,8.74,7,6.95,14.68,7h28.12a12.16,12.16,0,0,0,6.88-2.84,21.75,21.75,0,0,0,5.82-6.42,14.25,14.25,0,0,0,5.16,7.14,11.27,11.27,0,0,0,5.69,2.12h10.72q7.88.33,15.48-5.09a20.54,20.54,0,0,0,6-8.8,25.69,25.69,0,0,0,.73-8.93A26.17,26.17,0,0,0,346.77,586.49Z"/><path class="cls-1" d="M470.49,605.28,464,606h-7c-2.25.14-3.39.09-3.44-.13l-8.79-10.25a34.64,34.64,0,0,0,20.77-10.06q8.07-9.33,8.14-22.69a83.14,83.14,0,0,0-2.12-20.18q-3.1-12.63-9.2-13.43-4.5,2.19-5.62,9.46-.66,4.5,4.23,5.43,2.91,1.59,4.37,7.8a47.34,47.34,0,0,1,1.46,10.85c.39,2.43-.11,5.74-1.53,9.93a15.68,15.68,0,0,1-7.41,8.27,33.46,33.46,0,0,1-11.51,3.83,38.56,38.56,0,0,1-9.85.2q-7.35-3.1-10.19-3c-1.41.13-2.76,1.15-4,3a14.16,14.16,0,0,0-1.79,5.56q-.39,7.6,5.5,5.36a17.64,17.64,0,0,1,4.83.13,5.55,5.55,0,0,1,3.63,1.46l6.22,6.41,1.59,2H410.15a8.77,8.77,0,0,1-5.42-2.24c-.57-1-1-3-1.32-6q-.6-2.64-6.42-3.3-12.24-1.26-17.47-6.82-6.75-7.2-5.75-12.9a12.62,12.62,0,0,1,2.71-6c.62-.58,2-1,4.23-1.33.49-.08.91-.57,1.26-1.45a13.4,13.4,0,0,0,.86-4.7c0-2-.51-3.13-1.52-3.44a9.8,9.8,0,0,0-6.15,1.66,18.46,18.46,0,0,0-5.43,6.74,25.48,25.48,0,0,0-2.45,8.27,22,22,0,0,0,1.13,10,26.18,26.18,0,0,0,4.83,8.27,39.28,39.28,0,0,0,8.47,7.61l-6.88,1.19a42.6,42.6,0,0,1-6.55-.33q-1.78-.33-5.63-1.39a3.56,3.56,0,0,0-3.27,3q-.76,2.77,1.82,8.47,3.71,6.15,7.74,5.82,3.3.2,8.07-5.82,8.26-2.32,16.54-4.57l2.38-.39c3.83,6.61,8.11,10.1,12.83,10.52a.84.84,0,0,0,.14.06h40.75a143.06,143.06,0,0,0,14.62-.66c1,1.15,2.05,2.29,3.11,3.44.84.93,1.94.79,3.31-.4a11.26,11.26,0,0,0,2.91-3.64,21.4,21.4,0,0,0,1.72-4.5c0-2.38-.31-3.94-1.06-4.69A4.1,4.1,0,0,0,470.49,605.28Z"/><path class="cls-1" d="M498.34,609.18a16.93,16.93,0,0,0-2.58-4.83V546.53L495.7,544q-.27-2.58-.93-5.82A18,18,0,0,0,491.6,532c-1.68-2.07-3.05-3.07-4.11-3a9.25,9.25,0,0,0-3.14,3.51,12.77,12.77,0,0,0-1.88,5.89,6.58,6.58,0,0,0,1.32,2.91,11,11,0,0,0,3.7,3c.75.18,1.24,1.66,1.46,4.43.18,1.86.37,5,.59,9.6q.07,2.77.07,6.15,0,11.25.07,16.47v7.61q.33,14.16-.47,16.28a23.15,23.15,0,0,0-1.78,5.29c.39,3.57,1.85,5.78,4.36,6.61a4.58,4.58,0,0,0,2.45-.19q1.78-.54,3.24-3.25A4.93,4.93,0,0,0,498.34,609.18Z"/><path class="cls-1" d="M252.37,495.26C115.57,495.17,4.73,384.33,4.74,247.62S115.84-.1,252.64,0,500.25,111.26,500,247.89C499.75,384.7,389,495.34,252.37,495.26ZM233,92c0-7.85,0-13.34,0-18.84a6,6,0,0,0-.67-3.34c-2.44-3.21-5.1-6.27-7.71-9.35-1.35-1.6-2.89-1.38-4.05.08a31.78,31.78,0,0,0-4,5.91c-4.83,10.14-6.66,21-7.41,32.12-.44,6.63-.29,13.3-.53,19.94-.22,6.23-.73,12.43-3.4,18.21-1.52,3.28-3.71,6.07-7.47,6.62-6.36.93-11.78,0-14.64-7.65a33.65,33.65,0,0,1-2.06-11.63c0-6.34.91-12.68,1.34-19,.44-6.66.41-13.29-1.88-19.71-3-8.3-12.49-8.91-17.5-4a21.85,21.85,0,0,0-5,8.23,29,29,0,0,1-3.94,7.86c-7,8.88-15,16.48-26.81,18.54a26.61,26.61,0,0,0-4.94,1.6,21.32,21.32,0,0,0-9.84,7.21c-9.09,12.37-11,25.35-3.87,39.43,3.6,7.06,9.12,10.56,16.8,11.08s15-1,22.19-3.27c9.51-3,19-6.13,28.39-9.33a25.48,25.48,0,0,1,18.41.37c2.94,1.19,6,2.2,8.93,3.32,10.27,3.88,20.44,8.1,31.53,9.12,12.1,1.1,22-2.79,28.58-13.31a46.74,46.74,0,0,0,5.49-11.72c2.36-8.25,4.29-16.64,6-25.06,2.23-11.13,4-22.36,2.83-33.8-.43-4.2-1.28-8.29-3.8-11.83-2.4-3.37-5.88-4.4-9.74-4-3.32.38-4,3.45-5.06,5.91a14.06,14.06,0,0,0-1,3.31c-1.17,6.61-2.43,13.21-3.38,19.85-1.17,8.15-1.86,16.37-3.16,24.5a30.1,30.1,0,0,1-6.24,14.81c-2.23,2.69-5,4.49-8.67,3.86-5.1-.86-7.56-4.82-7.09-10.82C230.81,121.41,232,105.55,233,92Zm86.66,270.25c4.78,5.43,9.48,10.53,13.89,15.88a113.64,113.64,0,0,1,7.75,10.94c1.17,1.81.71,2.61-1.44,2.91-5.15.7-10.33,1.69-15.49,1.72-8.22,0-16.45-.54-24.67-1-3.15-.16-5.22-1.7-6.36-4.87a72.38,72.38,0,0,0-4.87-10.63c-6.25-11.19-15.57-15.32-28.08-12.7-6.47,1.36-11.19,5.18-14.7,10.63a7.59,7.59,0,0,1-5.56,3.74c-8.33,1.05-13-.54-15.67-7.64-.43-1.14-.95-2.26-1.49-3.37-2.25-4.6-4.42-9.25-6.81-13.79a29.12,29.12,0,0,0-16.47-14.32c-10.28-3.61-21-4.65-31.82-4.44-4.29.09-8.53.59-12.39,2.67-5.24,2.83-6.18,9.06-1.73,13a18,18,0,0,0,6.9,3.88,178,178,0,0,0,19.86,4.35c8.19,1.22,15.06,4.84,21.26,10A15.67,15.67,0,0,1,205,373c3.35,5.53.4,11.53-6,11.92a99.54,99.54,0,0,1-12.33-.22c-5.84-.36-11.66-1.29-17.5-1.33a26.45,26.45,0,0,0-9.38,2.14c-3.72,1.45-4.69,5-4.66,8.6,0,3.06,2.79,4.12,5.15,5.26a4.79,4.79,0,0,0,1,.39c5.28,1.14,10.52,2.72,15.87,3.3,21.85,2.4,43.77,1.71,65.68.86a6,6,0,0,1,3.44,1.12c5.56,3.89,10.94,8,16.54,11.84a10.8,10.8,0,0,0,11.18.79c5.38-2.6,10.58-5.57,15.9-8.31a7,7,0,0,1,3.19-.9c5.42.1,10.84.44,16.26.57,15.28.35,30.53.15,45.65-2.39,5.14-.87,10.23-2,14.7-4.92,4.16-2.69,5-6.37,2.5-10.65a14,14,0,0,0-2.64-3.41,51.45,51.45,0,0,0-7.27-5.79c-4.87-2.94-10-5.49-15.1-8.28,3.85-4.82,8.4-8.3,15.27-8a26.38,26.38,0,0,0,17.57-5.73,7.17,7.17,0,0,0,3.26-5.83,6,6,0,0,1,.78-2.67c3.62-6.65,4.32-13.9,4.29-21.24,0-7.94-4.33-11.86-12.17-10.85a124.12,124.12,0,0,0-13.93,3.06,17.85,17.85,0,0,0-12.18,10.27c-1.33,2.79-2.31,5.75-3.39,8.66s-1.9,5.61-3,8.33c-.77,1.88-2.11,3.34-4.39,3.34C331.35,353,325.46,357.29,319.65,362.27ZM211.72,238.61c-.55,4.76-1.5,9.19-4,13.14-5.14,8.11-16.15,9.18-22.39,1.88-2.1-2.46-3.45-5.63-4.87-8.6-1.33-2.8-2.16-5.82-3.44-8.64-1.93-4.22-5.26-7.15-9.85-7.66a107,107,0,0,0-17.25-.68c-6.05.32-10.9,3.5-14.57,8.4-1.42,1.91-2.91,3.79-4.51,5.56a25,25,0,0,0-6.2,11.76c-2.45,12.06.23,18.48,10,23.33a65.91,65.91,0,0,1,8.52,5.16c3.25,2.29,4.1,5.6,3.19,9.42a27.86,27.86,0,0,1-5.56,10.69c-1.48,1.89-3.08,3.69-5,6,3.44-.49,6.32-.74,9.13-1.34,14.41-3,26-10.78,35-22.2,2.69-3.41,5.14-4.33,9.36-4.19,11,.38,21.76,1.26,32.41,4a162.08,162.08,0,0,0,19.9,4.27c9.52,1.24,19.13,2,28.73,2.46,11.41.57,22.84.66,34.22-1,2.89-.42,5.41-1.5,7.07-3.77a66,66,0,0,0,6.47-10.2c4.74-9.8,7.54-20.29,10-30.84,1.13-4.82,2.09-9.67,3.19-14.81l-22.93,4.83c-.23,2.33-.3,4.51-.66,6.64-1.26,7.35-2.7,14.66-6.93,21a21.91,21.91,0,0,1-8.15,7.61c-6.5,3.4-18.49-.57-17.95-11.19a48.15,48.15,0,0,1,2.05-10.79c.86-3,2.39-5.83,3.73-9l-22.06-1.31c-.37,2.55-.6,4.85-1.05,7.11-.89,4.44-2.35,8.68-5.64,12a12.7,12.7,0,0,1-13.59,3.3c-4.78-1.52-6.56-5.54-6.8-10.11-.23-4.29.12-8.61.22-13.08ZM299.2,135.08l.16,0a64,64,0,0,0,.05,6.93c.49,4.58.74,9.27,2,13.65,1.53,5.41,6.14,6.09,9.51,1.58a36.55,36.55,0,0,0,4.91-8.86A177.76,177.76,0,0,0,327,81.92c-.11-5.93-.59-11.87-3.08-17.4-1.48-3.28-3.72-5.76-7.6-5.9a8.23,8.23,0,0,0-8,5.06,36.21,36.21,0,0,0-3.63,10.12c-1.29,8.48-2.13,17-2.86,25.6C300.84,111.28,300.07,123.19,299.2,135.08ZM94.72,202.33a44.93,44.93,0,0,0-16.94,5.72,1.93,1.93,0,0,0-.81,1.5c.81,11.1,1.71,22.2,2.54,33.3,1,12.72,1.62,25.44-1.1,38-2.52,11.64-6.84,22.26-18,29,.92.34,1.64.63,2.36.88,9.59,3.24,24.81-3.18,28.71-14.54,3.25-9.46,4.73-19.2,5.58-29.08a272.13,272.13,0,0,0,0-47.68C96.53,213.8,95.53,208.19,94.72,202.33Zm300.21,28.2a9.83,9.83,0,0,0-1.1.59c-5.68,4.1-11.39,8.16-17,12.38a8.59,8.59,0,0,0-2.5,3.37,55.46,55.46,0,0,0-4.62,25.57A23,23,0,0,1,365,287.83c-1.63,2.21-3.37,4.34-5.08,6.48-1.94,2.43-4,4.74-5.83,7.26a6.15,6.15,0,0,0,.34,7.48c1.61,2,4.07,2.63,6.87,1.48,9.49-3.9,17.52-9.65,22.12-19.11a138.63,138.63,0,0,0,7.12-17.15c3.69-11.17,4-22.86,4.41-34.49C395,236.78,394.93,233.77,394.93,230.53Z"/><path class="cls-1" d="M165.25,130.6c-.82,3.83-1.44,8-2.61,12-1.61,5.46-5.34,8.9-11,10.29a28.93,28.93,0,0,1-14.14.32c-9.67-2.38-11.78-10.6-9.29-18.4a6.46,6.46,0,0,1,.83-1.76c6.16-8.8,14.29-15.06,24.61-18.11,4.73-1.4,8.14.63,9.55,5.35C164.19,123.46,164.54,126.86,165.25,130.6Z"/><path class="cls-1" d="M279,389.56c.53,6.36-6.49,11.65-12.62,12.24-7.3.7-16.25-5.86-17.44-13.07a16.55,16.55,0,0,1,2.35-11.42,7.8,7.8,0,0,1,6.42-3.95,41.23,41.23,0,0,1,11.11.75C275.09,375.66,279,382,279,389.56Z"/><path class="cls-1" d="M374.23,338.61c-.29,7.24-4.81,11-11.34,9.4-3.25-.81-4.87-2.72-4.78-6a17.37,17.37,0,0,1,4-10.74c3.56-4.4,10.07-1.63,11.09,2.1C373.65,335.06,373.89,336.85,374.23,338.61Z"/><path class="cls-1" d="M168.34,260.06c-.27,1.7-.41,3.59-.86,5.4-1.1,4.46-3.87,6.74-8.45,6.39a85.88,85.88,0,0,1-10.85-1.91,5.72,5.72,0,0,1-2.25-1.23c-4.37-3.61-5-11.67-1.11-15.77A19,19,0,0,1,156,246.85c6-.87,10.55,2.41,11.73,8.3C168.06,256.7,168.14,258.3,168.34,260.06Z"/></g></g></svg>