<svg xmlns="http://www.w3.org/2000/svg" viewBox="0 0 500 628"><defs><style>.cls-1{fill:#fff;}</style></defs><g id="Layer_2" data-name="Layer 2"><g id="Layer_1-2" data-name="Layer 1"><path class="cls-1" d="M190.35,493.39l6.59,8.6c12.68-21,28.77-37.46,50.43-47.75,33.4-15.87,62.74-5.6,79.53,28.82,17.17-18,34.69-11.72,51.9-.36,17.45,11.52,21.47,29.88,23.2,48.72,13.95-11.85,27-23.85,41-34.57,18.84-14.42,32.87-6.94,36.53,15-41.39,26.34-62.07,66.47-67.81,116.18l-40.58-19.43c-7.86,1.63-18.06,5.39-28.2,5.23-6.13-.09-15-4.82-17.66-10-5.56-11-7.83-23.68-11.89-37.15,14.19,4.6,26,15.92,40.2,9.81l-39.91-42.21c-26.35,36.81-64.81,39-103.89,27.54l-31.73,20.16c-1.32-12.53-2.25-21.35-3-28.82-10.68-1.62-23-.67-32-5.67s-14.52-15.89-22-24.68c-.69.88-3.09,4.17-5.74,7.24-21,24.4-56.93,21.45-73.66-6C23,493.38,35.77,441.88,67,424c21.31-12.19,41.33-7.34,61.67,8.57-.63-6.75-1.09-11.6-1.76-18.81,9.69,1.62,19.15,2.28,27.85,5.19,2.85.95,5.37,7.79,5.27,11.87q-.9,36.85-3.28,73.67c-.62,9.44,2.35,14.65,12,13.79,3.6-.32,8.06-2.43,10.19-5.21C183.17,507.58,186,501.07,190.35,493.39Zm-67-17c-.15-2.34.09-4.14-.43-5.7-4.19-12.51-14.51-19.62-28.06-19.51s-22.86,7-27.38,20.36c-3.9,11.53-.11,27.22,8.18,33.93,8.8,7.11,22.54,6.32,29.22-3.35,5-7.22,7.45-16.21,11.62-25.73ZM221,526c26.13,7.62,56.93-1.5,66.39-20.26,3.08-6.1,3.06-15.25.82-21.77-.81-2.37-13-3.21-18.61-1.13C248.38,490.63,232.64,505.29,221,526Zm141.28-23.15C349.38,509.42,348,517.63,350.48,525s8.24,13.34,12.57,19.94l6-2.81C366.89,529.84,364.77,517.55,362.24,502.87Z"/><path class="cls-1" d="M368.33,76.7c-16.63,21-33.68,41.64-49.6,63.14a31.39,31.39,0,0,0-5.49,19.84c2.15,23.59,6.38,47,8.73,70.56A209.47,209.47,0,0,0,342.8,303c5,10.1,9.79,15.75,21.5,12.79,3.19-.81,6.76-.12,12.59-.12-10.14,12.55-18.77,23.94-28.2,34.63-6.16,7-11.18,4-15.09-3.36-8.63-16.27-16.54-33.07-26.82-48.25-5.25-7.75-14.13-15.8-22.81-18-29.27-7.38-59.07-12.95-88.91-17.64-14.8-2.33-24,5.95-29.38,20-2.13,5.57-6.76,10.18-10.25,15.23-4.79-4.11-10.9-7.39-14.14-12.49-13.26-20.9-11.09-27.64,11-38.57,5.5-2.72,11-6,16.87-7.33,24.75-5.72,41.41-21.12,53.64-42.54Q267,120.09,348.86,85c6.3-2.71,12.08-6.64,18.1-10Z"/><path class="cls-1" d="M130.08,318.07c136.85,1.61,256.37,40.38,355.49,133.13,1.93,1.8,4.34,3.34,5.61,5.53,3.22,5.55,5.91,11.4,8.82,17.13-6.59-.56-13.41-.26-19.68-2-4.37-1.2-8.27-4.83-11.88-7.95-81.21-70.05-176.22-107.08-282.18-117.68-53.66-5.36-107-1.93-160.07,7.17-5.75,1-12.74,1.06-17.66-1.41-4.17-2.1-7.18-8.22-8.51-13.16-.39-1.44,6.49-6.5,10.49-7.18,25.52-4.31,51.09-8.39,76.78-11.44C102.51,318.43,118,318.63,130.08,318.07Z"/><path class="cls-1" d="M310.79,61.09c-4.28,11.75-6.94,24.44-13.18,35-11.11,18.85-31,19.7-46.34,3.62-20.19-21.1-22.94-63.62-5.63-87,11.58-15.67,30.58-17,44.28-3.17C302,21.79,308.1,38.55,310.79,61.09Z"/><path class="cls-1" d="M88.39,379.32c.25,14.57-8.75,27.6-18.92,27.4-10-.19-17.4-9.44-17.74-22.22-.42-15.1,8.75-28.11,19.77-28.07C80.83,356.46,88.17,366.42,88.39,379.32Z"/><path class="cls-1" d="M94.69,390.4c0-13.86,8-25.61,17.49-25.88s17.88,10.89,17.9,23.81c0,13.48-8.34,25.66-17.72,25.8C102.3,414.28,94.67,404,94.69,390.4Z"/><path class="cls-1" d="M274.21,388.12c11.85-.22,19.82,8.17,20.07,21.1S286.73,434,277.75,434c-10.92.1-20-9.56-20.2-21.54C257.3,398.94,264.57,388.3,274.21,388.12Z"/></g></g></svg>