<svg xmlns="http://www.w3.org/2000/svg" viewBox="0 0 500 642.97"><defs><style>.cls-1{fill:#fff;}</style></defs><g id="Layer_2" data-name="Layer 2"><g id="Layer_1-2" data-name="Layer 1"><path class="cls-1" d="M455.92,282.26c-69.94-3.74-136.2,7.52-197.31,44.85-.2-3-.45-5.19-.46-7.37-.18-37.18-.45-74.37-.43-111.56q0-73,.61-146A17.7,17.7,0,0,1,263,51C302,11.71,350.2-2.79,404.37.7c15.41,1,30.65,4.64,46,7,4.35.68,6.22,2.6,6.21,7.52q-.26,130.73-.14,261.45C456.41,278.42,456.11,280.14,455.92,282.26Z"/><path class="cls-1" d="M241.84,327.67C211,308.2,179.18,296.24,145.53,289.2A365.18,365.18,0,0,0,43.9,282.5c-.15-3-.37-5.44-.37-7.91q0-128.82-.14-257.63c0-5.86,1.57-8.27,7.51-9.66,46.88-11,92.92-10.85,137.61,9.34,17.83,8.06,33.35,19.48,47.46,33,4.16,4,6.05,8,6,14-.27,35.42-.13,70.85-.13,106.27v157.8Z"/><path class="cls-1" d="M2.93,345.17V48.59H26.67V300.34c7.6-.48,14.14-.93,20.69-1.3,58.56-3.39,114.82,5.18,167.56,32.18a23.5,23.5,0,0,0,8,1.9c2.77.31,5.61-.07,8.4.09,28.94,1.65,56-2.32,83.44-14.43,42.76-18.87,89.1-22.51,135.7-19.93,6.87.38,13.73.89,20.6,1.28.43,0,.89-.38,2.11-.95V48.66h23.91V345.17H488q-91.79,0-183.55-.08c-5.37,0-8.94,1.35-13,5.46a50.34,50.34,0,0,1-18.6,11.31c-15.06,5.3-30.63,5-45.82.05-5.23-1.72-11.88-3.72-14.54-7.78-7.06-10.76-17.09-8.94-27-8.94q-86.8,0-173.61,0Z"/><path class="cls-1" d="M189.51,525.45h-7.65v41H199.2V535.14a9.7,9.7,0,0,0-9.69-9.69Z"/><path class="cls-1" d="M55.77,528.25a9.31,9.31,0,0,0-2.84,6.89v31.27H70.12v-41h-7.5A9.39,9.39,0,0,0,55.77,528.25Z"/><path class="cls-1" d="M472.94,450.33H27.06A27.13,27.13,0,0,0,0,477.38V615.91A27.14,27.14,0,0,0,27.06,643H472.94A27.14,27.14,0,0,0,500,615.91V477.38A27.13,27.13,0,0,0,472.94,450.33Zm-402.29,23a10,10,0,1,1-3,7.12A9.69,9.69,0,0,1,70.65,473.36Zm-22,0a9.83,9.83,0,0,1,7.16-2.95,10.07,10.07,0,0,1,0,20.14,9.87,9.87,0,0,1-7.16-2.95,10,10,0,0,1,0-14.24ZM121,619.93a10,10,0,1,1,3-7.11A9.7,9.7,0,0,1,121,619.93Zm22,0a9.43,9.43,0,0,1-7,3,9.66,9.66,0,0,1-7.15-3,10.13,10.13,0,0,1,0-14.23,9.65,9.65,0,0,1,7.15-3,9.42,9.42,0,0,1,7,3,10.23,10.23,0,0,1,0,14.23ZM408.68,506.07v50.65a29.28,29.28,0,0,1-29.07,29.07H46.72a12.7,12.7,0,0,1-13.17-13.17V535.14a27.92,27.92,0,0,1,8.55-20.55,28.07,28.07,0,0,1,20.52-8.52H89.5v60.34h26.8V519.77a3.87,3.87,0,0,1,4-4h11.36a3.88,3.88,0,0,1,4,4v46.64h26.8V519.24a12.7,12.7,0,0,1,13.17-13.17h13.86a29,29,0,0,1,29.07,29.07v31.27H244.4V483.58a12.7,12.7,0,0,1,13.17-13.17h1l13.7,35.66h-8.48v60.34h45.58a92.51,92.51,0,0,1-7.69-11.25,57.33,57.33,0,0,1-5-12.53,90,90,0,0,1-2.88-17.41,12.13,12.13,0,0,1,3.37-10,13.27,13.27,0,0,1,10-4H354a13.23,13.23,0,0,1,9.85,3.93,12.22,12.22,0,0,1,3.48,9.77q-.92,14.83-4.43,23.73a63.88,63.88,0,0,1-11.09,17.76h27.78a9.63,9.63,0,0,0,9.69-9.69V483.58a12.7,12.7,0,0,1,13.18-13.17h1l13.7,35.66Zm49.29,0v75.71a3.9,3.9,0,0,1-4,4H442.6a3.9,3.9,0,0,1-4-4v-98.2a12.7,12.7,0,0,1,13.17-13.17h1l13.7,35.66Z"/><path class="cls-1" d="M318.25,549.79a55.71,55.71,0,0,0,12.3,15.86q9.17-7.5,12.76-15.29T348,530.6h-34.6A54.27,54.27,0,0,0,318.25,549.79Z"/></g></g></svg>