<svg id="Ebene_1" data-name="Ebene 1" xmlns="http://www.w3.org/2000/svg" xmlns:xlink="http://www.w3.org/1999/xlink" viewBox="0 0 381.07 76.33"><defs><style>.cls-1{fill:none;}.cls-2{fill:#ed1c29;}.cls-3{fill:#fff;}.cls-4{clip-path:url(#clip-path);}.cls-5{fill:url(#Unbenannter_Verlauf);}.cls-6{fill:#ec1f2a;}.cls-7{fill:url(#Unbenannter_Verlauf_2);}</style><clipPath id="clip-path" transform="translate(0 0.04)"><path class="cls-1" d="M85.81,35.85a13.94,13.94,0,1,1,9,17.57,13.94,13.94,0,0,1-9-17.57v0Z"/></clipPath><radialGradient id="Unbenannter_Verlauf" cx="92.39" cy="1874.24" r="20.86" gradientTransform="translate(0.03 -1840.52)" gradientUnits="userSpaceOnUse"><stop offset="0.22" stop-color="#e2e2e2"/><stop offset="0.35" stop-color="#dee0e1"/><stop offset="0.47" stop-color="#d3dcdf"/><stop offset="0.59" stop-color="#c1d4dc"/><stop offset="0.7" stop-color="#a7c9d7"/><stop offset="0.81" stop-color="#85bbd1"/><stop offset="0.92" stop-color="#5dabca"/><stop offset="1" stop-color="#3a9cc4"/></radialGradient><radialGradient id="Unbenannter_Verlauf_2" cx="92.51" cy="1874.18" r="7.54" gradientTransform="translate(0.03 -1840.52)" gradientUnits="userSpaceOnUse"><stop offset="0.43" stop-color="#fff"/><stop offset="1" stop-color="#fff" stop-opacity="0"/></radialGradient></defs><title>logo-mobile</title><polygon class="cls-2" points="0.03 0 381 0.13 380.97 76.33 0 76.2 0.03 0"/><polygon class="cls-3" points="201.28 53.84 201.28 22.7 195.06 22.7 195.06 53.84 201.28 53.84"/><polygon class="cls-3" points="252.15 53.84 252.15 22.7 246.12 22.7 246.12 38.47 239.39 22.7 234.08 22.7 234.08 53.84 240.11 53.84 240.11 37.83 246.97 53.84 252.15 53.84"/><path class="cls-3" d="M306.37,53.79l-5.63-13.46c3.46-1.72,3.81-4.84,3.81-8.18,0-6-1.61-9.48-7.86-9.48h-9.95V53.79H293V41.67h2l4.88,12.12h6.49Zm-7.75-21.66c0,1.79-.13,3.93-2.49,3.93H293v-7.8h3.16c2.36,0,2.49,2.09,2.49,3.89h0Z" transform="translate(0 0.04)"/><path class="cls-3" d="M215.12,31.24c0-2.31.7-3.43,2.84-3.43s2.84,1.13,2.84,3.43v14c0,2.33-.7,3.43-2.84,3.43s-2.84-1.13-2.84-3.43v-14Zm12,7c0-7.52.21-9.84-2.25-12.82A8.38,8.38,0,0,0,218,22.31a8.2,8.2,0,0,0-6.84,3.11c-2.49,3-2.25,5.28-2.25,12.82s-.21,9.84,2.25,12.83a8.19,8.19,0,0,0,6.8,3.06A8.32,8.32,0,0,0,224.83,51c2.49-3,2.25-5.31,2.25-12.82h0Z" transform="translate(0 0.04)"/><path class="cls-3" d="M132.85,43.33h-5.23l2.63-13.54,2.6,13.54Zm8.5,10.46-8-31.12h-6.22l-8,31.12h6.38l.88-4.85H134l.88,4.85h6.47Z" transform="translate(0 0.04)"/><polygon class="cls-3" points="262.77 28.31 262.77 22.7 257.92 22.7 257.92 28.31 262.77 28.31"/><polygon class="cls-3" points="281.65 28.31 281.65 22.7 276.79 22.7 276.79 28.31 281.65 28.31"/><path class="cls-3" d="M272.34,43.33h-5.23l2.63-13.54,2.6,13.54Zm8.5,10.46-8-31.12h-6.22l-8,31.12H265l.89-4.85h7.59l.89,4.85h6.47Z" transform="translate(0 0.04)"/><polygon class="cls-3" points="189.48 28.23 189.48 22.7 170.63 22.7 170.63 28.23 176.96 28.23 176.96 53.84 183.16 53.84 183.16 28.23 189.48 28.23"/><polygon class="cls-3" points="168 53.84 159.32 36.41 166.24 22.7 160.04 22.7 153.82 36.09 153.82 22.7 147.6 22.7 147.6 53.84 153.82 53.84 153.82 45.61 155.56 41.98 161.35 53.84 168 53.84"/><path class="cls-3" d="M77.56,53.79,71.93,40.33c3.46-1.72,3.81-4.84,3.81-8.18,0-6-1.61-9.48-7.86-9.48H57.93V53.79h6.19V41.67h2.07l4.88,12.12ZM69.78,32.13c0,1.79-.13,3.93-2.49,3.93H64.12v-7.8h3.16c2.39,0,2.49,2.09,2.49,3.89h0Z" transform="translate(0 0.04)"/><path class="cls-3" d="M17.46,28.26h2.41c2.84,0,3.35,1.62,3.35,4.89V43.31c0,3.27-.51,4.88-3.35,4.88H17.46V28.26Zm-6,25.53H20.9c5.52,0,8.45-3,8.45-9.41V32c0-6.38-2.92-9.41-8.45-9.41H11.43V53.79h0Z" transform="translate(0 0.04)"/><polygon class="cls-3" points="51.09 53.84 51.09 48.23 42.67 48.23 42.67 40.94 49.4 40.94 49.4 35.33 42.67 35.33 42.67 28.31 51.09 28.31 51.09 22.7 36.48 22.7 36.48 53.84 51.09 53.84"/><path class="cls-3" d="M84.21,35.35A15.65,15.65,0,1,1,94.27,55.06h0A15.65,15.65,0,0,1,84.18,35.4h0v0h0Zm1.6.5a13.94,13.94,0,1,1,9,17.57,13.94,13.94,0,0,1-9-17.57v0Z" transform="translate(0 0.04)"/><g class="cls-4"><circle class="cls-5" cx="99.2" cy="40.32" r="14.59"/></g><g class="cls-4"><path class="cls-6" d="M103.43,52.18l-.24.17-.13.22-.11.12-.27.17-.16.19-.21.11-.16.08H102l-.21.35-.13.35v.22a7.52,7.52,0,0,0,.91-.22v-.11l.16-.16.27-.29.13-.23.21-.19.08-.27v-.22l.11-.16,0-.16h-.16Z" transform="translate(0 0.04)"/><polygon class="cls-6" points="99.95 29.73 99.63 29.65 99.44 29.76 99.25 29.78 99.09 29.78 98.82 29.81 98.77 29.94 98.77 30.13 98.9 30.24 99.04 30.35 99.33 30.51 99.63 30.45 99.92 30.24 99.95 30.02 100.03 29.92 99.95 29.73"/><path class="cls-6" d="M95.66,28.79h.24l.4-.05.21.09.32,0,.21.11h.32l.27.11.2.13.27.18.21.09.13-.09.08-.16.19-.3.29-.07.32.08.43.13h.56l.27,0,.29-.05.29-.05.16-.3.24-.48,0-.43V27l-.21-.11-.3-.18-.11-.19-.27-.3a15.31,15.31,0,0,0-2.79-.07l-.11.38v.18l-.11.14-.08.22-.11.16-.21.11-.21.14h-.29l-.24.05h-.21l-.19.16-.19.27-.13.19-.16.22-.16,0,.11.22Z" transform="translate(0 0.04)"/><path class="cls-6" d="M87,43.74l-.14-.16-.13-.11-.11-.16v-.66l0-.24-.24-.11h-.1l-.16-.11V42l.13-.16.24-.05.19-.11.16-.22v-.89l0-.22.07-.22v-.28l.09-.22-.11-.22v-.24L86.73,39V38.6l-.16-.13V38l.05-.13.08-.3-.16-.19-.11-.18-.19-.09L86.05,37l0-.19-.13-.27-.51-.37a13.87,13.87,0,0,0,.83,10.14l.19-.22.11-.28.19-.22.19-.19.13-.13.11-.27.11-.27v-.46l.12-.18-.11-.23Z" transform="translate(0 0.04)"/><polygon class="cls-6" points="99.01 33.51 98.85 33.57 98.71 33.73 98.8 33.94 98.82 34.13 98.98 34.13 99.12 33.94 99.12 33.65 99.01 33.51"/><polygon class="cls-6" points="100.03 33.89 99.97 33.7 99.84 33.57 99.76 33.4 99.92 33.24 99.87 33.05 99.65 33.14 99.52 33.38 99.49 33.54 99.39 33.7 99.55 33.83 99.47 33.97 99.41 34.1 99.3 34.21 99.17 34.26 99.09 34.4 99.2 34.48 99.33 34.61 99.6 34.58 99.81 34.64 99.97 34.56 99.95 34.4 99.89 34.23 99.95 34.02 100.03 33.89"/><polygon class="cls-6" points="103.38 40.19 103.62 40.14 103.49 39.97 103.19 39.79 103 39.81 102.9 39.97 103.08 40.14 103.38 40.19"/><path class="cls-6" d="M93.59,29.56h.24l.17-.18-.06-.21,0-.29v-.59l.11-.16.19-.23h.13l.13-.16.27-.13.16-.13.19-.11v-.24l.11-.28-.11-.27a14.6,14.6,0,0,0-5.23,2.71l.16.29.21.08.19.08.11.08.16.13L91,30h.16l.21,0h.19l.11-.23v-.14l-.11-.19h-.24l-.08-.16.07-.21.16.08h.21l.19.05.13-.05.27.13.29.11.19.11v.19h-.21l-.16.05-.16.11v.22l0,.18.19.05.16-.13h.51l.19-.16.05-.22-.05-.16.13-.16Z" transform="translate(0 0.04)"/><polygon class="cls-6" points="104.88 40.83 105.07 40.78 105.1 40.64 104.83 40.54 104.56 40.64 104.72 40.89 104.88 40.83"/><path class="cls-6" d="M107.43,29l-.35.29,0,.3.11.35-.19.24-.32.16-.22-.18-.16.15-.16.28-.19.27-.27.16v.24l.24.35-.19.24-.35.11-.46-.05-.29-.35.27-.22.15-.18,0-.28-.19-.36h-.4l-.4-.25-.47-.11-.35.13-.37.18-.37.41-.27.22-.27.48-.27.22-.32.22-.35.3v.35l0,.35v.23l.13.32.27,0,.11-.16h.32l.24-.08v.38l.11.35h.32l.4-.3.29-.27v-.28l-.19-.23v-.62l.46-.59.24-.29.08-.3.16.11.11.46-.16.32-.13.27-.21.18,0,.32.2.37.13.24h.38l.08.24-.21.13-.21.19-.4.13a.39.39,0,0,0-.16.32l-.16.22-.08.24-.27-.08-.4.08-.43,0-.21-.13v-.22l.19-.24v-.22l-.32.05-.16.15v.25l-.27.16-.24.08h-.24l-.16.16-.24.13-.37.07L99.6,35H99l0,.18v.59l-.11.16-.21.3a.57.57,0,0,1-.51,0l-.35-.16-.21-.14-.19.19-.16.31-.24.41-.13.38.11.21.19.22.21.27.21.48.27,0,.4-.13.46.05.16-.35,0-.19.29-.11.32-.16.43,0,.46,0,.29-.11.26.08.24.24.05.32.13.35,0,.3v.24l-.4.24-.27-.24,0,.35.27.24.4-.08.13-.27.32-.16.23.24V39l-.11-.34-.13-.25,0-.27-.08-.25v-.34l.16-.16.2.25V38l.11.34.16.16,0,.27.08.25.19.22.24.24.24-.3.11-.32-.11-.3.13-.13h.32l.48,0,.38-.16v-.52l.16-.13.24,0,.29.09.05.3.14.14.27,0,.4.09.24.11,0,.27-.35.24-.43.19-.34.06-.32-.16H104l-.19.16v.27l-.08.24.27.4.35.09h.49l.35,0,.38.11.16.19v.22l-.16.3-.32.11-.21.27-.21.29-.13.27-.21.11-.3-.24-.16-.24-.21-.05-.32-.11-.11-.23-.19-.16-.24.12-.21.22-.35-.16-.27-.16L102,41l-.35-.16-.27-.16-.21-.16-.21-.22.08-.15-.21-.23-.21-.22h-.29l-.48-.32-.35-.16h-.32l-.35,0-.37-.11L98.13,39l-.32-.24-.27.13-.35.11-.29.22h-.35l-.29.41-.26.16-.29.22h-.43l-.28.17-.27.31-.16.23-.24.16-.33.39-.13.27-.08.29v.32l-.05.34,0,.23-.16.27-.13.27.08.32v.4l.11.2.24.11v.91l.17.27.21.23V46l.27.16,0,.23.19.13.24.27.27.16.4-.05L96,47l.33.1.35,0,.32.11.16.19.13.27.27.22h0l-.11.24-.13.24-.11.32.11.4v.36l-.08.29-.11.24-.13.27v.21l-.19.29-.16.31h-.24l-.13.19v.22l-.06.29-.16.3-.21.37-.08.24-.16.27.08.22V54l.08.12a13.4,13.4,0,0,0,3.57.34l.59-.32.21-.11.24-.16.13-.19.27-.27.11-.24.27-.26h.59l.16-.35.27-.24.13-.32.08-.24-.08-.29.13-.27.11-.24.27-.11.16-.13.08-.24.19-.16h.27l.24-.16.27-.19.08-.29.29-.22.27-.24.28-.1.43-.14.56-.08v-.27l.24-.16.4-.13.27-.24.13-.19,0-.11.29-.35.24-.37.16-.22.27-.24-.13-.27h-.21l-.32.16-.27.11-.24,0-.27.13-.24-.08,0-.22L106,46v-.25l-.08-.29-.26-.32-.24-.23a.66.66,0,0,0-.21-.29v-.46l-.21-.52v-.35l0-.29V42.8l.16-.13.21.16.13.3.16.31.13.3v.65l.16.21.27.16.19.16.08.34v.25l.19.13.21-.08.27-.14.16-.22.38-.16.4-.19.51-.32.34-.4.32-.3.11-.24-.11-.24-.15-.22V42.9l-.17-.28-.24.16h-.27l-.24-.19L108,42.4l-.27-.16-.29-.25-.08-.27.27-.19.22.3.32.11.44.19H109l.32.27.24.08.24-.19.2-.16.32-.09.33.09.35.31.24.25.24.11.13.27-.08.24.08.32,0,.43v.24l.08.32.11.35.24-.46.32-.29.32-.22A14.31,14.31,0,0,0,107.43,29Zm1.85,10v.24l.08.16v.24l-.13.24L109,40l-.24-.11-.11-.27a.52.52,0,0,0,0-.35.85.85,0,0,1-.08-.35v-.3l-.08-.27-.16-.18,0-.23v-.22l.13-.22h.35l.24-.13.35.27-.13.22-.21.31v.37l.21-.08.24-.09v.45Zm1.45-1.66-.29.05-.29-.12V36.9l.19-.12.27,0,.16.16,0,.23Z" transform="translate(0 0.04)"/><polygon class="cls-6" points="100.48 38.44 100.48 38.23 100.54 37.96 100.32 37.99 100.19 38.23 100.22 38.53 100.32 38.58 100.48 38.44"/></g><g class="cls-4"><circle class="cls-7" cx="92.3" cy="33.22" r="8.23"/></g><path class="cls-3" d="M98.42,54.71l-.32-.43a21.23,21.23,0,0,0,3.14-3,22,22,0,0,1-5.15-1L94.9,54l-.51-.17,1.18-3.62a21,21,0,0,1-4.75-2.28,19.42,19.42,0,0,0,.78,4.29l-.51.17a21.52,21.52,0,0,1-.83-4.84,17.17,17.17,0,0,1-3.62-3.29,18.12,18.12,0,0,0,.72,3.72l-.5.19a18.14,18.14,0,0,1-.8-4.67,11.39,11.39,0,0,1-1.5-3l.51-.16a9.91,9.91,0,0,0,1,2.17,17,17,0,0,1,1.23-5.9A10.2,10.2,0,0,1,86,33.49l.51-.13a10.16,10.16,0,0,0,1,2.57,16.78,16.78,0,0,1,3.24-4.8,4.05,4.05,0,0,1-.14-2.64,1,1,0,0,1,.22-.36l.43.31a1.12,1.12,0,0,0-.11.25h0a3.25,3.25,0,0,0,0,2,17.65,17.65,0,0,1,3.62-2.75,1.88,1.88,0,0,1,0-1.38,2,2,0,0,1,.43-.71l.38.39a1.47,1.47,0,0,0-.32.5,1.56,1.56,0,0,0,0,1A15.72,15.72,0,0,1,98,26.6a17.4,17.4,0,0,1,2.47-.59,1.12,1.12,0,0,1,.7-.35v.24c.38,0,.75-.08,1.15-.11v.54a11.78,11.78,0,0,0-1.56.16c-.08.43.8,1.21,2.23,1.69a3.79,3.79,0,0,0,2.55.16,1.16,1.16,0,0,0,.21-.16,13.87,13.87,0,0,0-1.18-1l.35-.43c.29.24.59.51.89.78l.21-.22a1,1,0,0,1,.29.7,14.4,14.4,0,0,1,1.61,1.88h0a16.62,16.62,0,0,1,1.53,2.49,1.53,1.53,0,0,0,.62-.78,2.67,2.67,0,0,0,.08-.48h.54a2.8,2.8,0,0,1-.08.64,2,2,0,0,1-.89,1.1,16.69,16.69,0,0,1,1.34,4.34,3.2,3.2,0,0,0,1.21-1.64,1.57,1.57,0,0,0,.11-.35l.62.1a2,2,0,0,1-.13.43,3.91,3.91,0,0,1-1.64,2.07,17.72,17.72,0,0,1,0,4.77c-.05.32-.11.67-.19,1a9.91,9.91,0,0,0,2.39-1.5l.35.41a11.07,11.07,0,0,1-2.87,1.74,17.7,17.7,0,0,1-2.47,5.5,10.25,10.25,0,0,0,2.14-1.21l.32.43a11.19,11.19,0,0,1-3.06,1.56,18.21,18.21,0,0,1-3.38,3.3l-.41-.45a15.63,15.63,0,0,0,2.79-2.6,17.1,17.1,0,0,1-4.88.55A23.38,23.38,0,0,1,98.42,54.71Zm3.89-3.92a15.67,15.67,0,0,0,5-.75,16.65,16.65,0,0,0,2.76-5.6,17,17,0,0,1-4.85.86,20.19,20.19,0,0,1-2.94,5.49h0Zm-6.06-1a21.69,21.69,0,0,0,5.42.94,20.1,20.1,0,0,0,3-5.44,23,23,0,0,1-6.65-1ZM90.8,47.24a19.78,19.78,0,0,0,4.93,2.41l1.83-5.52a21.83,21.83,0,0,1-6-3.07,19,19,0,0,0-.78,6.22h0Zm-4.18-4a16.22,16.22,0,0,0,3.62,3.59,20.38,20.38,0,0,1,.86-6.16,16,16,0,0,1-3.43-3.54,16.32,16.32,0,0,0-1,6.15Zm11.61.46a20.83,20.83,0,0,0,6.65,1c.05-.13.08-.27.13-.4a21.11,21.11,0,0,0,1-5.17,20.33,20.33,0,0,1-6-.94Zm8.31-4.57a22.81,22.81,0,0,1-1,5.43,1.43,1.43,0,0,1-.08.22,15.33,15.33,0,0,0,4.83-.93,9.88,9.88,0,0,0,.24-1.32,17.5,17.5,0,0,0,.08-4.4,9.21,9.21,0,0,1-4,1h0Zm-14.8,1.36a21.28,21.28,0,0,0,6,3.11L99.54,38a20.66,20.66,0,0,1-5.39-2.76,20.58,20.58,0,0,0-2.29,4.86,1.35,1.35,0,0,0-.11.34h0Zm-3.83-4a15.89,15.89,0,0,0,3.35,3.64.19.19,0,0,1,0-.16,22.42,22.42,0,0,1,2.36-5A9.67,9.67,0,0,1,91,31.81a.24.24,0,0,1,0-.12A18.16,18.16,0,0,0,87.91,36.49Zm12.28,1.18a19.37,19.37,0,0,0,5.85.91,20.57,20.57,0,0,0-.46-5,15.41,15.41,0,0,1-3.81-.75Zm5.93-4.07a19.87,19.87,0,0,1,.46,4.93,9,9,0,0,0,4-1,16.31,16.31,0,0,0-1.31-4.4,7.07,7.07,0,0,1-3.12.47h0Zm-11.7,1.21a18.21,18.21,0,0,0,5.26,2.7l1.58-4.83A18.37,18.37,0,0,1,97.75,31,19,19,0,0,0,94.42,34.81Zm-3-3.51c0,.08.08.19.13.27A8.89,8.89,0,0,0,94,34.47a20.91,20.91,0,0,1,3.27-3.75A7.66,7.66,0,0,1,95,28.49a15.82,15.82,0,0,0-3.61,2.8ZM106,33.06a7,7,0,0,0,3-.43,17,17,0,0,0-1.5-2.44h0a19.36,19.36,0,0,0-1.37-1.63,1.31,1.31,0,0,1-.35.27,2.92,2.92,0,0,1-1.34.22A18.63,18.63,0,0,1,106,33.06Zm-4.08-.72a17.5,17.5,0,0,0,3.51.72A16.59,16.59,0,0,0,103.77,29l-.7-.16Zm-3.75-1.66a17.72,17.72,0,0,0,3.25,1.5l1.15-3.54a3.76,3.76,0,0,1-.62-.27,15.46,15.46,0,0,0-3.79,2.31h0ZM95.5,28.24a6.63,6.63,0,0,0,2.2,2.11A16.72,16.72,0,0,1,101.37,28a2.18,2.18,0,0,1-1.13-1.39,14.89,14.89,0,0,0-2.07.51,16.12,16.12,0,0,0-2.69,1.09h0Z" transform="translate(0 0.04)"/><rect x="313.5" y="0.12" width="67.57" height="76.2"/><path class="cls-3" d="M322.54,28.19V22.74H345v5.48h-8.2V54.13h-6.11V28.19h-8.15Z" transform="translate(0 0.04)"/><path class="cls-3" d="M346.46,22.74h6.33l6.3,20.39,6.3-20.41h6.38L361.37,54h-4.58Z" transform="translate(0 0.04)"/></svg>